%TF.GenerationSoftware,KiCad,Pcbnew,7.0.7*%
%TF.CreationDate,2023-12-31T15:53:54-05:00*%
%TF.ProjectId,TeenieWeenie,5465656e-6965-4576-9565-6e69652e6b69,rev?*%
%TF.SameCoordinates,Original*%
%TF.FileFunction,Copper,L4,Bot*%
%TF.FilePolarity,Positive*%
%FSLAX46Y46*%
G04 Gerber Fmt 4.6, Leading zero omitted, Abs format (unit mm)*
G04 Created by KiCad (PCBNEW 7.0.7) date 2023-12-31 15:53:54*
%MOMM*%
%LPD*%
G01*
G04 APERTURE LIST*
G04 Aperture macros list*
%AMRoundRect*
0 Rectangle with rounded corners*
0 $1 Rounding radius*
0 $2 $3 $4 $5 $6 $7 $8 $9 X,Y pos of 4 corners*
0 Add a 4 corners polygon primitive as box body*
4,1,4,$2,$3,$4,$5,$6,$7,$8,$9,$2,$3,0*
0 Add four circle primitives for the rounded corners*
1,1,$1+$1,$2,$3*
1,1,$1+$1,$4,$5*
1,1,$1+$1,$6,$7*
1,1,$1+$1,$8,$9*
0 Add four rect primitives between the rounded corners*
20,1,$1+$1,$2,$3,$4,$5,0*
20,1,$1+$1,$4,$5,$6,$7,0*
20,1,$1+$1,$6,$7,$8,$9,0*
20,1,$1+$1,$8,$9,$2,$3,0*%
G04 Aperture macros list end*
%TA.AperFunction,ComponentPad*%
%ADD10R,1.800000X1.800000*%
%TD*%
%TA.AperFunction,ComponentPad*%
%ADD11C,1.800000*%
%TD*%
%TA.AperFunction,ComponentPad*%
%ADD12RoundRect,0.750000X0.750000X-1.250000X0.750000X1.250000X-0.750000X1.250000X-0.750000X-1.250000X0*%
%TD*%
%TA.AperFunction,ComponentPad*%
%ADD13R,0.850000X0.850000*%
%TD*%
%TA.AperFunction,ComponentPad*%
%ADD14R,3.500000X3.500000*%
%TD*%
%TA.AperFunction,ComponentPad*%
%ADD15RoundRect,0.750000X-1.000000X0.750000X-1.000000X-0.750000X1.000000X-0.750000X1.000000X0.750000X0*%
%TD*%
%TA.AperFunction,ComponentPad*%
%ADD16RoundRect,0.875000X-0.875000X0.875000X-0.875000X-0.875000X0.875000X-0.875000X0.875000X0.875000X0*%
%TD*%
%TA.AperFunction,ComponentPad*%
%ADD17C,1.600000*%
%TD*%
%TA.AperFunction,ComponentPad*%
%ADD18O,0.850000X0.850000*%
%TD*%
%TA.AperFunction,ViaPad*%
%ADD19C,0.450000*%
%TD*%
%TA.AperFunction,ViaPad*%
%ADD20C,0.700000*%
%TD*%
%TA.AperFunction,Conductor*%
%ADD21C,0.127000*%
%TD*%
%TA.AperFunction,Conductor*%
%ADD22C,0.500000*%
%TD*%
%TA.AperFunction,Conductor*%
%ADD23C,2.000000*%
%TD*%
G04 APERTURE END LIST*
D10*
%TO.P,RV1,1,1*%
%TO.N,Net-(R20-Pad1)*%
X22432000Y49477000D03*
D11*
%TO.P,RV1,2,2*%
%TO.N,/ADC/POT1*%
X24932000Y49477000D03*
%TO.P,RV1,3,3*%
%TO.N,GND*%
X27432000Y49477000D03*
D12*
%TO.P,RV1,MP*%
%TO.N,N/C*%
X19632000Y56477000D03*
X30232000Y56477000D03*
%TD*%
D13*
%TO.P,J6,1,Pin_1*%
%TO.N,/IOSwitch/AudioOut_R*%
X48260000Y10414000D03*
%TD*%
%TO.P,J8,1,Pin_1*%
%TO.N,GND*%
X48260000Y14224000D03*
%TD*%
D14*
%TO.P,J1,1*%
%TO.N,VDD*%
X25400000Y80307000D03*
D15*
%TO.P,J1,2*%
%TO.N,GND*%
X25400000Y86307000D03*
D16*
%TO.P,J1,3*%
%TO.N,N/C*%
X20700000Y83307000D03*
%TD*%
D10*
%TO.P,RV8,1,1*%
%TO.N,Net-(R37-Pad1)*%
X40300000Y70447000D03*
D11*
%TO.P,RV8,2,2*%
%TO.N,/ADC/POT8*%
X42800000Y70447000D03*
%TO.P,RV8,3,3*%
%TO.N,GND*%
X45300000Y70447000D03*
D12*
%TO.P,RV8,MP*%
%TO.N,N/C*%
X37500000Y77447000D03*
X48100000Y77447000D03*
%TD*%
D13*
%TO.P,J4,1,Pin_1*%
%TO.N,GND*%
X2540000Y14224000D03*
%TD*%
%TO.P,J3,1,Pin_1*%
%TO.N,/AFE/AudioR_Raw*%
X2540000Y10414000D03*
%TD*%
D10*
%TO.P,RV2,1,1*%
%TO.N,Net-(R21-Pad1)*%
X5500000Y40447000D03*
D11*
%TO.P,RV2,2,2*%
%TO.N,/ADC/POT2*%
X8000000Y40447000D03*
%TO.P,RV2,3,3*%
%TO.N,GND*%
X10500000Y40447000D03*
D12*
%TO.P,RV2,MP*%
%TO.N,N/C*%
X2700000Y47447000D03*
X13300000Y47447000D03*
%TD*%
D13*
%TO.P,J5,1,Pin_1*%
%TO.N,/IOSwitch/AudioOut_L*%
X48260000Y18034000D03*
%TD*%
%TO.P,J2,1,Pin_1*%
%TO.N,/AFE/AudioL_Raw*%
X2540000Y18034000D03*
%TD*%
D17*
%TO.P,U2,1,GND*%
%TO.N,GND*%
X33020000Y6350000D03*
%TO.P,U2,2,0_RX1_CRX2_CS1*%
%TO.N,/MCU/~{ADC_IRQ0}*%
X33020000Y8890000D03*
%TO.P,U2,3,1_TX1_CTX2_MISO1*%
%TO.N,/MCU/~{ADC_IRQ1}*%
X33020000Y11430000D03*
%TO.P,U2,4,2_OUT2*%
%TO.N,Net-(U2-2_OUT2)*%
X33020000Y13970000D03*
%TO.P,U2,5,3_LRCLK2*%
%TO.N,Net-(U2-3_LRCLK2)*%
X33020000Y16510000D03*
%TO.P,U2,6,4_BCLK2*%
%TO.N,/MCU/~{SWCTRL}*%
X33020000Y19050000D03*
%TO.P,U2,7,5_IN2*%
%TO.N,/MCU/~{BTN}*%
X33020000Y21590000D03*
%TO.P,U2,8,6_OUT1D*%
%TO.N,unconnected-(U2-6_OUT1D-Pad8)*%
X33020000Y24130000D03*
%TO.P,U2,9,7_RX2_OUT1A*%
%TO.N,/MCU/DACDAT*%
X33020000Y26670000D03*
%TO.P,U2,10,8_TX2_IN1*%
%TO.N,/MCU/ADCDAT*%
X33020000Y29210000D03*
%TO.P,U2,11,9_OUT1C*%
%TO.N,unconnected-(U2-9_OUT1C-Pad11)*%
X33020000Y31750000D03*
%TO.P,U2,12,10_CS_MQSR*%
%TO.N,Net-(U2-10_CS_MQSR)*%
X33020000Y34290000D03*
%TO.P,U2,13,11_MOSI_CTX1*%
%TO.N,Net-(U2-11_MOSI_CTX1)*%
X33020000Y36830000D03*
%TO.P,U2,14,12_MISO_MQSL*%
%TO.N,Net-(U2-12_MISO_MQSL)*%
X33020000Y39370000D03*
%TO.P,U2,20,13_SCK_CRX1_LED*%
%TO.N,Net-(U2-13_SCK_CRX1_LED)*%
X17780000Y39370000D03*
%TO.P,U2,21,14_A0_TX3_SPDIF_OUT*%
%TO.N,unconnected-(U2-14_A0_TX3_SPDIF_OUT-Pad21)*%
X17780000Y36830000D03*
%TO.P,U2,22,15_A1_RX3_SPDIF_IN*%
%TO.N,unconnected-(U2-15_A1_RX3_SPDIF_IN-Pad22)*%
X17780000Y34290000D03*
%TO.P,U2,23,16_A2_RX4_SCL1*%
%TO.N,unconnected-(U2-16_A2_RX4_SCL1-Pad23)*%
X17780000Y31750000D03*
%TO.P,U2,24,17_A3_TX4_SDA1*%
%TO.N,unconnected-(U2-17_A3_TX4_SDA1-Pad24)*%
X17780000Y29210000D03*
%TO.P,U2,25,18_A4_SDA0*%
%TO.N,/ADC/SDA*%
X17780000Y26670000D03*
%TO.P,U2,26,19_A5_SCL0*%
%TO.N,/ADC/SCL*%
X17780000Y24130000D03*
%TO.P,U2,27,20_A6_TX5_LRCLK1*%
%TO.N,/MCU/LRCLK*%
X17780000Y21590000D03*
%TO.P,U2,28,21_A7_RX5_BCLK1*%
%TO.N,/MCU/BCLK*%
X17780000Y19050000D03*
%TO.P,U2,29,22_A8_CTX1*%
%TO.N,/MCU/CODC_IRQ*%
X17780000Y16510000D03*
%TO.P,U2,30,23_A9_CRX1_MCLK1*%
%TO.N,/MCU/MCLK*%
X17780000Y13970000D03*
%TO.P,U2,31,3V3*%
%TO.N,+3V3*%
X17780000Y11430000D03*
%TO.P,U2,32,GND*%
%TO.N,GND*%
X17780000Y8890000D03*
%TO.P,U2,33,VIN*%
%TO.N,unconnected-(U2-VIN-Pad33)*%
X17780000Y6350000D03*
%TD*%
D10*
%TO.P,RV4,1,1*%
%TO.N,Net-(R33-Pad1)*%
X5500000Y70447000D03*
D11*
%TO.P,RV4,2,2*%
%TO.N,/ADC/POT4*%
X8000000Y70447000D03*
%TO.P,RV4,3,3*%
%TO.N,GND*%
X10500000Y70447000D03*
D12*
%TO.P,RV4,MP*%
%TO.N,N/C*%
X2700000Y77447000D03*
X13300000Y77447000D03*
%TD*%
D10*
%TO.P,D1,1,K*%
%TO.N,Net-(D1-K)*%
X24125000Y44196000D03*
D11*
%TO.P,D1,2,A*%
%TO.N,Net-(D1-A)*%
X26665000Y44196000D03*
%TD*%
D10*
%TO.P,RV7,1,1*%
%TO.N,Net-(R36-Pad1)*%
X22500000Y64247000D03*
D11*
%TO.P,RV7,2,2*%
%TO.N,/ADC/POT7*%
X25000000Y64247000D03*
%TO.P,RV7,3,3*%
%TO.N,GND*%
X27500000Y64247000D03*
D12*
%TO.P,RV7,MP*%
%TO.N,N/C*%
X19700000Y71247000D03*
X30300000Y71247000D03*
%TD*%
D10*
%TO.P,RV3,1,1*%
%TO.N,Net-(R32-Pad1)*%
X5500000Y55447000D03*
D11*
%TO.P,RV3,2,2*%
%TO.N,/ADC/POT3*%
X8000000Y55447000D03*
%TO.P,RV3,3,3*%
%TO.N,GND*%
X10500000Y55447000D03*
D12*
%TO.P,RV3,MP*%
%TO.N,N/C*%
X2700000Y62447000D03*
X13300000Y62447000D03*
%TD*%
D13*
%TO.P,SW1,1,1*%
%TO.N,GND*%
X19075400Y44085000D03*
D18*
%TO.P,SW1,2,2*%
%TO.N,/MCU/~{BTN}*%
X19075400Y45085000D03*
%TD*%
D10*
%TO.P,RV5,1,1*%
%TO.N,Net-(R34-Pad1)*%
X40300000Y40447000D03*
D11*
%TO.P,RV5,2,2*%
%TO.N,/ADC/POT5*%
X42800000Y40447000D03*
%TO.P,RV5,3,3*%
%TO.N,GND*%
X45300000Y40447000D03*
D12*
%TO.P,RV5,MP*%
%TO.N,N/C*%
X37500000Y47447000D03*
X48100000Y47447000D03*
%TD*%
D10*
%TO.P,RV6,1,1*%
%TO.N,Net-(R35-Pad1)*%
X40300000Y55447000D03*
D11*
%TO.P,RV6,2,2*%
%TO.N,/ADC/POT6*%
X42800000Y55447000D03*
%TO.P,RV6,3,3*%
%TO.N,GND*%
X45300000Y55447000D03*
D12*
%TO.P,RV6,MP*%
%TO.N,N/C*%
X37500000Y62447000D03*
X48100000Y62447000D03*
%TD*%
D19*
%TO.N,GND*%
X22098000Y33147000D03*
X3810000Y19558000D03*
X41275000Y11293399D03*
X42418000Y28575000D03*
X20066000Y12827000D03*
X9525000Y31877000D03*
X19558000Y49530000D03*
X31496000Y31242000D03*
X15875000Y30988000D03*
X12192000Y32893000D03*
X12395200Y34544000D03*
X26035000Y17526000D03*
X12192000Y24003000D03*
X3175000Y8255000D03*
X15875000Y35687000D03*
X19812000Y15621000D03*
X24638000Y16383000D03*
X7112000Y34798000D03*
X13411200Y34544000D03*
X29718000Y21463000D03*
X42418000Y11303000D03*
X26543000Y11430000D03*
X6223000Y26035000D03*
X32639000Y44323000D03*
X7162800Y30480000D03*
X16002000Y22225000D03*
X6731000Y5207000D03*
X8382000Y27178000D03*
X20574000Y40259000D03*
X12446000Y16764000D03*
X10414000Y29845000D03*
X12192000Y23114000D03*
X4572000Y34594800D03*
X15494000Y17526000D03*
X26035000Y16383000D03*
X7010400Y32766000D03*
X5588000Y16256000D03*
X21082000Y37973000D03*
X12192000Y15621000D03*
X30988000Y24638000D03*
X9525000Y13843000D03*
X10363200Y34594800D03*
X24638000Y17526000D03*
X16002000Y21336000D03*
X19304000Y19685000D03*
X28956000Y11430000D03*
X5588000Y34645600D03*
X28829000Y18415000D03*
X2413000Y16764000D03*
X14859000Y16637000D03*
X13716000Y25781000D03*
X39751000Y42164000D03*
X24003000Y11176000D03*
X30353000Y35560000D03*
X4826000Y30073600D03*
X37719000Y42037000D03*
X9779000Y27940000D03*
X7239000Y26035000D03*
X8890000Y32639000D03*
X1524000Y34645600D03*
X31750000Y45339000D03*
X10160000Y32512000D03*
X42291000Y27178000D03*
X7747000Y16256000D03*
X28956000Y44958000D03*
X43561000Y27305000D03*
X9271000Y29464000D03*
X7162800Y36372800D03*
X27940000Y20193000D03*
X30353000Y33274000D03*
X15875000Y33020000D03*
X40259000Y26797000D03*
X9194800Y34544000D03*
X2590800Y34645600D03*
X16129000Y18669000D03*
%TO.N,/MCU/~{ADC_IRQ0}*%
X3657600Y30276800D03*
X12395200Y8280400D03*
%TO.N,/MCU/~{ADC_IRQ1}*%
X9398000Y30429200D03*
X14579600Y8382000D03*
%TO.N,Net-(U2-3_LRCLK2)*%
X26543000Y27940000D03*
X30988000Y27940000D03*
X25089400Y39842000D03*
X26162000Y33655000D03*
%TO.N,/MCU/~{SWCTRL}*%
X43688000Y14478000D03*
X36322000Y13335000D03*
X30226000Y39878000D03*
X35560000Y27432000D03*
%TO.N,/MCU/DACDAT*%
X21310600Y15265400D03*
%TO.N,/MCU/ADCDAT*%
X20726400Y15853001D03*
%TO.N,+3V3*%
X15748000Y69850000D03*
X11176000Y18923000D03*
X11811000Y28829000D03*
X38328600Y32308800D03*
X39497000Y30251400D03*
X14859000Y24257000D03*
X15748000Y54737000D03*
X29337000Y41529000D03*
X38989000Y29006800D03*
X15748000Y53340000D03*
X35052000Y39624000D03*
X9144000Y17297400D03*
X35052000Y54610000D03*
X38328600Y31191200D03*
X32766000Y41402000D03*
X14859000Y25527000D03*
X11938000Y21082000D03*
D20*
X39497000Y12954000D03*
D19*
X14224000Y28956000D03*
X38963600Y27787600D03*
X38252400Y30251400D03*
X21336000Y41910000D03*
X12700000Y30099000D03*
X11176000Y19685000D03*
X32639000Y49784000D03*
X38252400Y27787600D03*
X24130000Y39878000D03*
X38303200Y28956000D03*
X3606800Y28803600D03*
X10795000Y21082000D03*
X24130000Y38735000D03*
X39471600Y32308800D03*
X17272000Y63500000D03*
X39471600Y31216600D03*
X34925000Y69596000D03*
%TO.N,/MCU/MCLK*%
X18923000Y17399000D03*
%TO.N,/MCU/BCLK*%
X19558000Y16891000D03*
%TO.N,/MCU/LRCLK*%
X20066000Y16383000D03*
%TO.N,/ADC/SCL*%
X21971000Y14097000D03*
X19812000Y22987000D03*
X21971000Y22987000D03*
%TO.N,/ADC/SDA*%
X22479000Y24003000D03*
X22580600Y13335000D03*
%TO.N,+1V0*%
X38989000Y21844000D03*
X37846000Y21844000D03*
X29210000Y15621000D03*
X37846000Y22733000D03*
X26365200Y13665200D03*
X38989000Y22733000D03*
%TO.N,+1V8*%
X24638000Y20320000D03*
X27432000Y13589000D03*
X40640000Y25400000D03*
X39751000Y25400000D03*
X41529000Y25400000D03*
X25273000Y13589000D03*
X38862000Y25400000D03*
%TO.N,/AudioCodec/LINEOUTL*%
X39260900Y10185400D03*
X30226000Y10160000D03*
%TO.N,/IOSwitch/AudioOut_L*%
X42799000Y12319000D03*
%TO.N,VDD*%
X43434000Y33782000D03*
X41656000Y33782000D03*
X41656000Y30988000D03*
X46736000Y33782000D03*
X45212000Y33782000D03*
X48768000Y33782000D03*
X41656000Y32512000D03*
X48768000Y31242000D03*
%TO.N,/AFE/AudioL_Raw*%
X8890000Y6096000D03*
%TD*%
D21*
%TO.N,/MCU/MCLK*%
X18923000Y17399000D02*
X18923000Y15250533D01*
X18923000Y15250533D02*
X17780000Y14107533D01*
X17780000Y14107533D02*
X17780000Y13970000D01*
%TO.N,/MCU/BCLK*%
X19050000Y19050000D02*
X17780000Y19050000D01*
X19558000Y16891000D02*
X19558000Y18542000D01*
X19558000Y18542000D02*
X19050000Y19050000D01*
%TO.N,/MCU/LRCLK*%
X20066000Y21170900D02*
X19646900Y21590000D01*
X20066000Y16383000D02*
X20066000Y21170900D01*
X19646900Y21590000D02*
X17780000Y21590000D01*
%TO.N,/ADC/SCL*%
X21971000Y14097000D02*
X21971000Y22987000D01*
%TO.N,/ADC/SDA*%
X22580600Y23901400D02*
X22479000Y24003000D01*
X22580600Y13335000D02*
X22580600Y23901400D01*
%TO.N,/MCU/~{ADC_IRQ0}*%
X3657600Y30276800D02*
X3454400Y30276800D01*
X8534400Y16865600D02*
X8534400Y12141200D01*
X2082800Y28905200D02*
X2082800Y23317200D01*
X8534400Y12141200D02*
X12395200Y8280400D01*
X2082800Y23317200D02*
X8534400Y16865600D01*
X3454400Y30276800D02*
X2082800Y28905200D01*
%TO.N,/MCU/~{ADC_IRQ1}*%
X10566400Y4368800D02*
X14579600Y8382000D01*
X8280400Y31546800D02*
X3048000Y31546800D01*
X9398000Y30429200D02*
X8280400Y31546800D01*
X5181600Y8382000D02*
X9194800Y4368800D01*
X1066800Y29565600D02*
X1066800Y16002000D01*
X1270000Y15798800D02*
X4216400Y15798800D01*
X5181600Y14833600D02*
X5181600Y8382000D01*
X3048000Y31546800D02*
X1066800Y29565600D01*
X4216400Y15798800D02*
X5181600Y14833600D01*
X9194800Y4368800D02*
X10566400Y4368800D01*
X1066800Y16002000D02*
X1270000Y15798800D01*
%TO.N,Net-(U2-3_LRCLK2)*%
X26162000Y38769400D02*
X25089400Y39842000D01*
X26162000Y33655000D02*
X26162000Y38769400D01*
X30988000Y27940000D02*
X26543000Y27940000D01*
%TO.N,/MCU/~{SWCTRL}*%
X35560000Y33254017D02*
X33254017Y35560000D01*
X30226000Y37592000D02*
X30226000Y39116000D01*
X39243000Y14478000D02*
X43688000Y14478000D01*
X37465000Y14478000D02*
X39243000Y14478000D01*
X33254017Y35560000D02*
X32258000Y35560000D01*
X32258000Y35560000D02*
X30226000Y37592000D01*
X36322000Y13335000D02*
X37465000Y14478000D01*
X35560000Y27432000D02*
X35560000Y33254017D01*
X30226000Y39116000D02*
X30226000Y39878000D01*
%TO.N,/MCU/DACDAT*%
X21310600Y15265400D02*
X21310600Y24307800D01*
X21310600Y24307800D02*
X23672800Y26670000D01*
X23672800Y26670000D02*
X33020000Y26670000D01*
%TO.N,/MCU/ADCDAT*%
X24841200Y29210000D02*
X33020000Y29210000D01*
X20726400Y25095200D02*
X24841200Y29210000D01*
X20726400Y15853001D02*
X20726400Y25095200D01*
%TO.N,/ADC/SCL*%
X17780000Y24130000D02*
X18923000Y22987000D01*
X18923000Y22987000D02*
X19812000Y22987000D01*
D22*
%TO.N,+1V0*%
X26416000Y13683399D02*
X26416000Y13589000D01*
X27952601Y15220000D02*
X26416000Y13683399D01*
X26321601Y13589000D02*
X26355800Y13623199D01*
X37846000Y17018000D02*
X37846000Y21844000D01*
X37846000Y17018000D02*
X36048000Y15220000D01*
X26416000Y13589000D02*
X26321601Y13589000D01*
X36048000Y15220000D02*
X27952601Y15220000D01*
%TO.N,+1V8*%
X26142000Y12720000D02*
X27432000Y12720000D01*
X27455800Y13623199D02*
X27455800Y13612800D01*
X27432000Y12720000D02*
X34564000Y12720000D01*
X41529000Y19685000D02*
X41529000Y25400000D01*
X27455800Y12743800D02*
X27432000Y12720000D01*
X38862000Y25400000D02*
X36322000Y22860000D01*
X27178000Y22860000D02*
X24638000Y20320000D01*
X34564000Y12720000D02*
X41529000Y19685000D01*
X36322000Y22860000D02*
X27178000Y22860000D01*
X27432000Y13589000D02*
X27455800Y13565200D01*
X27455800Y13565200D02*
X27455800Y12743800D01*
X25273000Y13589000D02*
X26142000Y12720000D01*
X27455800Y13612800D02*
X27432000Y13589000D01*
D21*
%TO.N,/AudioCodec/LINEOUTL*%
X30226000Y10160000D02*
X39235500Y10160000D01*
X39235500Y10160000D02*
X39260900Y10185400D01*
%TO.N,/IOSwitch/AudioOut_L*%
X42799000Y12319000D02*
X48260000Y17780000D01*
X48260000Y17780000D02*
X48260000Y18034000D01*
D23*
%TO.N,VDD*%
X44704000Y49276000D02*
X44704000Y45720000D01*
X48006000Y67818000D02*
X45212000Y65024000D01*
X47752000Y42672000D02*
X47752000Y34798000D01*
X44704000Y45720000D02*
X47752000Y42672000D01*
X48006000Y72136000D02*
X48006000Y67818000D01*
X48006000Y56134000D02*
X48006000Y52578000D01*
X48006000Y52578000D02*
X44704000Y49276000D01*
X40259000Y81788000D02*
X42037000Y80010000D01*
X26881000Y81788000D02*
X40259000Y81788000D01*
X42037000Y78105000D02*
X48006000Y72136000D01*
X45212000Y58928000D02*
X48006000Y56134000D01*
X47752000Y34798000D02*
X47400000Y34446000D01*
X25400000Y80307000D02*
X26881000Y81788000D01*
X42037000Y80010000D02*
X42037000Y78105000D01*
X45212000Y65024000D02*
X45212000Y58928000D01*
D21*
%TO.N,/AFE/AudioL_Raw*%
X8890000Y6096000D02*
X6959600Y8026400D01*
X5537200Y18034000D02*
X2540000Y18034000D01*
X6959600Y16611600D02*
X5537200Y18034000D01*
X6959600Y8026400D02*
X6959600Y16611600D01*
%TD*%
%TA.AperFunction,Conductor*%
%TO.N,+3V3*%
G36*
X12127780Y21384417D02*
G01*
X12188811Y21372277D01*
X12233509Y21353763D01*
X12274896Y21326109D01*
X12309109Y21291896D01*
X12336762Y21250509D01*
X12355276Y21205813D01*
X12367417Y21144781D01*
X12369800Y21120588D01*
X12369800Y20840213D01*
X12367417Y20816020D01*
X12355276Y20754988D01*
X12336762Y20710292D01*
X12309109Y20668905D01*
X12274895Y20634691D01*
X12233508Y20607038D01*
X12188812Y20588524D01*
X12140789Y20578971D01*
X12127778Y20576383D01*
X12103588Y20574000D01*
X11684000Y20574000D01*
X11684000Y20320006D01*
X11684000Y20320005D01*
X11684000Y18681213D01*
X11681617Y18657020D01*
X11669476Y18595988D01*
X11650962Y18551292D01*
X11623309Y18509905D01*
X11589095Y18475691D01*
X11547708Y18448038D01*
X11503012Y18429524D01*
X11454989Y18419971D01*
X11441978Y18417383D01*
X11417788Y18415000D01*
X10604012Y18415000D01*
X10579821Y18417383D01*
X10563490Y18420632D01*
X10518787Y18429524D01*
X10474091Y18448038D01*
X10432704Y18475691D01*
X10398491Y18509904D01*
X10370837Y18551292D01*
X10352323Y18595990D01*
X10340183Y18657022D01*
X10337800Y18681213D01*
X10337800Y21120588D01*
X10340183Y21144779D01*
X10352323Y21205811D01*
X10370837Y21250509D01*
X10398493Y21291900D01*
X10432700Y21326107D01*
X10474092Y21353764D01*
X10518789Y21372277D01*
X10579821Y21384417D01*
X10604012Y21386800D01*
X12103588Y21386800D01*
X12127780Y21384417D01*
G37*
%TD.AperFunction*%
%TD*%
%TA.AperFunction,Conductor*%
%TO.N,+1V0*%
G36*
X39497039Y23218315D02*
G01*
X39542794Y23165511D01*
X39554000Y23114000D01*
X39554000Y21462000D01*
X39534315Y21394961D01*
X39481511Y21349206D01*
X39430000Y21338000D01*
X37378000Y21338000D01*
X37310961Y21357685D01*
X37265206Y21410489D01*
X37254000Y21462000D01*
X37254000Y23032824D01*
X37273685Y23099863D01*
X37290319Y23120505D01*
X37371495Y23201681D01*
X37432818Y23235166D01*
X37459176Y23238000D01*
X39430000Y23238000D01*
X39497039Y23218315D01*
G37*
%TD.AperFunction*%
%TD*%
%TA.AperFunction,Conductor*%
%TO.N,+3V3*%
G36*
X39929039Y33080115D02*
G01*
X39974794Y33027311D01*
X39986000Y32975800D01*
X39986000Y29623800D01*
X39966315Y29556761D01*
X39913511Y29511006D01*
X39862000Y29499800D01*
X39486000Y29499800D01*
X39486000Y27323800D01*
X39466315Y27256761D01*
X39413511Y27211006D01*
X39362000Y27199800D01*
X38010000Y27199800D01*
X37942961Y27219485D01*
X37897206Y27272289D01*
X37886000Y27323800D01*
X37886000Y32975800D01*
X37905685Y33042839D01*
X37958489Y33088594D01*
X38010000Y33099800D01*
X39862000Y33099800D01*
X39929039Y33080115D01*
G37*
%TD.AperFunction*%
%TD*%
%TA.AperFunction,Conductor*%
%TO.N,+1V8*%
G36*
X41997039Y26018315D02*
G01*
X42042794Y25965511D01*
X42054000Y25914000D01*
X42054000Y24762000D01*
X42034315Y24694961D01*
X41981511Y24649206D01*
X41930000Y24638000D01*
X38478000Y24638000D01*
X38410961Y24657685D01*
X38365206Y24710489D01*
X38354000Y24762000D01*
X38354000Y25914000D01*
X38373685Y25981039D01*
X38426489Y26026794D01*
X38478000Y26038000D01*
X41930000Y26038000D01*
X41997039Y26018315D01*
G37*
%TD.AperFunction*%
%TD*%
%TA.AperFunction,Conductor*%
%TO.N,GND*%
G36*
X48262018Y88346367D02*
G01*
X48448581Y88334140D01*
X48522158Y88329318D01*
X48530191Y88328260D01*
X48767754Y88281006D01*
X48783869Y88277800D01*
X48791712Y88275699D01*
X49036644Y88192556D01*
X49044118Y88189460D01*
X49276107Y88075056D01*
X49283129Y88071001D01*
X49498191Y87927301D01*
X49504627Y87922362D01*
X49699085Y87751826D01*
X49704825Y87746086D01*
X49875361Y87551628D01*
X49880304Y87545187D01*
X50023999Y87330132D01*
X50028057Y87323103D01*
X50099416Y87178401D01*
X50142453Y87091132D01*
X50145560Y87083631D01*
X50228698Y86838712D01*
X50230799Y86830870D01*
X50281257Y86577205D01*
X50282317Y86569156D01*
X50299367Y86309019D01*
X50299500Y86304963D01*
X50299500Y5082038D01*
X50299367Y5077982D01*
X50282317Y4817845D01*
X50281257Y4809796D01*
X50230799Y4556131D01*
X50228698Y4548289D01*
X50145560Y4303370D01*
X50142453Y4295869D01*
X50028058Y4063899D01*
X50023999Y4056869D01*
X49880304Y3841814D01*
X49875361Y3835373D01*
X49704825Y3640915D01*
X49699085Y3635175D01*
X49504627Y3464639D01*
X49498186Y3459696D01*
X49283131Y3316001D01*
X49276101Y3311942D01*
X49044131Y3197547D01*
X49036630Y3194440D01*
X48791711Y3111302D01*
X48783869Y3109201D01*
X48530204Y3058743D01*
X48522155Y3057683D01*
X48262018Y3040633D01*
X48257962Y3040500D01*
X2542038Y3040500D01*
X2537982Y3040633D01*
X2277844Y3057683D01*
X2269795Y3058743D01*
X2016130Y3109201D01*
X2008288Y3111302D01*
X1850361Y3164911D01*
X1763363Y3194443D01*
X1755874Y3197545D01*
X1523897Y3311943D01*
X1516868Y3316001D01*
X1301813Y3459696D01*
X1295372Y3464639D01*
X1100914Y3635175D01*
X1095174Y3640915D01*
X924638Y3835373D01*
X919699Y3841809D01*
X775999Y4056871D01*
X771944Y4063893D01*
X657540Y4295882D01*
X654444Y4303356D01*
X571301Y4548289D01*
X569200Y4556131D01*
X557224Y4616337D01*
X518740Y4809809D01*
X517682Y4817846D01*
X515929Y4844587D01*
X510944Y4920654D01*
X500633Y5077982D01*
X500567Y5080000D01*
X1184341Y5080000D01*
X1204936Y4844597D01*
X1204938Y4844587D01*
X1266094Y4616345D01*
X1266096Y4616341D01*
X1266097Y4616337D01*
X1294172Y4556131D01*
X1365964Y4402172D01*
X1365965Y4402170D01*
X1501505Y4208598D01*
X1668597Y4041506D01*
X1862169Y3905966D01*
X1862171Y3905965D01*
X2076337Y3806097D01*
X2304592Y3744937D01*
X2481034Y3729500D01*
X2598966Y3729500D01*
X2775408Y3744937D01*
X3003663Y3806097D01*
X3217829Y3905965D01*
X3411401Y4041505D01*
X3578495Y4208599D01*
X3714035Y4402170D01*
X3813903Y4616337D01*
X3875063Y4844592D01*
X3895659Y5080000D01*
X3875063Y5315408D01*
X3813903Y5543663D01*
X3714035Y5757829D01*
X3714034Y5757831D01*
X3578494Y5951403D01*
X3411402Y6118495D01*
X3217830Y6254035D01*
X3217828Y6254036D01*
X3110746Y6303970D01*
X3003663Y6353903D01*
X3003659Y6353904D01*
X3003655Y6353906D01*
X2775413Y6415062D01*
X2775403Y6415064D01*
X2598966Y6430500D01*
X2481034Y6430500D01*
X2304596Y6415064D01*
X2304586Y6415062D01*
X2076344Y6353906D01*
X2076335Y6353902D01*
X1862171Y6254036D01*
X1862169Y6254035D01*
X1668597Y6118495D01*
X1501506Y5951403D01*
X1501501Y5951396D01*
X1365967Y5757835D01*
X1365965Y5757831D01*
X1266098Y5543665D01*
X1266094Y5543656D01*
X1204938Y5315414D01*
X1204936Y5315404D01*
X1184341Y5080001D01*
X1184341Y5080000D01*
X500567Y5080000D01*
X500500Y5082038D01*
X500500Y9963937D01*
X1860500Y9963937D01*
X1875266Y9889699D01*
X1931515Y9805516D01*
X1965234Y9782986D01*
X2015699Y9749266D01*
X2015702Y9749266D01*
X2015703Y9749265D01*
X2038423Y9744746D01*
X2089933Y9734500D01*
X2990066Y9734501D01*
X3064301Y9749266D01*
X3148484Y9805516D01*
X3204734Y9889699D01*
X3219500Y9963933D01*
X3219499Y10864066D01*
X3204734Y10938301D01*
X3186068Y10966236D01*
X3148484Y11022485D01*
X3098019Y11056204D01*
X3064301Y11078734D01*
X3064299Y11078735D01*
X3064296Y11078736D01*
X2990069Y11093500D01*
X2089936Y11093500D01*
X2015698Y11078734D01*
X1931515Y11022485D01*
X1875266Y10938301D01*
X1875264Y10938297D01*
X1860500Y10864072D01*
X1860500Y9963937D01*
X500500Y9963937D01*
X500500Y15944928D01*
X510507Y15979012D01*
X506960Y15985756D01*
X739690Y15985756D01*
X743477Y15979863D01*
X744276Y15977019D01*
X755341Y15935717D01*
X756512Y15930437D01*
X763367Y15891561D01*
X765527Y15885627D01*
X771482Y15871249D01*
X774146Y15865537D01*
X774147Y15865535D01*
X774148Y15865534D01*
X796803Y15833179D01*
X799702Y15828627D01*
X819440Y15794440D01*
X841689Y15775771D01*
X849685Y15769061D01*
X853675Y15765405D01*
X1033403Y15585677D01*
X1037054Y15581693D01*
X1062440Y15551440D01*
X1062442Y15551439D01*
X1062443Y15551438D01*
X1096629Y15531700D01*
X1101191Y15528793D01*
X1133531Y15506149D01*
X1139273Y15503472D01*
X1153597Y15497539D01*
X1159555Y15495371D01*
X1159560Y15495368D01*
X1198453Y15488511D01*
X1203714Y15487344D01*
X1241857Y15477123D01*
X1281190Y15480565D01*
X1286592Y15480800D01*
X4033318Y15480800D01*
X4100357Y15461115D01*
X4120999Y15444481D01*
X4827281Y14738200D01*
X4860766Y14676877D01*
X4863600Y14650519D01*
X4863600Y8398593D01*
X4863364Y8393186D01*
X4859922Y8353856D01*
X4870141Y8315718D01*
X4871312Y8310437D01*
X4878167Y8271561D01*
X4880327Y8265627D01*
X4886282Y8251249D01*
X4888946Y8245537D01*
X4888947Y8245535D01*
X4888948Y8245534D01*
X4911603Y8213179D01*
X4914502Y8208627D01*
X4934240Y8174440D01*
X4953689Y8158120D01*
X4964485Y8149061D01*
X4968475Y8145405D01*
X8958203Y4155677D01*
X8961854Y4151693D01*
X8987240Y4121440D01*
X8987242Y4121439D01*
X8987243Y4121438D01*
X9021429Y4101700D01*
X9025991Y4098793D01*
X9058331Y4076149D01*
X9064073Y4073472D01*
X9078397Y4067539D01*
X9084355Y4065371D01*
X9084360Y4065368D01*
X9123253Y4058511D01*
X9128514Y4057344D01*
X9166657Y4047123D01*
X9205990Y4050565D01*
X9211392Y4050800D01*
X10549808Y4050800D01*
X10555209Y4050565D01*
X10594543Y4047123D01*
X10632694Y4057347D01*
X10637945Y4058511D01*
X10676840Y4065368D01*
X10676841Y4065369D01*
X10682827Y4067547D01*
X10697104Y4073462D01*
X10702866Y4076148D01*
X10735206Y4098793D01*
X10735215Y4098800D01*
X10739768Y4101700D01*
X10773960Y4121440D01*
X10799345Y4151694D01*
X10802986Y4155668D01*
X11727318Y5080000D01*
X46904341Y5080000D01*
X46924936Y4844597D01*
X46924938Y4844587D01*
X46986094Y4616345D01*
X46986096Y4616341D01*
X46986097Y4616337D01*
X47014172Y4556131D01*
X47085964Y4402172D01*
X47085965Y4402170D01*
X47221505Y4208598D01*
X47388597Y4041506D01*
X47582169Y3905966D01*
X47582171Y3905965D01*
X47796337Y3806097D01*
X48024592Y3744937D01*
X48201034Y3729500D01*
X48318966Y3729500D01*
X48495408Y3744937D01*
X48723663Y3806097D01*
X48937829Y3905965D01*
X49131401Y4041505D01*
X49298495Y4208599D01*
X49434035Y4402170D01*
X49533903Y4616337D01*
X49595063Y4844592D01*
X49615659Y5080000D01*
X49595063Y5315408D01*
X49533903Y5543663D01*
X49434035Y5757829D01*
X49434034Y5757831D01*
X49298494Y5951403D01*
X49131402Y6118495D01*
X48937830Y6254035D01*
X48937828Y6254036D01*
X48830745Y6303970D01*
X48723663Y6353903D01*
X48723659Y6353904D01*
X48723655Y6353906D01*
X48495413Y6415062D01*
X48495403Y6415064D01*
X48318966Y6430500D01*
X48201034Y6430500D01*
X48024596Y6415064D01*
X48024586Y6415062D01*
X47796344Y6353906D01*
X47796335Y6353902D01*
X47582171Y6254036D01*
X47582169Y6254035D01*
X47388597Y6118495D01*
X47221506Y5951403D01*
X47221501Y5951396D01*
X47085967Y5757835D01*
X47085965Y5757831D01*
X46986098Y5543665D01*
X46986094Y5543656D01*
X46924938Y5315414D01*
X46924936Y5315404D01*
X46904341Y5080001D01*
X46904341Y5080000D01*
X11727318Y5080000D01*
X12997319Y6350000D01*
X16720398Y6350000D01*
X16740757Y6143284D01*
X16801056Y5944504D01*
X16898969Y5761323D01*
X16898974Y5761316D01*
X17030747Y5600748D01*
X17100315Y5543656D01*
X17191317Y5468973D01*
X17191320Y5468972D01*
X17191322Y5468970D01*
X17374503Y5371057D01*
X17374505Y5371057D01*
X17374508Y5371055D01*
X17573282Y5310758D01*
X17780000Y5290398D01*
X17986718Y5310758D01*
X18185492Y5371055D01*
X18368683Y5468973D01*
X18529252Y5600748D01*
X18661027Y5761317D01*
X18758945Y5944508D01*
X18819242Y6143282D01*
X18839602Y6350000D01*
X18819242Y6556718D01*
X18758945Y6755492D01*
X18758943Y6755495D01*
X18758943Y6755497D01*
X18661030Y6938678D01*
X18661028Y6938680D01*
X18661027Y6938683D01*
X18620950Y6987517D01*
X18529252Y7099253D01*
X18368684Y7231026D01*
X18368677Y7231031D01*
X18185496Y7328944D01*
X17986716Y7389243D01*
X17780000Y7409602D01*
X17573283Y7389243D01*
X17374503Y7328944D01*
X17191322Y7231031D01*
X17191315Y7231026D01*
X17030747Y7099253D01*
X16898974Y6938685D01*
X16898969Y6938678D01*
X16801056Y6755497D01*
X16740757Y6556717D01*
X16720398Y6350000D01*
X12997319Y6350000D01*
X14513500Y7866181D01*
X14574824Y7899666D01*
X14601182Y7902500D01*
X14648542Y7902500D01*
X14780840Y7941346D01*
X14896835Y8015891D01*
X14987129Y8120097D01*
X15044408Y8245520D01*
X15064031Y8382000D01*
X15044408Y8518480D01*
X15017883Y8576561D01*
X14987131Y8643900D01*
X14987129Y8643902D01*
X14987129Y8643903D01*
X14896835Y8748109D01*
X14780840Y8822654D01*
X14780838Y8822655D01*
X14780836Y8822656D01*
X14648543Y8861500D01*
X14648542Y8861500D01*
X14510658Y8861500D01*
X14510657Y8861500D01*
X14378363Y8822656D01*
X14262364Y8748109D01*
X14172071Y8643903D01*
X14172068Y8643900D01*
X14114792Y8518481D01*
X14114791Y8518479D01*
X14095213Y8382311D01*
X14066188Y8318756D01*
X14060156Y8312278D01*
X10470999Y4723119D01*
X10409676Y4689634D01*
X10383318Y4686800D01*
X9377882Y4686800D01*
X9310843Y4706485D01*
X9290201Y4723119D01*
X8564004Y5449316D01*
X8530519Y5510639D01*
X8535503Y5580331D01*
X8577375Y5636264D01*
X8642839Y5660681D01*
X8686620Y5655974D01*
X8821057Y5616500D01*
X8821058Y5616500D01*
X8958942Y5616500D01*
X9091240Y5655346D01*
X9207235Y5729891D01*
X9297529Y5834097D01*
X9354808Y5959520D01*
X9374431Y6096000D01*
X9354808Y6232480D01*
X9328283Y6290561D01*
X9297531Y6357900D01*
X9297529Y6357902D01*
X9297529Y6357903D01*
X9207235Y6462109D01*
X9091240Y6536654D01*
X9091238Y6536655D01*
X9091236Y6536656D01*
X8958943Y6575500D01*
X8958942Y6575500D01*
X8911582Y6575500D01*
X8844543Y6595185D01*
X8823901Y6611819D01*
X7313919Y8121801D01*
X7280434Y8183124D01*
X7277600Y8209482D01*
X7277600Y16595009D01*
X7277836Y16600416D01*
X7281277Y16639742D01*
X7271058Y16677876D01*
X7269890Y16683143D01*
X7263032Y16722040D01*
X7263031Y16722042D01*
X7260867Y16727988D01*
X7254934Y16742311D01*
X7252250Y16748068D01*
X7229605Y16780409D01*
X7226698Y16784972D01*
X7206959Y16819162D01*
X7181681Y16840372D01*
X7176706Y16844547D01*
X7172734Y16848186D01*
X5773795Y18247125D01*
X5770139Y18251115D01*
X5762745Y18259926D01*
X5744760Y18281360D01*
X5710573Y18301098D01*
X5706021Y18303997D01*
X5673666Y18326652D01*
X5673665Y18326653D01*
X5673663Y18326654D01*
X5667951Y18329318D01*
X5653573Y18335273D01*
X5647639Y18337433D01*
X5608763Y18344288D01*
X5603482Y18345459D01*
X5565344Y18355678D01*
X5533685Y18352908D01*
X5526009Y18352236D01*
X5520608Y18352000D01*
X3343499Y18352000D01*
X3276460Y18371685D01*
X3230705Y18424489D01*
X3219499Y18476000D01*
X3219499Y18484064D01*
X3219499Y18484066D01*
X3204734Y18558301D01*
X3186068Y18586236D01*
X3148484Y18642485D01*
X3098019Y18676204D01*
X3064301Y18698734D01*
X3064299Y18698735D01*
X3064296Y18698736D01*
X2990069Y18713500D01*
X2089936Y18713500D01*
X2015698Y18698734D01*
X1931515Y18642485D01*
X1875266Y18558301D01*
X1875264Y18558297D01*
X1860500Y18484072D01*
X1860500Y17583937D01*
X1875266Y17509699D01*
X1931515Y17425516D01*
X1964986Y17403152D01*
X2015699Y17369266D01*
X2015702Y17369266D01*
X2015703Y17369265D01*
X2040666Y17364300D01*
X2089933Y17354500D01*
X2990066Y17354501D01*
X3064301Y17369266D01*
X3148484Y17425516D01*
X3204734Y17509699D01*
X3219500Y17583933D01*
X3219500Y17592001D01*
X3239185Y17659039D01*
X3291989Y17704794D01*
X3343500Y17716000D01*
X5354118Y17716000D01*
X5421157Y17696315D01*
X5441799Y17679681D01*
X6605281Y16516199D01*
X6638766Y16454876D01*
X6641600Y16428518D01*
X6641600Y8042993D01*
X6641364Y8037586D01*
X6637922Y7998256D01*
X6648141Y7960118D01*
X6649312Y7954837D01*
X6656167Y7915961D01*
X6658327Y7910027D01*
X6664282Y7895649D01*
X6666946Y7889937D01*
X6666947Y7889935D01*
X6666948Y7889934D01*
X6689603Y7857579D01*
X6692502Y7853027D01*
X6712240Y7818840D01*
X6733620Y7800900D01*
X6742485Y7793461D01*
X6746475Y7789805D01*
X8370556Y6165724D01*
X8404041Y6104401D01*
X8405613Y6095690D01*
X8425191Y5959525D01*
X8425192Y5959520D01*
X8451859Y5901128D01*
X8461802Y5831970D01*
X8432777Y5768415D01*
X8373998Y5730641D01*
X8304129Y5730641D01*
X8251383Y5761937D01*
X5535919Y8477401D01*
X5502434Y8538724D01*
X5499600Y8565082D01*
X5499600Y14817009D01*
X5499836Y14822416D01*
X5501270Y14838798D01*
X5503277Y14861743D01*
X5493056Y14899886D01*
X5491887Y14905157D01*
X5485032Y14944040D01*
X5485029Y14944045D01*
X5482861Y14950003D01*
X5476928Y14964327D01*
X5474251Y14970069D01*
X5451607Y15002409D01*
X5448700Y15006971D01*
X5428962Y15041157D01*
X5428961Y15041158D01*
X5428960Y15041160D01*
X5398707Y15066546D01*
X5394723Y15070197D01*
X4452995Y16011925D01*
X4449339Y16015915D01*
X4442629Y16023911D01*
X4423960Y16046160D01*
X4389773Y16065898D01*
X4385221Y16068797D01*
X4352866Y16091452D01*
X4352865Y16091453D01*
X4352863Y16091454D01*
X4347151Y16094118D01*
X4332773Y16100073D01*
X4326839Y16102233D01*
X4287963Y16109088D01*
X4282682Y16110259D01*
X4244544Y16120478D01*
X4212885Y16117708D01*
X4205209Y16117036D01*
X4199808Y16116800D01*
X1508800Y16116800D01*
X1441761Y16136485D01*
X1396006Y16189289D01*
X1384800Y16240800D01*
X1384800Y23289056D01*
X1761122Y23289056D01*
X1771341Y23250918D01*
X1772512Y23245637D01*
X1779367Y23206761D01*
X1781527Y23200827D01*
X1787482Y23186449D01*
X1790146Y23180737D01*
X1790147Y23180735D01*
X1790148Y23180734D01*
X1812803Y23148379D01*
X1815702Y23143827D01*
X1835440Y23109640D01*
X1857689Y23090971D01*
X1865685Y23084261D01*
X1869675Y23080605D01*
X8180082Y16770198D01*
X8213566Y16708877D01*
X8216400Y16682519D01*
X8216400Y12157793D01*
X8216164Y12152386D01*
X8212722Y12113056D01*
X8222941Y12074918D01*
X8224112Y12069637D01*
X8230967Y12030761D01*
X8233127Y12024827D01*
X8239082Y12010449D01*
X8241746Y12004737D01*
X8241747Y12004735D01*
X8241748Y12004734D01*
X8264403Y11972379D01*
X8267302Y11967827D01*
X8287040Y11933640D01*
X8309289Y11914971D01*
X8317285Y11908261D01*
X8321275Y11904605D01*
X11875756Y8350124D01*
X11909241Y8288801D01*
X11910813Y8280090D01*
X11930391Y8143923D01*
X11930392Y8143920D01*
X11987668Y8018501D01*
X11987670Y8018499D01*
X11987671Y8018497D01*
X12077965Y7914291D01*
X12193960Y7839746D01*
X12193962Y7839746D01*
X12193963Y7839745D01*
X12326257Y7800900D01*
X12326258Y7800900D01*
X12464142Y7800900D01*
X12596440Y7839746D01*
X12712435Y7914291D01*
X12802729Y8018497D01*
X12860008Y8143920D01*
X12879631Y8280400D01*
X12860008Y8416880D01*
X12829123Y8484508D01*
X12802731Y8542300D01*
X12802729Y8542302D01*
X12802729Y8542303D01*
X12712435Y8646509D01*
X12596440Y8721054D01*
X12596438Y8721055D01*
X12596436Y8721056D01*
X12464143Y8759900D01*
X12464142Y8759900D01*
X12416782Y8759900D01*
X12349743Y8779585D01*
X12329101Y8796219D01*
X9695320Y11430000D01*
X16720398Y11430000D01*
X16740757Y11223284D01*
X16801056Y11024504D01*
X16898969Y10841323D01*
X16898974Y10841316D01*
X17030747Y10680748D01*
X17097393Y10626054D01*
X17191317Y10548973D01*
X17191320Y10548972D01*
X17191322Y10548970D01*
X17374503Y10451057D01*
X17374505Y10451057D01*
X17374508Y10451055D01*
X17573282Y10390758D01*
X17780000Y10370398D01*
X17986718Y10390758D01*
X18185492Y10451055D01*
X18368683Y10548973D01*
X18529252Y10680748D01*
X18661027Y10841317D01*
X18758945Y11024508D01*
X18819242Y11223282D01*
X18839602Y11430000D01*
X18819242Y11636718D01*
X18758945Y11835492D01*
X18758943Y11835495D01*
X18758943Y11835497D01*
X18661030Y12018678D01*
X18661028Y12018680D01*
X18661027Y12018683D01*
X18603087Y12089283D01*
X18529252Y12179253D01*
X18368684Y12311026D01*
X18368677Y12311031D01*
X18185496Y12408944D01*
X17986716Y12469243D01*
X17780000Y12489602D01*
X17573283Y12469243D01*
X17374503Y12408944D01*
X17191322Y12311031D01*
X17191315Y12311026D01*
X17030747Y12179253D01*
X16898974Y12018685D01*
X16898969Y12018678D01*
X16801056Y11835497D01*
X16740757Y11636717D01*
X16720398Y11430000D01*
X9695320Y11430000D01*
X8888719Y12236601D01*
X8855234Y12297924D01*
X8852400Y12324282D01*
X8852400Y13970001D01*
X16720398Y13970001D01*
X16740757Y13763284D01*
X16801056Y13564504D01*
X16898969Y13381323D01*
X16898974Y13381316D01*
X17030747Y13220748D01*
X17142483Y13129050D01*
X17191317Y13088973D01*
X17191320Y13088972D01*
X17191322Y13088970D01*
X17374503Y12991057D01*
X17374505Y12991057D01*
X17374508Y12991055D01*
X17573282Y12930758D01*
X17780000Y12910398D01*
X17986718Y12930758D01*
X18185492Y12991055D01*
X18368683Y13088973D01*
X18529252Y13220748D01*
X18661027Y13381317D01*
X18723199Y13497632D01*
X18758943Y13564504D01*
X18758943Y13564505D01*
X18758945Y13564508D01*
X18819242Y13763282D01*
X18839602Y13970000D01*
X18819242Y14176718D01*
X18758945Y14375492D01*
X18711289Y14464648D01*
X18697048Y14533050D01*
X18722048Y14598294D01*
X18732960Y14610775D01*
X19136132Y15013947D01*
X19140106Y15017588D01*
X19170360Y15042973D01*
X19190100Y15077165D01*
X19193004Y15081723D01*
X19215652Y15114067D01*
X19218338Y15119829D01*
X19224253Y15134106D01*
X19226431Y15140091D01*
X19226431Y15140092D01*
X19226432Y15140093D01*
X19233289Y15178988D01*
X19234453Y15184239D01*
X19244677Y15222390D01*
X19241235Y15261723D01*
X19241000Y15267126D01*
X19241000Y16318692D01*
X19260685Y16385731D01*
X19313489Y16431486D01*
X19382647Y16441430D01*
X19399931Y16437670D01*
X19420992Y16431486D01*
X19497568Y16409001D01*
X19497078Y16407334D01*
X19551001Y16382716D01*
X19588783Y16323942D01*
X19592548Y16306640D01*
X19601191Y16246522D01*
X19601192Y16246520D01*
X19658468Y16121101D01*
X19658470Y16121099D01*
X19658471Y16121097D01*
X19748765Y16016891D01*
X19864760Y15942346D01*
X19864762Y15942346D01*
X19864763Y15942345D01*
X19997057Y15903500D01*
X20127262Y15903500D01*
X20194301Y15883815D01*
X20240056Y15831011D01*
X20249999Y15797148D01*
X20250389Y15794440D01*
X20261591Y15716524D01*
X20261592Y15716521D01*
X20318868Y15591102D01*
X20318870Y15591100D01*
X20318871Y15591098D01*
X20409165Y15486892D01*
X20525160Y15412347D01*
X20525162Y15412347D01*
X20525163Y15412346D01*
X20657457Y15373501D01*
X20703180Y15373501D01*
X20770219Y15353816D01*
X20815974Y15301012D01*
X20825918Y15267148D01*
X20845791Y15128922D01*
X20845792Y15128920D01*
X20903068Y15003501D01*
X20903070Y15003499D01*
X20903071Y15003497D01*
X20976585Y14918656D01*
X20992861Y14899872D01*
X20993365Y14899291D01*
X21109360Y14824746D01*
X21109362Y14824746D01*
X21109363Y14824745D01*
X21241657Y14785900D01*
X21241658Y14785900D01*
X21379542Y14785900D01*
X21494066Y14819527D01*
X21563935Y14819527D01*
X21622713Y14781753D01*
X21651738Y14718197D01*
X21653000Y14700550D01*
X21653000Y14508477D01*
X21633315Y14441438D01*
X21622714Y14427276D01*
X21563473Y14358908D01*
X21563468Y14358900D01*
X21506192Y14233481D01*
X21506191Y14233479D01*
X21486569Y14097000D01*
X21506191Y13960522D01*
X21506192Y13960520D01*
X21563468Y13835101D01*
X21563470Y13835099D01*
X21563471Y13835097D01*
X21653765Y13730891D01*
X21769760Y13656346D01*
X21769762Y13656346D01*
X21769763Y13656345D01*
X21902057Y13617500D01*
X21993683Y13617500D01*
X22060722Y13597815D01*
X22106477Y13545011D01*
X22116421Y13475853D01*
X22115792Y13471481D01*
X22115792Y13471480D01*
X22102828Y13381316D01*
X22096169Y13335000D01*
X22115791Y13198522D01*
X22115792Y13198520D01*
X22173068Y13073101D01*
X22173070Y13073099D01*
X22173071Y13073097D01*
X22263365Y12968891D01*
X22379360Y12894346D01*
X22379362Y12894346D01*
X22379363Y12894345D01*
X22511657Y12855500D01*
X22511658Y12855500D01*
X22649542Y12855500D01*
X22781840Y12894346D01*
X22897835Y12968891D01*
X22988129Y13073097D01*
X23045408Y13198520D01*
X23065031Y13335000D01*
X23045408Y13471480D01*
X23012773Y13542940D01*
X22988131Y13596900D01*
X22988126Y13596908D01*
X22928886Y13665276D01*
X22899862Y13728832D01*
X22898600Y13746477D01*
X22898600Y19050001D01*
X31960398Y19050001D01*
X31980757Y18843284D01*
X32041056Y18644504D01*
X32138969Y18461323D01*
X32138972Y18461319D01*
X32138973Y18461317D01*
X32146629Y18451988D01*
X32270747Y18300748D01*
X32331226Y18251115D01*
X32431317Y18168973D01*
X32431320Y18168972D01*
X32431322Y18168970D01*
X32614503Y18071057D01*
X32614505Y18071057D01*
X32614508Y18071055D01*
X32813282Y18010758D01*
X33020000Y17990398D01*
X33226718Y18010758D01*
X33425492Y18071055D01*
X33608683Y18168973D01*
X33769252Y18300748D01*
X33901027Y18461317D01*
X33998945Y18644508D01*
X34059242Y18843282D01*
X34079602Y19050000D01*
X34059242Y19256718D01*
X33998945Y19455492D01*
X33998943Y19455495D01*
X33998943Y19455497D01*
X33901030Y19638678D01*
X33901028Y19638680D01*
X33901027Y19638683D01*
X33818504Y19739238D01*
X33769252Y19799253D01*
X33608684Y19931026D01*
X33608677Y19931031D01*
X33425496Y20028944D01*
X33226716Y20089243D01*
X33020000Y20109602D01*
X32813283Y20089243D01*
X32614503Y20028944D01*
X32431322Y19931031D01*
X32431315Y19931026D01*
X32270747Y19799253D01*
X32138974Y19638685D01*
X32138969Y19638678D01*
X32041056Y19455497D01*
X31980757Y19256717D01*
X31960398Y19050001D01*
X22898600Y19050001D01*
X22898600Y20283640D01*
X24129611Y20283640D01*
X24160447Y20141883D01*
X24160448Y20141881D01*
X24229970Y20014561D01*
X24229972Y20014558D01*
X24229974Y20014555D01*
X24332555Y19911974D01*
X24332558Y19911972D01*
X24332560Y19911971D01*
X24404560Y19872656D01*
X24459882Y19842448D01*
X24601640Y19811611D01*
X24746342Y19821960D01*
X24882267Y19872657D01*
X24969221Y19937750D01*
X27350651Y22319182D01*
X27411975Y22352666D01*
X27438333Y22355500D01*
X32026602Y22355500D01*
X32093641Y22335815D01*
X32139396Y22283011D01*
X32149340Y22213853D01*
X32135960Y22173047D01*
X32041056Y21995497D01*
X31980757Y21796717D01*
X31960398Y21590001D01*
X31980757Y21383284D01*
X32041056Y21184504D01*
X32138969Y21001323D01*
X32138972Y21001319D01*
X32138973Y21001317D01*
X32152005Y20985437D01*
X32270747Y20840748D01*
X32339601Y20784242D01*
X32431317Y20708973D01*
X32431320Y20708972D01*
X32431322Y20708970D01*
X32614503Y20611057D01*
X32614505Y20611057D01*
X32614508Y20611055D01*
X32813282Y20550758D01*
X33020000Y20530398D01*
X33226718Y20550758D01*
X33425492Y20611055D01*
X33608683Y20708973D01*
X33769252Y20840748D01*
X33901027Y21001317D01*
X33998945Y21184508D01*
X34059242Y21383282D01*
X34079602Y21590000D01*
X34059242Y21796718D01*
X33998945Y21995492D01*
X33998943Y21995495D01*
X33998943Y21995497D01*
X33904040Y22173047D01*
X33889798Y22241449D01*
X33914798Y22306693D01*
X33971103Y22348064D01*
X34013398Y22355500D01*
X36254433Y22355500D01*
X36280789Y22352667D01*
X36285640Y22351611D01*
X36337808Y22355343D01*
X36342231Y22355500D01*
X36358082Y22355500D01*
X36358083Y22355500D01*
X36373804Y22357761D01*
X36378156Y22358228D01*
X36430342Y22361960D01*
X36434987Y22363693D01*
X36460691Y22370253D01*
X36461008Y22370299D01*
X36465596Y22370958D01*
X36513189Y22392694D01*
X36517239Y22394372D01*
X36566267Y22412657D01*
X36570236Y22415629D01*
X36593047Y22429163D01*
X36593297Y22429278D01*
X36597558Y22431223D01*
X36637083Y22465474D01*
X36640533Y22468253D01*
X36644239Y22471027D01*
X36653221Y22477750D01*
X36664441Y22488972D01*
X36667645Y22491956D01*
X36707196Y22526225D01*
X36709875Y22530396D01*
X36726512Y22551043D01*
X36782820Y22607351D01*
X36844143Y22640834D01*
X36913835Y22635849D01*
X36969768Y22593978D01*
X36994184Y22528513D01*
X36994500Y22519668D01*
X36994500Y21461992D01*
X37000430Y21406839D01*
X37011639Y21355316D01*
X37011639Y21355317D01*
X37018986Y21328537D01*
X37060046Y21256432D01*
X37069089Y21240552D01*
X37076386Y21232131D01*
X37113625Y21189154D01*
X37114844Y21187748D01*
X37148131Y21155629D01*
X37237849Y21108697D01*
X37252434Y21104415D01*
X37311212Y21066641D01*
X37340238Y21003086D01*
X37341500Y20985437D01*
X37341500Y17278334D01*
X37321815Y17211295D01*
X37305181Y17190653D01*
X35875348Y15760819D01*
X35814025Y15727334D01*
X35787667Y15724500D01*
X34001506Y15724500D01*
X33934467Y15744185D01*
X33888712Y15796989D01*
X33878768Y15866147D01*
X33898406Y15917394D01*
X33901026Y15921316D01*
X33901027Y15921317D01*
X33979860Y16068802D01*
X33998943Y16104504D01*
X33998943Y16104505D01*
X33998945Y16104508D01*
X34059242Y16303282D01*
X34079602Y16510000D01*
X34059242Y16716718D01*
X33998945Y16915492D01*
X33998943Y16915495D01*
X33998943Y16915497D01*
X33901030Y17098678D01*
X33901028Y17098680D01*
X33901027Y17098683D01*
X33840741Y17172142D01*
X33769252Y17259253D01*
X33608684Y17391026D01*
X33608677Y17391031D01*
X33425496Y17488944D01*
X33226716Y17549243D01*
X33020000Y17569602D01*
X32813283Y17549243D01*
X32614503Y17488944D01*
X32431322Y17391031D01*
X32431315Y17391026D01*
X32270747Y17259253D01*
X32138974Y17098685D01*
X32138969Y17098678D01*
X32041056Y16915497D01*
X31980757Y16716717D01*
X31960398Y16510000D01*
X31980757Y16303284D01*
X32041056Y16104504D01*
X32138970Y15921321D01*
X32141594Y15917394D01*
X32162474Y15850717D01*
X32143991Y15783336D01*
X32092014Y15736645D01*
X32038494Y15724500D01*
X29769559Y15724500D01*
X29702520Y15744185D01*
X29656765Y15796989D01*
X29617531Y15882900D01*
X29617529Y15882902D01*
X29617529Y15882903D01*
X29527235Y15987109D01*
X29411240Y16061654D01*
X29411238Y16061655D01*
X29411236Y16061656D01*
X29278943Y16100500D01*
X29278942Y16100500D01*
X29141058Y16100500D01*
X29141057Y16100500D01*
X29008763Y16061656D01*
X28892764Y15987109D01*
X28802471Y15882903D01*
X28802468Y15882900D01*
X28763235Y15796989D01*
X28717481Y15744185D01*
X28650441Y15724500D01*
X28020168Y15724500D01*
X27993811Y15727334D01*
X27991503Y15727836D01*
X27988962Y15728389D01*
X27988956Y15728389D01*
X27944014Y15725175D01*
X27936792Y15724658D01*
X27932370Y15724500D01*
X27916513Y15724500D01*
X27900821Y15722245D01*
X27896427Y15721773D01*
X27844259Y15718040D01*
X27844251Y15718039D01*
X27839595Y15716302D01*
X27813929Y15709751D01*
X27809005Y15709043D01*
X27761426Y15687315D01*
X27757344Y15685624D01*
X27736000Y15677663D01*
X27708333Y15667343D01*
X27708329Y15667341D01*
X27704345Y15664358D01*
X27681564Y15650842D01*
X27677044Y15648778D01*
X27677042Y15648777D01*
X27637508Y15614522D01*
X27634064Y15611747D01*
X27621385Y15602256D01*
X27610163Y15591036D01*
X27606929Y15588025D01*
X27567403Y15553774D01*
X27567402Y15553773D01*
X27564716Y15549593D01*
X27548086Y15528958D01*
X26107041Y14087913D01*
X26086408Y14071284D01*
X26082228Y14068598D01*
X26082221Y14068592D01*
X26061594Y14044789D01*
X26049110Y14032303D01*
X26047974Y14031319D01*
X26047965Y14031310D01*
X26047965Y14031309D01*
X26034303Y14015544D01*
X26027521Y14008760D01*
X26027705Y14008576D01*
X25979175Y13960046D01*
X25975936Y13957031D01*
X25936405Y13922777D01*
X25908126Y13878775D01*
X25905608Y13875148D01*
X25903494Y13872323D01*
X25847567Y13830443D01*
X25777876Y13825448D01*
X25716548Y13858923D01*
X25604221Y13971250D01*
X25517267Y14036343D01*
X25517264Y14036345D01*
X25381345Y14087039D01*
X25381344Y14087040D01*
X25381342Y14087040D01*
X25333108Y14090490D01*
X25236644Y14097389D01*
X25236636Y14097389D01*
X25094882Y14066553D01*
X25094880Y14066552D01*
X24967560Y13997030D01*
X24967552Y13997024D01*
X24864976Y13894448D01*
X24864970Y13894440D01*
X24795448Y13767120D01*
X24795447Y13767118D01*
X24764611Y13625364D01*
X24764611Y13625360D01*
X24774477Y13487406D01*
X24774960Y13480660D01*
X24774961Y13480655D01*
X24825655Y13344736D01*
X24825657Y13344733D01*
X24890750Y13257779D01*
X24890754Y13257775D01*
X24890759Y13257769D01*
X25737484Y12411045D01*
X25754117Y12390406D01*
X25756803Y12386227D01*
X25756803Y12386226D01*
X25796335Y12351971D01*
X25799562Y12348967D01*
X25810779Y12337750D01*
X25823466Y12328253D01*
X25823470Y12328250D01*
X25826909Y12325479D01*
X25866442Y12291223D01*
X25870960Y12289160D01*
X25893754Y12275636D01*
X25897733Y12272657D01*
X25946766Y12254369D01*
X25950792Y12252702D01*
X25998404Y12230958D01*
X25998405Y12230958D01*
X25998407Y12230957D01*
X25998406Y12230957D01*
X26003317Y12230251D01*
X26029008Y12223695D01*
X26033658Y12221960D01*
X26085850Y12218228D01*
X26090210Y12217759D01*
X26103880Y12215793D01*
X26105916Y12215500D01*
X26105917Y12215500D01*
X26121759Y12215500D01*
X26126181Y12215343D01*
X26178360Y12211610D01*
X26181799Y12212359D01*
X26183215Y12212666D01*
X26209572Y12215500D01*
X27364433Y12215500D01*
X27390789Y12212667D01*
X27395640Y12211611D01*
X27447808Y12215343D01*
X27452231Y12215500D01*
X32038494Y12215500D01*
X32105533Y12195815D01*
X32151288Y12143011D01*
X32161232Y12073853D01*
X32141594Y12022606D01*
X32138970Y12018680D01*
X32041056Y11835497D01*
X31980757Y11636717D01*
X31960398Y11430000D01*
X31980757Y11223284D01*
X32041056Y11024504D01*
X32138969Y10841323D01*
X32138974Y10841316D01*
X32270816Y10680665D01*
X32298129Y10616355D01*
X32286338Y10547487D01*
X32239186Y10495927D01*
X32174963Y10478000D01*
X30641551Y10478000D01*
X30574512Y10497685D01*
X30547837Y10520798D01*
X30543235Y10526109D01*
X30507662Y10548970D01*
X30427240Y10600654D01*
X30427238Y10600655D01*
X30427236Y10600656D01*
X30294943Y10639500D01*
X30294942Y10639500D01*
X30157058Y10639500D01*
X30157057Y10639500D01*
X30024763Y10600656D01*
X29908764Y10526109D01*
X29818471Y10421903D01*
X29818468Y10421900D01*
X29761192Y10296481D01*
X29761191Y10296479D01*
X29741569Y10160001D01*
X29761191Y10023522D01*
X29761192Y10023520D01*
X29818468Y9898101D01*
X29818470Y9898099D01*
X29818471Y9898097D01*
X29908765Y9793891D01*
X30024760Y9719346D01*
X30024762Y9719346D01*
X30024763Y9719345D01*
X30157057Y9680500D01*
X30157058Y9680500D01*
X30294942Y9680500D01*
X30427240Y9719346D01*
X30543235Y9793891D01*
X30547836Y9799202D01*
X30606615Y9836977D01*
X30641551Y9842000D01*
X32174963Y9842000D01*
X32242002Y9822315D01*
X32287757Y9769511D01*
X32297701Y9700353D01*
X32270816Y9639335D01*
X32138974Y9478685D01*
X32138969Y9478678D01*
X32041056Y9295497D01*
X31980757Y9096717D01*
X31960398Y8890001D01*
X31980757Y8683284D01*
X32041056Y8484504D01*
X32138969Y8301323D01*
X32138974Y8301316D01*
X32270747Y8140748D01*
X32295911Y8120097D01*
X32431317Y8008973D01*
X32431320Y8008972D01*
X32431322Y8008970D01*
X32614503Y7911057D01*
X32614505Y7911057D01*
X32614508Y7911055D01*
X32813282Y7850758D01*
X33020000Y7830398D01*
X33226718Y7850758D01*
X33425492Y7911055D01*
X33434671Y7915961D01*
X33608677Y8008970D01*
X33608675Y8008970D01*
X33608683Y8008973D01*
X33769252Y8140748D01*
X33901027Y8301317D01*
X33998945Y8484508D01*
X34059242Y8683282D01*
X34079602Y8890000D01*
X34059242Y9096718D01*
X33998945Y9295492D01*
X33998943Y9295495D01*
X33998943Y9295497D01*
X33901030Y9478678D01*
X33901028Y9478680D01*
X33901027Y9478683D01*
X33769252Y9639252D01*
X33769184Y9639335D01*
X33741871Y9703645D01*
X33753662Y9772513D01*
X33800814Y9824073D01*
X33865037Y9842000D01*
X38871919Y9842000D01*
X38938958Y9822316D01*
X38943664Y9819292D01*
X38943665Y9819291D01*
X39059660Y9744746D01*
X39059662Y9744746D01*
X39059663Y9744745D01*
X39191957Y9705900D01*
X39191958Y9705900D01*
X39329842Y9705900D01*
X39462140Y9744746D01*
X39578135Y9819291D01*
X39668429Y9923497D01*
X39686897Y9963937D01*
X47580500Y9963937D01*
X47595266Y9889699D01*
X47651515Y9805516D01*
X47685234Y9782986D01*
X47735699Y9749266D01*
X47735702Y9749266D01*
X47735703Y9749265D01*
X47758423Y9744746D01*
X47809933Y9734500D01*
X48710066Y9734501D01*
X48784301Y9749266D01*
X48868484Y9805516D01*
X48924734Y9889699D01*
X48939500Y9963933D01*
X48939499Y10864066D01*
X48924734Y10938301D01*
X48906068Y10966235D01*
X48868484Y11022485D01*
X48818019Y11056204D01*
X48784301Y11078734D01*
X48784299Y11078735D01*
X48784296Y11078736D01*
X48710069Y11093500D01*
X47809936Y11093500D01*
X47735698Y11078734D01*
X47651515Y11022485D01*
X47595266Y10938301D01*
X47595264Y10938297D01*
X47580500Y10864072D01*
X47580500Y9963937D01*
X39686897Y9963937D01*
X39725708Y10048920D01*
X39745331Y10185400D01*
X39725708Y10321880D01*
X39694252Y10390758D01*
X39668431Y10447300D01*
X39668429Y10447302D01*
X39668429Y10447303D01*
X39578135Y10551509D01*
X39462140Y10626054D01*
X39462138Y10626055D01*
X39462136Y10626056D01*
X39329843Y10664900D01*
X39329842Y10664900D01*
X39191958Y10664900D01*
X39191957Y10664900D01*
X39059663Y10626056D01*
X38943662Y10551507D01*
X38917053Y10520798D01*
X38858276Y10483023D01*
X38823340Y10478000D01*
X33865037Y10478000D01*
X33797998Y10497685D01*
X33752243Y10550489D01*
X33742299Y10619647D01*
X33769184Y10680665D01*
X33780994Y10695057D01*
X33901027Y10841317D01*
X33998945Y11024508D01*
X34059242Y11223282D01*
X34079602Y11430000D01*
X34059242Y11636718D01*
X33998945Y11835492D01*
X33998943Y11835495D01*
X33998943Y11835497D01*
X33901029Y12018680D01*
X33898406Y12022606D01*
X33877526Y12089283D01*
X33896009Y12156664D01*
X33947986Y12203355D01*
X34001506Y12215500D01*
X34496433Y12215500D01*
X34522789Y12212667D01*
X34527640Y12211611D01*
X34579808Y12215343D01*
X34584231Y12215500D01*
X34600082Y12215500D01*
X34600083Y12215500D01*
X34615804Y12217761D01*
X34620156Y12218228D01*
X34672342Y12221960D01*
X34676987Y12223693D01*
X34702691Y12230253D01*
X34703008Y12230299D01*
X34707596Y12230958D01*
X34755189Y12252694D01*
X34759239Y12254372D01*
X34808267Y12272657D01*
X34812236Y12275629D01*
X34835047Y12289163D01*
X34835297Y12289278D01*
X34839558Y12291223D01*
X34879083Y12325474D01*
X34882533Y12328253D01*
X34895221Y12337750D01*
X34906441Y12348972D01*
X34909645Y12351956D01*
X34949196Y12386225D01*
X34951875Y12390396D01*
X34968511Y12411042D01*
X35699181Y13141712D01*
X35760502Y13175195D01*
X35830194Y13170211D01*
X35886127Y13128339D01*
X35899654Y13105541D01*
X35907222Y13088970D01*
X35914471Y13073097D01*
X36004765Y12968891D01*
X36120760Y12894346D01*
X36120762Y12894346D01*
X36120763Y12894345D01*
X36253057Y12855500D01*
X36253058Y12855500D01*
X36390942Y12855500D01*
X36523240Y12894346D01*
X36616064Y12954000D01*
X38887284Y12954000D01*
X38907756Y12798500D01*
X38908060Y12796195D01*
X38908061Y12796191D01*
X38968968Y12649145D01*
X38968969Y12649143D01*
X38968970Y12649142D01*
X39065866Y12522866D01*
X39192142Y12425970D01*
X39339194Y12365060D01*
X39478640Y12346702D01*
X39496999Y12344284D01*
X39497000Y12344284D01*
X39497001Y12344284D01*
X39513446Y12346450D01*
X39654806Y12365060D01*
X39801858Y12425970D01*
X39928134Y12522866D01*
X40025030Y12649142D01*
X40085940Y12796194D01*
X40106716Y12954000D01*
X40085940Y13111806D01*
X40039261Y13224500D01*
X40025031Y13258856D01*
X40025030Y13258857D01*
X40025030Y13258858D01*
X39928134Y13385134D01*
X39801858Y13482030D01*
X39801857Y13482031D01*
X39801855Y13482032D01*
X39654809Y13542939D01*
X39654807Y13542940D01*
X39654806Y13542940D01*
X39575903Y13553328D01*
X39497001Y13563716D01*
X39496999Y13563716D01*
X39339194Y13542940D01*
X39339190Y13542939D01*
X39192144Y13482032D01*
X39065866Y13385134D01*
X38968968Y13258856D01*
X38908061Y13111810D01*
X38908060Y13111806D01*
X38889245Y12968892D01*
X38887284Y12954000D01*
X36616064Y12954000D01*
X36639235Y12968891D01*
X36729529Y13073097D01*
X36786808Y13198520D01*
X36806386Y13334692D01*
X36835411Y13398246D01*
X36841428Y13404710D01*
X37560400Y14123681D01*
X37621724Y14157166D01*
X37648082Y14160000D01*
X39215177Y14160000D01*
X43272449Y14160000D01*
X43339488Y14140315D01*
X43366163Y14117202D01*
X43370765Y14111891D01*
X43486760Y14037346D01*
X43486762Y14037346D01*
X43486763Y14037345D01*
X43619057Y13998500D01*
X43729418Y13998500D01*
X43796457Y13978815D01*
X43842212Y13926011D01*
X43852156Y13856853D01*
X43823131Y13793297D01*
X43817099Y13786819D01*
X42865099Y12834819D01*
X42803776Y12801334D01*
X42777418Y12798500D01*
X42730057Y12798500D01*
X42597763Y12759656D01*
X42481764Y12685109D01*
X42391471Y12580903D01*
X42391468Y12580900D01*
X42334192Y12455481D01*
X42334191Y12455479D01*
X42317264Y12337746D01*
X42314569Y12319000D01*
X42317599Y12297924D01*
X42334191Y12182522D01*
X42334192Y12182520D01*
X42391468Y12057101D01*
X42391470Y12057099D01*
X42391471Y12057097D01*
X42481765Y11952891D01*
X42597760Y11878346D01*
X42597762Y11878346D01*
X42597763Y11878345D01*
X42730057Y11839500D01*
X42730058Y11839500D01*
X42867942Y11839500D01*
X43000240Y11878346D01*
X43116235Y11952891D01*
X43206529Y12057097D01*
X43263808Y12182520D01*
X43283386Y12318692D01*
X43312411Y12382246D01*
X43318429Y12388711D01*
X48247900Y17318183D01*
X48309224Y17351667D01*
X48335582Y17354501D01*
X48710064Y17354501D01*
X48710066Y17354501D01*
X48784301Y17369266D01*
X48868484Y17425516D01*
X48924734Y17509699D01*
X48939500Y17583933D01*
X48939499Y18484066D01*
X48924734Y18558301D01*
X48906068Y18586235D01*
X48868484Y18642485D01*
X48818019Y18676204D01*
X48784301Y18698734D01*
X48784299Y18698735D01*
X48784296Y18698736D01*
X48710069Y18713500D01*
X47809936Y18713500D01*
X47735698Y18698734D01*
X47651515Y18642485D01*
X47595266Y18558301D01*
X47595264Y18558297D01*
X47580500Y18484072D01*
X47580500Y17601584D01*
X47560815Y17534545D01*
X47544181Y17513903D01*
X44379474Y14349195D01*
X44318151Y14315710D01*
X44248459Y14320694D01*
X44192526Y14362566D01*
X44168109Y14428030D01*
X44169054Y14454518D01*
X44172431Y14478000D01*
X44152808Y14614480D01*
X44123260Y14679181D01*
X44095531Y14739900D01*
X44095529Y14739902D01*
X44095529Y14739903D01*
X44005235Y14844109D01*
X43889240Y14918654D01*
X43889238Y14918655D01*
X43889236Y14918656D01*
X43756943Y14957500D01*
X43756942Y14957500D01*
X43619058Y14957500D01*
X43619057Y14957500D01*
X43486763Y14918656D01*
X43370764Y14844109D01*
X43366163Y14838798D01*
X43307385Y14801023D01*
X43272449Y14796000D01*
X37652832Y14796000D01*
X37585793Y14815685D01*
X37540038Y14868489D01*
X37530094Y14937647D01*
X37559119Y15001203D01*
X37565151Y15007681D01*
X39656155Y17098685D01*
X41837958Y19280489D01*
X41858604Y19297125D01*
X41862775Y19299804D01*
X41897044Y19339355D01*
X41900028Y19342559D01*
X41911250Y19353779D01*
X41920752Y19366474D01*
X41923512Y19369900D01*
X41957777Y19409442D01*
X41959839Y19413959D01*
X41973372Y19436766D01*
X41976342Y19440732D01*
X41994626Y19489758D01*
X41996305Y19493812D01*
X42018042Y19541404D01*
X42018747Y19546314D01*
X42025306Y19572010D01*
X42027040Y19576657D01*
X42030771Y19628836D01*
X42031241Y19633209D01*
X42033500Y19648917D01*
X42033500Y19664770D01*
X42033658Y19669194D01*
X42037389Y19721358D01*
X42037389Y19721360D01*
X42036332Y19726217D01*
X42033500Y19752568D01*
X42033500Y24313841D01*
X42053185Y24380880D01*
X42096138Y24421594D01*
X42151448Y24453089D01*
X42204252Y24498844D01*
X42236371Y24532131D01*
X42283303Y24621849D01*
X42302988Y24688888D01*
X42313500Y24762000D01*
X42313500Y25914000D01*
X42307569Y25969163D01*
X42301364Y25997682D01*
X42296361Y26020684D01*
X42296361Y26020683D01*
X42296360Y26020684D01*
X42289013Y26047464D01*
X42261239Y26096237D01*
X42238911Y26135448D01*
X42193156Y26188252D01*
X42159869Y26220371D01*
X42070151Y26267303D01*
X42070150Y26267304D01*
X42070147Y26267305D01*
X42003117Y26286987D01*
X42003105Y26286990D01*
X41930001Y26297500D01*
X41930000Y26297500D01*
X38478000Y26297500D01*
X38477991Y26297500D01*
X38422838Y26291570D01*
X38371316Y26280361D01*
X38371317Y26280361D01*
X38344536Y26273014D01*
X38256553Y26222912D01*
X38253620Y26220370D01*
X38203748Y26177156D01*
X38186563Y26159347D01*
X38171630Y26143871D01*
X38124695Y26054148D01*
X38105013Y25987118D01*
X38105010Y25987106D01*
X38094500Y25914002D01*
X38094500Y25397334D01*
X38074815Y25330295D01*
X38058181Y25309653D01*
X36149348Y23400819D01*
X36088025Y23367334D01*
X36061667Y23364500D01*
X34013398Y23364500D01*
X33946359Y23384185D01*
X33900604Y23436989D01*
X33890660Y23506147D01*
X33904040Y23546953D01*
X33998943Y23724504D01*
X33998943Y23724505D01*
X33998945Y23724508D01*
X34059242Y23923282D01*
X34079602Y24130000D01*
X34059242Y24336718D01*
X33998945Y24535492D01*
X33998943Y24535495D01*
X33998943Y24535497D01*
X33901030Y24718678D01*
X33901028Y24718680D01*
X33901027Y24718683D01*
X33849198Y24781837D01*
X33769252Y24879253D01*
X33608684Y25011026D01*
X33608677Y25011031D01*
X33425496Y25108944D01*
X33226716Y25169243D01*
X33020000Y25189602D01*
X32813283Y25169243D01*
X32614503Y25108944D01*
X32431322Y25011031D01*
X32431315Y25011026D01*
X32270747Y24879253D01*
X32138974Y24718685D01*
X32138969Y24718678D01*
X32041056Y24535497D01*
X31980757Y24336717D01*
X31960398Y24130000D01*
X31980757Y23923284D01*
X32041056Y23724504D01*
X32135960Y23546953D01*
X32150202Y23478551D01*
X32125202Y23413307D01*
X32068897Y23371936D01*
X32026602Y23364500D01*
X27245567Y23364500D01*
X27219210Y23367334D01*
X27216902Y23367836D01*
X27214361Y23368389D01*
X27214355Y23368389D01*
X27169413Y23365175D01*
X27162191Y23364658D01*
X27157769Y23364500D01*
X27141911Y23364500D01*
X27126219Y23362245D01*
X27121825Y23361773D01*
X27069657Y23358040D01*
X27069654Y23358040D01*
X27064993Y23356301D01*
X27039328Y23349751D01*
X27034405Y23349043D01*
X27034402Y23349042D01*
X26986816Y23327311D01*
X26982728Y23325617D01*
X26933729Y23307341D01*
X26929750Y23304362D01*
X26906965Y23290843D01*
X26902442Y23288778D01*
X26902438Y23288775D01*
X26862907Y23254522D01*
X26859462Y23251746D01*
X26846783Y23242255D01*
X26835562Y23231036D01*
X26832328Y23228025D01*
X26792802Y23193774D01*
X26792801Y23193773D01*
X26790115Y23189593D01*
X26773485Y23168958D01*
X24255759Y20651232D01*
X24255749Y20651220D01*
X24190657Y20564268D01*
X24190655Y20564265D01*
X24139961Y20428346D01*
X24139960Y20428341D01*
X24129611Y20283645D01*
X24129611Y20283640D01*
X22898600Y20283640D01*
X22898600Y23740555D01*
X22909806Y23792067D01*
X22943808Y23866520D01*
X22963431Y24003000D01*
X22943808Y24139480D01*
X22891280Y24254500D01*
X22886531Y24264900D01*
X22886529Y24264902D01*
X22886529Y24264903D01*
X22796235Y24369109D01*
X22680240Y24443654D01*
X22680238Y24443655D01*
X22680236Y24443656D01*
X22547943Y24482500D01*
X22547942Y24482500D01*
X22410058Y24482500D01*
X22410057Y24482500D01*
X22277761Y24443655D01*
X22180179Y24380944D01*
X22121684Y24363769D01*
X22111058Y24314918D01*
X22095941Y24293144D01*
X22071471Y24264904D01*
X22071468Y24264900D01*
X22014192Y24139481D01*
X22014191Y24139479D01*
X21994569Y24003000D01*
X22014191Y23866522D01*
X22014192Y23866520D01*
X22071468Y23741101D01*
X22071473Y23741093D01*
X22131601Y23671702D01*
X22160626Y23608147D01*
X22150682Y23538988D01*
X22104927Y23486184D01*
X22037888Y23466500D01*
X21902055Y23466500D01*
X21787534Y23432874D01*
X21717664Y23432874D01*
X21658887Y23470649D01*
X21629862Y23534205D01*
X21628600Y23551851D01*
X21628600Y24124718D01*
X21648285Y24191757D01*
X21664919Y24212399D01*
X21789238Y24336718D01*
X21914547Y24462028D01*
X21975868Y24495511D01*
X21991628Y24494384D01*
X21990403Y24502908D01*
X22019429Y24566464D01*
X22025446Y24572927D01*
X23768200Y26315681D01*
X23829524Y26349166D01*
X23855882Y26352000D01*
X31922550Y26352000D01*
X31989589Y26332315D01*
X32035344Y26279511D01*
X32040619Y26265561D01*
X32041058Y26264501D01*
X32138969Y26081323D01*
X32138974Y26081316D01*
X32270747Y25920748D01*
X32304426Y25893109D01*
X32431317Y25788973D01*
X32431320Y25788972D01*
X32431322Y25788970D01*
X32614503Y25691057D01*
X32614505Y25691057D01*
X32614508Y25691055D01*
X32813282Y25630758D01*
X33020000Y25610398D01*
X33226718Y25630758D01*
X33425492Y25691055D01*
X33608683Y25788973D01*
X33769252Y25920748D01*
X33901027Y26081317D01*
X33998945Y26264508D01*
X34059242Y26463282D01*
X34079602Y26670000D01*
X34059242Y26876718D01*
X33998945Y27075492D01*
X33998943Y27075495D01*
X33998943Y27075497D01*
X33901030Y27258678D01*
X33901028Y27258680D01*
X33901027Y27258683D01*
X33847587Y27323800D01*
X33769252Y27419253D01*
X33608684Y27551026D01*
X33608677Y27551031D01*
X33425496Y27648944D01*
X33226716Y27709243D01*
X33042583Y27727378D01*
X33020000Y27729602D01*
X33019999Y27729602D01*
X32813283Y27709243D01*
X32614503Y27648944D01*
X32431322Y27551031D01*
X32431315Y27551026D01*
X32270747Y27419253D01*
X32138974Y27258685D01*
X32138969Y27258678D01*
X32041058Y27075500D01*
X32038727Y27069870D01*
X32037520Y27070370D01*
X32002906Y27017560D01*
X31939092Y26989108D01*
X31922550Y26988000D01*
X23689392Y26988000D01*
X23683990Y26988236D01*
X23676864Y26988860D01*
X23644657Y26991678D01*
X23606521Y26981459D01*
X23601238Y26980288D01*
X23562361Y26973434D01*
X23556448Y26971281D01*
X23542032Y26965311D01*
X23536336Y26962654D01*
X23519422Y26950811D01*
X23504412Y26940301D01*
X23503996Y26940010D01*
X23499435Y26937105D01*
X23465240Y26917362D01*
X23439854Y26887109D01*
X23436199Y26883121D01*
X21256081Y24703002D01*
X21194758Y24669517D01*
X21125066Y24674501D01*
X21069133Y24716373D01*
X21044716Y24781837D01*
X21044400Y24790683D01*
X21044400Y24912118D01*
X21064085Y24979157D01*
X21080719Y24999799D01*
X24020921Y27940001D01*
X26058569Y27940001D01*
X26078191Y27803522D01*
X26078192Y27803520D01*
X26135468Y27678101D01*
X26135470Y27678099D01*
X26135471Y27678097D01*
X26225765Y27573891D01*
X26341760Y27499346D01*
X26341762Y27499346D01*
X26341763Y27499345D01*
X26474057Y27460500D01*
X26474058Y27460500D01*
X26611942Y27460500D01*
X26744240Y27499346D01*
X26860235Y27573891D01*
X26864836Y27579202D01*
X26923615Y27616977D01*
X26958551Y27622000D01*
X30572449Y27622000D01*
X30639488Y27602315D01*
X30666163Y27579202D01*
X30670765Y27573891D01*
X30786760Y27499346D01*
X30786762Y27499346D01*
X30786763Y27499345D01*
X30919057Y27460500D01*
X30919058Y27460500D01*
X31056942Y27460500D01*
X31189240Y27499346D01*
X31305235Y27573891D01*
X31395529Y27678097D01*
X31452808Y27803520D01*
X31472431Y27940000D01*
X31452808Y28076480D01*
X31409753Y28170758D01*
X31395531Y28201900D01*
X31395529Y28201902D01*
X31395529Y28201903D01*
X31305235Y28306109D01*
X31189240Y28380654D01*
X31189238Y28380655D01*
X31189236Y28380656D01*
X31056943Y28419500D01*
X31056942Y28419500D01*
X30919058Y28419500D01*
X30919057Y28419500D01*
X30786763Y28380656D01*
X30670764Y28306109D01*
X30666163Y28300798D01*
X30607385Y28263023D01*
X30572449Y28258000D01*
X26958551Y28258000D01*
X26891512Y28277685D01*
X26864837Y28300798D01*
X26860235Y28306109D01*
X26824662Y28328970D01*
X26744240Y28380654D01*
X26744238Y28380655D01*
X26744236Y28380656D01*
X26611943Y28419500D01*
X26611942Y28419500D01*
X26474058Y28419500D01*
X26474057Y28419500D01*
X26341763Y28380656D01*
X26225764Y28306109D01*
X26135471Y28201903D01*
X26135468Y28201900D01*
X26078192Y28076481D01*
X26078191Y28076479D01*
X26058569Y27940001D01*
X24020921Y27940001D01*
X24936601Y28855681D01*
X24997924Y28889166D01*
X25024282Y28892000D01*
X31922550Y28892000D01*
X31989589Y28872315D01*
X32035344Y28819511D01*
X32040619Y28805561D01*
X32041058Y28804501D01*
X32138969Y28621323D01*
X32138974Y28621316D01*
X32270747Y28460748D01*
X32368341Y28380656D01*
X32431317Y28328973D01*
X32431320Y28328972D01*
X32431322Y28328970D01*
X32614503Y28231057D01*
X32614505Y28231057D01*
X32614508Y28231055D01*
X32813282Y28170758D01*
X33020000Y28150398D01*
X33226718Y28170758D01*
X33425492Y28231055D01*
X33608683Y28328973D01*
X33769252Y28460748D01*
X33901027Y28621317D01*
X33998945Y28804508D01*
X34059242Y29003282D01*
X34079602Y29210000D01*
X34059242Y29416718D01*
X33998945Y29615492D01*
X33998943Y29615495D01*
X33998943Y29615497D01*
X33901030Y29798678D01*
X33901028Y29798680D01*
X33901027Y29798683D01*
X33809104Y29910692D01*
X33769252Y29959253D01*
X33608684Y30091026D01*
X33608677Y30091031D01*
X33425496Y30188944D01*
X33226716Y30249243D01*
X33042583Y30267378D01*
X33020000Y30269602D01*
X33019999Y30269602D01*
X32813283Y30249243D01*
X32614503Y30188944D01*
X32431322Y30091031D01*
X32431315Y30091026D01*
X32270747Y29959253D01*
X32138974Y29798685D01*
X32138969Y29798678D01*
X32041058Y29615500D01*
X32038727Y29609870D01*
X32037520Y29610370D01*
X32002906Y29557560D01*
X31939092Y29529108D01*
X31922550Y29528000D01*
X24857792Y29528000D01*
X24852390Y29528236D01*
X24845264Y29528860D01*
X24813057Y29531678D01*
X24774921Y29521459D01*
X24769638Y29520288D01*
X24730761Y29513434D01*
X24724848Y29511281D01*
X24710432Y29505311D01*
X24704736Y29502654D01*
X24679219Y29484788D01*
X24674353Y29481380D01*
X24672396Y29480010D01*
X24667835Y29477105D01*
X24633640Y29457362D01*
X24608254Y29427109D01*
X24604599Y29423121D01*
X20513279Y25331801D01*
X20509291Y25328146D01*
X20479038Y25302760D01*
X20459295Y25268565D01*
X20456390Y25264004D01*
X20433746Y25231664D01*
X20431089Y25225968D01*
X20425119Y25211552D01*
X20422966Y25205639D01*
X20416112Y25166762D01*
X20414941Y25161479D01*
X20404722Y25123344D01*
X20408164Y25084016D01*
X20408400Y25078609D01*
X20408400Y23363392D01*
X20388715Y23296353D01*
X20335911Y23250598D01*
X20266753Y23240654D01*
X20203197Y23269679D01*
X20190687Y23282190D01*
X20129237Y23353107D01*
X20129236Y23353108D01*
X20129235Y23353109D01*
X20013240Y23427654D01*
X20013238Y23427655D01*
X20013236Y23427656D01*
X19880943Y23466500D01*
X19880942Y23466500D01*
X19743058Y23466500D01*
X19743057Y23466500D01*
X19610763Y23427656D01*
X19494764Y23353109D01*
X19490163Y23347798D01*
X19431385Y23310023D01*
X19396449Y23305000D01*
X19106082Y23305000D01*
X19039043Y23324685D01*
X19018401Y23341319D01*
X18780874Y23578846D01*
X18747389Y23640169D01*
X18752373Y23709861D01*
X18758511Y23723459D01*
X18758941Y23724498D01*
X18758942Y23724504D01*
X18758945Y23724508D01*
X18819242Y23923282D01*
X18839602Y24130000D01*
X18819242Y24336718D01*
X18758945Y24535492D01*
X18758943Y24535495D01*
X18758943Y24535497D01*
X18661030Y24718678D01*
X18661028Y24718680D01*
X18661027Y24718683D01*
X18609198Y24781837D01*
X18529252Y24879253D01*
X18368684Y25011026D01*
X18368677Y25011031D01*
X18185496Y25108944D01*
X17986716Y25169243D01*
X17780000Y25189602D01*
X17573283Y25169243D01*
X17374503Y25108944D01*
X17191322Y25011031D01*
X17191315Y25011026D01*
X17030747Y24879253D01*
X16898974Y24718685D01*
X16898969Y24718678D01*
X16801056Y24535497D01*
X16740757Y24336717D01*
X16720398Y24130000D01*
X16740757Y23923284D01*
X16801056Y23724504D01*
X16898969Y23541323D01*
X16898972Y23541319D01*
X16898973Y23541317D01*
X16904810Y23534205D01*
X17030747Y23380748D01*
X17123825Y23304362D01*
X17191317Y23248973D01*
X17191320Y23248972D01*
X17191322Y23248970D01*
X17374503Y23151057D01*
X17374505Y23151057D01*
X17374508Y23151055D01*
X17573282Y23090758D01*
X17780000Y23070398D01*
X17986718Y23090758D01*
X18185492Y23151055D01*
X18185496Y23151058D01*
X18185502Y23151059D01*
X18191124Y23153387D01*
X18191626Y23152175D01*
X18253405Y23165047D01*
X18318652Y23140056D01*
X18331154Y23129126D01*
X18686403Y22773877D01*
X18690054Y22769893D01*
X18715440Y22739640D01*
X18715442Y22739639D01*
X18715443Y22739638D01*
X18749629Y22719900D01*
X18754191Y22716993D01*
X18786531Y22694349D01*
X18792273Y22691672D01*
X18806597Y22685739D01*
X18812555Y22683571D01*
X18812560Y22683568D01*
X18851453Y22676711D01*
X18856714Y22675544D01*
X18894857Y22665323D01*
X18934190Y22668765D01*
X18939592Y22669000D01*
X19396449Y22669000D01*
X19463488Y22649315D01*
X19490163Y22626202D01*
X19494765Y22620891D01*
X19610760Y22546346D01*
X19610762Y22546346D01*
X19610763Y22546345D01*
X19743057Y22507500D01*
X19743058Y22507500D01*
X19880942Y22507500D01*
X20013240Y22546346D01*
X20129235Y22620891D01*
X20190687Y22691813D01*
X20249464Y22729586D01*
X20319333Y22729587D01*
X20378112Y22691813D01*
X20407138Y22628258D01*
X20408400Y22610609D01*
X20408399Y21577583D01*
X20388714Y21510543D01*
X20335910Y21464789D01*
X20266752Y21454845D01*
X20203196Y21483870D01*
X20196718Y21489902D01*
X19883495Y21803125D01*
X19879839Y21807115D01*
X19873129Y21815111D01*
X19854460Y21837360D01*
X19820273Y21857098D01*
X19815721Y21859997D01*
X19783366Y21882652D01*
X19783365Y21882653D01*
X19783363Y21882654D01*
X19777651Y21885318D01*
X19763273Y21891273D01*
X19757339Y21893433D01*
X19718463Y21900288D01*
X19713182Y21901459D01*
X19675044Y21911678D01*
X19643385Y21908908D01*
X19635709Y21908236D01*
X19630308Y21908000D01*
X18877450Y21908000D01*
X18810411Y21927685D01*
X18764656Y21980489D01*
X18759380Y21994440D01*
X18758946Y21995486D01*
X18758945Y21995492D01*
X18661027Y22178683D01*
X18620950Y22227517D01*
X18529252Y22339253D01*
X18375453Y22465471D01*
X18368683Y22471027D01*
X18368681Y22471028D01*
X18368677Y22471031D01*
X18185496Y22568944D01*
X17986716Y22629243D01*
X17780000Y22649602D01*
X17573283Y22629243D01*
X17374503Y22568944D01*
X17191322Y22471031D01*
X17191315Y22471026D01*
X17030747Y22339253D01*
X16898974Y22178685D01*
X16898969Y22178678D01*
X16801056Y21995497D01*
X16740757Y21796717D01*
X16720398Y21590001D01*
X16740757Y21383284D01*
X16801056Y21184504D01*
X16898969Y21001323D01*
X16898972Y21001319D01*
X16898973Y21001317D01*
X16912005Y20985437D01*
X17030747Y20840748D01*
X17099601Y20784242D01*
X17191317Y20708973D01*
X17191320Y20708972D01*
X17191322Y20708970D01*
X17374503Y20611057D01*
X17374505Y20611057D01*
X17374508Y20611055D01*
X17573282Y20550758D01*
X17780000Y20530398D01*
X17986718Y20550758D01*
X18185492Y20611055D01*
X18368683Y20708973D01*
X18529252Y20840748D01*
X18661027Y21001317D01*
X18758945Y21184508D01*
X18758948Y21184518D01*
X18761273Y21190130D01*
X18762479Y21189631D01*
X18797094Y21242440D01*
X18860908Y21270892D01*
X18877450Y21272000D01*
X19463818Y21272000D01*
X19530857Y21252315D01*
X19551494Y21235686D01*
X19711682Y21075499D01*
X19745166Y21014177D01*
X19748000Y20987819D01*
X19748000Y19101082D01*
X19728315Y19034043D01*
X19675511Y18988288D01*
X19606353Y18978344D01*
X19542797Y19007369D01*
X19536319Y19013401D01*
X19286595Y19263125D01*
X19282939Y19267115D01*
X19271721Y19280484D01*
X19257560Y19297360D01*
X19223373Y19317098D01*
X19218821Y19319997D01*
X19186466Y19342652D01*
X19186465Y19342653D01*
X19186463Y19342654D01*
X19180751Y19345318D01*
X19166373Y19351273D01*
X19160439Y19353433D01*
X19121563Y19360288D01*
X19116282Y19361459D01*
X19078144Y19371678D01*
X19046485Y19368908D01*
X19038809Y19368236D01*
X19033408Y19368000D01*
X18877450Y19368000D01*
X18810411Y19387685D01*
X18764656Y19440489D01*
X18759380Y19454440D01*
X18758946Y19455486D01*
X18758945Y19455492D01*
X18740642Y19489734D01*
X18661030Y19638678D01*
X18661028Y19638680D01*
X18661027Y19638683D01*
X18578504Y19739238D01*
X18529252Y19799253D01*
X18368684Y19931026D01*
X18368677Y19931031D01*
X18185496Y20028944D01*
X17986716Y20089243D01*
X17780000Y20109602D01*
X17573283Y20089243D01*
X17374503Y20028944D01*
X17191322Y19931031D01*
X17191315Y19931026D01*
X17030747Y19799253D01*
X16898974Y19638685D01*
X16898969Y19638678D01*
X16801056Y19455497D01*
X16740757Y19256717D01*
X16720398Y19050001D01*
X16740757Y18843284D01*
X16801056Y18644504D01*
X16898969Y18461323D01*
X16898972Y18461319D01*
X16898973Y18461317D01*
X16906629Y18451988D01*
X17030747Y18300748D01*
X17091226Y18251115D01*
X17191317Y18168973D01*
X17191320Y18168972D01*
X17191322Y18168970D01*
X17374503Y18071057D01*
X17374505Y18071057D01*
X17374508Y18071055D01*
X17573282Y18010758D01*
X17780000Y17990398D01*
X17986718Y18010758D01*
X18185492Y18071055D01*
X18368683Y18168973D01*
X18529252Y18300748D01*
X18661027Y18461317D01*
X18758945Y18644508D01*
X18758950Y18644525D01*
X18760212Y18647570D01*
X18761312Y18648937D01*
X18761817Y18649880D01*
X18761995Y18649785D01*
X18804043Y18701981D01*
X18870333Y18724057D01*
X18938036Y18706790D01*
X18962462Y18687818D01*
X19203680Y18446600D01*
X19237165Y18385277D01*
X19239999Y18358919D01*
X19240000Y17971309D01*
X19220316Y17904270D01*
X19167512Y17858515D01*
X19098353Y17848571D01*
X19081066Y17852332D01*
X18991944Y17878500D01*
X18991942Y17878500D01*
X18854058Y17878500D01*
X18854057Y17878500D01*
X18721763Y17839656D01*
X18605764Y17765109D01*
X18515471Y17660903D01*
X18515468Y17660900D01*
X18458192Y17535481D01*
X18458188Y17535470D01*
X18457690Y17532001D01*
X18456234Y17528815D01*
X18455691Y17526964D01*
X18455424Y17527043D01*
X18428660Y17468448D01*
X18369879Y17430678D01*
X18300010Y17430684D01*
X18276501Y17440300D01*
X18185496Y17488944D01*
X17986716Y17549243D01*
X17780000Y17569602D01*
X17573283Y17549243D01*
X17374503Y17488944D01*
X17191322Y17391031D01*
X17191315Y17391026D01*
X17030747Y17259253D01*
X16898974Y17098685D01*
X16898969Y17098678D01*
X16801056Y16915497D01*
X16740757Y16716717D01*
X16720398Y16510000D01*
X16740757Y16303284D01*
X16801056Y16104504D01*
X16898969Y15921323D01*
X16898974Y15921316D01*
X17030747Y15760748D01*
X17122291Y15685621D01*
X17191317Y15628973D01*
X17191320Y15628972D01*
X17191322Y15628970D01*
X17374503Y15531057D01*
X17374505Y15531057D01*
X17374508Y15531055D01*
X17573282Y15470758D01*
X17780000Y15450398D01*
X17986718Y15470758D01*
X18185492Y15531055D01*
X18368683Y15628973D01*
X18395331Y15650842D01*
X18402335Y15656590D01*
X18466645Y15683903D01*
X18535513Y15672112D01*
X18587073Y15624960D01*
X18605000Y15560736D01*
X18604999Y15433615D01*
X18585314Y15366576D01*
X18568680Y15345935D01*
X18227457Y15004712D01*
X18166134Y14971227D01*
X18103781Y14973732D01*
X18009243Y15002409D01*
X17986718Y15009242D01*
X17986716Y15009243D01*
X17986718Y15009243D01*
X17780000Y15029602D01*
X17573283Y15009243D01*
X17374503Y14948944D01*
X17191322Y14851031D01*
X17191315Y14851026D01*
X17030747Y14719253D01*
X16898974Y14558685D01*
X16898969Y14558678D01*
X16801056Y14375497D01*
X16740757Y14176717D01*
X16720398Y13970001D01*
X8852400Y13970001D01*
X8852400Y16717634D01*
X8872085Y16784673D01*
X8924889Y16830428D01*
X8994047Y16840372D01*
X9011327Y16836613D01*
X9075058Y16817900D01*
X9212942Y16817900D01*
X9345240Y16856746D01*
X9461235Y16931291D01*
X9551529Y17035497D01*
X9608808Y17160920D01*
X9628431Y17297400D01*
X9608808Y17433880D01*
X9582283Y17491961D01*
X9551531Y17559300D01*
X9551529Y17559302D01*
X9551529Y17559303D01*
X9461235Y17663509D01*
X9345240Y17738054D01*
X9345238Y17738055D01*
X9345236Y17738056D01*
X9212943Y17776900D01*
X9212942Y17776900D01*
X9075058Y17776900D01*
X9075057Y17776900D01*
X8942763Y17738056D01*
X8826764Y17663509D01*
X8736471Y17559303D01*
X8736468Y17559300D01*
X8679189Y17433874D01*
X8678290Y17430813D01*
X8676568Y17428135D01*
X8675508Y17425813D01*
X8675173Y17425966D01*
X8640508Y17372040D01*
X8576949Y17343024D01*
X8507791Y17352977D01*
X8471637Y17378083D01*
X7174871Y18674849D01*
X10078300Y18674849D01*
X10078925Y18662111D01*
X10078925Y18662112D01*
X10082557Y18625243D01*
X10082558Y18625240D01*
X10084426Y18612646D01*
X10084426Y18612647D01*
X10097807Y18545370D01*
X10112576Y18496683D01*
X10131087Y18451990D01*
X10131091Y18451982D01*
X10155061Y18407137D01*
X10155075Y18407114D01*
X10182713Y18365750D01*
X10182726Y18365732D01*
X10215001Y18326405D01*
X10249206Y18292200D01*
X10288530Y18259926D01*
X10288534Y18259924D01*
X10288537Y18259922D01*
X10329924Y18232269D01*
X10329936Y18232263D01*
X10329937Y18232262D01*
X10374776Y18208295D01*
X10374782Y18208292D01*
X10419471Y18189781D01*
X10419473Y18189781D01*
X10419479Y18189778D01*
X10468159Y18175011D01*
X10506713Y18167342D01*
X10535437Y18161627D01*
X10535434Y18161628D01*
X10535437Y18161628D01*
X10535440Y18161627D01*
X10548042Y18159757D01*
X10584913Y18156125D01*
X10584911Y18156125D01*
X10587741Y18155987D01*
X10597641Y18155500D01*
X10597648Y18155500D01*
X11424153Y18155500D01*
X11424160Y18155500D01*
X11431013Y18155837D01*
X11436894Y18156125D01*
X11436891Y18156125D01*
X11446812Y18157103D01*
X11473758Y18159758D01*
X11478654Y18160485D01*
X11486355Y18161626D01*
X11486354Y18161626D01*
X11487249Y18161805D01*
X11553640Y18175011D01*
X11602320Y18189778D01*
X11647016Y18208292D01*
X11691875Y18232269D01*
X11733262Y18259922D01*
X11733265Y18259925D01*
X11733268Y18259926D01*
X11759384Y18281360D01*
X11772589Y18292197D01*
X11806803Y18326411D01*
X11821860Y18344758D01*
X11839074Y18365732D01*
X11839076Y18365736D01*
X11839078Y18365738D01*
X11866731Y18407125D01*
X11890708Y18451984D01*
X11903997Y18484066D01*
X11909218Y18496670D01*
X11909227Y18496695D01*
X11923984Y18545342D01*
X11923988Y18545356D01*
X11923989Y18545358D01*
X11937373Y18612639D01*
X11937374Y18612647D01*
X11939244Y18625243D01*
X11942875Y18662115D01*
X11943500Y18674848D01*
X11943500Y20190500D01*
X11963185Y20257539D01*
X12015989Y20303294D01*
X12067500Y20314500D01*
X12109953Y20314500D01*
X12109960Y20314500D01*
X12116813Y20314837D01*
X12122694Y20315125D01*
X12122691Y20315125D01*
X12132612Y20316103D01*
X12159558Y20318758D01*
X12164454Y20319485D01*
X12172155Y20320626D01*
X12172154Y20320626D01*
X12173049Y20320805D01*
X12239440Y20334011D01*
X12288120Y20348778D01*
X12332816Y20367292D01*
X12377675Y20391269D01*
X12419062Y20418922D01*
X12419065Y20418925D01*
X12419068Y20418926D01*
X12443923Y20439325D01*
X12458389Y20451197D01*
X12492603Y20485411D01*
X12504475Y20499877D01*
X12524874Y20524732D01*
X12524876Y20524736D01*
X12524878Y20524738D01*
X12552531Y20566125D01*
X12576508Y20610984D01*
X12595022Y20655680D01*
X12609789Y20704358D01*
X12623173Y20771639D01*
X12625044Y20784243D01*
X12628675Y20821115D01*
X12629300Y20833848D01*
X12629300Y21126953D01*
X12628675Y21139686D01*
X12625044Y21176556D01*
X12623173Y21189163D01*
X12623173Y21189164D01*
X12616525Y21222580D01*
X12609789Y21256443D01*
X12605070Y21272000D01*
X12595027Y21305107D01*
X12595018Y21305132D01*
X12576508Y21349818D01*
X12576505Y21349824D01*
X12552538Y21394663D01*
X12552537Y21394665D01*
X12552531Y21394676D01*
X12524878Y21436063D01*
X12524876Y21436066D01*
X12524874Y21436070D01*
X12492600Y21475394D01*
X12458395Y21509599D01*
X12453438Y21513667D01*
X12419067Y21541875D01*
X12419058Y21541881D01*
X12419049Y21541888D01*
X12377696Y21569519D01*
X12377668Y21569536D01*
X12332810Y21593513D01*
X12288115Y21612025D01*
X12239432Y21626793D01*
X12172155Y21640174D01*
X12172157Y21640174D01*
X12165858Y21641108D01*
X12159558Y21642043D01*
X12122686Y21645675D01*
X12122687Y21645675D01*
X12120867Y21645765D01*
X12109959Y21646300D01*
X10597641Y21646300D01*
X10588731Y21645863D01*
X10584910Y21645675D01*
X10584911Y21645675D01*
X10548042Y21642043D01*
X10548041Y21642043D01*
X10542714Y21641253D01*
X10535445Y21640174D01*
X10535446Y21640174D01*
X10468169Y21626793D01*
X10468167Y21626792D01*
X10468165Y21626792D01*
X10468163Y21626791D01*
X10419488Y21612026D01*
X10419485Y21612025D01*
X10374789Y21593513D01*
X10329917Y21569529D01*
X10329908Y21569523D01*
X10288547Y21541887D01*
X10288526Y21541872D01*
X10249215Y21509610D01*
X10249204Y21509600D01*
X10215002Y21475399D01*
X10182728Y21436073D01*
X10182715Y21436055D01*
X10155075Y21394688D01*
X10155061Y21394665D01*
X10131091Y21349820D01*
X10131087Y21349812D01*
X10112576Y21305119D01*
X10097807Y21256432D01*
X10084426Y21189154D01*
X10084426Y21189155D01*
X10082558Y21176561D01*
X10082557Y21176558D01*
X10078925Y21139689D01*
X10078925Y21139690D01*
X10078300Y21126952D01*
X10078300Y18674849D01*
X7174871Y18674849D01*
X2437119Y23412601D01*
X2403634Y23473924D01*
X2400800Y23500282D01*
X2400800Y24257000D01*
X14374569Y24257000D01*
X14394191Y24120522D01*
X14394192Y24120520D01*
X14451468Y23995101D01*
X14451470Y23995099D01*
X14451471Y23995097D01*
X14541765Y23890891D01*
X14657760Y23816346D01*
X14657762Y23816346D01*
X14657763Y23816345D01*
X14790057Y23777500D01*
X14790058Y23777500D01*
X14927942Y23777500D01*
X15060240Y23816346D01*
X15176235Y23890891D01*
X15266529Y23995097D01*
X15323808Y24120520D01*
X15343431Y24257000D01*
X15323808Y24393480D01*
X15283049Y24482729D01*
X15266531Y24518900D01*
X15266529Y24518902D01*
X15266529Y24518903D01*
X15176235Y24623109D01*
X15060240Y24697654D01*
X15060238Y24697655D01*
X15060236Y24697656D01*
X14927943Y24736500D01*
X14927942Y24736500D01*
X14790058Y24736500D01*
X14790057Y24736500D01*
X14657763Y24697656D01*
X14541764Y24623109D01*
X14451471Y24518903D01*
X14451468Y24518900D01*
X14394192Y24393481D01*
X14394191Y24393479D01*
X14374569Y24257000D01*
X2400800Y24257000D01*
X2400800Y25527000D01*
X14374569Y25527000D01*
X14394191Y25390522D01*
X14394192Y25390520D01*
X14451468Y25265101D01*
X14451470Y25265099D01*
X14451471Y25265097D01*
X14502991Y25205639D01*
X14541255Y25161479D01*
X14541765Y25160891D01*
X14657760Y25086346D01*
X14657762Y25086346D01*
X14657763Y25086345D01*
X14790057Y25047500D01*
X14790058Y25047500D01*
X14927942Y25047500D01*
X15060240Y25086346D01*
X15176235Y25160891D01*
X15266529Y25265097D01*
X15323808Y25390520D01*
X15343431Y25527000D01*
X15323808Y25663480D01*
X15297283Y25721561D01*
X15266531Y25788900D01*
X15266529Y25788902D01*
X15266529Y25788903D01*
X15176235Y25893109D01*
X15060240Y25967654D01*
X15060238Y25967655D01*
X15060236Y25967656D01*
X14927943Y26006500D01*
X14927942Y26006500D01*
X14790058Y26006500D01*
X14790057Y26006500D01*
X14657763Y25967656D01*
X14541764Y25893109D01*
X14451471Y25788903D01*
X14451468Y25788900D01*
X14394192Y25663481D01*
X14394191Y25663479D01*
X14374569Y25527000D01*
X2400800Y25527000D01*
X2400800Y26670000D01*
X16720398Y26670000D01*
X16740757Y26463284D01*
X16801056Y26264504D01*
X16898969Y26081323D01*
X16898974Y26081316D01*
X17030747Y25920748D01*
X17064426Y25893109D01*
X17191317Y25788973D01*
X17191320Y25788972D01*
X17191322Y25788970D01*
X17374503Y25691057D01*
X17374505Y25691057D01*
X17374508Y25691055D01*
X17573282Y25630758D01*
X17780000Y25610398D01*
X17986718Y25630758D01*
X18185492Y25691055D01*
X18368683Y25788973D01*
X18529252Y25920748D01*
X18661027Y26081317D01*
X18758945Y26264508D01*
X18819242Y26463282D01*
X18839602Y26670000D01*
X18819242Y26876718D01*
X18758945Y27075492D01*
X18758943Y27075495D01*
X18758943Y27075497D01*
X18661030Y27258678D01*
X18661028Y27258680D01*
X18661027Y27258683D01*
X18607587Y27323800D01*
X18529252Y27419253D01*
X18368684Y27551026D01*
X18368677Y27551031D01*
X18185496Y27648944D01*
X17986716Y27709243D01*
X17780000Y27729602D01*
X17573283Y27709243D01*
X17374503Y27648944D01*
X17191322Y27551031D01*
X17191315Y27551026D01*
X17030747Y27419253D01*
X16898974Y27258685D01*
X16898969Y27258678D01*
X16801056Y27075497D01*
X16740757Y26876717D01*
X16720398Y26670000D01*
X2400800Y26670000D01*
X2400800Y28722119D01*
X2420485Y28789158D01*
X2432122Y28803600D01*
X3122369Y28803600D01*
X3141991Y28667122D01*
X3141992Y28667120D01*
X3199268Y28541701D01*
X3199270Y28541699D01*
X3199271Y28541697D01*
X3289565Y28437491D01*
X3405560Y28362946D01*
X3405562Y28362946D01*
X3405563Y28362945D01*
X3537857Y28324100D01*
X3537858Y28324100D01*
X3675742Y28324100D01*
X3808040Y28362946D01*
X3924035Y28437491D01*
X4014329Y28541697D01*
X4071608Y28667120D01*
X4091231Y28803600D01*
X4087579Y28829001D01*
X11326569Y28829001D01*
X11346191Y28692522D01*
X11346192Y28692520D01*
X11403468Y28567101D01*
X11403470Y28567099D01*
X11403471Y28567097D01*
X11493765Y28462891D01*
X11609760Y28388346D01*
X11609762Y28388346D01*
X11609763Y28388345D01*
X11742057Y28349500D01*
X11742058Y28349500D01*
X11879942Y28349500D01*
X12012240Y28388346D01*
X12128235Y28462891D01*
X12218529Y28567097D01*
X12275808Y28692520D01*
X12295431Y28829000D01*
X12277171Y28956000D01*
X13739569Y28956000D01*
X13759191Y28819522D01*
X13759192Y28819520D01*
X13816468Y28694101D01*
X13816470Y28694099D01*
X13816471Y28694097D01*
X13906765Y28589891D01*
X14022760Y28515346D01*
X14022762Y28515346D01*
X14022763Y28515345D01*
X14155057Y28476500D01*
X14155058Y28476500D01*
X14292942Y28476500D01*
X14425240Y28515346D01*
X14541235Y28589891D01*
X14631529Y28694097D01*
X14688808Y28819520D01*
X14708431Y28956000D01*
X14688808Y29092480D01*
X14647211Y29183564D01*
X14635138Y29210001D01*
X16720398Y29210001D01*
X16740757Y29003284D01*
X16801056Y28804504D01*
X16898969Y28621323D01*
X16898974Y28621316D01*
X17030747Y28460748D01*
X17128341Y28380656D01*
X17191317Y28328973D01*
X17191320Y28328972D01*
X17191322Y28328970D01*
X17374503Y28231057D01*
X17374505Y28231057D01*
X17374508Y28231055D01*
X17573282Y28170758D01*
X17780000Y28150398D01*
X17986718Y28170758D01*
X18185492Y28231055D01*
X18368683Y28328973D01*
X18529252Y28460748D01*
X18661027Y28621317D01*
X18758945Y28804508D01*
X18819242Y29003282D01*
X18839602Y29210000D01*
X18819242Y29416718D01*
X18758945Y29615492D01*
X18758943Y29615495D01*
X18758943Y29615497D01*
X18661030Y29798678D01*
X18661028Y29798680D01*
X18661027Y29798683D01*
X18569104Y29910692D01*
X18529252Y29959253D01*
X18368684Y30091026D01*
X18368677Y30091031D01*
X18185496Y30188944D01*
X17986716Y30249243D01*
X17780000Y30269602D01*
X17573283Y30249243D01*
X17374503Y30188944D01*
X17191322Y30091031D01*
X17191315Y30091026D01*
X17030747Y29959253D01*
X16898974Y29798685D01*
X16898969Y29798678D01*
X16801056Y29615497D01*
X16740757Y29416717D01*
X16720398Y29210001D01*
X14635138Y29210001D01*
X14631531Y29217900D01*
X14631529Y29217902D01*
X14631529Y29217903D01*
X14541235Y29322109D01*
X14425240Y29396654D01*
X14425238Y29396655D01*
X14425236Y29396656D01*
X14292943Y29435500D01*
X14292942Y29435500D01*
X14155058Y29435500D01*
X14155057Y29435500D01*
X14022763Y29396656D01*
X13906764Y29322109D01*
X13816471Y29217903D01*
X13816468Y29217900D01*
X13759192Y29092481D01*
X13759191Y29092479D01*
X13739569Y28956000D01*
X12277171Y28956000D01*
X12275808Y28965480D01*
X12244305Y29034462D01*
X12218531Y29090900D01*
X12218529Y29090902D01*
X12218529Y29090903D01*
X12128235Y29195109D01*
X12012240Y29269654D01*
X12012238Y29269655D01*
X12012236Y29269656D01*
X11879943Y29308500D01*
X11879942Y29308500D01*
X11742058Y29308500D01*
X11742057Y29308500D01*
X11609763Y29269656D01*
X11493764Y29195109D01*
X11403471Y29090903D01*
X11403468Y29090900D01*
X11346192Y28965481D01*
X11346191Y28965479D01*
X11326569Y28829001D01*
X4087579Y28829001D01*
X4071608Y28940080D01*
X4045083Y28998161D01*
X4014331Y29065500D01*
X4014329Y29065502D01*
X4014329Y29065503D01*
X3924035Y29169709D01*
X3808040Y29244254D01*
X3808038Y29244255D01*
X3808036Y29244256D01*
X3675743Y29283100D01*
X3675742Y29283100D01*
X3537858Y29283100D01*
X3537857Y29283100D01*
X3405563Y29244256D01*
X3289564Y29169709D01*
X3199271Y29065503D01*
X3199268Y29065500D01*
X3141992Y28940081D01*
X3141991Y28940079D01*
X3122369Y28803600D01*
X2432122Y28803600D01*
X2437114Y28809796D01*
X3409830Y29782512D01*
X3471151Y29815995D01*
X3532445Y29813806D01*
X3588657Y29797300D01*
X3588658Y29797300D01*
X3726542Y29797300D01*
X3858840Y29836146D01*
X3974835Y29910691D01*
X4065129Y30014897D01*
X4122408Y30140320D01*
X4142031Y30276800D01*
X4122408Y30413280D01*
X4086530Y30491841D01*
X4065131Y30538700D01*
X4065129Y30538702D01*
X4065129Y30538703D01*
X3974835Y30642909D01*
X3858840Y30717454D01*
X3858838Y30717455D01*
X3858836Y30717456D01*
X3726543Y30756300D01*
X3726542Y30756300D01*
X3588658Y30756300D01*
X3588657Y30756300D01*
X3456363Y30717456D01*
X3340364Y30642909D01*
X3284555Y30578500D01*
X3250071Y30538703D01*
X3250070Y30538702D01*
X3250069Y30538700D01*
X3250068Y30538699D01*
X3246344Y30530544D01*
X3228538Y30502350D01*
X3221457Y30493912D01*
X3217803Y30489924D01*
X1869679Y29141801D01*
X1865691Y29138146D01*
X1835438Y29112760D01*
X1815695Y29078565D01*
X1812790Y29074004D01*
X1790146Y29041664D01*
X1787489Y29035968D01*
X1781519Y29021552D01*
X1779366Y29015639D01*
X1772512Y28976762D01*
X1771341Y28971479D01*
X1761122Y28933344D01*
X1764564Y28894016D01*
X1764800Y28888609D01*
X1764800Y23333793D01*
X1764564Y23328386D01*
X1761122Y23289056D01*
X1384800Y23289056D01*
X1384800Y29382518D01*
X1404485Y29449557D01*
X1421119Y29470199D01*
X3143401Y31192481D01*
X3204724Y31225966D01*
X3231082Y31228800D01*
X8097318Y31228800D01*
X8164357Y31209115D01*
X8184999Y31192481D01*
X8878556Y30498924D01*
X8912041Y30437601D01*
X8913613Y30428890D01*
X8933191Y30292723D01*
X8933192Y30292720D01*
X8990468Y30167301D01*
X8990470Y30167299D01*
X8990471Y30167297D01*
X9080765Y30063091D01*
X9196760Y29988546D01*
X9196762Y29988546D01*
X9196763Y29988545D01*
X9329057Y29949700D01*
X9329058Y29949700D01*
X9466942Y29949700D01*
X9599240Y29988546D01*
X9715235Y30063091D01*
X9746350Y30099000D01*
X12215569Y30099000D01*
X12218863Y30076084D01*
X12235191Y29962522D01*
X12235192Y29962520D01*
X12292468Y29837101D01*
X12292470Y29837099D01*
X12292471Y29837097D01*
X12382765Y29732891D01*
X12498760Y29658346D01*
X12498762Y29658346D01*
X12498763Y29658345D01*
X12631057Y29619500D01*
X12631058Y29619500D01*
X12768942Y29619500D01*
X12901240Y29658346D01*
X13017235Y29732891D01*
X13107529Y29837097D01*
X13164808Y29962520D01*
X13184431Y30099000D01*
X13164808Y30235480D01*
X13138283Y30293561D01*
X13107531Y30360900D01*
X13107529Y30360902D01*
X13107529Y30360903D01*
X13017235Y30465109D01*
X12901240Y30539654D01*
X12901238Y30539655D01*
X12901236Y30539656D01*
X12768943Y30578500D01*
X12768942Y30578500D01*
X12631058Y30578500D01*
X12631057Y30578500D01*
X12498763Y30539656D01*
X12382764Y30465109D01*
X12292471Y30360903D01*
X12292468Y30360900D01*
X12235192Y30235481D01*
X12235191Y30235479D01*
X12221510Y30140322D01*
X12215569Y30099000D01*
X9746350Y30099000D01*
X9805529Y30167297D01*
X9862808Y30292720D01*
X9882431Y30429200D01*
X9862808Y30565680D01*
X9827539Y30642909D01*
X9805531Y30691100D01*
X9805529Y30691102D01*
X9805529Y30691103D01*
X9715235Y30795309D01*
X9599240Y30869854D01*
X9599238Y30869855D01*
X9599236Y30869856D01*
X9466943Y30908700D01*
X9466942Y30908700D01*
X9419582Y30908700D01*
X9352543Y30928385D01*
X9331901Y30945019D01*
X8526920Y31750000D01*
X16720398Y31750000D01*
X16740757Y31543284D01*
X16801056Y31344504D01*
X16898969Y31161323D01*
X16898974Y31161316D01*
X17030747Y31000748D01*
X17098654Y30945019D01*
X17191317Y30868973D01*
X17191320Y30868972D01*
X17191322Y30868970D01*
X17374503Y30771057D01*
X17374505Y30771057D01*
X17374508Y30771055D01*
X17573282Y30710758D01*
X17780000Y30690398D01*
X17986718Y30710758D01*
X18185492Y30771055D01*
X18368683Y30868973D01*
X18529252Y31000748D01*
X18661027Y31161317D01*
X18758945Y31344508D01*
X18819242Y31543282D01*
X18839602Y31750000D01*
X31960398Y31750000D01*
X31980757Y31543284D01*
X32041056Y31344504D01*
X32138969Y31161323D01*
X32138974Y31161316D01*
X32270747Y31000748D01*
X32338654Y30945019D01*
X32431317Y30868973D01*
X32431320Y30868972D01*
X32431322Y30868970D01*
X32614503Y30771057D01*
X32614505Y30771057D01*
X32614508Y30771055D01*
X32813282Y30710758D01*
X33020000Y30690398D01*
X33226718Y30710758D01*
X33425492Y30771055D01*
X33608683Y30868973D01*
X33769252Y31000748D01*
X33901027Y31161317D01*
X33998945Y31344508D01*
X34059242Y31543282D01*
X34079602Y31750000D01*
X34059242Y31956718D01*
X33998945Y32155492D01*
X33998943Y32155495D01*
X33998943Y32155497D01*
X33901030Y32338678D01*
X33901028Y32338680D01*
X33901027Y32338683D01*
X33860950Y32387517D01*
X33769252Y32499253D01*
X33608684Y32631026D01*
X33608677Y32631031D01*
X33425496Y32728944D01*
X33226716Y32789243D01*
X33020000Y32809602D01*
X32813283Y32789243D01*
X32614503Y32728944D01*
X32431322Y32631031D01*
X32431315Y32631026D01*
X32270747Y32499253D01*
X32138974Y32338685D01*
X32138969Y32338678D01*
X32041056Y32155497D01*
X31980757Y31956717D01*
X31960398Y31750000D01*
X18839602Y31750000D01*
X18819242Y31956718D01*
X18758945Y32155492D01*
X18758943Y32155495D01*
X18758943Y32155497D01*
X18661030Y32338678D01*
X18661028Y32338680D01*
X18661027Y32338683D01*
X18620950Y32387517D01*
X18529252Y32499253D01*
X18368684Y32631026D01*
X18368677Y32631031D01*
X18185496Y32728944D01*
X17986716Y32789243D01*
X17802583Y32807378D01*
X17780000Y32809602D01*
X17779999Y32809602D01*
X17573283Y32789243D01*
X17374503Y32728944D01*
X17191322Y32631031D01*
X17191315Y32631026D01*
X17030747Y32499253D01*
X16898974Y32338685D01*
X16898969Y32338678D01*
X16801056Y32155497D01*
X16740757Y31956717D01*
X16720398Y31750000D01*
X8526920Y31750000D01*
X8516995Y31759925D01*
X8513339Y31763915D01*
X8506629Y31771911D01*
X8487960Y31794160D01*
X8453773Y31813898D01*
X8449221Y31816797D01*
X8416866Y31839452D01*
X8416865Y31839453D01*
X8416863Y31839454D01*
X8411151Y31842118D01*
X8396773Y31848073D01*
X8390839Y31850233D01*
X8351963Y31857088D01*
X8346682Y31858259D01*
X8308544Y31868478D01*
X8276885Y31865708D01*
X8269209Y31865036D01*
X8263808Y31864800D01*
X3064592Y31864800D01*
X3059190Y31865036D01*
X3052064Y31865660D01*
X3019857Y31868478D01*
X2981721Y31858259D01*
X2976438Y31857088D01*
X2937561Y31850234D01*
X2931648Y31848081D01*
X2917232Y31842111D01*
X2911536Y31839454D01*
X2879196Y31816810D01*
X2874635Y31813905D01*
X2840440Y31794162D01*
X2815054Y31763909D01*
X2811399Y31759921D01*
X853679Y29802201D01*
X849691Y29798546D01*
X819438Y29773160D01*
X799695Y29738965D01*
X796791Y29734407D01*
X792012Y29727581D01*
X774146Y29702064D01*
X771489Y29696368D01*
X765519Y29681952D01*
X763366Y29676039D01*
X756512Y29637162D01*
X755341Y29631879D01*
X744275Y29590579D01*
X742036Y29586907D01*
X743477Y29584666D01*
X748031Y29560506D01*
X748564Y29554390D01*
X748799Y29549001D01*
X748799Y16018602D01*
X748565Y16013214D01*
X748031Y16007098D01*
X739690Y15985756D01*
X506960Y15985756D01*
X502938Y15993403D01*
X500500Y16017870D01*
X500500Y29549731D01*
X511228Y29586269D01*
X500535Y29619721D01*
X500500Y29622672D01*
X500500Y34290001D01*
X16720398Y34290001D01*
X16740757Y34083284D01*
X16801056Y33884504D01*
X16898969Y33701323D01*
X16898974Y33701316D01*
X17030747Y33540748D01*
X17142483Y33449050D01*
X17191317Y33408973D01*
X17191320Y33408972D01*
X17191322Y33408970D01*
X17374503Y33311057D01*
X17374505Y33311057D01*
X17374508Y33311055D01*
X17573282Y33250758D01*
X17780000Y33230398D01*
X17986718Y33250758D01*
X18185492Y33311055D01*
X18207666Y33322907D01*
X18296535Y33370409D01*
X18368683Y33408973D01*
X18529252Y33540748D01*
X18661027Y33701317D01*
X18758945Y33884508D01*
X18819242Y34083282D01*
X18839602Y34290000D01*
X18819242Y34496718D01*
X18758945Y34695492D01*
X18758943Y34695495D01*
X18758943Y34695497D01*
X18661030Y34878678D01*
X18661028Y34878680D01*
X18661027Y34878683D01*
X18530851Y35037304D01*
X18529252Y35039253D01*
X18384145Y35158338D01*
X18368683Y35171027D01*
X18368681Y35171028D01*
X18368677Y35171031D01*
X18185496Y35268944D01*
X17986716Y35329243D01*
X17792072Y35348413D01*
X17780000Y35349602D01*
X17779999Y35349602D01*
X17573283Y35329243D01*
X17374503Y35268944D01*
X17191322Y35171031D01*
X17191315Y35171026D01*
X17030747Y35039253D01*
X16898974Y34878685D01*
X16898969Y34878678D01*
X16801056Y34695497D01*
X16740757Y34496717D01*
X16720398Y34290001D01*
X500500Y34290001D01*
X500500Y36830000D01*
X16720398Y36830000D01*
X16740757Y36623284D01*
X16801056Y36424504D01*
X16898969Y36241323D01*
X16898974Y36241316D01*
X17030747Y36080748D01*
X17142483Y35989050D01*
X17191317Y35948973D01*
X17191320Y35948972D01*
X17191322Y35948970D01*
X17374503Y35851057D01*
X17374505Y35851057D01*
X17374508Y35851055D01*
X17573282Y35790758D01*
X17780000Y35770398D01*
X17986718Y35790758D01*
X18185492Y35851055D01*
X18201075Y35859384D01*
X18368677Y35948970D01*
X18368675Y35948970D01*
X18368683Y35948973D01*
X18529252Y36080748D01*
X18661027Y36241317D01*
X18758945Y36424508D01*
X18819242Y36623282D01*
X18839602Y36830000D01*
X18819242Y37036718D01*
X18758945Y37235492D01*
X18758943Y37235495D01*
X18758943Y37235497D01*
X18661030Y37418678D01*
X18661028Y37418680D01*
X18661027Y37418683D01*
X18619521Y37469258D01*
X18529252Y37579253D01*
X18368684Y37711026D01*
X18368677Y37711031D01*
X18185496Y37808944D01*
X17986716Y37869243D01*
X17780000Y37889602D01*
X17573283Y37869243D01*
X17374503Y37808944D01*
X17191322Y37711031D01*
X17191315Y37711026D01*
X17030747Y37579253D01*
X16898974Y37418685D01*
X16898969Y37418678D01*
X16801056Y37235497D01*
X16740757Y37036717D01*
X16720398Y36830000D01*
X500500Y36830000D01*
X500500Y39521937D01*
X4345500Y39521937D01*
X4360266Y39447699D01*
X4416515Y39363516D01*
X4447497Y39342815D01*
X4500699Y39307266D01*
X4500702Y39307266D01*
X4500703Y39307265D01*
X4525666Y39302300D01*
X4574933Y39292500D01*
X6425066Y39292501D01*
X6499301Y39307266D01*
X6583484Y39363516D01*
X6639734Y39447699D01*
X6654500Y39521933D01*
X6654499Y40068327D01*
X6674183Y40135363D01*
X6726987Y40181118D01*
X6796146Y40191062D01*
X6859702Y40162037D01*
X6897476Y40103259D01*
X6897765Y40102259D01*
X6918847Y40028163D01*
X6918849Y40028159D01*
X6993619Y39878001D01*
X7014219Y39836630D01*
X7143159Y39665886D01*
X7301278Y39521742D01*
X7301283Y39521739D01*
X7301286Y39521737D01*
X7483186Y39409109D01*
X7483187Y39409109D01*
X7483190Y39409107D01*
X7682703Y39331815D01*
X7893020Y39292500D01*
X7893022Y39292500D01*
X8106978Y39292500D01*
X8106980Y39292500D01*
X8317297Y39331815D01*
X8415866Y39370001D01*
X16720398Y39370001D01*
X16740757Y39163284D01*
X16801056Y38964504D01*
X16898969Y38781323D01*
X16898974Y38781316D01*
X17030747Y38620748D01*
X17142483Y38529050D01*
X17191317Y38488973D01*
X17191320Y38488972D01*
X17191322Y38488970D01*
X17374503Y38391057D01*
X17374505Y38391057D01*
X17374508Y38391055D01*
X17573282Y38330758D01*
X17780000Y38310398D01*
X17986718Y38330758D01*
X18185492Y38391055D01*
X18368683Y38488973D01*
X18529252Y38620748D01*
X18623016Y38735000D01*
X23645569Y38735000D01*
X23665191Y38598522D01*
X23665192Y38598520D01*
X23722468Y38473101D01*
X23722470Y38473099D01*
X23722471Y38473097D01*
X23812765Y38368891D01*
X23928760Y38294346D01*
X23928762Y38294346D01*
X23928763Y38294345D01*
X24061057Y38255500D01*
X24061058Y38255500D01*
X24198942Y38255500D01*
X24331240Y38294346D01*
X24447235Y38368891D01*
X24537529Y38473097D01*
X24594808Y38598520D01*
X24614431Y38735000D01*
X24594808Y38871480D01*
X24562252Y38942767D01*
X24537531Y38996900D01*
X24537529Y38996902D01*
X24537529Y38996903D01*
X24447235Y39101109D01*
X24331240Y39175654D01*
X24331238Y39175655D01*
X24331236Y39175656D01*
X24290819Y39187523D01*
X24232041Y39225297D01*
X24203016Y39288853D01*
X24212959Y39358011D01*
X24258714Y39410815D01*
X24290819Y39425477D01*
X24318606Y39433637D01*
X24331240Y39437346D01*
X24447235Y39511891D01*
X24500389Y39573236D01*
X24559167Y39611010D01*
X24629037Y39611010D01*
X24687815Y39573237D01*
X24687816Y39573235D01*
X24772162Y39475893D01*
X24772164Y39475892D01*
X24772165Y39475891D01*
X24888160Y39401346D01*
X24888162Y39401346D01*
X24888163Y39401345D01*
X25020457Y39362500D01*
X25020458Y39362500D01*
X25067818Y39362500D01*
X25134857Y39342815D01*
X25155499Y39326181D01*
X25807680Y38674000D01*
X25841165Y38612677D01*
X25843999Y38586319D01*
X25844000Y34066477D01*
X25824315Y33999438D01*
X25813714Y33985276D01*
X25754473Y33916908D01*
X25754468Y33916900D01*
X25697192Y33791481D01*
X25697191Y33791479D01*
X25677569Y33655000D01*
X25697191Y33518522D01*
X25697192Y33518520D01*
X25754468Y33393101D01*
X25754470Y33393099D01*
X25754471Y33393097D01*
X25844765Y33288891D01*
X25960760Y33214346D01*
X25960762Y33214346D01*
X25960763Y33214345D01*
X26093057Y33175500D01*
X26093058Y33175500D01*
X26230942Y33175500D01*
X26363240Y33214346D01*
X26479235Y33288891D01*
X26569529Y33393097D01*
X26626808Y33518520D01*
X26646431Y33655000D01*
X26626808Y33791480D01*
X26600283Y33849561D01*
X26569531Y33916900D01*
X26569526Y33916908D01*
X26510286Y33985276D01*
X26481262Y34048832D01*
X26480000Y34066477D01*
X26480000Y38752809D01*
X26480236Y38758216D01*
X26483677Y38797542D01*
X26473458Y38835676D01*
X26472290Y38840943D01*
X26465432Y38879840D01*
X26465431Y38879842D01*
X26463265Y38885792D01*
X26457334Y38900112D01*
X26454651Y38905866D01*
X26432008Y38938204D01*
X26429101Y38942767D01*
X26428871Y38943165D01*
X26409360Y38976960D01*
X26409356Y38976963D01*
X26409356Y38976964D01*
X26392760Y38990890D01*
X26379100Y39002352D01*
X26375128Y39005991D01*
X25608843Y39772277D01*
X25575358Y39833600D01*
X25573786Y39842311D01*
X25568654Y39878001D01*
X29741569Y39878001D01*
X29761191Y39741522D01*
X29761192Y39741520D01*
X29818468Y39616101D01*
X29818470Y39616099D01*
X29818471Y39616097D01*
X29877714Y39547726D01*
X29906738Y39484174D01*
X29908000Y39466526D01*
X29908000Y37608593D01*
X29907764Y37603186D01*
X29904322Y37563856D01*
X29914541Y37525718D01*
X29915712Y37520437D01*
X29922567Y37481561D01*
X29924727Y37475627D01*
X29930682Y37461249D01*
X29933346Y37455537D01*
X29933347Y37455535D01*
X29933348Y37455534D01*
X29956003Y37423179D01*
X29958902Y37418627D01*
X29978640Y37384440D01*
X30000889Y37365771D01*
X30008885Y37359061D01*
X30012875Y37355405D01*
X32021403Y35346877D01*
X32025054Y35342893D01*
X32050440Y35312640D01*
X32050442Y35312639D01*
X32050443Y35312638D01*
X32084629Y35292900D01*
X32089191Y35289993D01*
X32121531Y35267349D01*
X32127273Y35264672D01*
X32141597Y35258739D01*
X32147555Y35256571D01*
X32147560Y35256568D01*
X32186453Y35249711D01*
X32191714Y35248544D01*
X32211654Y35243201D01*
X32271314Y35206836D01*
X32301842Y35143988D01*
X32293547Y35074613D01*
X32273456Y35044910D01*
X32274612Y35043961D01*
X32138974Y34878685D01*
X32138969Y34878678D01*
X32041056Y34695497D01*
X31980757Y34496717D01*
X31960398Y34290001D01*
X31980757Y34083284D01*
X32041056Y33884504D01*
X32138969Y33701323D01*
X32138974Y33701316D01*
X32270747Y33540748D01*
X32382483Y33449050D01*
X32431317Y33408973D01*
X32431320Y33408972D01*
X32431322Y33408970D01*
X32614503Y33311057D01*
X32614505Y33311057D01*
X32614508Y33311055D01*
X32813282Y33250758D01*
X33020000Y33230398D01*
X33226718Y33250758D01*
X33425492Y33311055D01*
X33447666Y33322907D01*
X33536535Y33370409D01*
X33608683Y33408973D01*
X33769252Y33540748D01*
X33901027Y33701317D01*
X33998945Y33884508D01*
X34050805Y34055470D01*
X34089100Y34113905D01*
X34152912Y34142362D01*
X34221979Y34131803D01*
X34257145Y34107153D01*
X35205682Y33158616D01*
X35239166Y33097295D01*
X35242000Y33070937D01*
X35242000Y27843477D01*
X35222315Y27776438D01*
X35211714Y27762276D01*
X35152473Y27693908D01*
X35152468Y27693900D01*
X35095192Y27568481D01*
X35095191Y27568479D01*
X35075569Y27432000D01*
X35095191Y27295522D01*
X35095192Y27295520D01*
X35152468Y27170101D01*
X35152470Y27170099D01*
X35152471Y27170097D01*
X35242765Y27065891D01*
X35358760Y26991346D01*
X35358762Y26991346D01*
X35358763Y26991345D01*
X35491057Y26952500D01*
X35491058Y26952500D01*
X35628942Y26952500D01*
X35761240Y26991346D01*
X35877235Y27065891D01*
X35967529Y27170097D01*
X36024808Y27295520D01*
X36044431Y27432000D01*
X36024808Y27568480D01*
X35988061Y27648945D01*
X35967531Y27693900D01*
X35967526Y27693908D01*
X35908286Y27762276D01*
X35879262Y27825832D01*
X35878000Y27843477D01*
X35878000Y33237426D01*
X35878236Y33242833D01*
X35878930Y33250758D01*
X35881677Y33282160D01*
X35871455Y33320304D01*
X35870290Y33325560D01*
X35863432Y33364457D01*
X35863431Y33364459D01*
X35861265Y33370409D01*
X35855334Y33384729D01*
X35852651Y33390483D01*
X35830008Y33422821D01*
X35827101Y33427384D01*
X35826871Y33427782D01*
X35807360Y33461577D01*
X35807356Y33461580D01*
X35807356Y33461581D01*
X35790760Y33475507D01*
X35777100Y33486969D01*
X35773128Y33490608D01*
X33535368Y35728369D01*
X33501883Y35789692D01*
X33506867Y35859384D01*
X33548739Y35915317D01*
X33564591Y35925406D01*
X33608683Y35948973D01*
X33769252Y36080748D01*
X33901027Y36241317D01*
X33998945Y36424508D01*
X34059242Y36623282D01*
X34079602Y36830000D01*
X34059242Y37036718D01*
X33998945Y37235492D01*
X33998943Y37235495D01*
X33998943Y37235497D01*
X33901030Y37418678D01*
X33901028Y37418680D01*
X33901027Y37418683D01*
X33859521Y37469258D01*
X33769252Y37579253D01*
X33608684Y37711026D01*
X33608677Y37711031D01*
X33425496Y37808944D01*
X33226716Y37869243D01*
X33020000Y37889602D01*
X32813283Y37869243D01*
X32614503Y37808944D01*
X32431322Y37711031D01*
X32431315Y37711026D01*
X32270747Y37579253D01*
X32138974Y37418685D01*
X32138969Y37418678D01*
X32041056Y37235497D01*
X31980757Y37036717D01*
X31960398Y36830000D01*
X31980758Y36623280D01*
X31983502Y36614234D01*
X31984125Y36544367D01*
X31946875Y36485255D01*
X31883581Y36455665D01*
X31814336Y36464992D01*
X31777160Y36490560D01*
X30580319Y37687401D01*
X30546834Y37748724D01*
X30544000Y37775082D01*
X30544000Y39370001D01*
X31960398Y39370001D01*
X31980757Y39163284D01*
X32041056Y38964504D01*
X32138969Y38781323D01*
X32138974Y38781316D01*
X32270747Y38620748D01*
X32382483Y38529050D01*
X32431317Y38488973D01*
X32431320Y38488972D01*
X32431322Y38488970D01*
X32614503Y38391057D01*
X32614505Y38391057D01*
X32614508Y38391055D01*
X32813282Y38330758D01*
X33020000Y38310398D01*
X33226718Y38330758D01*
X33425492Y38391055D01*
X33608683Y38488973D01*
X33769252Y38620748D01*
X33901027Y38781317D01*
X33960267Y38892146D01*
X33998943Y38964504D01*
X33998943Y38964505D01*
X33998945Y38964508D01*
X34059242Y39163282D01*
X34079602Y39370000D01*
X34059242Y39576718D01*
X34044899Y39624000D01*
X34567569Y39624000D01*
X34587191Y39487522D01*
X34587192Y39487520D01*
X34644468Y39362101D01*
X34644470Y39362099D01*
X34644471Y39362097D01*
X34734765Y39257891D01*
X34850760Y39183346D01*
X34850762Y39183346D01*
X34850763Y39183345D01*
X34983057Y39144500D01*
X34983058Y39144500D01*
X35120942Y39144500D01*
X35253240Y39183346D01*
X35369235Y39257891D01*
X35459529Y39362097D01*
X35516808Y39487520D01*
X35521756Y39521937D01*
X39145500Y39521937D01*
X39160266Y39447699D01*
X39216515Y39363516D01*
X39247497Y39342815D01*
X39300699Y39307266D01*
X39300702Y39307266D01*
X39300703Y39307265D01*
X39325666Y39302300D01*
X39374933Y39292500D01*
X41225066Y39292501D01*
X41299301Y39307266D01*
X41383484Y39363516D01*
X41439734Y39447699D01*
X41454500Y39521933D01*
X41454499Y40068327D01*
X41474183Y40135363D01*
X41526987Y40181118D01*
X41596146Y40191062D01*
X41659702Y40162037D01*
X41697476Y40103259D01*
X41697765Y40102259D01*
X41718847Y40028163D01*
X41718849Y40028159D01*
X41793619Y39878001D01*
X41814219Y39836630D01*
X41943159Y39665886D01*
X42101278Y39521742D01*
X42101283Y39521739D01*
X42101286Y39521737D01*
X42283186Y39409109D01*
X42283187Y39409109D01*
X42283190Y39409107D01*
X42482703Y39331815D01*
X42693020Y39292500D01*
X42693022Y39292500D01*
X42906978Y39292500D01*
X42906980Y39292500D01*
X43117297Y39331815D01*
X43316810Y39409107D01*
X43498722Y39521742D01*
X43656841Y39665886D01*
X43785781Y39836630D01*
X43881151Y40028160D01*
X43881151Y40028163D01*
X43881153Y40028165D01*
X43924671Y40181118D01*
X43939704Y40233952D01*
X43959446Y40447000D01*
X43939704Y40660048D01*
X43931200Y40689935D01*
X43881153Y40865836D01*
X43881150Y40865842D01*
X43796476Y41035891D01*
X43785781Y41057370D01*
X43656841Y41228114D01*
X43498722Y41372258D01*
X43498716Y41372262D01*
X43498713Y41372264D01*
X43316813Y41484892D01*
X43316807Y41484894D01*
X43117297Y41562185D01*
X42906980Y41601500D01*
X42693020Y41601500D01*
X42482703Y41562185D01*
X42421514Y41538480D01*
X42283192Y41484894D01*
X42283186Y41484892D01*
X42101286Y41372264D01*
X42101283Y41372262D01*
X42101279Y41372260D01*
X42101278Y41372258D01*
X41984194Y41265522D01*
X41943158Y41228113D01*
X41814219Y41057371D01*
X41718849Y40865842D01*
X41718846Y40865836D01*
X41697765Y40791741D01*
X41660486Y40732647D01*
X41597176Y40703090D01*
X41527937Y40712452D01*
X41474750Y40757762D01*
X41454503Y40824634D01*
X41454499Y40825675D01*
X41454499Y41372064D01*
X41454499Y41372066D01*
X41439734Y41446301D01*
X41384476Y41529000D01*
X41383484Y41530485D01*
X41333019Y41564204D01*
X41299301Y41586734D01*
X41299299Y41586735D01*
X41299296Y41586736D01*
X41225069Y41601500D01*
X39374936Y41601500D01*
X39300698Y41586734D01*
X39216515Y41530485D01*
X39160266Y41446301D01*
X39160264Y41446297D01*
X39145500Y41372072D01*
X39145500Y39521937D01*
X35521756Y39521937D01*
X35536431Y39624000D01*
X35516808Y39760480D01*
X35479437Y39842311D01*
X35459531Y39885900D01*
X35459529Y39885902D01*
X35459529Y39885903D01*
X35369235Y39990109D01*
X35253240Y40064654D01*
X35253238Y40064655D01*
X35253236Y40064656D01*
X35120943Y40103500D01*
X35120942Y40103500D01*
X34983058Y40103500D01*
X34983057Y40103500D01*
X34850763Y40064656D01*
X34734764Y39990109D01*
X34644471Y39885903D01*
X34644468Y39885900D01*
X34587192Y39760481D01*
X34587191Y39760479D01*
X34567569Y39624000D01*
X34044899Y39624000D01*
X33998945Y39775492D01*
X33998943Y39775495D01*
X33998943Y39775497D01*
X33901030Y39958678D01*
X33901028Y39958680D01*
X33901027Y39958683D01*
X33844009Y40028160D01*
X33769252Y40119253D01*
X33608684Y40251026D01*
X33608677Y40251031D01*
X33425496Y40348944D01*
X33226716Y40409243D01*
X33020000Y40429602D01*
X32813283Y40409243D01*
X32614503Y40348944D01*
X32431322Y40251031D01*
X32431315Y40251026D01*
X32270747Y40119253D01*
X32138974Y39958685D01*
X32138969Y39958678D01*
X32041056Y39775497D01*
X31980757Y39576717D01*
X31960398Y39370001D01*
X30544000Y39370001D01*
X30544000Y39466526D01*
X30563685Y39533565D01*
X30574278Y39547718D01*
X30633529Y39616097D01*
X30690808Y39741520D01*
X30710431Y39878000D01*
X30690808Y40014480D01*
X30642960Y40119253D01*
X30633531Y40139900D01*
X30633529Y40139902D01*
X30633529Y40139903D01*
X30543235Y40244109D01*
X30427240Y40318654D01*
X30427238Y40318655D01*
X30427236Y40318656D01*
X30294943Y40357500D01*
X30294942Y40357500D01*
X30157058Y40357500D01*
X30157057Y40357500D01*
X30024763Y40318656D01*
X29908764Y40244109D01*
X29818471Y40139903D01*
X29818468Y40139900D01*
X29761192Y40014481D01*
X29761191Y40014479D01*
X29741569Y39878001D01*
X25568654Y39878001D01*
X25567518Y39885903D01*
X25554208Y39978480D01*
X25527683Y40036561D01*
X25496931Y40103900D01*
X25496929Y40103902D01*
X25496929Y40103903D01*
X25406635Y40208109D01*
X25290640Y40282654D01*
X25290638Y40282655D01*
X25290636Y40282656D01*
X25158343Y40321500D01*
X25158342Y40321500D01*
X25020458Y40321500D01*
X25020457Y40321500D01*
X24888163Y40282656D01*
X24772161Y40208107D01*
X24719008Y40146765D01*
X24660230Y40108991D01*
X24590360Y40108991D01*
X24531583Y40146766D01*
X24531582Y40146766D01*
X24478430Y40208107D01*
X24447235Y40244109D01*
X24331240Y40318654D01*
X24331238Y40318655D01*
X24331236Y40318656D01*
X24198943Y40357500D01*
X24198942Y40357500D01*
X24061058Y40357500D01*
X24061057Y40357500D01*
X23928763Y40318656D01*
X23812764Y40244109D01*
X23722471Y40139903D01*
X23722468Y40139900D01*
X23665192Y40014481D01*
X23665191Y40014479D01*
X23645569Y39878000D01*
X23665191Y39741522D01*
X23665192Y39741520D01*
X23722468Y39616101D01*
X23722470Y39616099D01*
X23722471Y39616097D01*
X23812765Y39511891D01*
X23928760Y39437346D01*
X23928762Y39437346D01*
X23928763Y39437345D01*
X23969180Y39425477D01*
X24027958Y39387702D01*
X24056983Y39324147D01*
X24047039Y39254988D01*
X24001284Y39202184D01*
X23969180Y39187523D01*
X23928763Y39175656D01*
X23812764Y39101109D01*
X23722471Y38996903D01*
X23722468Y38996900D01*
X23665192Y38871481D01*
X23665191Y38871479D01*
X23645569Y38735000D01*
X18623016Y38735000D01*
X18661027Y38781317D01*
X18720267Y38892146D01*
X18758943Y38964504D01*
X18758943Y38964505D01*
X18758945Y38964508D01*
X18819242Y39163282D01*
X18839602Y39370000D01*
X18819242Y39576718D01*
X18758945Y39775492D01*
X18758943Y39775495D01*
X18758943Y39775497D01*
X18661030Y39958678D01*
X18661028Y39958680D01*
X18661027Y39958683D01*
X18604009Y40028160D01*
X18529252Y40119253D01*
X18368684Y40251026D01*
X18368677Y40251031D01*
X18185496Y40348944D01*
X17986716Y40409243D01*
X17780000Y40429602D01*
X17573283Y40409243D01*
X17374503Y40348944D01*
X17191322Y40251031D01*
X17191315Y40251026D01*
X17030747Y40119253D01*
X16898974Y39958685D01*
X16898969Y39958678D01*
X16801056Y39775497D01*
X16740757Y39576717D01*
X16720398Y39370001D01*
X8415866Y39370001D01*
X8516810Y39409107D01*
X8698722Y39521742D01*
X8856841Y39665886D01*
X8985781Y39836630D01*
X9081151Y40028160D01*
X9081151Y40028163D01*
X9081153Y40028165D01*
X9124671Y40181118D01*
X9139704Y40233952D01*
X9159446Y40447000D01*
X9139704Y40660048D01*
X9131200Y40689935D01*
X9081153Y40865836D01*
X9081150Y40865842D01*
X8996476Y41035891D01*
X8985781Y41057370D01*
X8856841Y41228114D01*
X8698722Y41372258D01*
X8698716Y41372262D01*
X8698713Y41372264D01*
X8516813Y41484892D01*
X8516807Y41484894D01*
X8317297Y41562185D01*
X8106980Y41601500D01*
X7893020Y41601500D01*
X7682703Y41562185D01*
X7621514Y41538480D01*
X7483192Y41484894D01*
X7483186Y41484892D01*
X7301286Y41372264D01*
X7301283Y41372262D01*
X7301279Y41372260D01*
X7301278Y41372258D01*
X7184194Y41265522D01*
X7143158Y41228113D01*
X7014219Y41057371D01*
X6918849Y40865842D01*
X6918846Y40865836D01*
X6897765Y40791741D01*
X6860486Y40732647D01*
X6797176Y40703090D01*
X6727937Y40712452D01*
X6674750Y40757762D01*
X6654503Y40824634D01*
X6654499Y40825675D01*
X6654499Y41372064D01*
X6654499Y41372066D01*
X6639734Y41446301D01*
X6584476Y41529000D01*
X6583484Y41530485D01*
X6533019Y41564204D01*
X6499301Y41586734D01*
X6499299Y41586735D01*
X6499296Y41586736D01*
X6425069Y41601500D01*
X4574936Y41601500D01*
X4500698Y41586734D01*
X4416515Y41530485D01*
X4360266Y41446301D01*
X4360264Y41446297D01*
X4345500Y41372072D01*
X4345500Y39521937D01*
X500500Y39521937D01*
X500500Y41910000D01*
X20851569Y41910000D01*
X20871191Y41773522D01*
X20871192Y41773520D01*
X20928468Y41648101D01*
X20928470Y41648099D01*
X20928471Y41648097D01*
X21018765Y41543891D01*
X21134760Y41469346D01*
X21134762Y41469346D01*
X21134763Y41469345D01*
X21267057Y41430500D01*
X21267058Y41430500D01*
X21404942Y41430500D01*
X21537240Y41469346D01*
X21630064Y41529000D01*
X28852569Y41529000D01*
X28872191Y41392522D01*
X28872192Y41392520D01*
X28929468Y41267101D01*
X28929470Y41267099D01*
X28929471Y41267097D01*
X29019765Y41162891D01*
X29135760Y41088346D01*
X29135762Y41088346D01*
X29135763Y41088345D01*
X29268057Y41049500D01*
X29268058Y41049500D01*
X29405942Y41049500D01*
X29538240Y41088346D01*
X29654235Y41162891D01*
X29744529Y41267097D01*
X29801808Y41392520D01*
X29803171Y41402001D01*
X32281569Y41402001D01*
X32301191Y41265522D01*
X32301192Y41265520D01*
X32358468Y41140101D01*
X32358470Y41140099D01*
X32358471Y41140097D01*
X32448765Y41035891D01*
X32564760Y40961346D01*
X32564762Y40961346D01*
X32564763Y40961345D01*
X32697057Y40922500D01*
X32697058Y40922500D01*
X32834942Y40922500D01*
X32967240Y40961346D01*
X33083235Y41035891D01*
X33173529Y41140097D01*
X33230808Y41265520D01*
X33250431Y41402000D01*
X33230808Y41538480D01*
X33202028Y41601500D01*
X33173531Y41663900D01*
X33173529Y41663902D01*
X33173529Y41663903D01*
X33083235Y41768109D01*
X32967240Y41842654D01*
X32967238Y41842655D01*
X32967236Y41842656D01*
X32834943Y41881500D01*
X32834942Y41881500D01*
X32697058Y41881500D01*
X32697057Y41881500D01*
X32564763Y41842656D01*
X32448764Y41768109D01*
X32358471Y41663903D01*
X32358468Y41663900D01*
X32301192Y41538481D01*
X32301191Y41538479D01*
X32281569Y41402001D01*
X29803171Y41402001D01*
X29821431Y41529000D01*
X29801808Y41665480D01*
X29752467Y41773522D01*
X29744531Y41790900D01*
X29744529Y41790902D01*
X29744529Y41790903D01*
X29654235Y41895109D01*
X29538240Y41969654D01*
X29538238Y41969655D01*
X29538236Y41969656D01*
X29405943Y42008500D01*
X29405942Y42008500D01*
X29268058Y42008500D01*
X29268057Y42008500D01*
X29135763Y41969656D01*
X29019764Y41895109D01*
X28929471Y41790903D01*
X28929468Y41790900D01*
X28872192Y41665481D01*
X28872191Y41665479D01*
X28852569Y41529000D01*
X21630064Y41529000D01*
X21653235Y41543891D01*
X21743529Y41648097D01*
X21800808Y41773520D01*
X21820431Y41910000D01*
X21800808Y42046480D01*
X21774283Y42104561D01*
X21743531Y42171900D01*
X21743529Y42171902D01*
X21743529Y42171903D01*
X21653235Y42276109D01*
X21537240Y42350654D01*
X21537238Y42350655D01*
X21537236Y42350656D01*
X21404943Y42389500D01*
X21404942Y42389500D01*
X21267058Y42389500D01*
X21267057Y42389500D01*
X21134763Y42350656D01*
X21018764Y42276109D01*
X20928471Y42171903D01*
X20928468Y42171900D01*
X20871192Y42046481D01*
X20871191Y42046479D01*
X20851569Y41910000D01*
X500500Y41910000D01*
X500500Y43270937D01*
X22970500Y43270937D01*
X22985266Y43196699D01*
X23041515Y43112516D01*
X23058873Y43100918D01*
X23125699Y43056266D01*
X23125702Y43056266D01*
X23125703Y43056265D01*
X23150666Y43051300D01*
X23199933Y43041500D01*
X25050066Y43041501D01*
X25124301Y43056266D01*
X25208484Y43112516D01*
X25264734Y43196699D01*
X25279500Y43270933D01*
X25279499Y43959678D01*
X25299183Y44026714D01*
X25351987Y44072469D01*
X25421146Y44082413D01*
X25484702Y44053388D01*
X25522476Y43994610D01*
X25525134Y43983520D01*
X25583846Y43777165D01*
X25583849Y43777160D01*
X25679219Y43585630D01*
X25808159Y43414886D01*
X25966278Y43270742D01*
X25966283Y43270739D01*
X25966286Y43270737D01*
X26148186Y43158109D01*
X26148187Y43158109D01*
X26148190Y43158107D01*
X26347703Y43080815D01*
X26558020Y43041500D01*
X26558022Y43041500D01*
X26771978Y43041500D01*
X26771980Y43041500D01*
X26982297Y43080815D01*
X27181810Y43158107D01*
X27363722Y43270742D01*
X27521841Y43414886D01*
X27650781Y43585630D01*
X27746151Y43777160D01*
X27746151Y43777163D01*
X27746153Y43777165D01*
X27804703Y43982950D01*
X27804704Y43982953D01*
X27813921Y44082413D01*
X27824446Y44196000D01*
X27813698Y44311983D01*
X27804704Y44409048D01*
X27804703Y44409051D01*
X27746153Y44614836D01*
X27746150Y44614842D01*
X27650781Y44806370D01*
X27521841Y44977114D01*
X27363722Y45121258D01*
X27363716Y45121262D01*
X27363713Y45121264D01*
X27181813Y45233892D01*
X27181807Y45233894D01*
X27143307Y45248809D01*
X26982297Y45311185D01*
X26771980Y45350500D01*
X26558020Y45350500D01*
X26347703Y45311185D01*
X26260541Y45277418D01*
X26148192Y45233894D01*
X26148186Y45233892D01*
X25966286Y45121264D01*
X25966283Y45121262D01*
X25966279Y45121260D01*
X25966278Y45121258D01*
X25812223Y44980819D01*
X25808158Y44977113D01*
X25679219Y44806371D01*
X25583849Y44614842D01*
X25583846Y44614836D01*
X25523727Y44403534D01*
X25522513Y44403880D01*
X25493710Y44347249D01*
X25433394Y44311983D01*
X25363586Y44314924D01*
X25306450Y44355140D01*
X25280127Y44419861D01*
X25279499Y44432325D01*
X25279499Y45121064D01*
X25279499Y45121066D01*
X25264734Y45195301D01*
X25209870Y45277410D01*
X25208484Y45279485D01*
X25158019Y45313204D01*
X25124301Y45335734D01*
X25124299Y45335735D01*
X25124296Y45335736D01*
X25050069Y45350500D01*
X23199936Y45350500D01*
X23125698Y45335734D01*
X23041515Y45279485D01*
X22985266Y45195301D01*
X22985264Y45195297D01*
X22970500Y45121072D01*
X22970500Y43270937D01*
X500500Y43270937D01*
X500500Y45085000D01*
X18390908Y45085000D01*
X18410798Y44921191D01*
X18469313Y44766901D01*
X18469313Y44766900D01*
X18563052Y44631098D01*
X18686563Y44521676D01*
X18686565Y44521675D01*
X18832676Y44444990D01*
X18992894Y44405500D01*
X19157906Y44405500D01*
X19318124Y44444990D01*
X19464235Y44521675D01*
X19587749Y44631099D01*
X19681487Y44766901D01*
X19740001Y44921191D01*
X19759891Y45085000D01*
X19755489Y45121258D01*
X19740001Y45248810D01*
X19700127Y45353949D01*
X19681487Y45403099D01*
X19587749Y45538901D01*
X19587747Y45538903D01*
X19464236Y45648325D01*
X19318122Y45725011D01*
X19157906Y45764500D01*
X18992894Y45764500D01*
X18832677Y45725011D01*
X18686563Y45648325D01*
X18563052Y45538903D01*
X18469313Y45403101D01*
X18469313Y45403100D01*
X18410798Y45248810D01*
X18390908Y45085001D01*
X18390908Y45085000D01*
X500500Y45085000D01*
X500500Y46138740D01*
X945500Y46138740D01*
X956156Y46018875D01*
X956157Y46018872D01*
X1012358Y45822460D01*
X1106946Y45641380D01*
X1236048Y45483048D01*
X1394380Y45353946D01*
X1575460Y45259358D01*
X1771872Y45203157D01*
X1891738Y45192500D01*
X1891740Y45192500D01*
X3508260Y45192500D01*
X3508262Y45192500D01*
X3628128Y45203157D01*
X3824540Y45259358D01*
X4005620Y45353946D01*
X4163952Y45483048D01*
X4293054Y45641380D01*
X4387642Y45822460D01*
X4443843Y46018872D01*
X4454500Y46138738D01*
X4454500Y46138740D01*
X11545500Y46138740D01*
X11556156Y46018875D01*
X11556157Y46018872D01*
X11612358Y45822460D01*
X11706946Y45641380D01*
X11836048Y45483048D01*
X11994380Y45353946D01*
X12175460Y45259358D01*
X12371872Y45203157D01*
X12491738Y45192500D01*
X12491740Y45192500D01*
X14108260Y45192500D01*
X14108262Y45192500D01*
X14228128Y45203157D01*
X14424540Y45259358D01*
X14605620Y45353946D01*
X14763952Y45483048D01*
X14893054Y45641380D01*
X14987642Y45822460D01*
X15043843Y46018872D01*
X15054500Y46138738D01*
X15054500Y46138740D01*
X35745500Y46138740D01*
X35756156Y46018875D01*
X35756157Y46018872D01*
X35812358Y45822460D01*
X35906946Y45641380D01*
X36036048Y45483048D01*
X36194380Y45353946D01*
X36375460Y45259358D01*
X36571872Y45203157D01*
X36691738Y45192500D01*
X36691740Y45192500D01*
X38308260Y45192500D01*
X38308262Y45192500D01*
X38428128Y45203157D01*
X38624540Y45259358D01*
X38805620Y45353946D01*
X38963952Y45483048D01*
X39093054Y45641380D01*
X39187642Y45822460D01*
X39243843Y46018872D01*
X39254500Y46138738D01*
X39254500Y48755262D01*
X39243843Y48875128D01*
X39187642Y49071540D01*
X39093054Y49252620D01*
X38963952Y49410952D01*
X38805620Y49540054D01*
X38624540Y49634642D01*
X38430907Y49690048D01*
X38428125Y49690844D01*
X38331653Y49699421D01*
X38308262Y49701500D01*
X36691738Y49701500D01*
X36670425Y49699606D01*
X36571874Y49690844D01*
X36375462Y49634643D01*
X36375460Y49634643D01*
X36375460Y49634642D01*
X36194380Y49540054D01*
X36194378Y49540053D01*
X36194377Y49540052D01*
X36036048Y49410952D01*
X35916187Y49263953D01*
X35906946Y49252620D01*
X35875300Y49192037D01*
X35812357Y49071538D01*
X35756156Y48875126D01*
X35747394Y48776574D01*
X35745599Y48756369D01*
X35745500Y48755260D01*
X35745500Y46138740D01*
X15054500Y46138740D01*
X15054500Y48551937D01*
X21277500Y48551937D01*
X21292266Y48477699D01*
X21348515Y48393516D01*
X21382234Y48370986D01*
X21432699Y48337266D01*
X21432702Y48337266D01*
X21432703Y48337265D01*
X21457666Y48332300D01*
X21506933Y48322500D01*
X23357066Y48322501D01*
X23431301Y48337266D01*
X23515484Y48393516D01*
X23571734Y48477699D01*
X23586500Y48551933D01*
X23586499Y49098327D01*
X23606183Y49165363D01*
X23658987Y49211118D01*
X23728146Y49221062D01*
X23791702Y49192037D01*
X23829476Y49133259D01*
X23829765Y49132259D01*
X23850847Y49058163D01*
X23850849Y49058159D01*
X23946219Y48866631D01*
X23946219Y48866630D01*
X24075159Y48695886D01*
X24233278Y48551742D01*
X24233283Y48551739D01*
X24233286Y48551737D01*
X24415186Y48439109D01*
X24415187Y48439109D01*
X24415190Y48439107D01*
X24614703Y48361815D01*
X24825020Y48322500D01*
X24825022Y48322500D01*
X25038978Y48322500D01*
X25038980Y48322500D01*
X25249297Y48361815D01*
X25448810Y48439107D01*
X25630722Y48551742D01*
X25788841Y48695886D01*
X25917781Y48866630D01*
X26013151Y49058160D01*
X26013151Y49058163D01*
X26013153Y49058165D01*
X26056671Y49211118D01*
X26071704Y49263952D01*
X26091446Y49477000D01*
X26071704Y49690048D01*
X26063200Y49719935D01*
X26044972Y49784000D01*
X32154569Y49784000D01*
X32174191Y49647522D01*
X32174192Y49647520D01*
X32231468Y49522101D01*
X32231470Y49522099D01*
X32231471Y49522097D01*
X32321765Y49417891D01*
X32437760Y49343346D01*
X32437762Y49343346D01*
X32437763Y49343345D01*
X32570057Y49304500D01*
X32570058Y49304500D01*
X32707942Y49304500D01*
X32840240Y49343346D01*
X32956235Y49417891D01*
X33046529Y49522097D01*
X33103808Y49647520D01*
X33123431Y49784000D01*
X33103808Y49920480D01*
X33061759Y50012554D01*
X33046531Y50045900D01*
X33046529Y50045902D01*
X33046529Y50045903D01*
X32956235Y50150109D01*
X32840240Y50224654D01*
X32840238Y50224655D01*
X32840236Y50224656D01*
X32707943Y50263500D01*
X32707942Y50263500D01*
X32570058Y50263500D01*
X32570057Y50263500D01*
X32437763Y50224656D01*
X32321764Y50150109D01*
X32231471Y50045903D01*
X32231468Y50045900D01*
X32174192Y49920481D01*
X32174191Y49920479D01*
X32154569Y49784000D01*
X26044972Y49784000D01*
X26013153Y49895836D01*
X26013150Y49895842D01*
X25964619Y49993306D01*
X25917781Y50087370D01*
X25788841Y50258114D01*
X25630722Y50402258D01*
X25630716Y50402262D01*
X25630713Y50402264D01*
X25448813Y50514892D01*
X25448807Y50514894D01*
X25249297Y50592185D01*
X25038980Y50631500D01*
X24825020Y50631500D01*
X24614703Y50592185D01*
X24532876Y50560485D01*
X24415192Y50514894D01*
X24415186Y50514892D01*
X24233286Y50402264D01*
X24233283Y50402262D01*
X24233279Y50402260D01*
X24233278Y50402258D01*
X24081067Y50263500D01*
X24075158Y50258113D01*
X23946219Y50087371D01*
X23850849Y49895842D01*
X23850846Y49895836D01*
X23829765Y49821741D01*
X23792486Y49762647D01*
X23729176Y49733090D01*
X23659937Y49742452D01*
X23606750Y49787762D01*
X23586503Y49854634D01*
X23586499Y49855675D01*
X23586499Y50402064D01*
X23586499Y50402066D01*
X23571734Y50476301D01*
X23545947Y50514894D01*
X23515484Y50560485D01*
X23465019Y50594204D01*
X23431301Y50616734D01*
X23431299Y50616735D01*
X23431296Y50616736D01*
X23357069Y50631500D01*
X21506936Y50631500D01*
X21432698Y50616734D01*
X21348515Y50560485D01*
X21292266Y50476301D01*
X21292264Y50476297D01*
X21277500Y50402072D01*
X21277500Y48551937D01*
X15054500Y48551937D01*
X15054500Y48755262D01*
X15043843Y48875128D01*
X14987642Y49071540D01*
X14893054Y49252620D01*
X14763952Y49410952D01*
X14605620Y49540054D01*
X14424540Y49634642D01*
X14230907Y49690048D01*
X14228125Y49690844D01*
X14131653Y49699421D01*
X14108262Y49701500D01*
X12491738Y49701500D01*
X12470426Y49699606D01*
X12371874Y49690844D01*
X12175462Y49634643D01*
X12175460Y49634643D01*
X12175460Y49634642D01*
X11994380Y49540054D01*
X11994378Y49540053D01*
X11994377Y49540052D01*
X11836048Y49410952D01*
X11716187Y49263953D01*
X11706946Y49252620D01*
X11675300Y49192037D01*
X11612357Y49071538D01*
X11556156Y48875126D01*
X11547394Y48776574D01*
X11545599Y48756369D01*
X11545500Y48755260D01*
X11545500Y46138740D01*
X4454500Y46138740D01*
X4454500Y48755262D01*
X4443843Y48875128D01*
X4387642Y49071540D01*
X4293054Y49252620D01*
X4163952Y49410952D01*
X4005620Y49540054D01*
X3824540Y49634642D01*
X3630907Y49690048D01*
X3628125Y49690844D01*
X3531653Y49699421D01*
X3508262Y49701500D01*
X1891738Y49701500D01*
X1870425Y49699606D01*
X1771874Y49690844D01*
X1575462Y49634643D01*
X1575460Y49634643D01*
X1575460Y49634642D01*
X1394380Y49540054D01*
X1394378Y49540053D01*
X1394377Y49540052D01*
X1236048Y49410952D01*
X1116187Y49263953D01*
X1106946Y49252620D01*
X1075300Y49192037D01*
X1012357Y49071538D01*
X956156Y48875126D01*
X947394Y48776574D01*
X945599Y48756369D01*
X945500Y48755260D01*
X945500Y46138740D01*
X500500Y46138740D01*
X500500Y53340000D01*
X15263569Y53340000D01*
X15283191Y53203522D01*
X15283192Y53203520D01*
X15340468Y53078101D01*
X15340470Y53078099D01*
X15340471Y53078097D01*
X15430765Y52973891D01*
X15546760Y52899346D01*
X15546762Y52899346D01*
X15546763Y52899345D01*
X15679057Y52860500D01*
X15679058Y52860500D01*
X15816942Y52860500D01*
X15949240Y52899346D01*
X16065235Y52973891D01*
X16155529Y53078097D01*
X16212808Y53203520D01*
X16232431Y53340000D01*
X16212808Y53476480D01*
X16186283Y53534561D01*
X16155531Y53601900D01*
X16155529Y53601902D01*
X16155529Y53601903D01*
X16065235Y53706109D01*
X15949240Y53780654D01*
X15949238Y53780655D01*
X15949236Y53780656D01*
X15816943Y53819500D01*
X15816942Y53819500D01*
X15679058Y53819500D01*
X15679057Y53819500D01*
X15546763Y53780656D01*
X15430764Y53706109D01*
X15340471Y53601903D01*
X15340468Y53601900D01*
X15283192Y53476481D01*
X15283191Y53476479D01*
X15263569Y53340000D01*
X500500Y53340000D01*
X500500Y54521937D01*
X4345500Y54521937D01*
X4360266Y54447699D01*
X4416515Y54363516D01*
X4439586Y54348101D01*
X4500699Y54307266D01*
X4500702Y54307266D01*
X4500703Y54307265D01*
X4525666Y54302300D01*
X4574933Y54292500D01*
X6425066Y54292501D01*
X6499301Y54307266D01*
X6583484Y54363516D01*
X6639734Y54447699D01*
X6654500Y54521933D01*
X6654499Y55068327D01*
X6674183Y55135363D01*
X6726987Y55181118D01*
X6796146Y55191062D01*
X6859702Y55162037D01*
X6897476Y55103259D01*
X6897765Y55102259D01*
X6918847Y55028163D01*
X6918849Y55028159D01*
X6944767Y54976109D01*
X7014219Y54836630D01*
X7143159Y54665886D01*
X7301278Y54521742D01*
X7301283Y54521739D01*
X7301286Y54521737D01*
X7483186Y54409109D01*
X7483187Y54409109D01*
X7483190Y54409107D01*
X7682703Y54331815D01*
X7893020Y54292500D01*
X7893022Y54292500D01*
X8106978Y54292500D01*
X8106980Y54292500D01*
X8317297Y54331815D01*
X8516810Y54409107D01*
X8698722Y54521742D01*
X8856841Y54665886D01*
X8910544Y54737000D01*
X15263569Y54737000D01*
X15283191Y54600522D01*
X15283192Y54600520D01*
X15340468Y54475101D01*
X15340470Y54475099D01*
X15340471Y54475097D01*
X15430765Y54370891D01*
X15546760Y54296346D01*
X15546762Y54296346D01*
X15546763Y54296345D01*
X15679057Y54257500D01*
X15679058Y54257500D01*
X15816942Y54257500D01*
X15949240Y54296346D01*
X16065235Y54370891D01*
X16155529Y54475097D01*
X16212808Y54600520D01*
X16232431Y54737000D01*
X16212808Y54873480D01*
X16165939Y54976109D01*
X16155531Y54998900D01*
X16155529Y54998902D01*
X16155529Y54998903D01*
X16065235Y55103109D01*
X15963111Y55168740D01*
X17877500Y55168740D01*
X17888156Y55048875D01*
X17938795Y54871903D01*
X17944358Y54852460D01*
X18038946Y54671380D01*
X18168048Y54513048D01*
X18326380Y54383946D01*
X18507460Y54289358D01*
X18703872Y54233157D01*
X18823738Y54222500D01*
X18823740Y54222500D01*
X20440260Y54222500D01*
X20440262Y54222500D01*
X20560128Y54233157D01*
X20756540Y54289358D01*
X20937620Y54383946D01*
X21095952Y54513048D01*
X21225054Y54671380D01*
X21319642Y54852460D01*
X21375843Y55048872D01*
X21386500Y55168738D01*
X21386500Y55168740D01*
X28477500Y55168740D01*
X28488156Y55048875D01*
X28538795Y54871903D01*
X28544358Y54852460D01*
X28638946Y54671380D01*
X28768048Y54513048D01*
X28926380Y54383946D01*
X29107460Y54289358D01*
X29303872Y54233157D01*
X29423738Y54222500D01*
X29423740Y54222500D01*
X31040260Y54222500D01*
X31040262Y54222500D01*
X31160128Y54233157D01*
X31356540Y54289358D01*
X31537620Y54383946D01*
X31695952Y54513048D01*
X31775006Y54610001D01*
X34567569Y54610001D01*
X34587191Y54473522D01*
X34587192Y54473520D01*
X34644468Y54348101D01*
X34644470Y54348099D01*
X34644471Y54348097D01*
X34734765Y54243891D01*
X34850760Y54169346D01*
X34850762Y54169346D01*
X34850763Y54169345D01*
X34983057Y54130500D01*
X34983058Y54130500D01*
X35120942Y54130500D01*
X35253240Y54169346D01*
X35369235Y54243891D01*
X35459529Y54348097D01*
X35516808Y54473520D01*
X35523769Y54521937D01*
X39145500Y54521937D01*
X39160266Y54447699D01*
X39216515Y54363516D01*
X39239586Y54348101D01*
X39300699Y54307266D01*
X39300702Y54307266D01*
X39300703Y54307265D01*
X39325666Y54302300D01*
X39374933Y54292500D01*
X41225066Y54292501D01*
X41299301Y54307266D01*
X41383484Y54363516D01*
X41439734Y54447699D01*
X41454500Y54521933D01*
X41454499Y55068327D01*
X41474183Y55135363D01*
X41526987Y55181118D01*
X41596146Y55191062D01*
X41659702Y55162037D01*
X41697476Y55103259D01*
X41697765Y55102259D01*
X41718847Y55028163D01*
X41718849Y55028159D01*
X41744767Y54976109D01*
X41814219Y54836630D01*
X41943159Y54665886D01*
X42101278Y54521742D01*
X42101283Y54521739D01*
X42101286Y54521737D01*
X42283186Y54409109D01*
X42283187Y54409109D01*
X42283190Y54409107D01*
X42482703Y54331815D01*
X42693020Y54292500D01*
X42693022Y54292500D01*
X42906978Y54292500D01*
X42906980Y54292500D01*
X43117297Y54331815D01*
X43316810Y54409107D01*
X43498722Y54521742D01*
X43656841Y54665886D01*
X43785781Y54836630D01*
X43881151Y55028160D01*
X43881151Y55028163D01*
X43881153Y55028165D01*
X43921149Y55168738D01*
X43939704Y55233952D01*
X43959446Y55447000D01*
X43939704Y55660048D01*
X43931200Y55689935D01*
X43881153Y55865836D01*
X43881150Y55865842D01*
X43785781Y56057370D01*
X43656841Y56228114D01*
X43498722Y56372258D01*
X43498716Y56372262D01*
X43498713Y56372264D01*
X43316813Y56484892D01*
X43316807Y56484894D01*
X43117297Y56562185D01*
X42906980Y56601500D01*
X42693020Y56601500D01*
X42482703Y56562185D01*
X42400876Y56530485D01*
X42283192Y56484894D01*
X42283186Y56484892D01*
X42101286Y56372264D01*
X42101283Y56372262D01*
X42101279Y56372260D01*
X42101278Y56372258D01*
X42060749Y56335311D01*
X41943158Y56228113D01*
X41814219Y56057371D01*
X41718849Y55865842D01*
X41718846Y55865836D01*
X41697765Y55791741D01*
X41660486Y55732647D01*
X41597176Y55703090D01*
X41527937Y55712452D01*
X41474750Y55757762D01*
X41454503Y55824634D01*
X41454499Y55825675D01*
X41454499Y56372064D01*
X41454499Y56372066D01*
X41439734Y56446301D01*
X41413947Y56484894D01*
X41383484Y56530485D01*
X41333019Y56564204D01*
X41299301Y56586734D01*
X41299299Y56586735D01*
X41299296Y56586736D01*
X41225069Y56601500D01*
X39374936Y56601500D01*
X39300698Y56586734D01*
X39216515Y56530485D01*
X39160266Y56446301D01*
X39160264Y56446297D01*
X39145500Y56372072D01*
X39145500Y54521937D01*
X35523769Y54521937D01*
X35536431Y54610000D01*
X35516808Y54746480D01*
X35475638Y54836630D01*
X35459531Y54871900D01*
X35459529Y54871902D01*
X35459529Y54871903D01*
X35369235Y54976109D01*
X35253240Y55050654D01*
X35253238Y55050655D01*
X35253236Y55050656D01*
X35120943Y55089500D01*
X35120942Y55089500D01*
X34983058Y55089500D01*
X34983057Y55089500D01*
X34850763Y55050656D01*
X34734764Y54976109D01*
X34644471Y54871903D01*
X34644468Y54871900D01*
X34587192Y54746481D01*
X34587191Y54746479D01*
X34567569Y54610001D01*
X31775006Y54610001D01*
X31825054Y54671380D01*
X31919642Y54852460D01*
X31975843Y55048872D01*
X31986500Y55168738D01*
X31986500Y57785262D01*
X31975843Y57905128D01*
X31919642Y58101540D01*
X31825054Y58282620D01*
X31695952Y58440952D01*
X31537620Y58570054D01*
X31356540Y58664642D01*
X31206746Y58707504D01*
X31160125Y58720844D01*
X31063653Y58729421D01*
X31040262Y58731500D01*
X29423738Y58731500D01*
X29402425Y58729606D01*
X29303874Y58720844D01*
X29107462Y58664643D01*
X29107460Y58664643D01*
X29107460Y58664642D01*
X28926380Y58570054D01*
X28926378Y58570053D01*
X28926377Y58570052D01*
X28768048Y58440952D01*
X28641655Y58285942D01*
X28638946Y58282620D01*
X28554404Y58120772D01*
X28544357Y58101538D01*
X28488156Y57905126D01*
X28477500Y57785260D01*
X28477500Y55168740D01*
X21386500Y55168740D01*
X21386500Y57785262D01*
X21375843Y57905128D01*
X21319642Y58101540D01*
X21225054Y58282620D01*
X21095952Y58440952D01*
X20937620Y58570054D01*
X20756540Y58664642D01*
X20606746Y58707504D01*
X20560125Y58720844D01*
X20463653Y58729421D01*
X20440262Y58731500D01*
X18823738Y58731500D01*
X18802425Y58729606D01*
X18703874Y58720844D01*
X18507462Y58664643D01*
X18507460Y58664643D01*
X18507460Y58664642D01*
X18326380Y58570054D01*
X18326378Y58570053D01*
X18326377Y58570052D01*
X18168048Y58440952D01*
X18041655Y58285942D01*
X18038946Y58282620D01*
X17954404Y58120772D01*
X17944357Y58101538D01*
X17888156Y57905126D01*
X17877500Y57785260D01*
X17877500Y55168740D01*
X15963111Y55168740D01*
X15949240Y55177654D01*
X15949238Y55177655D01*
X15949236Y55177656D01*
X15816943Y55216500D01*
X15816942Y55216500D01*
X15679058Y55216500D01*
X15679057Y55216500D01*
X15546763Y55177656D01*
X15430764Y55103109D01*
X15340471Y54998903D01*
X15340468Y54998900D01*
X15283192Y54873481D01*
X15283191Y54873479D01*
X15263569Y54737000D01*
X8910544Y54737000D01*
X8985781Y54836630D01*
X9081151Y55028160D01*
X9081151Y55028163D01*
X9081153Y55028165D01*
X9121149Y55168738D01*
X9139704Y55233952D01*
X9159446Y55447000D01*
X9139704Y55660048D01*
X9131200Y55689935D01*
X9081153Y55865836D01*
X9081150Y55865842D01*
X8985781Y56057370D01*
X8856841Y56228114D01*
X8698722Y56372258D01*
X8698716Y56372262D01*
X8698713Y56372264D01*
X8516813Y56484892D01*
X8516807Y56484894D01*
X8317297Y56562185D01*
X8106980Y56601500D01*
X7893020Y56601500D01*
X7682703Y56562185D01*
X7600876Y56530485D01*
X7483192Y56484894D01*
X7483186Y56484892D01*
X7301286Y56372264D01*
X7301283Y56372262D01*
X7301279Y56372260D01*
X7301278Y56372258D01*
X7260749Y56335311D01*
X7143158Y56228113D01*
X7014219Y56057371D01*
X6918849Y55865842D01*
X6918846Y55865836D01*
X6897765Y55791741D01*
X6860486Y55732647D01*
X6797176Y55703090D01*
X6727937Y55712452D01*
X6674750Y55757762D01*
X6654503Y55824634D01*
X6654499Y55825675D01*
X6654499Y56372064D01*
X6654499Y56372066D01*
X6639734Y56446301D01*
X6613947Y56484894D01*
X6583484Y56530485D01*
X6533019Y56564204D01*
X6499301Y56586734D01*
X6499299Y56586735D01*
X6499296Y56586736D01*
X6425069Y56601500D01*
X4574936Y56601500D01*
X4500698Y56586734D01*
X4416515Y56530485D01*
X4360266Y56446301D01*
X4360264Y56446297D01*
X4345500Y56372072D01*
X4345500Y54521937D01*
X500500Y54521937D01*
X500500Y61138740D01*
X945500Y61138740D01*
X956156Y61018875D01*
X956157Y61018872D01*
X1012358Y60822460D01*
X1106946Y60641380D01*
X1236048Y60483048D01*
X1394380Y60353946D01*
X1575460Y60259358D01*
X1771872Y60203157D01*
X1891738Y60192500D01*
X1891740Y60192500D01*
X3508260Y60192500D01*
X3508262Y60192500D01*
X3628128Y60203157D01*
X3824540Y60259358D01*
X4005620Y60353946D01*
X4163952Y60483048D01*
X4293054Y60641380D01*
X4387642Y60822460D01*
X4443843Y61018872D01*
X4454500Y61138738D01*
X4454500Y61138740D01*
X11545500Y61138740D01*
X11556156Y61018875D01*
X11556157Y61018872D01*
X11612358Y60822460D01*
X11706946Y60641380D01*
X11836048Y60483048D01*
X11994380Y60353946D01*
X12175460Y60259358D01*
X12371872Y60203157D01*
X12491738Y60192500D01*
X12491740Y60192500D01*
X14108260Y60192500D01*
X14108262Y60192500D01*
X14228128Y60203157D01*
X14424540Y60259358D01*
X14605620Y60353946D01*
X14763952Y60483048D01*
X14893054Y60641380D01*
X14987642Y60822460D01*
X15043843Y61018872D01*
X15054500Y61138738D01*
X15054500Y61138740D01*
X35745500Y61138740D01*
X35756156Y61018875D01*
X35756157Y61018872D01*
X35812358Y60822460D01*
X35906946Y60641380D01*
X36036048Y60483048D01*
X36194380Y60353946D01*
X36375460Y60259358D01*
X36571872Y60203157D01*
X36691738Y60192500D01*
X36691740Y60192500D01*
X38308260Y60192500D01*
X38308262Y60192500D01*
X38428128Y60203157D01*
X38624540Y60259358D01*
X38805620Y60353946D01*
X38963952Y60483048D01*
X39093054Y60641380D01*
X39187642Y60822460D01*
X39243843Y61018872D01*
X39254500Y61138738D01*
X39254500Y63755262D01*
X39243843Y63875128D01*
X39187642Y64071540D01*
X39093054Y64252620D01*
X38963952Y64410952D01*
X38805620Y64540054D01*
X38624540Y64634642D01*
X38428128Y64690843D01*
X38428125Y64690844D01*
X38331653Y64699421D01*
X38308262Y64701500D01*
X36691738Y64701500D01*
X36670425Y64699606D01*
X36571874Y64690844D01*
X36375462Y64634643D01*
X36375460Y64634643D01*
X36375460Y64634642D01*
X36194380Y64540054D01*
X36194378Y64540053D01*
X36194377Y64540052D01*
X36096260Y64460048D01*
X36036048Y64410952D01*
X35906946Y64252620D01*
X35866500Y64175190D01*
X35812357Y64071538D01*
X35756156Y63875126D01*
X35751981Y63828163D01*
X35746091Y63761903D01*
X35745500Y63755260D01*
X35745500Y61138740D01*
X15054500Y61138740D01*
X15054500Y63500000D01*
X16787569Y63500000D01*
X16807191Y63363522D01*
X16807192Y63363520D01*
X16864468Y63238101D01*
X16864470Y63238099D01*
X16864471Y63238097D01*
X16954765Y63133891D01*
X17070760Y63059346D01*
X17070762Y63059346D01*
X17070763Y63059345D01*
X17203057Y63020500D01*
X17203058Y63020500D01*
X17340942Y63020500D01*
X17473240Y63059346D01*
X17589235Y63133891D01*
X17679529Y63238097D01*
X17717818Y63321937D01*
X21345500Y63321937D01*
X21360266Y63247699D01*
X21416515Y63163516D01*
X21450234Y63140986D01*
X21500699Y63107266D01*
X21500702Y63107266D01*
X21500703Y63107265D01*
X21525666Y63102300D01*
X21574933Y63092500D01*
X23425066Y63092501D01*
X23499301Y63107266D01*
X23583484Y63163516D01*
X23639734Y63247699D01*
X23654500Y63321933D01*
X23654499Y63868327D01*
X23674183Y63935363D01*
X23726987Y63981118D01*
X23796146Y63991062D01*
X23859702Y63962037D01*
X23897476Y63903259D01*
X23897765Y63902259D01*
X23918847Y63828163D01*
X23918849Y63828159D01*
X24014219Y63636630D01*
X24143159Y63465886D01*
X24301278Y63321742D01*
X24301283Y63321739D01*
X24301286Y63321737D01*
X24483186Y63209109D01*
X24483187Y63209109D01*
X24483190Y63209107D01*
X24682703Y63131815D01*
X24893020Y63092500D01*
X24893022Y63092500D01*
X25106978Y63092500D01*
X25106980Y63092500D01*
X25317297Y63131815D01*
X25516810Y63209107D01*
X25698722Y63321742D01*
X25856841Y63465886D01*
X25985781Y63636630D01*
X26081151Y63828160D01*
X26081151Y63828163D01*
X26081153Y63828165D01*
X26124671Y63981118D01*
X26139704Y64033952D01*
X26159446Y64247000D01*
X26139704Y64460048D01*
X26131200Y64489935D01*
X26081153Y64665836D01*
X26081150Y64665842D01*
X26068701Y64690843D01*
X25985781Y64857370D01*
X25856841Y65028114D01*
X25698722Y65172258D01*
X25698716Y65172262D01*
X25698713Y65172264D01*
X25516813Y65284892D01*
X25516807Y65284894D01*
X25317297Y65362185D01*
X25106980Y65401500D01*
X24893020Y65401500D01*
X24682703Y65362185D01*
X24614973Y65335946D01*
X24483192Y65284894D01*
X24483186Y65284892D01*
X24301286Y65172264D01*
X24301283Y65172262D01*
X24301279Y65172260D01*
X24301278Y65172258D01*
X24262503Y65136910D01*
X24143158Y65028113D01*
X24014219Y64857371D01*
X23918849Y64665842D01*
X23918846Y64665836D01*
X23897765Y64591741D01*
X23860486Y64532647D01*
X23797176Y64503090D01*
X23727937Y64512452D01*
X23674750Y64557762D01*
X23654503Y64624634D01*
X23654499Y64625675D01*
X23654499Y65172064D01*
X23654499Y65172066D01*
X23639734Y65246301D01*
X23613947Y65284894D01*
X23583484Y65330485D01*
X23533019Y65364204D01*
X23499301Y65386734D01*
X23499299Y65386735D01*
X23499296Y65386736D01*
X23425069Y65401500D01*
X21574936Y65401500D01*
X21500698Y65386734D01*
X21416515Y65330485D01*
X21360266Y65246301D01*
X21360264Y65246297D01*
X21345500Y65172072D01*
X21345500Y63321937D01*
X17717818Y63321937D01*
X17736808Y63363520D01*
X17756431Y63500000D01*
X17736808Y63636480D01*
X17682562Y63755262D01*
X17679531Y63761900D01*
X17679529Y63761902D01*
X17679529Y63761903D01*
X17589235Y63866109D01*
X17473240Y63940654D01*
X17473238Y63940655D01*
X17473236Y63940656D01*
X17340943Y63979500D01*
X17340942Y63979500D01*
X17203058Y63979500D01*
X17203057Y63979500D01*
X17070763Y63940656D01*
X16954764Y63866109D01*
X16864471Y63761903D01*
X16864468Y63761900D01*
X16807192Y63636481D01*
X16807191Y63636479D01*
X16787569Y63500000D01*
X15054500Y63500000D01*
X15054500Y63755262D01*
X15043843Y63875128D01*
X14987642Y64071540D01*
X14893054Y64252620D01*
X14763952Y64410952D01*
X14605620Y64540054D01*
X14424540Y64634642D01*
X14228128Y64690843D01*
X14228125Y64690844D01*
X14131653Y64699421D01*
X14108262Y64701500D01*
X12491738Y64701500D01*
X12470425Y64699606D01*
X12371874Y64690844D01*
X12175462Y64634643D01*
X12175460Y64634643D01*
X12175460Y64634642D01*
X11994380Y64540054D01*
X11994378Y64540053D01*
X11994377Y64540052D01*
X11896260Y64460048D01*
X11836048Y64410952D01*
X11706946Y64252620D01*
X11666500Y64175190D01*
X11612357Y64071538D01*
X11556156Y63875126D01*
X11551981Y63828163D01*
X11546091Y63761903D01*
X11545500Y63755260D01*
X11545500Y61138740D01*
X4454500Y61138740D01*
X4454500Y63755262D01*
X4443843Y63875128D01*
X4387642Y64071540D01*
X4293054Y64252620D01*
X4163952Y64410952D01*
X4005620Y64540054D01*
X3824540Y64634642D01*
X3628128Y64690843D01*
X3628125Y64690844D01*
X3531653Y64699421D01*
X3508262Y64701500D01*
X1891738Y64701500D01*
X1870425Y64699606D01*
X1771874Y64690844D01*
X1575462Y64634643D01*
X1575460Y64634643D01*
X1575460Y64634642D01*
X1394380Y64540054D01*
X1394378Y64540053D01*
X1394377Y64540052D01*
X1296260Y64460048D01*
X1236048Y64410952D01*
X1106946Y64252620D01*
X1066500Y64175190D01*
X1012357Y64071538D01*
X956156Y63875126D01*
X951981Y63828163D01*
X946091Y63761903D01*
X945500Y63755260D01*
X945500Y61138740D01*
X500500Y61138740D01*
X500500Y69521937D01*
X4345500Y69521937D01*
X4360266Y69447699D01*
X4416515Y69363516D01*
X4450234Y69340986D01*
X4500699Y69307266D01*
X4500702Y69307266D01*
X4500703Y69307265D01*
X4525666Y69302300D01*
X4574933Y69292500D01*
X6425066Y69292501D01*
X6499301Y69307266D01*
X6583484Y69363516D01*
X6639734Y69447699D01*
X6654500Y69521933D01*
X6654499Y70068327D01*
X6674183Y70135363D01*
X6726987Y70181118D01*
X6796146Y70191062D01*
X6859702Y70162037D01*
X6897476Y70103259D01*
X6897765Y70102259D01*
X6918847Y70028163D01*
X6918849Y70028159D01*
X7003626Y69857903D01*
X7014219Y69836630D01*
X7143159Y69665886D01*
X7301278Y69521742D01*
X7301283Y69521739D01*
X7301286Y69521737D01*
X7483186Y69409109D01*
X7483187Y69409109D01*
X7483190Y69409107D01*
X7682703Y69331815D01*
X7893020Y69292500D01*
X7893022Y69292500D01*
X8106978Y69292500D01*
X8106980Y69292500D01*
X8317297Y69331815D01*
X8516810Y69409107D01*
X8698722Y69521742D01*
X8856841Y69665886D01*
X8985781Y69836630D01*
X8992438Y69850000D01*
X15263569Y69850000D01*
X15283191Y69713522D01*
X15283192Y69713520D01*
X15340468Y69588101D01*
X15340470Y69588099D01*
X15340471Y69588097D01*
X15430765Y69483891D01*
X15546760Y69409346D01*
X15546762Y69409346D01*
X15546763Y69409345D01*
X15679057Y69370500D01*
X15679058Y69370500D01*
X15816942Y69370500D01*
X15949240Y69409346D01*
X16065235Y69483891D01*
X16155529Y69588097D01*
X16212808Y69713520D01*
X16232431Y69850000D01*
X16219672Y69938740D01*
X17945500Y69938740D01*
X17956156Y69818875D01*
X17999932Y69665888D01*
X18012358Y69622460D01*
X18106946Y69441380D01*
X18236048Y69283048D01*
X18394380Y69153946D01*
X18575460Y69059358D01*
X18771872Y69003157D01*
X18891738Y68992500D01*
X18891740Y68992500D01*
X20508260Y68992500D01*
X20508262Y68992500D01*
X20628128Y69003157D01*
X20824540Y69059358D01*
X21005620Y69153946D01*
X21163952Y69283048D01*
X21293054Y69441380D01*
X21387642Y69622460D01*
X21443843Y69818872D01*
X21454500Y69938738D01*
X21454500Y69938740D01*
X28545500Y69938740D01*
X28556156Y69818875D01*
X28599932Y69665888D01*
X28612358Y69622460D01*
X28706946Y69441380D01*
X28836048Y69283048D01*
X28994380Y69153946D01*
X29175460Y69059358D01*
X29371872Y69003157D01*
X29491738Y68992500D01*
X29491740Y68992500D01*
X31108260Y68992500D01*
X31108262Y68992500D01*
X31228128Y69003157D01*
X31424540Y69059358D01*
X31605620Y69153946D01*
X31763952Y69283048D01*
X31893054Y69441380D01*
X31973821Y69596001D01*
X34440569Y69596001D01*
X34460191Y69459522D01*
X34460192Y69459520D01*
X34517468Y69334101D01*
X34517470Y69334099D01*
X34517471Y69334097D01*
X34607765Y69229891D01*
X34723760Y69155346D01*
X34723762Y69155346D01*
X34723763Y69155345D01*
X34856057Y69116500D01*
X34856058Y69116500D01*
X34993942Y69116500D01*
X35126240Y69155346D01*
X35242235Y69229891D01*
X35332529Y69334097D01*
X35389808Y69459520D01*
X35398782Y69521937D01*
X39145500Y69521937D01*
X39160266Y69447699D01*
X39216515Y69363516D01*
X39250234Y69340986D01*
X39300699Y69307266D01*
X39300702Y69307266D01*
X39300703Y69307265D01*
X39325666Y69302300D01*
X39374933Y69292500D01*
X41225066Y69292501D01*
X41299301Y69307266D01*
X41383484Y69363516D01*
X41439734Y69447699D01*
X41454500Y69521933D01*
X41454499Y70068327D01*
X41474183Y70135363D01*
X41526987Y70181118D01*
X41596146Y70191062D01*
X41659702Y70162037D01*
X41697476Y70103259D01*
X41697765Y70102259D01*
X41718847Y70028163D01*
X41718849Y70028159D01*
X41803626Y69857903D01*
X41814219Y69836630D01*
X41943159Y69665886D01*
X42101278Y69521742D01*
X42101283Y69521739D01*
X42101286Y69521737D01*
X42283186Y69409109D01*
X42283187Y69409109D01*
X42283190Y69409107D01*
X42482703Y69331815D01*
X42693020Y69292500D01*
X42693022Y69292500D01*
X42906978Y69292500D01*
X42906980Y69292500D01*
X43117297Y69331815D01*
X43316810Y69409107D01*
X43498722Y69521742D01*
X43656841Y69665886D01*
X43785781Y69836630D01*
X43881151Y70028160D01*
X43881151Y70028163D01*
X43881153Y70028165D01*
X43924671Y70181118D01*
X43939704Y70233952D01*
X43959446Y70447000D01*
X43939704Y70660048D01*
X43931200Y70689935D01*
X43881153Y70865836D01*
X43881150Y70865842D01*
X43785781Y71057370D01*
X43656841Y71228114D01*
X43498722Y71372258D01*
X43498716Y71372262D01*
X43498713Y71372264D01*
X43316813Y71484892D01*
X43316807Y71484894D01*
X43117297Y71562185D01*
X42906980Y71601500D01*
X42693020Y71601500D01*
X42482703Y71562185D01*
X42400876Y71530485D01*
X42283192Y71484894D01*
X42283186Y71484892D01*
X42101286Y71372264D01*
X42101283Y71372262D01*
X42101279Y71372260D01*
X42101278Y71372258D01*
X41943159Y71228114D01*
X41943158Y71228113D01*
X41814219Y71057371D01*
X41718849Y70865842D01*
X41718846Y70865836D01*
X41697765Y70791741D01*
X41660486Y70732647D01*
X41597176Y70703090D01*
X41527937Y70712452D01*
X41474750Y70757762D01*
X41454503Y70824634D01*
X41454499Y70825675D01*
X41454499Y71372064D01*
X41454499Y71372066D01*
X41439734Y71446301D01*
X41413947Y71484894D01*
X41383484Y71530485D01*
X41331816Y71565008D01*
X41299301Y71586734D01*
X41299299Y71586735D01*
X41299296Y71586736D01*
X41225069Y71601500D01*
X39374936Y71601500D01*
X39300698Y71586734D01*
X39216515Y71530485D01*
X39160266Y71446301D01*
X39160264Y71446297D01*
X39145500Y71372072D01*
X39145500Y69521937D01*
X35398782Y69521937D01*
X35409431Y69596000D01*
X35389808Y69732480D01*
X35350353Y69818875D01*
X35332531Y69857900D01*
X35332529Y69857902D01*
X35332529Y69857903D01*
X35242235Y69962109D01*
X35126240Y70036654D01*
X35126238Y70036655D01*
X35126236Y70036656D01*
X34993943Y70075500D01*
X34993942Y70075500D01*
X34856058Y70075500D01*
X34856057Y70075500D01*
X34723763Y70036656D01*
X34607764Y69962109D01*
X34517471Y69857903D01*
X34517468Y69857900D01*
X34460192Y69732481D01*
X34460191Y69732479D01*
X34440569Y69596001D01*
X31973821Y69596001D01*
X31987642Y69622460D01*
X32043843Y69818872D01*
X32054500Y69938738D01*
X32054500Y72555262D01*
X32043843Y72675128D01*
X31987642Y72871540D01*
X31893054Y73052620D01*
X31763952Y73210952D01*
X31605620Y73340054D01*
X31424540Y73434642D01*
X31228128Y73490843D01*
X31228125Y73490844D01*
X31131653Y73499421D01*
X31108262Y73501500D01*
X29491738Y73501500D01*
X29470425Y73499606D01*
X29371874Y73490844D01*
X29175462Y73434643D01*
X29175460Y73434643D01*
X29175460Y73434642D01*
X28994380Y73340054D01*
X28994378Y73340053D01*
X28994377Y73340052D01*
X28836048Y73210952D01*
X28706948Y73052623D01*
X28612357Y72871538D01*
X28556156Y72675126D01*
X28547573Y72578582D01*
X28545570Y72556042D01*
X28545500Y72555260D01*
X28545500Y69938740D01*
X21454500Y69938740D01*
X21454500Y72555262D01*
X21443843Y72675128D01*
X21387642Y72871540D01*
X21293054Y73052620D01*
X21163952Y73210952D01*
X21005620Y73340054D01*
X20824540Y73434642D01*
X20628128Y73490843D01*
X20628125Y73490844D01*
X20531653Y73499421D01*
X20508262Y73501500D01*
X18891738Y73501500D01*
X18870425Y73499606D01*
X18771874Y73490844D01*
X18575462Y73434643D01*
X18575460Y73434643D01*
X18575460Y73434642D01*
X18394380Y73340054D01*
X18394378Y73340053D01*
X18394377Y73340052D01*
X18236048Y73210952D01*
X18106948Y73052623D01*
X18012357Y72871538D01*
X17956156Y72675126D01*
X17947573Y72578582D01*
X17945570Y72556042D01*
X17945500Y72555260D01*
X17945500Y69938740D01*
X16219672Y69938740D01*
X16212808Y69986480D01*
X16172154Y70075500D01*
X16155531Y70111900D01*
X16155529Y70111902D01*
X16155529Y70111903D01*
X16065235Y70216109D01*
X15949240Y70290654D01*
X15949238Y70290655D01*
X15949236Y70290656D01*
X15816943Y70329500D01*
X15816942Y70329500D01*
X15679058Y70329500D01*
X15679057Y70329500D01*
X15546763Y70290656D01*
X15430764Y70216109D01*
X15340471Y70111903D01*
X15340468Y70111900D01*
X15283192Y69986481D01*
X15283191Y69986479D01*
X15263569Y69850000D01*
X8992438Y69850000D01*
X9081151Y70028160D01*
X9081151Y70028163D01*
X9081153Y70028165D01*
X9124671Y70181118D01*
X9139704Y70233952D01*
X9159446Y70447000D01*
X9139704Y70660048D01*
X9131200Y70689935D01*
X9081153Y70865836D01*
X9081150Y70865842D01*
X8985781Y71057370D01*
X8856841Y71228114D01*
X8698722Y71372258D01*
X8698716Y71372262D01*
X8698713Y71372264D01*
X8516813Y71484892D01*
X8516807Y71484894D01*
X8317297Y71562185D01*
X8106980Y71601500D01*
X7893020Y71601500D01*
X7682703Y71562185D01*
X7600876Y71530485D01*
X7483192Y71484894D01*
X7483186Y71484892D01*
X7301286Y71372264D01*
X7301283Y71372262D01*
X7301279Y71372260D01*
X7301278Y71372258D01*
X7143159Y71228114D01*
X7143158Y71228113D01*
X7014219Y71057371D01*
X6918849Y70865842D01*
X6918846Y70865836D01*
X6897765Y70791741D01*
X6860486Y70732647D01*
X6797176Y70703090D01*
X6727937Y70712452D01*
X6674750Y70757762D01*
X6654503Y70824634D01*
X6654499Y70825675D01*
X6654499Y71372064D01*
X6654499Y71372066D01*
X6639734Y71446301D01*
X6613947Y71484894D01*
X6583484Y71530485D01*
X6531816Y71565008D01*
X6499301Y71586734D01*
X6499299Y71586735D01*
X6499296Y71586736D01*
X6425069Y71601500D01*
X4574936Y71601500D01*
X4500698Y71586734D01*
X4416515Y71530485D01*
X4360266Y71446301D01*
X4360264Y71446297D01*
X4345500Y71372072D01*
X4345500Y69521937D01*
X500500Y69521937D01*
X500500Y76138740D01*
X945500Y76138740D01*
X956156Y76018875D01*
X956157Y76018872D01*
X1012358Y75822460D01*
X1106946Y75641380D01*
X1236048Y75483048D01*
X1394380Y75353946D01*
X1575460Y75259358D01*
X1771872Y75203157D01*
X1891738Y75192500D01*
X1891740Y75192500D01*
X3508260Y75192500D01*
X3508262Y75192500D01*
X3628128Y75203157D01*
X3824540Y75259358D01*
X4005620Y75353946D01*
X4163952Y75483048D01*
X4293054Y75641380D01*
X4387642Y75822460D01*
X4443843Y76018872D01*
X4454500Y76138738D01*
X4454500Y76138740D01*
X11545500Y76138740D01*
X11556156Y76018875D01*
X11556157Y76018872D01*
X11612358Y75822460D01*
X11706946Y75641380D01*
X11836048Y75483048D01*
X11994380Y75353946D01*
X12175460Y75259358D01*
X12371872Y75203157D01*
X12491738Y75192500D01*
X12491740Y75192500D01*
X14108260Y75192500D01*
X14108262Y75192500D01*
X14228128Y75203157D01*
X14424540Y75259358D01*
X14605620Y75353946D01*
X14763952Y75483048D01*
X14893054Y75641380D01*
X14987642Y75822460D01*
X15043843Y76018872D01*
X15054500Y76138738D01*
X15054500Y76138740D01*
X35745500Y76138740D01*
X35756156Y76018875D01*
X35756157Y76018872D01*
X35812358Y75822460D01*
X35906946Y75641380D01*
X36036048Y75483048D01*
X36194380Y75353946D01*
X36375460Y75259358D01*
X36571872Y75203157D01*
X36691738Y75192500D01*
X36691740Y75192500D01*
X38308260Y75192500D01*
X38308262Y75192500D01*
X38428128Y75203157D01*
X38624540Y75259358D01*
X38805620Y75353946D01*
X38963952Y75483048D01*
X39093054Y75641380D01*
X39187642Y75822460D01*
X39243843Y76018872D01*
X39254500Y76138738D01*
X39254500Y78755262D01*
X39243843Y78875128D01*
X39187642Y79071540D01*
X39093054Y79252620D01*
X38963952Y79410952D01*
X38805620Y79540054D01*
X38624540Y79634642D01*
X38428128Y79690843D01*
X38428125Y79690844D01*
X38331653Y79699421D01*
X38308262Y79701500D01*
X36691738Y79701500D01*
X36670425Y79699606D01*
X36571874Y79690844D01*
X36375462Y79634643D01*
X36375460Y79634643D01*
X36375460Y79634642D01*
X36194380Y79540054D01*
X36194378Y79540053D01*
X36194377Y79540052D01*
X36036048Y79410952D01*
X35906948Y79252623D01*
X35812357Y79071538D01*
X35756156Y78875126D01*
X35745500Y78755260D01*
X35745500Y76138740D01*
X15054500Y76138740D01*
X15054500Y78531937D01*
X23395500Y78531937D01*
X23410266Y78457699D01*
X23466515Y78373516D01*
X23500234Y78350986D01*
X23550699Y78317266D01*
X23550702Y78317266D01*
X23550703Y78317265D01*
X23575666Y78312300D01*
X23624933Y78302500D01*
X27175066Y78302501D01*
X27249301Y78317266D01*
X27333484Y78373516D01*
X27389734Y78457699D01*
X27404500Y78531933D01*
X27404499Y80409501D01*
X27424184Y80476539D01*
X27476987Y80522294D01*
X27528499Y80533500D01*
X39688007Y80533500D01*
X39755046Y80513815D01*
X39775688Y80497181D01*
X40746181Y79526688D01*
X40779666Y79465365D01*
X40782500Y79439007D01*
X40782500Y78178930D01*
X40782110Y78171991D01*
X40779801Y78151500D01*
X40777747Y78133266D01*
X40777746Y78133258D01*
X40782359Y78064851D01*
X40782500Y78060679D01*
X40782500Y78048652D01*
X40786290Y78006538D01*
X40792937Y77907959D01*
X40792937Y77907958D01*
X40794015Y77903682D01*
X40797273Y77884504D01*
X40797669Y77880103D01*
X40823965Y77784820D01*
X40848110Y77688997D01*
X40848116Y77688978D01*
X40849943Y77684956D01*
X40856565Y77666693D01*
X40857742Y77662428D01*
X40857749Y77662410D01*
X40900620Y77573389D01*
X40941495Y77483398D01*
X40941504Y77483383D01*
X40944012Y77479763D01*
X40953807Y77462944D01*
X40955723Y77458967D01*
X41013812Y77379013D01*
X41070097Y77297772D01*
X41070101Y77297768D01*
X41070106Y77297762D01*
X41073217Y77294651D01*
X41085848Y77279864D01*
X41088453Y77276279D01*
X41159903Y77207966D01*
X46715182Y71652687D01*
X46748666Y71591366D01*
X46751500Y71565008D01*
X46751500Y68388995D01*
X46731815Y68321956D01*
X46715181Y68301314D01*
X44377218Y65963351D01*
X44372032Y65958716D01*
X44341561Y65934415D01*
X44341558Y65934411D01*
X44296445Y65882777D01*
X44293600Y65879733D01*
X44285103Y65871235D01*
X44285092Y65871224D01*
X44257994Y65838766D01*
X44192987Y65764359D01*
X44190713Y65760554D01*
X44179469Y65744708D01*
X44176631Y65741309D01*
X44127850Y65655338D01*
X44077164Y65570504D01*
X44075610Y65566363D01*
X44067375Y65548759D01*
X44065187Y65544903D01*
X44065185Y65544900D01*
X44032547Y65451622D01*
X43997820Y65359095D01*
X43997817Y65359082D01*
X43997028Y65354734D01*
X43992070Y65335946D01*
X43990607Y65331766D01*
X43990607Y65331764D01*
X43975145Y65234141D01*
X43957500Y65136910D01*
X43957500Y65132494D01*
X43955973Y65113093D01*
X43955281Y65108731D01*
X43957500Y65009910D01*
X43957500Y59001930D01*
X43957110Y58994991D01*
X43954801Y58974500D01*
X43952747Y58956266D01*
X43952746Y58956258D01*
X43957359Y58887851D01*
X43957500Y58883679D01*
X43957500Y58871652D01*
X43961290Y58829538D01*
X43967937Y58730959D01*
X43967937Y58730958D01*
X43969015Y58726682D01*
X43972273Y58707504D01*
X43972669Y58703103D01*
X43998965Y58607820D01*
X44023110Y58511997D01*
X44023116Y58511978D01*
X44024943Y58507956D01*
X44031565Y58489693D01*
X44032742Y58485428D01*
X44032749Y58485410D01*
X44075620Y58396389D01*
X44116495Y58306398D01*
X44116504Y58306383D01*
X44119012Y58302763D01*
X44128807Y58285944D01*
X44130723Y58281967D01*
X44188812Y58202013D01*
X44245097Y58120772D01*
X44245101Y58120768D01*
X44245106Y58120762D01*
X44248217Y58117651D01*
X44260848Y58102864D01*
X44263453Y58099279D01*
X44263455Y58099277D01*
X44263456Y58099276D01*
X44334903Y58030966D01*
X46715181Y55650689D01*
X46748666Y55589366D01*
X46751500Y55563008D01*
X46751500Y53148994D01*
X46731815Y53081955D01*
X46715181Y53061313D01*
X43869218Y50215351D01*
X43864032Y50210716D01*
X43833561Y50186415D01*
X43833558Y50186411D01*
X43788445Y50134777D01*
X43785600Y50131733D01*
X43777103Y50123235D01*
X43777092Y50123224D01*
X43749994Y50090766D01*
X43684987Y50016359D01*
X43682713Y50012554D01*
X43671469Y49996708D01*
X43668631Y49993309D01*
X43619850Y49907338D01*
X43569164Y49822504D01*
X43567610Y49818363D01*
X43559375Y49800759D01*
X43557187Y49796903D01*
X43557185Y49796900D01*
X43524547Y49703622D01*
X43489820Y49611095D01*
X43489817Y49611082D01*
X43489028Y49606734D01*
X43484070Y49587946D01*
X43482607Y49583766D01*
X43482607Y49583764D01*
X43467145Y49486141D01*
X43449500Y49388910D01*
X43449500Y49384494D01*
X43447973Y49365093D01*
X43447281Y49360731D01*
X43449500Y49261910D01*
X43449500Y45793930D01*
X43449110Y45786991D01*
X43446801Y45766500D01*
X43444747Y45748266D01*
X43444746Y45748258D01*
X43449359Y45679851D01*
X43449500Y45675679D01*
X43449500Y45663652D01*
X43453290Y45621538D01*
X43459937Y45522959D01*
X43459937Y45522958D01*
X43461015Y45518682D01*
X43464273Y45499504D01*
X43464669Y45495103D01*
X43464670Y45495097D01*
X43464671Y45495095D01*
X43467996Y45483048D01*
X43490965Y45399820D01*
X43515110Y45303997D01*
X43515116Y45303978D01*
X43516943Y45299956D01*
X43523565Y45281693D01*
X43524742Y45277428D01*
X43524749Y45277410D01*
X43567620Y45188389D01*
X43608495Y45098398D01*
X43608504Y45098383D01*
X43611012Y45094763D01*
X43620807Y45077944D01*
X43622723Y45073967D01*
X43680812Y44994013D01*
X43737097Y44912772D01*
X43737101Y44912768D01*
X43737106Y44912762D01*
X43740217Y44909651D01*
X43752848Y44894864D01*
X43755453Y44891279D01*
X43826903Y44822966D01*
X45160619Y43489250D01*
X46461181Y42188689D01*
X46494666Y42127366D01*
X46497500Y42101008D01*
X46497500Y35529300D01*
X46477815Y35462261D01*
X46425011Y35416506D01*
X46373500Y35405300D01*
X40610000Y35405300D01*
X40609991Y35405300D01*
X40609990Y35405299D01*
X40502549Y35393748D01*
X40502537Y35393746D01*
X40451027Y35382540D01*
X40348502Y35348417D01*
X40348496Y35348414D01*
X40227462Y35270629D01*
X40227451Y35270621D01*
X40174659Y35224877D01*
X40080433Y35116136D01*
X40080430Y35116132D01*
X40020664Y34985266D01*
X40000978Y34918225D01*
X40000976Y34918220D01*
X39995292Y34878685D01*
X39980502Y34775810D01*
X39980500Y34775799D01*
X39980500Y33483300D01*
X39960815Y33416261D01*
X39908011Y33370506D01*
X39856500Y33359300D01*
X38009991Y33359300D01*
X37954838Y33353370D01*
X37903316Y33342161D01*
X37903317Y33342161D01*
X37876536Y33334814D01*
X37788553Y33284712D01*
X37788551Y33284711D01*
X37788552Y33284711D01*
X37735748Y33238956D01*
X37718563Y33221147D01*
X37703630Y33205671D01*
X37656695Y33115948D01*
X37637013Y33048918D01*
X37637010Y33048906D01*
X37626500Y32975802D01*
X37626500Y27323792D01*
X37632430Y27268639D01*
X37643639Y27217116D01*
X37643639Y27217117D01*
X37650986Y27190337D01*
X37695642Y27111917D01*
X37701089Y27102352D01*
X37746844Y27049548D01*
X37780131Y27017429D01*
X37869849Y26970497D01*
X37936888Y26950812D01*
X37936892Y26950812D01*
X37936894Y26950811D01*
X37948707Y26949113D01*
X38010000Y26940300D01*
X38010001Y26940300D01*
X39361991Y26940300D01*
X39362000Y26940300D01*
X39417163Y26946231D01*
X39453877Y26954219D01*
X39468684Y26957439D01*
X39468683Y26957439D01*
X39482332Y26961185D01*
X39495461Y26964786D01*
X39498173Y26966330D01*
X39522684Y26980288D01*
X39583448Y27014889D01*
X39636252Y27060644D01*
X39668371Y27093931D01*
X39715303Y27183649D01*
X39734988Y27250688D01*
X39745500Y27323800D01*
X39745500Y29116529D01*
X39765184Y29183564D01*
X39817987Y29229319D01*
X39858763Y29239335D01*
X39858698Y29239945D01*
X39862000Y29240300D01*
X39917163Y29246231D01*
X39953877Y29254219D01*
X39968684Y29257439D01*
X39968682Y29257439D01*
X39973247Y29258692D01*
X39995461Y29264786D01*
X39995464Y29264788D01*
X40000352Y29266129D01*
X40070210Y29264886D01*
X40126877Y29227752D01*
X40160930Y29188453D01*
X40269664Y29094233D01*
X40269667Y29094232D01*
X40269668Y29094231D01*
X40384766Y29041666D01*
X40400541Y29034462D01*
X40444507Y29021552D01*
X40467575Y29014778D01*
X40467580Y29014777D01*
X40467584Y29014776D01*
X40610000Y28994300D01*
X40610003Y28994300D01*
X49361990Y28994300D01*
X49362000Y28994300D01*
X49469456Y29005853D01*
X49520967Y29017059D01*
X49555197Y29028453D01*
X49623497Y29051184D01*
X49623501Y29051187D01*
X49623504Y29051187D01*
X49744543Y29128975D01*
X49797347Y29174730D01*
X49891567Y29283464D01*
X49951338Y29414341D01*
X49971023Y29481380D01*
X49971024Y29481384D01*
X49991500Y29623800D01*
X49991500Y34775800D01*
X49979947Y34883256D01*
X49968741Y34934767D01*
X49968637Y34935078D01*
X49934616Y35037298D01*
X49934613Y35037304D01*
X49883950Y35116136D01*
X49856825Y35158343D01*
X49845835Y35171026D01*
X49811076Y35211141D01*
X49811072Y35211144D01*
X49811070Y35211147D01*
X49702336Y35305367D01*
X49702333Y35305369D01*
X49702331Y35305370D01*
X49571465Y35365136D01*
X49571460Y35365138D01*
X49571459Y35365138D01*
X49548858Y35371775D01*
X49504425Y35384822D01*
X49504419Y35384824D01*
X49418966Y35397110D01*
X49362000Y35405300D01*
X49361998Y35405300D01*
X49130500Y35405300D01*
X49063461Y35424985D01*
X49017706Y35477789D01*
X49006500Y35529300D01*
X49006500Y42598072D01*
X49006889Y42605008D01*
X49011253Y42643738D01*
X49006639Y42712168D01*
X49006500Y42716323D01*
X49006500Y42728338D01*
X49006500Y42728343D01*
X49002709Y42770462D01*
X48996063Y42869040D01*
X48994984Y42873318D01*
X48991724Y42892514D01*
X48991329Y42896905D01*
X48965034Y42992181D01*
X48952607Y43041500D01*
X48940888Y43088010D01*
X48939057Y43092042D01*
X48932427Y43110332D01*
X48931254Y43114581D01*
X48888379Y43203612D01*
X48847503Y43293605D01*
X48847502Y43293606D01*
X48847501Y43293609D01*
X48844984Y43297241D01*
X48835187Y43314066D01*
X48833277Y43318032D01*
X48833277Y43318033D01*
X48775187Y43397988D01*
X48718903Y43479228D01*
X48718902Y43479229D01*
X48718900Y43479232D01*
X48715781Y43482351D01*
X48703150Y43497138D01*
X48700547Y43500721D01*
X48629096Y43569035D01*
X47217312Y44980819D01*
X47183827Y45042142D01*
X47188811Y45111834D01*
X47230683Y45167767D01*
X47296147Y45192184D01*
X47304993Y45192500D01*
X48908260Y45192500D01*
X48908262Y45192500D01*
X49028128Y45203157D01*
X49224540Y45259358D01*
X49405620Y45353946D01*
X49563952Y45483048D01*
X49693054Y45641380D01*
X49787642Y45822460D01*
X49843843Y46018872D01*
X49854500Y46138738D01*
X49854500Y48755262D01*
X49843843Y48875128D01*
X49787642Y49071540D01*
X49693054Y49252620D01*
X49563952Y49410952D01*
X49405620Y49540054D01*
X49224540Y49634642D01*
X49030907Y49690048D01*
X49028125Y49690844D01*
X48931653Y49699421D01*
X48908262Y49701500D01*
X47291738Y49701500D01*
X47236188Y49696562D01*
X47205850Y49693864D01*
X47137330Y49707535D01*
X47087079Y49756080D01*
X47071051Y49824086D01*
X47094334Y49889962D01*
X47107184Y49905054D01*
X48840794Y51638665D01*
X48845954Y51643277D01*
X48876442Y51667589D01*
X48921564Y51719237D01*
X48924397Y51722268D01*
X48932906Y51730775D01*
X48960004Y51763234D01*
X49025014Y51837643D01*
X49027275Y51841428D01*
X49038538Y51857304D01*
X49041370Y51860694D01*
X49090149Y51946663D01*
X49140834Y52031493D01*
X49142383Y52035623D01*
X49150636Y52053261D01*
X49150942Y52053802D01*
X49152811Y52057094D01*
X49185446Y52150362D01*
X49220180Y52242908D01*
X49220970Y52247266D01*
X49225938Y52266082D01*
X49227392Y52270236D01*
X49242850Y52367835D01*
X49260500Y52465093D01*
X49260500Y52469511D01*
X49262027Y52488908D01*
X49262717Y52493266D01*
X49262718Y52493270D01*
X49260500Y52592092D01*
X49260500Y56060071D01*
X49260889Y56067007D01*
X49265253Y56105737D01*
X49260639Y56174168D01*
X49260500Y56178323D01*
X49260500Y56190338D01*
X49260500Y56190343D01*
X49256709Y56232464D01*
X49250063Y56331040D01*
X49248984Y56335318D01*
X49245724Y56354514D01*
X49245329Y56358905D01*
X49219034Y56454181D01*
X49194888Y56550010D01*
X49193057Y56554042D01*
X49186427Y56572332D01*
X49185254Y56576581D01*
X49142379Y56665612D01*
X49101503Y56755605D01*
X49101502Y56755606D01*
X49101501Y56755609D01*
X49098984Y56759241D01*
X49089187Y56776066D01*
X49087277Y56780032D01*
X49087277Y56780033D01*
X49029187Y56859988D01*
X48972903Y56941228D01*
X48972902Y56941229D01*
X48972900Y56941232D01*
X48969781Y56944351D01*
X48957150Y56959138D01*
X48954547Y56962721D01*
X48883096Y57031035D01*
X46502819Y59411313D01*
X46469334Y59472636D01*
X46466500Y59498994D01*
X46466500Y60360192D01*
X46486185Y60427231D01*
X46538989Y60472986D01*
X46608147Y60482930D01*
X46668857Y60456296D01*
X46794380Y60353946D01*
X46975460Y60259358D01*
X47171872Y60203157D01*
X47291738Y60192500D01*
X47291740Y60192500D01*
X48908260Y60192500D01*
X48908262Y60192500D01*
X49028128Y60203157D01*
X49224540Y60259358D01*
X49405620Y60353946D01*
X49563952Y60483048D01*
X49693054Y60641380D01*
X49787642Y60822460D01*
X49843843Y61018872D01*
X49854500Y61138738D01*
X49854500Y63755262D01*
X49843843Y63875128D01*
X49787642Y64071540D01*
X49693054Y64252620D01*
X49563952Y64410952D01*
X49405620Y64540054D01*
X49224540Y64634642D01*
X49028128Y64690843D01*
X49028125Y64690844D01*
X48931653Y64699421D01*
X48908262Y64701500D01*
X47291738Y64701500D01*
X47270425Y64699606D01*
X47171874Y64690844D01*
X46975460Y64634642D01*
X46900079Y64595267D01*
X46831544Y64581676D01*
X46766540Y64607296D01*
X46725707Y64663991D01*
X46722008Y64733763D01*
X46754985Y64792856D01*
X48840794Y66878665D01*
X48845954Y66883277D01*
X48876442Y66907589D01*
X48921564Y66959237D01*
X48924397Y66962268D01*
X48932906Y66970775D01*
X48960004Y67003234D01*
X49025014Y67077643D01*
X49027275Y67081428D01*
X49038538Y67097304D01*
X49041370Y67100694D01*
X49090149Y67186663D01*
X49140834Y67271493D01*
X49142382Y67275621D01*
X49150632Y67293256D01*
X49152811Y67297094D01*
X49185452Y67390379D01*
X49220180Y67482908D01*
X49220969Y67487260D01*
X49225934Y67506070D01*
X49227393Y67510236D01*
X49242854Y67607860D01*
X49260500Y67705093D01*
X49260500Y67709511D01*
X49262027Y67728908D01*
X49262717Y67733266D01*
X49262718Y67733270D01*
X49260500Y67832092D01*
X49260500Y72062072D01*
X49260889Y72069007D01*
X49265253Y72107737D01*
X49260639Y72176168D01*
X49260500Y72180323D01*
X49260500Y72192338D01*
X49260500Y72192343D01*
X49256709Y72234464D01*
X49250063Y72333040D01*
X49248984Y72337318D01*
X49245724Y72356514D01*
X49245329Y72360905D01*
X49219034Y72456181D01*
X49194888Y72552010D01*
X49193057Y72556042D01*
X49186427Y72574332D01*
X49185254Y72578581D01*
X49142379Y72667612D01*
X49101503Y72757605D01*
X49101502Y72757606D01*
X49101501Y72757609D01*
X49098984Y72761241D01*
X49089187Y72778066D01*
X49087277Y72782032D01*
X49087277Y72782033D01*
X49029187Y72861988D01*
X48972903Y72943228D01*
X48972902Y72943229D01*
X48972900Y72943232D01*
X48969781Y72946351D01*
X48957150Y72961138D01*
X48954547Y72964721D01*
X48883096Y73033035D01*
X46867678Y75048453D01*
X46834194Y75109775D01*
X46839178Y75179467D01*
X46881050Y75235400D01*
X46946514Y75259817D01*
X46989469Y75255350D01*
X47171872Y75203157D01*
X47291738Y75192500D01*
X47291740Y75192500D01*
X48908260Y75192500D01*
X48908262Y75192500D01*
X49028128Y75203157D01*
X49224540Y75259358D01*
X49405620Y75353946D01*
X49563952Y75483048D01*
X49693054Y75641380D01*
X49787642Y75822460D01*
X49843843Y76018872D01*
X49854500Y76138738D01*
X49854500Y78755262D01*
X49843843Y78875128D01*
X49787642Y79071540D01*
X49693054Y79252620D01*
X49563952Y79410952D01*
X49405620Y79540054D01*
X49224540Y79634642D01*
X49028128Y79690843D01*
X49028125Y79690844D01*
X48931653Y79699421D01*
X48908262Y79701500D01*
X47291738Y79701500D01*
X47270425Y79699606D01*
X47171874Y79690844D01*
X46975462Y79634643D01*
X46975460Y79634643D01*
X46975460Y79634642D01*
X46794380Y79540054D01*
X46794378Y79540053D01*
X46794377Y79540052D01*
X46636048Y79410952D01*
X46506948Y79252623D01*
X46412357Y79071538D01*
X46356156Y78875126D01*
X46345500Y78755260D01*
X46345500Y76138740D01*
X46356156Y76018875D01*
X46408348Y75836473D01*
X46407865Y75766605D01*
X46369685Y75708089D01*
X46305930Y75679504D01*
X46236842Y75689925D01*
X46201451Y75714680D01*
X43327819Y78588312D01*
X43294334Y78649635D01*
X43291500Y78675993D01*
X43291500Y79936071D01*
X43291889Y79943007D01*
X43296253Y79981737D01*
X43291639Y80050168D01*
X43291500Y80054323D01*
X43291500Y80066338D01*
X43291500Y80066343D01*
X43287709Y80108464D01*
X43281063Y80207040D01*
X43279984Y80211318D01*
X43276724Y80230514D01*
X43276329Y80234905D01*
X43250034Y80330181D01*
X43250033Y80330182D01*
X43225888Y80426010D01*
X43224057Y80430042D01*
X43217427Y80448332D01*
X43216254Y80452581D01*
X43204716Y80476539D01*
X43173379Y80541612D01*
X43132501Y80631609D01*
X43129984Y80635241D01*
X43120187Y80652066D01*
X43118277Y80656032D01*
X43118277Y80656033D01*
X43060187Y80735988D01*
X43003903Y80817228D01*
X43003902Y80817229D01*
X43003900Y80817232D01*
X43000781Y80820351D01*
X42988150Y80835138D01*
X42985547Y80838721D01*
X42914096Y80907035D01*
X41198346Y82622786D01*
X41193709Y82627974D01*
X41169410Y82658443D01*
X41117761Y82703568D01*
X41114727Y82706404D01*
X41106225Y82714906D01*
X41073766Y82742005D01*
X40999357Y82807014D01*
X40999353Y82807017D01*
X40999344Y82807023D01*
X40995566Y82809280D01*
X40979698Y82820538D01*
X40976307Y82823369D01*
X40976306Y82823370D01*
X40976302Y82823372D01*
X40976298Y82823375D01*
X40890337Y82872150D01*
X40805506Y82922835D01*
X40805502Y82922837D01*
X40801366Y82924389D01*
X40783753Y82932629D01*
X40779914Y82934807D01*
X40779908Y82934810D01*
X40779906Y82934811D01*
X40779903Y82934812D01*
X40779901Y82934813D01*
X40686621Y82967453D01*
X40594097Y83002179D01*
X40594092Y83002180D01*
X40589740Y83002970D01*
X40570942Y83007932D01*
X40566772Y83009391D01*
X40566765Y83009393D01*
X40566764Y83009393D01*
X40469140Y83024855D01*
X40371911Y83042500D01*
X40371907Y83042500D01*
X40367493Y83042500D01*
X40348094Y83044027D01*
X40346972Y83044205D01*
X40343729Y83044719D01*
X40247031Y83042548D01*
X40244908Y83042500D01*
X26954929Y83042500D01*
X26947988Y83042890D01*
X26922950Y83045711D01*
X26909264Y83047253D01*
X26909258Y83047254D01*
X26863748Y83044185D01*
X26840831Y83042640D01*
X26836678Y83042500D01*
X26824652Y83042500D01*
X26782537Y83038710D01*
X26683957Y83032063D01*
X26679672Y83030983D01*
X26660504Y83027727D01*
X26656101Y83027331D01*
X26560796Y83001029D01*
X26464989Y82976888D01*
X26460964Y82975059D01*
X26442685Y82968432D01*
X26438424Y82967256D01*
X26438409Y82967251D01*
X26349371Y82924372D01*
X26259386Y82883499D01*
X26255752Y82880981D01*
X26238947Y82871194D01*
X26234972Y82869280D01*
X26234962Y82869274D01*
X26155012Y82811188D01*
X26073771Y82754903D01*
X26070638Y82751770D01*
X26055868Y82739156D01*
X26052287Y82736555D01*
X26052279Y82736547D01*
X25983965Y82665097D01*
X25666686Y82347819D01*
X25605363Y82314334D01*
X25579005Y82311500D01*
X23624936Y82311500D01*
X23550698Y82296734D01*
X23466515Y82240485D01*
X23410266Y82156301D01*
X23410264Y82156297D01*
X23395500Y82082072D01*
X23395500Y78531937D01*
X15054500Y78531937D01*
X15054500Y78755262D01*
X15043843Y78875128D01*
X14987642Y79071540D01*
X14893054Y79252620D01*
X14763952Y79410952D01*
X14605620Y79540054D01*
X14424540Y79634642D01*
X14228128Y79690843D01*
X14228125Y79690844D01*
X14131653Y79699421D01*
X14108262Y79701500D01*
X12491738Y79701500D01*
X12470425Y79699606D01*
X12371874Y79690844D01*
X12175462Y79634643D01*
X12175460Y79634643D01*
X12175460Y79634642D01*
X11994380Y79540054D01*
X11994378Y79540053D01*
X11994377Y79540052D01*
X11836048Y79410952D01*
X11706948Y79252623D01*
X11612357Y79071538D01*
X11556156Y78875126D01*
X11545500Y78755260D01*
X11545500Y76138740D01*
X4454500Y76138740D01*
X4454500Y78755262D01*
X4443843Y78875128D01*
X4387642Y79071540D01*
X4293054Y79252620D01*
X4163952Y79410952D01*
X4005620Y79540054D01*
X3824540Y79634642D01*
X3628128Y79690843D01*
X3628125Y79690844D01*
X3531653Y79699421D01*
X3508262Y79701500D01*
X1891738Y79701500D01*
X1870425Y79699606D01*
X1771874Y79690844D01*
X1575462Y79634643D01*
X1575460Y79634643D01*
X1575460Y79634642D01*
X1394380Y79540054D01*
X1394378Y79540053D01*
X1394377Y79540052D01*
X1236048Y79410952D01*
X1106948Y79252623D01*
X1012357Y79071538D01*
X956156Y78875126D01*
X945500Y78755260D01*
X945500Y76138740D01*
X500500Y76138740D01*
X500500Y82345751D01*
X18695500Y82345751D01*
X18698386Y82297292D01*
X18744235Y82086528D01*
X18744238Y82086517D01*
X18829150Y81888229D01*
X18950052Y81709594D01*
X18950060Y81709585D01*
X19102584Y81557061D01*
X19102593Y81557053D01*
X19232361Y81469225D01*
X19281226Y81436152D01*
X19479518Y81351238D01*
X19479526Y81351237D01*
X19479527Y81351236D01*
X19690291Y81305387D01*
X19690292Y81305387D01*
X19690297Y81305386D01*
X19738746Y81302500D01*
X19738751Y81302500D01*
X21661249Y81302500D01*
X21661254Y81302500D01*
X21709703Y81305386D01*
X21920482Y81351238D01*
X22118774Y81436152D01*
X22297413Y81557058D01*
X22449942Y81709587D01*
X22570848Y81888226D01*
X22655762Y82086518D01*
X22701614Y82297297D01*
X22704500Y82345746D01*
X22704500Y84268254D01*
X22701614Y84316703D01*
X22655762Y84527482D01*
X22570848Y84725774D01*
X22537775Y84774639D01*
X22449947Y84904407D01*
X22449939Y84904416D01*
X22297415Y85056940D01*
X22297406Y85056948D01*
X22118771Y85177850D01*
X21920483Y85262762D01*
X21920472Y85262765D01*
X21709708Y85308614D01*
X21685478Y85310057D01*
X21661254Y85311500D01*
X19738746Y85311500D01*
X19716723Y85310189D01*
X19690291Y85308614D01*
X19479527Y85262765D01*
X19479516Y85262762D01*
X19281228Y85177850D01*
X19102593Y85056948D01*
X19102584Y85056940D01*
X18950060Y84904416D01*
X18950052Y84904407D01*
X18829150Y84725772D01*
X18744238Y84527484D01*
X18744235Y84527473D01*
X18698386Y84316709D01*
X18695500Y84268249D01*
X18695500Y82345751D01*
X500500Y82345751D01*
X500500Y86304964D01*
X500567Y86307000D01*
X1184341Y86307000D01*
X1204936Y86071597D01*
X1204938Y86071587D01*
X1266094Y85843345D01*
X1266096Y85843341D01*
X1266097Y85843337D01*
X1316030Y85736255D01*
X1365964Y85629172D01*
X1365965Y85629170D01*
X1501505Y85435598D01*
X1668597Y85268506D01*
X1862169Y85132966D01*
X1862171Y85132965D01*
X2076337Y85033097D01*
X2304592Y84971937D01*
X2481034Y84956500D01*
X2598966Y84956500D01*
X2775408Y84971937D01*
X3003663Y85033097D01*
X3217829Y85132965D01*
X3411401Y85268505D01*
X3578495Y85435599D01*
X3714035Y85629170D01*
X3813903Y85843337D01*
X3875063Y86071592D01*
X3895659Y86307000D01*
X46904341Y86307000D01*
X46924936Y86071597D01*
X46924938Y86071587D01*
X46986094Y85843345D01*
X46986096Y85843341D01*
X46986097Y85843337D01*
X47036031Y85736254D01*
X47085964Y85629172D01*
X47085965Y85629170D01*
X47221505Y85435598D01*
X47388597Y85268506D01*
X47582169Y85132966D01*
X47582171Y85132965D01*
X47796337Y85033097D01*
X48024592Y84971937D01*
X48201034Y84956500D01*
X48318966Y84956500D01*
X48495408Y84971937D01*
X48723663Y85033097D01*
X48937829Y85132965D01*
X49131401Y85268505D01*
X49298495Y85435599D01*
X49434035Y85629170D01*
X49533903Y85843337D01*
X49595063Y86071592D01*
X49615659Y86307000D01*
X49595063Y86542408D01*
X49533903Y86770663D01*
X49434035Y86984829D01*
X49434034Y86984831D01*
X49298494Y87178403D01*
X49131402Y87345495D01*
X48937830Y87481035D01*
X48937828Y87481036D01*
X48830745Y87530969D01*
X48723663Y87580903D01*
X48723659Y87580904D01*
X48723655Y87580906D01*
X48495413Y87642062D01*
X48495403Y87642064D01*
X48318966Y87657500D01*
X48201034Y87657500D01*
X48024596Y87642064D01*
X48024586Y87642062D01*
X47796344Y87580906D01*
X47796335Y87580902D01*
X47582171Y87481036D01*
X47582169Y87481035D01*
X47388597Y87345495D01*
X47221506Y87178403D01*
X47221501Y87178396D01*
X47085967Y86984835D01*
X47085965Y86984831D01*
X46986098Y86770665D01*
X46986094Y86770656D01*
X46924938Y86542414D01*
X46924936Y86542404D01*
X46904341Y86307001D01*
X46904341Y86307000D01*
X3895659Y86307000D01*
X3875063Y86542408D01*
X3813903Y86770663D01*
X3714035Y86984829D01*
X3714034Y86984831D01*
X3578494Y87178403D01*
X3411402Y87345495D01*
X3217830Y87481035D01*
X3217828Y87481036D01*
X3110745Y87530970D01*
X3003663Y87580903D01*
X3003659Y87580904D01*
X3003655Y87580906D01*
X2775413Y87642062D01*
X2775403Y87642064D01*
X2598966Y87657500D01*
X2481034Y87657500D01*
X2304596Y87642064D01*
X2304586Y87642062D01*
X2076344Y87580906D01*
X2076335Y87580902D01*
X1862171Y87481036D01*
X1862169Y87481035D01*
X1668597Y87345495D01*
X1501506Y87178403D01*
X1501501Y87178396D01*
X1365967Y86984835D01*
X1365965Y86984831D01*
X1266098Y86770665D01*
X1266094Y86770656D01*
X1204938Y86542414D01*
X1204936Y86542404D01*
X1184341Y86307001D01*
X1184341Y86307000D01*
X500567Y86307000D01*
X500633Y86309020D01*
X515929Y86542408D01*
X517682Y86569161D01*
X518739Y86577190D01*
X569200Y86830873D01*
X571301Y86838712D01*
X654446Y87083650D01*
X657538Y87091114D01*
X771947Y87323115D01*
X775995Y87330124D01*
X919704Y87545200D01*
X924633Y87551622D01*
X1095175Y87746088D01*
X1100914Y87751826D01*
X1295378Y87922367D01*
X1301800Y87927296D01*
X1516876Y88071005D01*
X1523885Y88075053D01*
X1755886Y88189462D01*
X1763350Y88192554D01*
X2008291Y88275700D01*
X2016127Y88277800D01*
X2269810Y88328261D01*
X2277839Y88329318D01*
X2362635Y88334876D01*
X2537982Y88346367D01*
X2542038Y88346500D01*
X2605892Y88346500D01*
X48194108Y88346500D01*
X48257962Y88346500D01*
X48262018Y88346367D01*
G37*
%TD.AperFunction*%
%TD*%
%TA.AperFunction,Conductor*%
%TO.N,VDD*%
G36*
X49429039Y34880115D02*
G01*
X49474794Y34827311D01*
X49486000Y34775800D01*
X49486000Y29623800D01*
X49466315Y29556761D01*
X49413511Y29511006D01*
X49362000Y29499800D01*
X40610000Y29499800D01*
X40542961Y29519485D01*
X40497206Y29572289D01*
X40486000Y29623800D01*
X40486000Y34775800D01*
X40505685Y34842839D01*
X40558489Y34888594D01*
X40610000Y34899800D01*
X49362000Y34899800D01*
X49429039Y34880115D01*
G37*
%TD.AperFunction*%
%TD*%
M02*
