%TF.GenerationSoftware,KiCad,Pcbnew,7.0.7*%
%TF.CreationDate,2023-12-31T15:53:54-05:00*%
%TF.ProjectId,TeenieWeenie,5465656e-6965-4576-9565-6e69652e6b69,rev?*%
%TF.SameCoordinates,Original*%
%TF.FileFunction,Copper,L2,Inr*%
%TF.FilePolarity,Positive*%
%FSLAX46Y46*%
G04 Gerber Fmt 4.6, Leading zero omitted, Abs format (unit mm)*
G04 Created by KiCad (PCBNEW 7.0.7) date 2023-12-31 15:53:54*
%MOMM*%
%LPD*%
G01*
G04 APERTURE LIST*
G04 Aperture macros list*
%AMRoundRect*
0 Rectangle with rounded corners*
0 $1 Rounding radius*
0 $2 $3 $4 $5 $6 $7 $8 $9 X,Y pos of 4 corners*
0 Add a 4 corners polygon primitive as box body*
4,1,4,$2,$3,$4,$5,$6,$7,$8,$9,$2,$3,0*
0 Add four circle primitives for the rounded corners*
1,1,$1+$1,$2,$3*
1,1,$1+$1,$4,$5*
1,1,$1+$1,$6,$7*
1,1,$1+$1,$8,$9*
0 Add four rect primitives between the rounded corners*
20,1,$1+$1,$2,$3,$4,$5,0*
20,1,$1+$1,$4,$5,$6,$7,0*
20,1,$1+$1,$6,$7,$8,$9,0*
20,1,$1+$1,$8,$9,$2,$3,0*%
G04 Aperture macros list end*
%TA.AperFunction,ComponentPad*%
%ADD10R,1.800000X1.800000*%
%TD*%
%TA.AperFunction,ComponentPad*%
%ADD11C,1.800000*%
%TD*%
%TA.AperFunction,ComponentPad*%
%ADD12RoundRect,0.750000X0.750000X-1.250000X0.750000X1.250000X-0.750000X1.250000X-0.750000X-1.250000X0*%
%TD*%
%TA.AperFunction,ComponentPad*%
%ADD13R,0.850000X0.850000*%
%TD*%
%TA.AperFunction,ComponentPad*%
%ADD14R,3.500000X3.500000*%
%TD*%
%TA.AperFunction,ComponentPad*%
%ADD15RoundRect,0.750000X-1.000000X0.750000X-1.000000X-0.750000X1.000000X-0.750000X1.000000X0.750000X0*%
%TD*%
%TA.AperFunction,ComponentPad*%
%ADD16RoundRect,0.875000X-0.875000X0.875000X-0.875000X-0.875000X0.875000X-0.875000X0.875000X0.875000X0*%
%TD*%
%TA.AperFunction,ComponentPad*%
%ADD17C,1.600000*%
%TD*%
%TA.AperFunction,ComponentPad*%
%ADD18O,0.850000X0.850000*%
%TD*%
%TA.AperFunction,ViaPad*%
%ADD19C,0.450000*%
%TD*%
%TA.AperFunction,ViaPad*%
%ADD20C,0.700000*%
%TD*%
G04 APERTURE END LIST*
D10*
%TO.N,Net-(R20-Pad1)*%
%TO.C,RV1*%
X22432000Y49477000D03*
D11*
%TO.N,/ADC/POT1*%
X24932000Y49477000D03*
%TO.N,GND*%
X27432000Y49477000D03*
D12*
%TO.N,N/C*%
X19632000Y56477000D03*
X30232000Y56477000D03*
%TD*%
D13*
%TO.N,/IOSwitch/AudioOut_R*%
%TO.C,J6*%
X48260000Y10414000D03*
%TD*%
%TO.N,GND*%
%TO.C,J8*%
X48260000Y14224000D03*
%TD*%
D14*
%TO.N,VDD*%
%TO.C,J1*%
X25400000Y80307000D03*
D15*
%TO.N,GND*%
X25400000Y86307000D03*
D16*
%TO.N,N/C*%
X20700000Y83307000D03*
%TD*%
D10*
%TO.N,Net-(R37-Pad1)*%
%TO.C,RV8*%
X40300000Y70447000D03*
D11*
%TO.N,/ADC/POT8*%
X42800000Y70447000D03*
%TO.N,GND*%
X45300000Y70447000D03*
D12*
%TO.N,N/C*%
X37500000Y77447000D03*
X48100000Y77447000D03*
%TD*%
D13*
%TO.N,GND*%
%TO.C,J4*%
X2540000Y14224000D03*
%TD*%
%TO.N,/AFE/AudioR_Raw*%
%TO.C,J3*%
X2540000Y10414000D03*
%TD*%
D10*
%TO.N,Net-(R21-Pad1)*%
%TO.C,RV2*%
X5500000Y40447000D03*
D11*
%TO.N,/ADC/POT2*%
X8000000Y40447000D03*
%TO.N,GND*%
X10500000Y40447000D03*
D12*
%TO.N,N/C*%
X2700000Y47447000D03*
X13300000Y47447000D03*
%TD*%
D13*
%TO.N,/IOSwitch/AudioOut_L*%
%TO.C,J5*%
X48260000Y18034000D03*
%TD*%
%TO.N,/AFE/AudioL_Raw*%
%TO.C,J2*%
X2540000Y18034000D03*
%TD*%
D17*
%TO.N,GND*%
%TO.C,U2*%
X33020000Y6350000D03*
%TO.N,/MCU/~{ADC_IRQ0}*%
X33020000Y8890000D03*
%TO.N,/MCU/~{ADC_IRQ1}*%
X33020000Y11430000D03*
%TO.N,Net-(U2-2_OUT2)*%
X33020000Y13970000D03*
%TO.N,Net-(U2-3_LRCLK2)*%
X33020000Y16510000D03*
%TO.N,/MCU/~{SWCTRL}*%
X33020000Y19050000D03*
%TO.N,/MCU/~{BTN}*%
X33020000Y21590000D03*
%TO.N,unconnected-(U2-6_OUT1D-Pad8)*%
X33020000Y24130000D03*
%TO.N,/MCU/DACDAT*%
X33020000Y26670000D03*
%TO.N,/MCU/ADCDAT*%
X33020000Y29210000D03*
%TO.N,unconnected-(U2-9_OUT1C-Pad11)*%
X33020000Y31750000D03*
%TO.N,Net-(U2-10_CS_MQSR)*%
X33020000Y34290000D03*
%TO.N,Net-(U2-11_MOSI_CTX1)*%
X33020000Y36830000D03*
%TO.N,Net-(U2-12_MISO_MQSL)*%
X33020000Y39370000D03*
%TO.N,Net-(U2-13_SCK_CRX1_LED)*%
X17780000Y39370000D03*
%TO.N,unconnected-(U2-14_A0_TX3_SPDIF_OUT-Pad21)*%
X17780000Y36830000D03*
%TO.N,unconnected-(U2-15_A1_RX3_SPDIF_IN-Pad22)*%
X17780000Y34290000D03*
%TO.N,unconnected-(U2-16_A2_RX4_SCL1-Pad23)*%
X17780000Y31750000D03*
%TO.N,unconnected-(U2-17_A3_TX4_SDA1-Pad24)*%
X17780000Y29210000D03*
%TO.N,/ADC/SDA*%
X17780000Y26670000D03*
%TO.N,/ADC/SCL*%
X17780000Y24130000D03*
%TO.N,/MCU/LRCLK*%
X17780000Y21590000D03*
%TO.N,/MCU/BCLK*%
X17780000Y19050000D03*
%TO.N,/MCU/CODC_IRQ*%
X17780000Y16510000D03*
%TO.N,/MCU/MCLK*%
X17780000Y13970000D03*
%TO.N,+3V3*%
X17780000Y11430000D03*
%TO.N,GND*%
X17780000Y8890000D03*
%TO.N,unconnected-(U2-VIN-Pad33)*%
X17780000Y6350000D03*
%TD*%
D10*
%TO.N,Net-(R33-Pad1)*%
%TO.C,RV4*%
X5500000Y70447000D03*
D11*
%TO.N,/ADC/POT4*%
X8000000Y70447000D03*
%TO.N,GND*%
X10500000Y70447000D03*
D12*
%TO.N,N/C*%
X2700000Y77447000D03*
X13300000Y77447000D03*
%TD*%
D10*
%TO.N,Net-(D1-K)*%
%TO.C,D1*%
X24125000Y44196000D03*
D11*
%TO.N,Net-(D1-A)*%
X26665000Y44196000D03*
%TD*%
D10*
%TO.N,Net-(R36-Pad1)*%
%TO.C,RV7*%
X22500000Y64247000D03*
D11*
%TO.N,/ADC/POT7*%
X25000000Y64247000D03*
%TO.N,GND*%
X27500000Y64247000D03*
D12*
%TO.N,N/C*%
X19700000Y71247000D03*
X30300000Y71247000D03*
%TD*%
D10*
%TO.N,Net-(R32-Pad1)*%
%TO.C,RV3*%
X5500000Y55447000D03*
D11*
%TO.N,/ADC/POT3*%
X8000000Y55447000D03*
%TO.N,GND*%
X10500000Y55447000D03*
D12*
%TO.N,N/C*%
X2700000Y62447000D03*
X13300000Y62447000D03*
%TD*%
D13*
%TO.N,GND*%
%TO.C,SW1*%
X19075400Y44085000D03*
D18*
%TO.N,/MCU/~{BTN}*%
X19075400Y45085000D03*
%TD*%
D10*
%TO.N,Net-(R34-Pad1)*%
%TO.C,RV5*%
X40300000Y40447000D03*
D11*
%TO.N,/ADC/POT5*%
X42800000Y40447000D03*
%TO.N,GND*%
X45300000Y40447000D03*
D12*
%TO.N,N/C*%
X37500000Y47447000D03*
X48100000Y47447000D03*
%TD*%
D10*
%TO.N,Net-(R35-Pad1)*%
%TO.C,RV6*%
X40300000Y55447000D03*
D11*
%TO.N,/ADC/POT6*%
X42800000Y55447000D03*
%TO.N,GND*%
X45300000Y55447000D03*
D12*
%TO.N,N/C*%
X37500000Y62447000D03*
X48100000Y62447000D03*
%TD*%
D19*
%TO.N,GND*%
X22098000Y33147000D03*
X3810000Y19558000D03*
X41275000Y11293399D03*
X42418000Y28575000D03*
X20066000Y12827000D03*
X9525000Y31877000D03*
X19558000Y49530000D03*
X31496000Y31242000D03*
X15875000Y30988000D03*
X12192000Y32893000D03*
X12395200Y34544000D03*
X26035000Y17526000D03*
X12192000Y24003000D03*
X3175000Y8255000D03*
X15875000Y35687000D03*
X19812000Y15621000D03*
X24638000Y16383000D03*
X7112000Y34798000D03*
X13411200Y34544000D03*
X29718000Y21463000D03*
X42418000Y11303000D03*
X26543000Y11430000D03*
X6223000Y26035000D03*
X32639000Y44323000D03*
X7162800Y30480000D03*
X16002000Y22225000D03*
X6731000Y5207000D03*
X8382000Y27178000D03*
X20574000Y40259000D03*
X12446000Y16764000D03*
X10414000Y29845000D03*
X12192000Y23114000D03*
X4572000Y34594800D03*
X15494000Y17526000D03*
X26035000Y16383000D03*
X7010400Y32766000D03*
X5588000Y16256000D03*
X21082000Y37973000D03*
X12192000Y15621000D03*
X30988000Y24638000D03*
X9525000Y13843000D03*
X10363200Y34594800D03*
X24638000Y17526000D03*
X16002000Y21336000D03*
X19304000Y19685000D03*
X28956000Y11430000D03*
X5588000Y34645600D03*
X28829000Y18415000D03*
X2413000Y16764000D03*
X14859000Y16637000D03*
X13716000Y25781000D03*
X39751000Y42164000D03*
X24003000Y11176000D03*
X30353000Y35560000D03*
X4826000Y30073600D03*
X37719000Y42037000D03*
X9779000Y27940000D03*
X7239000Y26035000D03*
X8890000Y32639000D03*
X1524000Y34645600D03*
X31750000Y45339000D03*
X10160000Y32512000D03*
X42291000Y27178000D03*
X7747000Y16256000D03*
X28956000Y44958000D03*
X43561000Y27305000D03*
X9271000Y29464000D03*
X7162800Y36372800D03*
X27940000Y20193000D03*
X30353000Y33274000D03*
X15875000Y33020000D03*
X40259000Y26797000D03*
X9194800Y34544000D03*
X2590800Y34645600D03*
X16129000Y18669000D03*
%TO.N,/MCU/~{ADC_IRQ0}*%
X3657600Y30276800D03*
X12395200Y8280400D03*
%TO.N,/MCU/~{ADC_IRQ1}*%
X9398000Y30429200D03*
X14579600Y8382000D03*
%TO.N,Net-(U2-3_LRCLK2)*%
X26543000Y27940000D03*
X30988000Y27940000D03*
X25089400Y39842000D03*
X26162000Y33655000D03*
%TO.N,/MCU/~{SWCTRL}*%
X43688000Y14478000D03*
X36322000Y13335000D03*
X30226000Y39878000D03*
X35560000Y27432000D03*
%TO.N,/MCU/DACDAT*%
X21310600Y15265400D03*
%TO.N,/MCU/ADCDAT*%
X20726400Y15853001D03*
%TO.N,+3V3*%
X15748000Y69850000D03*
X11176000Y18923000D03*
X11811000Y28829000D03*
X38328600Y32308800D03*
X39497000Y30251400D03*
X14859000Y24257000D03*
X15748000Y54737000D03*
X29337000Y41529000D03*
X38989000Y29006800D03*
X15748000Y53340000D03*
X35052000Y39624000D03*
X9144000Y17297400D03*
X35052000Y54610000D03*
X38328600Y31191200D03*
X32766000Y41402000D03*
X14859000Y25527000D03*
X11938000Y21082000D03*
D20*
X39497000Y12954000D03*
D19*
X14224000Y28956000D03*
X38963600Y27787600D03*
X38252400Y30251400D03*
X21336000Y41910000D03*
X12700000Y30099000D03*
X11176000Y19685000D03*
X32639000Y49784000D03*
X38252400Y27787600D03*
X24130000Y39878000D03*
X38303200Y28956000D03*
X3606800Y28803600D03*
X10795000Y21082000D03*
X24130000Y38735000D03*
X39471600Y32308800D03*
X17272000Y63500000D03*
X39471600Y31216600D03*
X34925000Y69596000D03*
%TO.N,/MCU/MCLK*%
X18923000Y17399000D03*
%TO.N,/MCU/BCLK*%
X19558000Y16891000D03*
%TO.N,/MCU/LRCLK*%
X20066000Y16383000D03*
%TO.N,/ADC/SCL*%
X21971000Y14097000D03*
X19812000Y22987000D03*
X21971000Y22987000D03*
%TO.N,/ADC/SDA*%
X22479000Y24003000D03*
X22580600Y13335000D03*
%TO.N,+1V0*%
X38989000Y21844000D03*
X37846000Y21844000D03*
X29210000Y15621000D03*
X37846000Y22733000D03*
X26365200Y13665200D03*
X38989000Y22733000D03*
%TO.N,+1V8*%
X24638000Y20320000D03*
X27432000Y13589000D03*
X40640000Y25400000D03*
X39751000Y25400000D03*
X41529000Y25400000D03*
X25273000Y13589000D03*
X38862000Y25400000D03*
%TO.N,/AudioCodec/LINEOUTL*%
X39260900Y10185400D03*
X30226000Y10160000D03*
%TO.N,/IOSwitch/AudioOut_L*%
X42799000Y12319000D03*
%TO.N,VDD*%
X43434000Y33782000D03*
X41656000Y33782000D03*
X41656000Y30988000D03*
X46736000Y33782000D03*
X45212000Y33782000D03*
X48768000Y33782000D03*
X41656000Y32512000D03*
X48768000Y31242000D03*
%TO.N,/AFE/AudioL_Raw*%
X8890000Y6096000D03*
%TD*%
%TA.AperFunction,Conductor*%
%TO.N,GND*%
G36*
X48262018Y88346367D02*
G01*
X48448581Y88334140D01*
X48522158Y88329318D01*
X48530191Y88328260D01*
X48767754Y88281006D01*
X48783869Y88277800D01*
X48791712Y88275699D01*
X49036644Y88192556D01*
X49044118Y88189460D01*
X49276107Y88075056D01*
X49283129Y88071001D01*
X49498191Y87927301D01*
X49504627Y87922362D01*
X49699085Y87751826D01*
X49704825Y87746086D01*
X49875361Y87551628D01*
X49880304Y87545187D01*
X50023999Y87330132D01*
X50028057Y87323103D01*
X50099416Y87178401D01*
X50142453Y87091132D01*
X50145560Y87083631D01*
X50228698Y86838712D01*
X50230799Y86830870D01*
X50281257Y86577205D01*
X50282317Y86569156D01*
X50299367Y86309019D01*
X50299500Y86304963D01*
X50299500Y79061966D01*
X50279815Y78994927D01*
X50227011Y78949172D01*
X50157853Y78939228D01*
X50094297Y78968253D01*
X50056523Y79027031D01*
X50055259Y79031667D01*
X50035096Y79111682D01*
X49942008Y79316623D01*
X49942007Y79316626D01*
X49813819Y79501654D01*
X49654654Y79660819D01*
X49654650Y79660822D01*
X49654645Y79660826D01*
X49469632Y79789003D01*
X49469630Y79789005D01*
X49469626Y79789007D01*
X49264683Y79882096D01*
X49264681Y79882097D01*
X49264678Y79882098D01*
X49046420Y79937095D01*
X49046413Y79937096D01*
X48914219Y79947500D01*
X48914217Y79947500D01*
X48102048Y79947500D01*
X47285782Y79947499D01*
X47153586Y79937096D01*
X47153579Y79937095D01*
X46935321Y79882098D01*
X46935318Y79882097D01*
X46730377Y79789009D01*
X46730367Y79789003D01*
X46545354Y79660826D01*
X46545342Y79660816D01*
X46386184Y79501658D01*
X46386174Y79501646D01*
X46257997Y79316633D01*
X46257991Y79316623D01*
X46164903Y79111682D01*
X46164902Y79111679D01*
X46109905Y78893421D01*
X46109904Y78893414D01*
X46099500Y78761219D01*
X46099501Y76132782D01*
X46109904Y76000587D01*
X46109905Y76000580D01*
X46164902Y75782322D01*
X46164903Y75782319D01*
X46257991Y75577378D01*
X46257997Y75577368D01*
X46386174Y75392355D01*
X46386178Y75392350D01*
X46386181Y75392346D01*
X46545346Y75233181D01*
X46545350Y75233178D01*
X46545354Y75233175D01*
X46684603Y75136703D01*
X46730374Y75104993D01*
X46935317Y75011904D01*
X46935321Y75011903D01*
X47153579Y74956906D01*
X47153581Y74956906D01*
X47153588Y74956904D01*
X47264973Y74948138D01*
X47285781Y74946500D01*
X47285782Y74946501D01*
X47285783Y74946500D01*
X48102048Y74946501D01*
X48914218Y74946501D01*
X48933505Y74948020D01*
X49046412Y74956904D01*
X49264683Y75011904D01*
X49469626Y75104993D01*
X49654654Y75233181D01*
X49813819Y75392346D01*
X49942007Y75577374D01*
X50035096Y75782317D01*
X50048835Y75836840D01*
X50055259Y75862333D01*
X50090727Y75922531D01*
X50153110Y75953997D01*
X50222602Y75946741D01*
X50277139Y75903066D01*
X50299407Y75836840D01*
X50299500Y75832035D01*
X50299500Y64061966D01*
X50279815Y63994927D01*
X50227011Y63949172D01*
X50157853Y63939228D01*
X50094297Y63968253D01*
X50056523Y64027031D01*
X50055259Y64031667D01*
X50035096Y64111682D01*
X50014153Y64157789D01*
X49942007Y64316626D01*
X49830000Y64478298D01*
X49813825Y64501646D01*
X49813822Y64501650D01*
X49813819Y64501654D01*
X49654654Y64660819D01*
X49654650Y64660822D01*
X49654645Y64660826D01*
X49469632Y64789003D01*
X49469630Y64789005D01*
X49469626Y64789007D01*
X49264683Y64882096D01*
X49264681Y64882097D01*
X49264678Y64882098D01*
X49046420Y64937095D01*
X49046413Y64937096D01*
X48914219Y64947500D01*
X48914217Y64947500D01*
X48102048Y64947500D01*
X47285782Y64947499D01*
X47153586Y64937096D01*
X47153579Y64937095D01*
X46935321Y64882098D01*
X46935318Y64882097D01*
X46730377Y64789009D01*
X46730367Y64789003D01*
X46545354Y64660826D01*
X46545342Y64660816D01*
X46386184Y64501658D01*
X46386174Y64501646D01*
X46257997Y64316633D01*
X46257991Y64316623D01*
X46164903Y64111682D01*
X46164902Y64111679D01*
X46109905Y63893421D01*
X46109904Y63893414D01*
X46099500Y63761219D01*
X46099501Y61132782D01*
X46109904Y61000587D01*
X46109905Y61000580D01*
X46164902Y60782322D01*
X46164903Y60782319D01*
X46257991Y60577378D01*
X46257997Y60577368D01*
X46386174Y60392355D01*
X46386178Y60392350D01*
X46386181Y60392346D01*
X46545346Y60233181D01*
X46545350Y60233178D01*
X46545354Y60233175D01*
X46684603Y60136703D01*
X46730374Y60104993D01*
X46935317Y60011904D01*
X46935321Y60011903D01*
X47153579Y59956906D01*
X47153581Y59956906D01*
X47153588Y59956904D01*
X47264973Y59948138D01*
X47285781Y59946500D01*
X47285782Y59946501D01*
X47285783Y59946500D01*
X48102048Y59946501D01*
X48914218Y59946501D01*
X48933505Y59948020D01*
X49046412Y59956904D01*
X49264683Y60011904D01*
X49469626Y60104993D01*
X49654654Y60233181D01*
X49813819Y60392346D01*
X49942007Y60577374D01*
X50035096Y60782317D01*
X50048835Y60836840D01*
X50055259Y60862333D01*
X50090727Y60922531D01*
X50153110Y60953997D01*
X50222602Y60946741D01*
X50277139Y60903066D01*
X50299407Y60836840D01*
X50299500Y60832035D01*
X50299500Y49061966D01*
X50279815Y48994927D01*
X50227011Y48949172D01*
X50157853Y48939228D01*
X50094297Y48968253D01*
X50056523Y49027031D01*
X50055259Y49031667D01*
X50035096Y49111682D01*
X49988988Y49213192D01*
X49942007Y49316626D01*
X49830904Y49476994D01*
X49813825Y49501646D01*
X49813822Y49501650D01*
X49813819Y49501654D01*
X49654654Y49660819D01*
X49654650Y49660822D01*
X49654645Y49660826D01*
X49469632Y49789003D01*
X49469630Y49789005D01*
X49469626Y49789007D01*
X49264683Y49882096D01*
X49264681Y49882097D01*
X49264678Y49882098D01*
X49046420Y49937095D01*
X49046413Y49937096D01*
X48914219Y49947500D01*
X48914217Y49947500D01*
X48102048Y49947500D01*
X47285782Y49947499D01*
X47153586Y49937096D01*
X47153579Y49937095D01*
X46935321Y49882098D01*
X46935318Y49882097D01*
X46730377Y49789009D01*
X46730367Y49789003D01*
X46545354Y49660826D01*
X46545342Y49660816D01*
X46386184Y49501658D01*
X46386174Y49501646D01*
X46257997Y49316633D01*
X46257991Y49316623D01*
X46164903Y49111682D01*
X46164902Y49111679D01*
X46109905Y48893421D01*
X46109904Y48893414D01*
X46099500Y48761219D01*
X46099501Y46132782D01*
X46109904Y46000587D01*
X46109905Y46000580D01*
X46164902Y45782322D01*
X46164903Y45782319D01*
X46257991Y45577378D01*
X46257997Y45577368D01*
X46386174Y45392355D01*
X46386178Y45392350D01*
X46386181Y45392346D01*
X46545346Y45233181D01*
X46545350Y45233178D01*
X46545354Y45233175D01*
X46674238Y45143884D01*
X46730374Y45104993D01*
X46935317Y45011904D01*
X46935321Y45011903D01*
X47153579Y44956906D01*
X47153581Y44956906D01*
X47153588Y44956904D01*
X47264972Y44948138D01*
X47285781Y44946500D01*
X47285782Y44946501D01*
X47285783Y44946500D01*
X48102048Y44946501D01*
X48914218Y44946501D01*
X48933505Y44948020D01*
X49046412Y44956904D01*
X49264683Y45011904D01*
X49469626Y45104993D01*
X49654654Y45233181D01*
X49813819Y45392346D01*
X49942007Y45577374D01*
X50035096Y45782317D01*
X50048835Y45836840D01*
X50055259Y45862333D01*
X50090727Y45922531D01*
X50153110Y45953997D01*
X50222602Y45946741D01*
X50277139Y45903066D01*
X50299407Y45836840D01*
X50299500Y45832035D01*
X50299500Y5082038D01*
X50299367Y5077982D01*
X50282317Y4817845D01*
X50281257Y4809796D01*
X50230799Y4556131D01*
X50228698Y4548289D01*
X50145560Y4303370D01*
X50142453Y4295869D01*
X50028058Y4063899D01*
X50023999Y4056869D01*
X49880304Y3841814D01*
X49875361Y3835373D01*
X49704825Y3640915D01*
X49699085Y3635175D01*
X49504627Y3464639D01*
X49498186Y3459696D01*
X49283131Y3316001D01*
X49276101Y3311942D01*
X49044131Y3197547D01*
X49036630Y3194440D01*
X48791711Y3111302D01*
X48783869Y3109201D01*
X48530204Y3058743D01*
X48522155Y3057683D01*
X48262018Y3040633D01*
X48257962Y3040500D01*
X2542038Y3040500D01*
X2537982Y3040633D01*
X2277844Y3057683D01*
X2269795Y3058743D01*
X2016130Y3109201D01*
X2008288Y3111302D01*
X1850361Y3164911D01*
X1763363Y3194443D01*
X1755874Y3197545D01*
X1523897Y3311943D01*
X1516868Y3316001D01*
X1301813Y3459696D01*
X1295372Y3464639D01*
X1100914Y3635175D01*
X1095174Y3640915D01*
X924638Y3835373D01*
X919699Y3841809D01*
X775999Y4056871D01*
X771944Y4063893D01*
X657540Y4295882D01*
X654444Y4303356D01*
X571301Y4548289D01*
X569200Y4556131D01*
X557224Y4616337D01*
X518740Y4809809D01*
X517682Y4817846D01*
X515929Y4844587D01*
X501525Y5064367D01*
X500633Y5077982D01*
X500567Y5080000D01*
X1184341Y5080000D01*
X1204936Y4844597D01*
X1204938Y4844587D01*
X1266094Y4616345D01*
X1266096Y4616341D01*
X1266097Y4616337D01*
X1294172Y4556131D01*
X1365964Y4402172D01*
X1365965Y4402170D01*
X1501505Y4208598D01*
X1668597Y4041506D01*
X1862169Y3905966D01*
X1862171Y3905965D01*
X2076337Y3806097D01*
X2304592Y3744937D01*
X2481034Y3729500D01*
X2598966Y3729500D01*
X2775408Y3744937D01*
X3003663Y3806097D01*
X3217829Y3905965D01*
X3411401Y4041505D01*
X3578495Y4208599D01*
X3714035Y4402170D01*
X3813903Y4616337D01*
X3875063Y4844592D01*
X3895659Y5080000D01*
X3875063Y5315408D01*
X3813903Y5543663D01*
X3714035Y5757829D01*
X3714034Y5757831D01*
X3578494Y5951403D01*
X3433900Y6095997D01*
X8159909Y6095997D01*
X8178212Y5933545D01*
X8232210Y5779226D01*
X8245654Y5757830D01*
X8319192Y5640796D01*
X8434796Y5525192D01*
X8573225Y5438211D01*
X8727539Y5384214D01*
X8727542Y5384214D01*
X8727544Y5384213D01*
X8889996Y5365909D01*
X8890000Y5365909D01*
X8890004Y5365909D01*
X9052455Y5384213D01*
X9052456Y5384214D01*
X9052461Y5384214D01*
X9206775Y5438211D01*
X9345204Y5525192D01*
X9460808Y5640796D01*
X9547789Y5779225D01*
X9601786Y5933539D01*
X9620091Y6096000D01*
X9617556Y6118495D01*
X9601787Y6258456D01*
X9601786Y6258458D01*
X9601786Y6258461D01*
X9569755Y6349999D01*
X16474532Y6349999D01*
X16494364Y6123314D01*
X16494366Y6123303D01*
X16553258Y5903512D01*
X16553261Y5903503D01*
X16649431Y5697268D01*
X16649432Y5697266D01*
X16779954Y5510859D01*
X16940858Y5349955D01*
X16940861Y5349953D01*
X17127266Y5219432D01*
X17333504Y5123261D01*
X17553308Y5064365D01*
X17715230Y5050199D01*
X17779998Y5044532D01*
X17780000Y5044532D01*
X17780002Y5044532D01*
X17836673Y5049491D01*
X18006692Y5064365D01*
X18065043Y5080000D01*
X46904341Y5080000D01*
X46924936Y4844597D01*
X46924938Y4844587D01*
X46986094Y4616345D01*
X46986096Y4616341D01*
X46986097Y4616337D01*
X47014172Y4556131D01*
X47085964Y4402172D01*
X47085965Y4402170D01*
X47221505Y4208598D01*
X47388597Y4041506D01*
X47582169Y3905966D01*
X47582171Y3905965D01*
X47796337Y3806097D01*
X48024592Y3744937D01*
X48201034Y3729500D01*
X48318966Y3729500D01*
X48495408Y3744937D01*
X48723663Y3806097D01*
X48937829Y3905965D01*
X49131401Y4041505D01*
X49298495Y4208599D01*
X49434035Y4402170D01*
X49533903Y4616337D01*
X49595063Y4844592D01*
X49615659Y5080000D01*
X49595063Y5315408D01*
X49533903Y5543663D01*
X49434035Y5757829D01*
X49434034Y5757831D01*
X49298494Y5951403D01*
X49131402Y6118495D01*
X48937830Y6254035D01*
X48937828Y6254036D01*
X48830745Y6303970D01*
X48723663Y6353903D01*
X48723659Y6353904D01*
X48723655Y6353906D01*
X48495413Y6415062D01*
X48495403Y6415064D01*
X48318966Y6430500D01*
X48201034Y6430500D01*
X48024596Y6415064D01*
X48024586Y6415062D01*
X47796344Y6353906D01*
X47796335Y6353902D01*
X47582171Y6254036D01*
X47582169Y6254035D01*
X47388597Y6118495D01*
X47221506Y5951403D01*
X47221501Y5951396D01*
X47085967Y5757835D01*
X47085965Y5757831D01*
X46986098Y5543665D01*
X46986094Y5543656D01*
X46924938Y5315414D01*
X46924936Y5315404D01*
X46904341Y5080001D01*
X46904341Y5080000D01*
X18065043Y5080000D01*
X18226496Y5123261D01*
X18432734Y5219432D01*
X18619139Y5349953D01*
X18780047Y5510861D01*
X18910568Y5697266D01*
X19006739Y5903504D01*
X19065635Y6123308D01*
X19085468Y6350000D01*
X19065635Y6576692D01*
X19006739Y6796496D01*
X18910568Y7002734D01*
X18780047Y7189139D01*
X18780045Y7189142D01*
X18619141Y7350046D01*
X18432734Y7480568D01*
X18432732Y7480569D01*
X18226497Y7576739D01*
X18226488Y7576742D01*
X18006697Y7635634D01*
X18006693Y7635635D01*
X18006692Y7635635D01*
X18006691Y7635636D01*
X18006686Y7635636D01*
X17780002Y7655468D01*
X17779998Y7655468D01*
X17553313Y7635636D01*
X17553302Y7635634D01*
X17333511Y7576742D01*
X17333502Y7576739D01*
X17127267Y7480569D01*
X17127265Y7480568D01*
X16940858Y7350046D01*
X16779954Y7189142D01*
X16649432Y7002735D01*
X16649431Y7002733D01*
X16553261Y6796498D01*
X16553258Y6796489D01*
X16494366Y6576698D01*
X16494364Y6576687D01*
X16474532Y6350002D01*
X16474532Y6349999D01*
X9569755Y6349999D01*
X9547789Y6412775D01*
X9460808Y6551204D01*
X9345204Y6666808D01*
X9345203Y6666808D01*
X9206774Y6753790D01*
X9052455Y6807788D01*
X8890004Y6826091D01*
X8889996Y6826091D01*
X8727544Y6807788D01*
X8573225Y6753790D01*
X8434795Y6666808D01*
X8319192Y6551205D01*
X8232210Y6412775D01*
X8178212Y6258456D01*
X8159909Y6096004D01*
X8159909Y6095997D01*
X3433900Y6095997D01*
X3411402Y6118495D01*
X3217830Y6254035D01*
X3217828Y6254036D01*
X3110746Y6303970D01*
X3003663Y6353903D01*
X3003659Y6353904D01*
X3003655Y6353906D01*
X2775413Y6415062D01*
X2775403Y6415064D01*
X2598966Y6430500D01*
X2481034Y6430500D01*
X2304596Y6415064D01*
X2304586Y6415062D01*
X2076344Y6353906D01*
X2076335Y6353902D01*
X1862171Y6254036D01*
X1862169Y6254035D01*
X1668597Y6118495D01*
X1501506Y5951403D01*
X1501501Y5951396D01*
X1365967Y5757835D01*
X1365965Y5757831D01*
X1266098Y5543665D01*
X1266094Y5543656D01*
X1204938Y5315414D01*
X1204936Y5315404D01*
X1184341Y5080001D01*
X1184341Y5080000D01*
X500567Y5080000D01*
X500500Y5082038D01*
X500500Y8280397D01*
X11665109Y8280397D01*
X11683412Y8117945D01*
X11737410Y7963626D01*
X11737411Y7963625D01*
X11824392Y7825196D01*
X11939996Y7709592D01*
X12078425Y7622611D01*
X12232739Y7568614D01*
X12232742Y7568614D01*
X12232744Y7568613D01*
X12395196Y7550309D01*
X12395200Y7550309D01*
X12395204Y7550309D01*
X12557655Y7568613D01*
X12557656Y7568614D01*
X12557661Y7568614D01*
X12711975Y7622611D01*
X12850404Y7709592D01*
X12966008Y7825196D01*
X13052989Y7963625D01*
X13106986Y8117939D01*
X13118434Y8219539D01*
X13125291Y8280397D01*
X13125291Y8280404D01*
X13113844Y8381997D01*
X13849509Y8381997D01*
X13867812Y8219545D01*
X13921810Y8065226D01*
X13985650Y7963626D01*
X14008792Y7926796D01*
X14124396Y7811192D01*
X14262825Y7724211D01*
X14417139Y7670214D01*
X14417142Y7670214D01*
X14417144Y7670213D01*
X14579596Y7651909D01*
X14579600Y7651909D01*
X14579604Y7651909D01*
X14742055Y7670213D01*
X14742056Y7670214D01*
X14742061Y7670214D01*
X14896375Y7724211D01*
X15034804Y7811192D01*
X15150408Y7926796D01*
X15237389Y8065225D01*
X15291386Y8219539D01*
X15291387Y8219545D01*
X15309691Y8381997D01*
X15309691Y8382004D01*
X15291387Y8544456D01*
X15291386Y8544458D01*
X15291386Y8544461D01*
X15237389Y8698775D01*
X15150408Y8837204D01*
X15097613Y8889999D01*
X31714532Y8889999D01*
X31734364Y8663314D01*
X31734366Y8663303D01*
X31793258Y8443512D01*
X31793261Y8443503D01*
X31889431Y8237268D01*
X31889432Y8237266D01*
X32019954Y8050859D01*
X32180858Y7889955D01*
X32180861Y7889953D01*
X32367266Y7759432D01*
X32573504Y7663261D01*
X32793308Y7604365D01*
X32955230Y7590199D01*
X33019998Y7584532D01*
X33020000Y7584532D01*
X33020002Y7584532D01*
X33076672Y7589491D01*
X33246692Y7604365D01*
X33466496Y7663261D01*
X33672734Y7759432D01*
X33859139Y7889953D01*
X34020047Y8050861D01*
X34150568Y8237266D01*
X34246739Y8443504D01*
X34305635Y8663308D01*
X34325468Y8890000D01*
X34305635Y9116692D01*
X34246739Y9336496D01*
X34150568Y9542734D01*
X34020047Y9729139D01*
X34020045Y9729142D01*
X33859141Y9890046D01*
X33672734Y10020568D01*
X33672728Y10020571D01*
X33614725Y10047618D01*
X33562285Y10093790D01*
X33543133Y10160983D01*
X33550512Y10185397D01*
X38530809Y10185397D01*
X38549112Y10022945D01*
X38603110Y9868626D01*
X38603111Y9868625D01*
X38690092Y9730196D01*
X38805696Y9614592D01*
X38944125Y9527611D01*
X39098439Y9473614D01*
X39098442Y9473614D01*
X39098444Y9473613D01*
X39260896Y9455309D01*
X39260900Y9455309D01*
X39260904Y9455309D01*
X39423355Y9473613D01*
X39423356Y9473614D01*
X39423361Y9473614D01*
X39577675Y9527611D01*
X39716104Y9614592D01*
X39831708Y9730196D01*
X39918689Y9868625D01*
X39944060Y9941130D01*
X47334500Y9941130D01*
X47334501Y9941124D01*
X47340908Y9881517D01*
X47391202Y9746672D01*
X47391206Y9746665D01*
X47477452Y9631456D01*
X47477455Y9631453D01*
X47592664Y9545207D01*
X47592671Y9545203D01*
X47727517Y9494909D01*
X47727516Y9494909D01*
X47734444Y9494165D01*
X47787127Y9488500D01*
X48732872Y9488501D01*
X48792483Y9494909D01*
X48927331Y9545204D01*
X49042546Y9631454D01*
X49128796Y9746669D01*
X49179091Y9881517D01*
X49185500Y9941127D01*
X49185499Y10886872D01*
X49179091Y10946483D01*
X49165283Y10983503D01*
X49128797Y11081329D01*
X49128793Y11081336D01*
X49042547Y11196545D01*
X49042544Y11196548D01*
X48927335Y11282794D01*
X48927328Y11282798D01*
X48792482Y11333092D01*
X48792483Y11333092D01*
X48732883Y11339499D01*
X48732881Y11339500D01*
X48732873Y11339500D01*
X48732864Y11339500D01*
X47787129Y11339500D01*
X47787123Y11339499D01*
X47727516Y11333092D01*
X47592671Y11282798D01*
X47592664Y11282794D01*
X47477455Y11196548D01*
X47477452Y11196545D01*
X47391206Y11081336D01*
X47391202Y11081329D01*
X47340908Y10946483D01*
X47334846Y10890091D01*
X47334501Y10886877D01*
X47334500Y10886865D01*
X47334500Y9941130D01*
X39944060Y9941130D01*
X39972686Y10022939D01*
X39984133Y10124532D01*
X39990991Y10185397D01*
X39990991Y10185404D01*
X39972687Y10347856D01*
X39972686Y10347858D01*
X39972686Y10347861D01*
X39918689Y10502175D01*
X39831708Y10640604D01*
X39716104Y10756208D01*
X39577674Y10843190D01*
X39423355Y10897188D01*
X39260904Y10915491D01*
X39260896Y10915491D01*
X39098444Y10897188D01*
X38944125Y10843190D01*
X38805695Y10756208D01*
X38690092Y10640605D01*
X38603110Y10502175D01*
X38549112Y10347856D01*
X38530809Y10185404D01*
X38530809Y10185397D01*
X33550512Y10185397D01*
X33563348Y10227865D01*
X33614725Y10272382D01*
X33672734Y10299432D01*
X33859139Y10429953D01*
X34020047Y10590861D01*
X34150568Y10777266D01*
X34246739Y10983504D01*
X34305635Y11203308D01*
X34325468Y11430000D01*
X34305635Y11656692D01*
X34246739Y11876496D01*
X34150568Y12082734D01*
X34020047Y12269139D01*
X34020045Y12269142D01*
X33859141Y12430046D01*
X33672734Y12560568D01*
X33672728Y12560571D01*
X33614725Y12587618D01*
X33562285Y12633790D01*
X33543133Y12700983D01*
X33563348Y12767865D01*
X33614725Y12812382D01*
X33672734Y12839432D01*
X33859139Y12969953D01*
X34020047Y13130861D01*
X34150568Y13317266D01*
X34158836Y13334997D01*
X35591909Y13334997D01*
X35610212Y13172545D01*
X35664210Y13018226D01*
X35704935Y12953413D01*
X35751192Y12879796D01*
X35866796Y12764192D01*
X36005225Y12677211D01*
X36159539Y12623214D01*
X36159542Y12623214D01*
X36159544Y12623213D01*
X36321996Y12604909D01*
X36322000Y12604909D01*
X36322004Y12604909D01*
X36484455Y12623213D01*
X36484456Y12623214D01*
X36484461Y12623214D01*
X36638775Y12677211D01*
X36777204Y12764192D01*
X36892808Y12879796D01*
X36939434Y12954001D01*
X38641815Y12954001D01*
X38660503Y12776195D01*
X38660504Y12776193D01*
X38715747Y12606171D01*
X38715750Y12606165D01*
X38805141Y12451335D01*
X38824309Y12430047D01*
X38924764Y12318479D01*
X38924767Y12318477D01*
X38924770Y12318474D01*
X39069407Y12213388D01*
X39232733Y12140671D01*
X39407609Y12103500D01*
X39407610Y12103500D01*
X39586389Y12103500D01*
X39586391Y12103500D01*
X39761267Y12140671D01*
X39924593Y12213388D01*
X40069230Y12318474D01*
X40069702Y12318997D01*
X42068909Y12318997D01*
X42087212Y12156545D01*
X42141210Y12002226D01*
X42141211Y12002225D01*
X42228192Y11863796D01*
X42343796Y11748192D01*
X42482225Y11661211D01*
X42636539Y11607214D01*
X42636542Y11607214D01*
X42636544Y11607213D01*
X42798996Y11588909D01*
X42799000Y11588909D01*
X42799004Y11588909D01*
X42961455Y11607213D01*
X42961456Y11607214D01*
X42961461Y11607214D01*
X43115775Y11661211D01*
X43254204Y11748192D01*
X43369808Y11863796D01*
X43456789Y12002225D01*
X43510786Y12156539D01*
X43510787Y12156545D01*
X43529091Y12318997D01*
X43529091Y12319004D01*
X43510787Y12481456D01*
X43510786Y12481458D01*
X43510786Y12481461D01*
X43456789Y12635775D01*
X43369808Y12774204D01*
X43254204Y12889808D01*
X43152976Y12953414D01*
X43115774Y12976790D01*
X42961455Y13030788D01*
X42799004Y13049091D01*
X42798996Y13049091D01*
X42636544Y13030788D01*
X42482225Y12976790D01*
X42343795Y12889808D01*
X42228192Y12774205D01*
X42141210Y12635775D01*
X42087212Y12481456D01*
X42068909Y12319004D01*
X42068909Y12318997D01*
X40069702Y12318997D01*
X40069708Y12319004D01*
X40095148Y12347259D01*
X40188859Y12451335D01*
X40278250Y12606165D01*
X40333497Y12776197D01*
X40352185Y12954000D01*
X40333497Y13131803D01*
X40278250Y13301835D01*
X40188859Y13456665D01*
X40128677Y13523504D01*
X40069235Y13589522D01*
X40069232Y13589524D01*
X40069231Y13589525D01*
X40069230Y13589526D01*
X39924593Y13694612D01*
X39761267Y13767329D01*
X39761265Y13767330D01*
X39633594Y13794467D01*
X39586391Y13804500D01*
X39407609Y13804500D01*
X39376954Y13797985D01*
X39232733Y13767330D01*
X39232728Y13767328D01*
X39069408Y13694613D01*
X38924768Y13589525D01*
X38805140Y13456664D01*
X38715750Y13301836D01*
X38715747Y13301830D01*
X38660504Y13131808D01*
X38660503Y13131806D01*
X38641815Y12954001D01*
X36939434Y12954001D01*
X36979789Y13018225D01*
X37033786Y13172539D01*
X37048354Y13301830D01*
X37052091Y13334997D01*
X37052091Y13335004D01*
X37033787Y13497456D01*
X37033786Y13497458D01*
X37033786Y13497461D01*
X36979789Y13651775D01*
X36892808Y13790204D01*
X36777204Y13905808D01*
X36731479Y13934539D01*
X36638774Y13992790D01*
X36484455Y14046788D01*
X36322004Y14065091D01*
X36321996Y14065091D01*
X36159544Y14046788D01*
X36005225Y13992790D01*
X35866795Y13905808D01*
X35751192Y13790205D01*
X35664210Y13651775D01*
X35610212Y13497456D01*
X35591909Y13335004D01*
X35591909Y13334997D01*
X34158836Y13334997D01*
X34246739Y13523504D01*
X34305635Y13743308D01*
X34325468Y13970000D01*
X34305635Y14196692D01*
X34257325Y14376988D01*
X34246741Y14416489D01*
X34246738Y14416498D01*
X34218060Y14477997D01*
X42957909Y14477997D01*
X42976212Y14315545D01*
X43030210Y14161226D01*
X43070564Y14097004D01*
X43117192Y14022796D01*
X43232796Y13907192D01*
X43371225Y13820211D01*
X43525539Y13766214D01*
X43525542Y13766214D01*
X43525544Y13766213D01*
X43687996Y13747909D01*
X43688000Y13747909D01*
X43688004Y13747909D01*
X43850455Y13766213D01*
X43850456Y13766214D01*
X43850461Y13766214D01*
X44004775Y13820211D01*
X44143204Y13907192D01*
X44258808Y14022796D01*
X44345789Y14161225D01*
X44399786Y14315539D01*
X44399787Y14315545D01*
X44418091Y14477997D01*
X44418091Y14478004D01*
X44399787Y14640456D01*
X44399786Y14640458D01*
X44399786Y14640461D01*
X44345789Y14794775D01*
X44258808Y14933204D01*
X44143204Y15048808D01*
X44060824Y15100571D01*
X44004774Y15135790D01*
X43850455Y15189788D01*
X43688004Y15208091D01*
X43687996Y15208091D01*
X43525544Y15189788D01*
X43371225Y15135790D01*
X43232795Y15048808D01*
X43117192Y14933205D01*
X43030210Y14794775D01*
X42976212Y14640456D01*
X42957909Y14478004D01*
X42957909Y14477997D01*
X34218060Y14477997D01*
X34150568Y14622733D01*
X34150567Y14622735D01*
X34138155Y14640461D01*
X34020047Y14809139D01*
X34020045Y14809142D01*
X33859141Y14970046D01*
X33672734Y15100568D01*
X33672728Y15100571D01*
X33614725Y15127618D01*
X33562285Y15173790D01*
X33543133Y15240983D01*
X33563348Y15307865D01*
X33614725Y15352382D01*
X33672734Y15379432D01*
X33859139Y15509953D01*
X34020047Y15670861D01*
X34150568Y15857266D01*
X34246739Y16063504D01*
X34305635Y16283308D01*
X34325468Y16510000D01*
X34305635Y16736692D01*
X34246739Y16956496D01*
X34150568Y17162734D01*
X34020047Y17349139D01*
X34020045Y17349142D01*
X33859141Y17510046D01*
X33786185Y17561130D01*
X47334500Y17561130D01*
X47334501Y17561124D01*
X47340908Y17501517D01*
X47391202Y17366672D01*
X47391206Y17366665D01*
X47477452Y17251456D01*
X47477455Y17251453D01*
X47592664Y17165207D01*
X47592671Y17165203D01*
X47727517Y17114909D01*
X47727516Y17114909D01*
X47734444Y17114165D01*
X47787127Y17108500D01*
X48732872Y17108501D01*
X48792483Y17114909D01*
X48927331Y17165204D01*
X49042546Y17251454D01*
X49128796Y17366669D01*
X49179091Y17501517D01*
X49185500Y17561127D01*
X49185499Y18506872D01*
X49179091Y18566483D01*
X49165283Y18603503D01*
X49128797Y18701329D01*
X49128793Y18701336D01*
X49042547Y18816545D01*
X49042544Y18816548D01*
X48927335Y18902794D01*
X48927328Y18902798D01*
X48792482Y18953092D01*
X48792483Y18953092D01*
X48732883Y18959499D01*
X48732881Y18959500D01*
X48732873Y18959500D01*
X48732864Y18959500D01*
X47787129Y18959500D01*
X47787123Y18959499D01*
X47727516Y18953092D01*
X47592671Y18902798D01*
X47592664Y18902794D01*
X47477455Y18816548D01*
X47477452Y18816545D01*
X47391206Y18701336D01*
X47391202Y18701329D01*
X47340908Y18566483D01*
X47334501Y18506884D01*
X47334501Y18506877D01*
X47334500Y18506865D01*
X47334500Y17561130D01*
X33786185Y17561130D01*
X33672734Y17640568D01*
X33672728Y17640571D01*
X33614725Y17667618D01*
X33562285Y17713790D01*
X33543133Y17780983D01*
X33563348Y17847865D01*
X33614725Y17892382D01*
X33672734Y17919432D01*
X33859139Y18049953D01*
X34020047Y18210861D01*
X34150568Y18397266D01*
X34246739Y18603504D01*
X34305635Y18823308D01*
X34325468Y19050000D01*
X34305635Y19276692D01*
X34246739Y19496496D01*
X34150568Y19702734D01*
X34020047Y19889139D01*
X34020045Y19889142D01*
X33859141Y20050046D01*
X33672734Y20180568D01*
X33672728Y20180571D01*
X33614725Y20207618D01*
X33562285Y20253790D01*
X33543133Y20320983D01*
X33563348Y20387865D01*
X33614725Y20432382D01*
X33672734Y20459432D01*
X33859139Y20589953D01*
X34020047Y20750861D01*
X34150568Y20937266D01*
X34246739Y21143504D01*
X34305635Y21363308D01*
X34325468Y21590000D01*
X34305635Y21816692D01*
X34298319Y21843997D01*
X37115909Y21843997D01*
X37134212Y21681545D01*
X37188210Y21527226D01*
X37188211Y21527225D01*
X37275192Y21388796D01*
X37390796Y21273192D01*
X37529225Y21186211D01*
X37683539Y21132214D01*
X37683542Y21132214D01*
X37683544Y21132213D01*
X37845996Y21113909D01*
X37846000Y21113909D01*
X37846004Y21113909D01*
X38008455Y21132213D01*
X38008456Y21132214D01*
X38008461Y21132214D01*
X38162775Y21186211D01*
X38301204Y21273192D01*
X38329819Y21301807D01*
X38391142Y21335292D01*
X38460834Y21330308D01*
X38505180Y21301807D01*
X38533796Y21273192D01*
X38672225Y21186211D01*
X38826539Y21132214D01*
X38826542Y21132214D01*
X38826544Y21132213D01*
X38988996Y21113909D01*
X38989000Y21113909D01*
X38989004Y21113909D01*
X39151455Y21132213D01*
X39151456Y21132214D01*
X39151461Y21132214D01*
X39305775Y21186211D01*
X39444204Y21273192D01*
X39559808Y21388796D01*
X39646789Y21527225D01*
X39700786Y21681539D01*
X39700787Y21681545D01*
X39719091Y21843997D01*
X39719091Y21844004D01*
X39700787Y22006456D01*
X39700786Y22006458D01*
X39700786Y22006461D01*
X39646789Y22160775D01*
X39607986Y22222530D01*
X39588986Y22289767D01*
X39607985Y22354471D01*
X39646789Y22416225D01*
X39700786Y22570539D01*
X39700786Y22570541D01*
X39700787Y22570543D01*
X39719091Y22732997D01*
X39719091Y22733004D01*
X39700787Y22895456D01*
X39700786Y22895458D01*
X39700786Y22895461D01*
X39646789Y23049775D01*
X39559808Y23188204D01*
X39444204Y23303808D01*
X39403174Y23329589D01*
X39305774Y23390790D01*
X39151455Y23444788D01*
X38989004Y23463091D01*
X38988996Y23463091D01*
X38826544Y23444788D01*
X38672225Y23390790D01*
X38533797Y23303809D01*
X38505180Y23275192D01*
X38443856Y23241708D01*
X38374165Y23246694D01*
X38329820Y23275192D01*
X38301204Y23303808D01*
X38235312Y23345211D01*
X38162774Y23390790D01*
X38008455Y23444788D01*
X37846004Y23463091D01*
X37845996Y23463091D01*
X37683544Y23444788D01*
X37529225Y23390790D01*
X37390795Y23303808D01*
X37275192Y23188205D01*
X37188210Y23049775D01*
X37134212Y22895456D01*
X37115909Y22733004D01*
X37115909Y22732997D01*
X37134212Y22570543D01*
X37188210Y22416226D01*
X37188213Y22416221D01*
X37227012Y22354474D01*
X37246013Y22287237D01*
X37227013Y22222530D01*
X37188212Y22160779D01*
X37188209Y22160772D01*
X37134212Y22006456D01*
X37115909Y21844004D01*
X37115909Y21843997D01*
X34298319Y21843997D01*
X34246739Y22036496D01*
X34150568Y22242734D01*
X34020047Y22429139D01*
X34020045Y22429142D01*
X33859141Y22590046D01*
X33672734Y22720568D01*
X33672728Y22720571D01*
X33614725Y22747618D01*
X33562285Y22793790D01*
X33543133Y22860983D01*
X33563348Y22927865D01*
X33614725Y22972382D01*
X33672734Y22999432D01*
X33859139Y23129953D01*
X34020047Y23290861D01*
X34150568Y23477266D01*
X34246739Y23683504D01*
X34305635Y23903308D01*
X34325468Y24130000D01*
X34305635Y24356692D01*
X34246739Y24576496D01*
X34150568Y24782734D01*
X34020047Y24969139D01*
X34020045Y24969142D01*
X33859141Y25130046D01*
X33672734Y25260568D01*
X33672728Y25260571D01*
X33614725Y25287618D01*
X33562285Y25333790D01*
X33543414Y25399997D01*
X38131909Y25399997D01*
X38150212Y25237545D01*
X38204210Y25083226D01*
X38204211Y25083225D01*
X38291192Y24944796D01*
X38406796Y24829192D01*
X38545225Y24742211D01*
X38699539Y24688214D01*
X38699542Y24688214D01*
X38699544Y24688213D01*
X38861996Y24669909D01*
X38862000Y24669909D01*
X38862004Y24669909D01*
X39024457Y24688213D01*
X39024459Y24688214D01*
X39024461Y24688214D01*
X39178775Y24742211D01*
X39240530Y24781015D01*
X39307763Y24800015D01*
X39372469Y24781015D01*
X39434225Y24742211D01*
X39588539Y24688214D01*
X39588542Y24688213D01*
X39750996Y24669909D01*
X39751000Y24669909D01*
X39751004Y24669909D01*
X39913457Y24688213D01*
X39913459Y24688214D01*
X39913461Y24688214D01*
X40067775Y24742211D01*
X40129530Y24781015D01*
X40196763Y24800015D01*
X40261469Y24781015D01*
X40323225Y24742211D01*
X40477539Y24688214D01*
X40477542Y24688213D01*
X40639996Y24669909D01*
X40640000Y24669909D01*
X40640004Y24669909D01*
X40802457Y24688213D01*
X40802459Y24688214D01*
X40802461Y24688214D01*
X40956775Y24742211D01*
X41018530Y24781015D01*
X41085763Y24800015D01*
X41150469Y24781015D01*
X41212225Y24742211D01*
X41366539Y24688214D01*
X41366542Y24688213D01*
X41528996Y24669909D01*
X41529000Y24669909D01*
X41529004Y24669909D01*
X41691455Y24688213D01*
X41691456Y24688214D01*
X41691461Y24688214D01*
X41845775Y24742211D01*
X41984204Y24829192D01*
X42099808Y24944796D01*
X42186789Y25083225D01*
X42240786Y25237539D01*
X42246429Y25287618D01*
X42259091Y25399997D01*
X42259091Y25400004D01*
X42240787Y25562456D01*
X42240786Y25562458D01*
X42240786Y25562461D01*
X42186789Y25716775D01*
X42099808Y25855204D01*
X41984204Y25970808D01*
X41973500Y25977534D01*
X41845774Y26057790D01*
X41691455Y26111788D01*
X41529004Y26130091D01*
X41528996Y26130091D01*
X41366544Y26111788D01*
X41212222Y26057789D01*
X41150471Y26018988D01*
X41083234Y25999988D01*
X41018529Y26018988D01*
X40956777Y26057789D01*
X40802455Y26111788D01*
X40640004Y26130091D01*
X40639996Y26130091D01*
X40477544Y26111788D01*
X40323222Y26057789D01*
X40261471Y26018988D01*
X40194234Y25999988D01*
X40129529Y26018988D01*
X40067777Y26057789D01*
X39913455Y26111788D01*
X39751004Y26130091D01*
X39750996Y26130091D01*
X39588544Y26111788D01*
X39434222Y26057789D01*
X39372471Y26018988D01*
X39305234Y25999988D01*
X39240529Y26018988D01*
X39178777Y26057789D01*
X39024455Y26111788D01*
X38862004Y26130091D01*
X38861996Y26130091D01*
X38699544Y26111788D01*
X38545225Y26057790D01*
X38406795Y25970808D01*
X38291192Y25855205D01*
X38204210Y25716775D01*
X38150212Y25562456D01*
X38131909Y25400004D01*
X38131909Y25399997D01*
X33543414Y25399997D01*
X33543133Y25400983D01*
X33563348Y25467865D01*
X33614725Y25512382D01*
X33672734Y25539432D01*
X33859139Y25669953D01*
X34020047Y25830861D01*
X34150568Y26017266D01*
X34246739Y26223504D01*
X34305635Y26443308D01*
X34325468Y26670000D01*
X34305635Y26896692D01*
X34246739Y27116496D01*
X34150568Y27322734D01*
X34074062Y27431997D01*
X34829909Y27431997D01*
X34848212Y27269545D01*
X34902210Y27115226D01*
X34926975Y27075813D01*
X34989192Y26976796D01*
X35104796Y26861192D01*
X35243225Y26774211D01*
X35397539Y26720214D01*
X35397542Y26720214D01*
X35397544Y26720213D01*
X35559996Y26701909D01*
X35560000Y26701909D01*
X35560004Y26701909D01*
X35722455Y26720213D01*
X35722456Y26720214D01*
X35722461Y26720214D01*
X35876775Y26774211D01*
X36015204Y26861192D01*
X36130808Y26976796D01*
X36217789Y27115225D01*
X36271786Y27269539D01*
X36277780Y27322735D01*
X36290091Y27431997D01*
X36290091Y27432004D01*
X36271787Y27594456D01*
X36271786Y27594458D01*
X36271786Y27594461D01*
X36217789Y27748775D01*
X36193395Y27787597D01*
X37522309Y27787597D01*
X37540612Y27625145D01*
X37594610Y27470826D01*
X37594611Y27470825D01*
X37681592Y27332396D01*
X37797196Y27216792D01*
X37935625Y27129811D01*
X38089939Y27075814D01*
X38089942Y27075814D01*
X38089944Y27075813D01*
X38252396Y27057509D01*
X38252400Y27057509D01*
X38252404Y27057509D01*
X38414857Y27075813D01*
X38414859Y27075814D01*
X38414861Y27075814D01*
X38567046Y27129067D01*
X38636824Y27132628D01*
X38648949Y27129068D01*
X38801139Y27075814D01*
X38801142Y27075813D01*
X38963596Y27057509D01*
X38963600Y27057509D01*
X38963604Y27057509D01*
X39126055Y27075813D01*
X39126056Y27075814D01*
X39126061Y27075814D01*
X39280375Y27129811D01*
X39418804Y27216792D01*
X39534408Y27332396D01*
X39621389Y27470825D01*
X39675386Y27625139D01*
X39680446Y27670047D01*
X39693691Y27787597D01*
X39693691Y27787604D01*
X39675387Y27950056D01*
X39675386Y27950058D01*
X39675386Y27950061D01*
X39621389Y28104375D01*
X39534408Y28242804D01*
X39519019Y28258193D01*
X39480392Y28296821D01*
X39446908Y28358144D01*
X39451893Y28427836D01*
X39480389Y28472178D01*
X39559808Y28551596D01*
X39646789Y28690025D01*
X39700786Y28844339D01*
X39713367Y28955997D01*
X39719091Y29006797D01*
X39719091Y29006804D01*
X39700787Y29169256D01*
X39700786Y29169258D01*
X39700786Y29169261D01*
X39646789Y29323575D01*
X39620520Y29365382D01*
X39601519Y29432619D01*
X39621886Y29499454D01*
X39675154Y29544668D01*
X39684541Y29548391D01*
X39813775Y29593611D01*
X39952204Y29680592D01*
X40067808Y29796196D01*
X40154789Y29934625D01*
X40208786Y30088939D01*
X40208787Y30088945D01*
X40227091Y30251397D01*
X40227091Y30251404D01*
X40208787Y30413856D01*
X40208786Y30413858D01*
X40208786Y30413861D01*
X40154789Y30568175D01*
X40079346Y30688241D01*
X40060346Y30755476D01*
X40079346Y30820183D01*
X40129389Y30899825D01*
X40160242Y30987997D01*
X40925909Y30987997D01*
X40944212Y30825545D01*
X40944213Y30825540D01*
X40944214Y30825539D01*
X40949376Y30810788D01*
X40998210Y30671226D01*
X41062962Y30568175D01*
X41085192Y30532796D01*
X41200796Y30417192D01*
X41339225Y30330211D01*
X41493539Y30276214D01*
X41493542Y30276214D01*
X41493544Y30276213D01*
X41655996Y30257909D01*
X41656000Y30257909D01*
X41656004Y30257909D01*
X41818455Y30276213D01*
X41818456Y30276214D01*
X41818461Y30276214D01*
X41972775Y30330211D01*
X42111204Y30417192D01*
X42226808Y30532796D01*
X42313789Y30671225D01*
X42367786Y30825539D01*
X42367787Y30825545D01*
X42386091Y30987997D01*
X42386091Y30988004D01*
X42367787Y31150456D01*
X42367786Y31150458D01*
X42367786Y31150461D01*
X42335756Y31241997D01*
X48037909Y31241997D01*
X48056212Y31079545D01*
X48110210Y30925226D01*
X48170616Y30829091D01*
X48197192Y30786796D01*
X48312796Y30671192D01*
X48451225Y30584211D01*
X48605539Y30530214D01*
X48605542Y30530214D01*
X48605544Y30530213D01*
X48767996Y30511909D01*
X48768000Y30511909D01*
X48768004Y30511909D01*
X48930455Y30530213D01*
X48930456Y30530214D01*
X48930461Y30530214D01*
X49084775Y30584211D01*
X49223204Y30671192D01*
X49338808Y30786796D01*
X49425789Y30925225D01*
X49479786Y31079539D01*
X49479787Y31079545D01*
X49498091Y31241997D01*
X49498091Y31242004D01*
X49479787Y31404456D01*
X49479786Y31404458D01*
X49479786Y31404461D01*
X49425789Y31558775D01*
X49338808Y31697204D01*
X49223204Y31812808D01*
X49084774Y31899790D01*
X48930455Y31953788D01*
X48768004Y31972091D01*
X48767996Y31972091D01*
X48605544Y31953788D01*
X48451225Y31899790D01*
X48312795Y31812808D01*
X48197192Y31697205D01*
X48110210Y31558775D01*
X48056212Y31404456D01*
X48037909Y31242004D01*
X48037909Y31241997D01*
X42335756Y31241997D01*
X42313789Y31304775D01*
X42226808Y31443204D01*
X42111204Y31558808D01*
X41974020Y31645007D01*
X41927730Y31697341D01*
X41917082Y31766395D01*
X41945457Y31830243D01*
X41974021Y31854994D01*
X42111204Y31941192D01*
X42226808Y32056796D01*
X42313789Y32195225D01*
X42367786Y32349539D01*
X42373780Y32402735D01*
X42386091Y32511997D01*
X42386091Y32512004D01*
X42367787Y32674456D01*
X42367786Y32674458D01*
X42367786Y32674461D01*
X42313789Y32828775D01*
X42226808Y32967204D01*
X42134691Y33059321D01*
X42101208Y33120644D01*
X42106192Y33190335D01*
X42134689Y33234678D01*
X42226808Y33326796D01*
X42313789Y33465225D01*
X42367786Y33619539D01*
X42367787Y33619545D01*
X42386091Y33781997D01*
X42703909Y33781997D01*
X42722212Y33619545D01*
X42776210Y33465226D01*
X42856010Y33338226D01*
X42863192Y33326796D01*
X42978796Y33211192D01*
X43117225Y33124211D01*
X43271539Y33070214D01*
X43271542Y33070214D01*
X43271544Y33070213D01*
X43433996Y33051909D01*
X43434000Y33051909D01*
X43434004Y33051909D01*
X43596455Y33070213D01*
X43596456Y33070214D01*
X43596461Y33070214D01*
X43750775Y33124211D01*
X43889204Y33211192D01*
X44004808Y33326796D01*
X44091789Y33465225D01*
X44145786Y33619539D01*
X44145787Y33619545D01*
X44164091Y33781997D01*
X44481909Y33781997D01*
X44500212Y33619545D01*
X44554210Y33465226D01*
X44634010Y33338226D01*
X44641192Y33326796D01*
X44756796Y33211192D01*
X44895225Y33124211D01*
X45049539Y33070214D01*
X45049542Y33070214D01*
X45049544Y33070213D01*
X45211996Y33051909D01*
X45212000Y33051909D01*
X45212004Y33051909D01*
X45374455Y33070213D01*
X45374456Y33070214D01*
X45374461Y33070214D01*
X45528775Y33124211D01*
X45667204Y33211192D01*
X45782808Y33326796D01*
X45869006Y33463980D01*
X45921341Y33510270D01*
X45990395Y33520918D01*
X46054243Y33492543D01*
X46078993Y33463980D01*
X46165192Y33326796D01*
X46280796Y33211192D01*
X46419225Y33124211D01*
X46573539Y33070214D01*
X46573542Y33070214D01*
X46573544Y33070213D01*
X46735996Y33051909D01*
X46736000Y33051909D01*
X46736004Y33051909D01*
X46898455Y33070213D01*
X46898456Y33070214D01*
X46898461Y33070214D01*
X47052775Y33124211D01*
X47191204Y33211192D01*
X47306808Y33326796D01*
X47393789Y33465225D01*
X47447786Y33619539D01*
X47447787Y33619545D01*
X47466091Y33781997D01*
X48037909Y33781997D01*
X48056212Y33619545D01*
X48110210Y33465226D01*
X48190010Y33338226D01*
X48197192Y33326796D01*
X48312796Y33211192D01*
X48451225Y33124211D01*
X48605539Y33070214D01*
X48605542Y33070214D01*
X48605544Y33070213D01*
X48767996Y33051909D01*
X48768000Y33051909D01*
X48768004Y33051909D01*
X48930455Y33070213D01*
X48930456Y33070214D01*
X48930461Y33070214D01*
X49084775Y33124211D01*
X49223204Y33211192D01*
X49338808Y33326796D01*
X49425789Y33465225D01*
X49479786Y33619539D01*
X49479787Y33619545D01*
X49498091Y33781997D01*
X49498091Y33782004D01*
X49479787Y33944456D01*
X49479786Y33944458D01*
X49479786Y33944461D01*
X49425789Y34098775D01*
X49338808Y34237204D01*
X49223204Y34352808D01*
X49171826Y34385091D01*
X49084774Y34439790D01*
X48930455Y34493788D01*
X48768004Y34512091D01*
X48767996Y34512091D01*
X48605544Y34493788D01*
X48451225Y34439790D01*
X48312795Y34352808D01*
X48197192Y34237205D01*
X48110210Y34098775D01*
X48056212Y33944456D01*
X48037909Y33782004D01*
X48037909Y33781997D01*
X47466091Y33781997D01*
X47466091Y33782004D01*
X47447787Y33944456D01*
X47447786Y33944458D01*
X47447786Y33944461D01*
X47393789Y34098775D01*
X47306808Y34237204D01*
X47191204Y34352808D01*
X47139826Y34385091D01*
X47052774Y34439790D01*
X46898455Y34493788D01*
X46736004Y34512091D01*
X46735996Y34512091D01*
X46573544Y34493788D01*
X46419225Y34439790D01*
X46280795Y34352808D01*
X46165190Y34237203D01*
X46078993Y34100021D01*
X46026659Y34053731D01*
X45957605Y34043083D01*
X45893757Y34071458D01*
X45869007Y34100021D01*
X45782809Y34237203D01*
X45667204Y34352808D01*
X45528774Y34439790D01*
X45374455Y34493788D01*
X45212004Y34512091D01*
X45211996Y34512091D01*
X45049544Y34493788D01*
X44895225Y34439790D01*
X44756795Y34352808D01*
X44641192Y34237205D01*
X44554210Y34098775D01*
X44500212Y33944456D01*
X44481909Y33782004D01*
X44481909Y33781997D01*
X44164091Y33781997D01*
X44164091Y33782004D01*
X44145787Y33944456D01*
X44145786Y33944458D01*
X44145786Y33944461D01*
X44091789Y34098775D01*
X44004808Y34237204D01*
X43889204Y34352808D01*
X43837826Y34385091D01*
X43750774Y34439790D01*
X43596455Y34493788D01*
X43434004Y34512091D01*
X43433996Y34512091D01*
X43271544Y34493788D01*
X43117225Y34439790D01*
X42978795Y34352808D01*
X42863192Y34237205D01*
X42776210Y34098775D01*
X42722212Y33944456D01*
X42703909Y33782004D01*
X42703909Y33781997D01*
X42386091Y33781997D01*
X42386091Y33782004D01*
X42367787Y33944456D01*
X42367786Y33944458D01*
X42367786Y33944461D01*
X42313789Y34098775D01*
X42226808Y34237204D01*
X42111204Y34352808D01*
X42059826Y34385091D01*
X41972774Y34439790D01*
X41818455Y34493788D01*
X41656004Y34512091D01*
X41655996Y34512091D01*
X41493544Y34493788D01*
X41339225Y34439790D01*
X41200795Y34352808D01*
X41085192Y34237205D01*
X40998210Y34098775D01*
X40944212Y33944456D01*
X40925909Y33782004D01*
X40925909Y33781997D01*
X40944212Y33619545D01*
X40998210Y33465226D01*
X41085192Y33326796D01*
X41177307Y33234681D01*
X41210792Y33173358D01*
X41205808Y33103666D01*
X41177307Y33059319D01*
X41085192Y32967205D01*
X40998210Y32828775D01*
X40944212Y32674456D01*
X40925909Y32512004D01*
X40925909Y32511997D01*
X40944212Y32349545D01*
X40998210Y32195226D01*
X41085192Y32056796D01*
X41200797Y31941191D01*
X41337979Y31854993D01*
X41384269Y31802659D01*
X41394917Y31733605D01*
X41366542Y31669757D01*
X41337979Y31645007D01*
X41200797Y31558810D01*
X41085192Y31443205D01*
X40998210Y31304775D01*
X40944212Y31150456D01*
X40925909Y30988004D01*
X40925909Y30987997D01*
X40160242Y30987997D01*
X40183386Y31054139D01*
X40186249Y31079545D01*
X40201691Y31216597D01*
X40201691Y31216604D01*
X40183387Y31379056D01*
X40183386Y31379058D01*
X40183386Y31379061D01*
X40129389Y31533375D01*
X40042408Y31671804D01*
X40039196Y31675016D01*
X40005709Y31736334D01*
X40010690Y31806026D01*
X40039196Y31850385D01*
X40042408Y31853596D01*
X40129389Y31992025D01*
X40183386Y32146339D01*
X40188894Y32195225D01*
X40201691Y32308797D01*
X40201691Y32308804D01*
X40183387Y32471256D01*
X40183386Y32471258D01*
X40183386Y32471261D01*
X40129389Y32625575D01*
X40042408Y32764004D01*
X39926804Y32879608D01*
X39925271Y32880571D01*
X39788374Y32966590D01*
X39638548Y33019016D01*
X39634061Y33020586D01*
X39634060Y33020587D01*
X39634055Y33020588D01*
X39471604Y33038891D01*
X39471596Y33038891D01*
X39309144Y33020588D01*
X39154825Y32966590D01*
X39016397Y32879609D01*
X38987780Y32850992D01*
X38926456Y32817508D01*
X38856765Y32822494D01*
X38812420Y32850992D01*
X38783804Y32879608D01*
X38682576Y32943214D01*
X38645374Y32966590D01*
X38495548Y33019016D01*
X38491061Y33020586D01*
X38491060Y33020587D01*
X38491055Y33020588D01*
X38328604Y33038891D01*
X38328596Y33038891D01*
X38166144Y33020588D01*
X38011825Y32966590D01*
X37873395Y32879608D01*
X37757792Y32764005D01*
X37670810Y32625575D01*
X37616812Y32471256D01*
X37598509Y32308804D01*
X37598509Y32308797D01*
X37616812Y32146345D01*
X37670810Y31992026D01*
X37757792Y31853596D01*
X37757793Y31853594D01*
X37773708Y31837679D01*
X37807192Y31776355D01*
X37802206Y31706664D01*
X37773708Y31662321D01*
X37757793Y31646407D01*
X37757792Y31646405D01*
X37670810Y31507975D01*
X37616812Y31353656D01*
X37598509Y31191204D01*
X37598509Y31191197D01*
X37616812Y31028745D01*
X37670809Y30874429D01*
X37670812Y30874422D01*
X37687731Y30847496D01*
X37706731Y30780259D01*
X37686363Y30713424D01*
X37682719Y30708399D01*
X37594610Y30568175D01*
X37540612Y30413856D01*
X37522309Y30251404D01*
X37522309Y30251397D01*
X37540612Y30088945D01*
X37594610Y29934626D01*
X37665632Y29821596D01*
X37681592Y29796196D01*
X37797196Y29680592D01*
X37797201Y29680589D01*
X37802529Y29676340D01*
X37842670Y29619152D01*
X37845520Y29549340D01*
X37812899Y29491711D01*
X37732391Y29411203D01*
X37645410Y29272775D01*
X37591412Y29118456D01*
X37573109Y28956004D01*
X37573109Y28955997D01*
X37591412Y28793545D01*
X37645410Y28639226D01*
X37732392Y28500796D01*
X37748306Y28484882D01*
X37781791Y28423559D01*
X37776807Y28353867D01*
X37748307Y28309521D01*
X37681593Y28242806D01*
X37681592Y28242805D01*
X37594610Y28104375D01*
X37540612Y27950056D01*
X37522309Y27787604D01*
X37522309Y27787597D01*
X36193395Y27787597D01*
X36130808Y27887204D01*
X36015204Y28002808D01*
X35936308Y28052382D01*
X35876774Y28089790D01*
X35722455Y28143788D01*
X35560004Y28162091D01*
X35559996Y28162091D01*
X35397544Y28143788D01*
X35243225Y28089790D01*
X35104795Y28002808D01*
X34989192Y27887205D01*
X34902210Y27748775D01*
X34848212Y27594456D01*
X34829909Y27432004D01*
X34829909Y27431997D01*
X34074062Y27431997D01*
X34020047Y27509139D01*
X34020045Y27509142D01*
X33859141Y27670046D01*
X33672734Y27800568D01*
X33672728Y27800571D01*
X33614725Y27827618D01*
X33562285Y27873790D01*
X33543133Y27940983D01*
X33563348Y28007865D01*
X33614725Y28052382D01*
X33672734Y28079432D01*
X33859139Y28209953D01*
X34020047Y28370861D01*
X34150568Y28557266D01*
X34246739Y28763504D01*
X34305635Y28983308D01*
X34325468Y29210000D01*
X34305635Y29436692D01*
X34246739Y29656496D01*
X34150568Y29862734D01*
X34020047Y30049139D01*
X34020045Y30049142D01*
X33859141Y30210046D01*
X33672734Y30340568D01*
X33672728Y30340571D01*
X33614725Y30367618D01*
X33562285Y30413790D01*
X33543133Y30480983D01*
X33563348Y30547865D01*
X33614725Y30592382D01*
X33672734Y30619432D01*
X33859139Y30749953D01*
X34020047Y30910861D01*
X34150568Y31097266D01*
X34246739Y31303504D01*
X34305635Y31523308D01*
X34325468Y31750000D01*
X34305635Y31976692D01*
X34246739Y32196496D01*
X34150568Y32402734D01*
X34020047Y32589139D01*
X34020045Y32589142D01*
X33859141Y32750046D01*
X33672734Y32880568D01*
X33672728Y32880571D01*
X33614725Y32907618D01*
X33562285Y32953790D01*
X33543133Y33020983D01*
X33563348Y33087865D01*
X33614725Y33132382D01*
X33672734Y33159432D01*
X33859139Y33289953D01*
X34020047Y33450861D01*
X34150568Y33637266D01*
X34246739Y33843504D01*
X34305635Y34063308D01*
X34325468Y34290000D01*
X34305635Y34516692D01*
X34246739Y34736496D01*
X34150568Y34942734D01*
X34020047Y35129139D01*
X34020045Y35129142D01*
X33859141Y35290046D01*
X33672734Y35420568D01*
X33672728Y35420571D01*
X33614725Y35447618D01*
X33562285Y35493790D01*
X33543133Y35560983D01*
X33563348Y35627865D01*
X33614725Y35672382D01*
X33672734Y35699432D01*
X33859139Y35829953D01*
X34020047Y35990861D01*
X34150568Y36177266D01*
X34246739Y36383504D01*
X34305635Y36603308D01*
X34325468Y36830000D01*
X34305635Y37056692D01*
X34246739Y37276496D01*
X34150568Y37482734D01*
X34020047Y37669139D01*
X34020045Y37669142D01*
X33859141Y37830046D01*
X33672734Y37960568D01*
X33672728Y37960571D01*
X33614725Y37987618D01*
X33562285Y38033790D01*
X33543133Y38100983D01*
X33563348Y38167865D01*
X33614725Y38212382D01*
X33672734Y38239432D01*
X33859139Y38369953D01*
X34020047Y38530861D01*
X34150568Y38717266D01*
X34246739Y38923504D01*
X34292533Y39094412D01*
X34328898Y39154072D01*
X34391745Y39184601D01*
X34461120Y39176306D01*
X34499989Y39149999D01*
X34596796Y39053192D01*
X34735225Y38966211D01*
X34889539Y38912214D01*
X34889542Y38912214D01*
X34889544Y38912213D01*
X35051996Y38893909D01*
X35052000Y38893909D01*
X35052004Y38893909D01*
X35214455Y38912213D01*
X35214456Y38912214D01*
X35214461Y38912214D01*
X35368775Y38966211D01*
X35507204Y39053192D01*
X35622808Y39168796D01*
X35709789Y39307225D01*
X35763786Y39461539D01*
X35768021Y39499127D01*
X35768021Y39499130D01*
X38899500Y39499130D01*
X38899501Y39499124D01*
X38905908Y39439517D01*
X38956202Y39304672D01*
X38956206Y39304665D01*
X39042452Y39189456D01*
X39042455Y39189453D01*
X39157664Y39103207D01*
X39157671Y39103203D01*
X39292517Y39052909D01*
X39292516Y39052909D01*
X39299444Y39052165D01*
X39352127Y39046500D01*
X41247872Y39046501D01*
X41307483Y39052909D01*
X41442331Y39103204D01*
X41557546Y39189454D01*
X41643796Y39304669D01*
X41662092Y39353726D01*
X41703961Y39409658D01*
X41769425Y39434076D01*
X41837699Y39419225D01*
X41854436Y39408245D01*
X42031365Y39270536D01*
X42031371Y39270532D01*
X42031374Y39270530D01*
X42235497Y39160064D01*
X42349487Y39120932D01*
X42455015Y39084703D01*
X42455017Y39084703D01*
X42455019Y39084702D01*
X42683951Y39046500D01*
X42683952Y39046500D01*
X42916048Y39046500D01*
X42916049Y39046500D01*
X43144981Y39084702D01*
X43364503Y39160064D01*
X43568626Y39270530D01*
X43614841Y39306500D01*
X43696424Y39369999D01*
X43751784Y39413087D01*
X43908979Y39583847D01*
X44035924Y39778151D01*
X44129157Y39990700D01*
X44186134Y40215695D01*
X44202467Y40412808D01*
X44205300Y40446994D01*
X44205300Y40447007D01*
X44186135Y40678298D01*
X44186133Y40678309D01*
X44129157Y40903301D01*
X44035924Y41115849D01*
X43908983Y41310148D01*
X43908980Y41310151D01*
X43908979Y41310153D01*
X43751784Y41480913D01*
X43751779Y41480917D01*
X43751777Y41480919D01*
X43568634Y41623465D01*
X43568628Y41623469D01*
X43364504Y41733936D01*
X43364495Y41733939D01*
X43144984Y41809298D01*
X42926386Y41845775D01*
X42916049Y41847500D01*
X42683951Y41847500D01*
X42673614Y41845775D01*
X42455015Y41809298D01*
X42235504Y41733939D01*
X42235495Y41733936D01*
X42031372Y41623469D01*
X41854436Y41485755D01*
X41789442Y41460113D01*
X41720902Y41473680D01*
X41670577Y41522148D01*
X41662092Y41540277D01*
X41643798Y41589327D01*
X41643793Y41589336D01*
X41557547Y41704545D01*
X41557544Y41704548D01*
X41442335Y41790794D01*
X41442328Y41790798D01*
X41307482Y41841092D01*
X41307483Y41841092D01*
X41247883Y41847499D01*
X41247881Y41847500D01*
X41247873Y41847500D01*
X41247864Y41847500D01*
X39352129Y41847500D01*
X39352123Y41847499D01*
X39292516Y41841092D01*
X39157671Y41790798D01*
X39157664Y41790794D01*
X39042455Y41704548D01*
X39042452Y41704545D01*
X38956206Y41589336D01*
X38956202Y41589329D01*
X38905908Y41454483D01*
X38899501Y41394884D01*
X38899500Y41394865D01*
X38899500Y39499130D01*
X35768021Y39499130D01*
X35782091Y39623997D01*
X35782091Y39624004D01*
X35763787Y39786456D01*
X35763786Y39786458D01*
X35763786Y39786461D01*
X35709789Y39940775D01*
X35622808Y40079204D01*
X35507204Y40194808D01*
X35368774Y40281790D01*
X35214455Y40335788D01*
X35052004Y40354091D01*
X35051996Y40354091D01*
X34889544Y40335788D01*
X34735225Y40281790D01*
X34596795Y40194808D01*
X34481192Y40079205D01*
X34481190Y40079202D01*
X34397438Y39945913D01*
X34345103Y39899622D01*
X34276050Y39888975D01*
X34212202Y39917350D01*
X34180064Y39959480D01*
X34150568Y40022734D01*
X34020047Y40209139D01*
X34020045Y40209142D01*
X33859141Y40370046D01*
X33672734Y40500568D01*
X33672732Y40500569D01*
X33466497Y40596739D01*
X33466491Y40596741D01*
X33295588Y40642534D01*
X33235928Y40678899D01*
X33205399Y40741746D01*
X33213694Y40811122D01*
X33239996Y40849985D01*
X33336808Y40946796D01*
X33423789Y41085225D01*
X33477786Y41239539D01*
X33485742Y41310148D01*
X33496091Y41401997D01*
X33496091Y41402004D01*
X33477787Y41564456D01*
X33477786Y41564458D01*
X33477786Y41564461D01*
X33423789Y41718775D01*
X33336808Y41857204D01*
X33221204Y41972808D01*
X33082774Y42059790D01*
X32928455Y42113788D01*
X32766004Y42132091D01*
X32765996Y42132091D01*
X32603544Y42113788D01*
X32449225Y42059790D01*
X32310795Y41972808D01*
X32195192Y41857205D01*
X32108210Y41718775D01*
X32054212Y41564456D01*
X32035909Y41402004D01*
X32035909Y41401997D01*
X32054212Y41239545D01*
X32108210Y41085226D01*
X32108211Y41085225D01*
X32195192Y40946796D01*
X32310796Y40831192D01*
X32362174Y40798909D01*
X32444086Y40747440D01*
X32490377Y40695105D01*
X32501025Y40626051D01*
X32472650Y40562203D01*
X32430520Y40530064D01*
X32367264Y40500567D01*
X32180858Y40370046D01*
X32019954Y40209142D01*
X31889432Y40022735D01*
X31889431Y40022733D01*
X31793261Y39816498D01*
X31793258Y39816489D01*
X31734366Y39596698D01*
X31734364Y39596687D01*
X31714532Y39370002D01*
X31714532Y39369999D01*
X31734364Y39143314D01*
X31734366Y39143303D01*
X31793258Y38923512D01*
X31793261Y38923503D01*
X31889431Y38717268D01*
X31889432Y38717266D01*
X32019954Y38530859D01*
X32180858Y38369955D01*
X32180861Y38369953D01*
X32367266Y38239432D01*
X32425275Y38212382D01*
X32477714Y38166209D01*
X32496866Y38099016D01*
X32476650Y38032135D01*
X32425275Y37987618D01*
X32367267Y37960569D01*
X32367265Y37960568D01*
X32180858Y37830046D01*
X32019954Y37669142D01*
X31889432Y37482735D01*
X31889431Y37482733D01*
X31793261Y37276498D01*
X31793258Y37276489D01*
X31734366Y37056698D01*
X31734364Y37056687D01*
X31714532Y36830002D01*
X31714532Y36829999D01*
X31734364Y36603314D01*
X31734366Y36603303D01*
X31793258Y36383512D01*
X31793261Y36383503D01*
X31889431Y36177268D01*
X31889432Y36177266D01*
X32019954Y35990859D01*
X32180858Y35829955D01*
X32180861Y35829953D01*
X32367266Y35699432D01*
X32425275Y35672382D01*
X32477714Y35626209D01*
X32496866Y35559016D01*
X32476650Y35492135D01*
X32425275Y35447618D01*
X32367267Y35420569D01*
X32367265Y35420568D01*
X32180858Y35290046D01*
X32019954Y35129142D01*
X31889432Y34942735D01*
X31889431Y34942733D01*
X31793261Y34736498D01*
X31793258Y34736489D01*
X31734366Y34516698D01*
X31734364Y34516687D01*
X31714532Y34290002D01*
X31714532Y34289999D01*
X31734364Y34063314D01*
X31734366Y34063303D01*
X31793258Y33843512D01*
X31793261Y33843503D01*
X31889431Y33637268D01*
X31889432Y33637266D01*
X32019954Y33450859D01*
X32180858Y33289955D01*
X32180861Y33289953D01*
X32367266Y33159432D01*
X32425275Y33132382D01*
X32477714Y33086209D01*
X32496866Y33019016D01*
X32476650Y32952135D01*
X32425275Y32907618D01*
X32367267Y32880569D01*
X32367265Y32880568D01*
X32180858Y32750046D01*
X32019954Y32589142D01*
X31889432Y32402735D01*
X31889431Y32402733D01*
X31793261Y32196498D01*
X31793258Y32196489D01*
X31734366Y31976698D01*
X31734364Y31976687D01*
X31714532Y31750002D01*
X31714532Y31749999D01*
X31734364Y31523314D01*
X31734366Y31523303D01*
X31793258Y31303512D01*
X31793261Y31303503D01*
X31889431Y31097268D01*
X31889432Y31097266D01*
X32019954Y30910859D01*
X32180858Y30749955D01*
X32180861Y30749953D01*
X32367266Y30619432D01*
X32425275Y30592382D01*
X32477714Y30546209D01*
X32496866Y30479016D01*
X32476650Y30412135D01*
X32425275Y30367618D01*
X32367267Y30340569D01*
X32367265Y30340568D01*
X32180858Y30210046D01*
X32019954Y30049142D01*
X31889432Y29862735D01*
X31889431Y29862733D01*
X31793261Y29656498D01*
X31793258Y29656489D01*
X31734366Y29436698D01*
X31734364Y29436687D01*
X31714532Y29210002D01*
X31714532Y29209999D01*
X31734364Y28983314D01*
X31734366Y28983303D01*
X31793258Y28763512D01*
X31793261Y28763503D01*
X31889431Y28557268D01*
X31889432Y28557266D01*
X32019954Y28370859D01*
X32180858Y28209955D01*
X32180861Y28209953D01*
X32367266Y28079432D01*
X32425275Y28052382D01*
X32477714Y28006209D01*
X32496866Y27939016D01*
X32476650Y27872135D01*
X32425275Y27827618D01*
X32367267Y27800569D01*
X32367265Y27800568D01*
X32180858Y27670046D01*
X32019954Y27509142D01*
X31889432Y27322735D01*
X31889431Y27322733D01*
X31793261Y27116498D01*
X31793258Y27116489D01*
X31734366Y26896698D01*
X31734364Y26896687D01*
X31714532Y26670002D01*
X31714532Y26669999D01*
X31734364Y26443314D01*
X31734366Y26443303D01*
X31793258Y26223512D01*
X31793261Y26223503D01*
X31889431Y26017268D01*
X31889432Y26017266D01*
X32019954Y25830859D01*
X32180858Y25669955D01*
X32180861Y25669953D01*
X32367266Y25539432D01*
X32425275Y25512382D01*
X32477714Y25466209D01*
X32496866Y25399016D01*
X32476650Y25332135D01*
X32425275Y25287618D01*
X32367267Y25260569D01*
X32367265Y25260568D01*
X32180858Y25130046D01*
X32019954Y24969142D01*
X31889432Y24782735D01*
X31889431Y24782733D01*
X31793261Y24576498D01*
X31793258Y24576489D01*
X31734366Y24356698D01*
X31734364Y24356687D01*
X31714532Y24130002D01*
X31714532Y24129999D01*
X31734364Y23903314D01*
X31734366Y23903303D01*
X31793258Y23683512D01*
X31793261Y23683503D01*
X31889431Y23477268D01*
X31889432Y23477266D01*
X32019954Y23290859D01*
X32180858Y23129955D01*
X32180861Y23129953D01*
X32367266Y22999432D01*
X32425275Y22972382D01*
X32477714Y22926209D01*
X32496866Y22859016D01*
X32476650Y22792135D01*
X32425275Y22747618D01*
X32367267Y22720569D01*
X32367265Y22720568D01*
X32180858Y22590046D01*
X32019954Y22429142D01*
X31889432Y22242735D01*
X31889431Y22242733D01*
X31793261Y22036498D01*
X31793258Y22036489D01*
X31734366Y21816698D01*
X31734364Y21816687D01*
X31714532Y21590002D01*
X31714532Y21589999D01*
X31734364Y21363314D01*
X31734366Y21363303D01*
X31793258Y21143512D01*
X31793261Y21143503D01*
X31889431Y20937268D01*
X31889432Y20937266D01*
X32019954Y20750859D01*
X32180858Y20589955D01*
X32180861Y20589953D01*
X32367266Y20459432D01*
X32425275Y20432382D01*
X32477714Y20386209D01*
X32496866Y20319016D01*
X32476650Y20252135D01*
X32425275Y20207618D01*
X32367267Y20180569D01*
X32367265Y20180568D01*
X32180858Y20050046D01*
X32019954Y19889142D01*
X31889432Y19702735D01*
X31889431Y19702733D01*
X31793261Y19496498D01*
X31793258Y19496489D01*
X31734366Y19276698D01*
X31734364Y19276687D01*
X31714532Y19050002D01*
X31714532Y19049999D01*
X31734364Y18823314D01*
X31734366Y18823303D01*
X31793258Y18603512D01*
X31793261Y18603503D01*
X31889431Y18397268D01*
X31889432Y18397266D01*
X32019954Y18210859D01*
X32180858Y18049955D01*
X32180861Y18049953D01*
X32367266Y17919432D01*
X32425275Y17892382D01*
X32477714Y17846209D01*
X32496866Y17779016D01*
X32476650Y17712135D01*
X32425275Y17667618D01*
X32367267Y17640569D01*
X32367265Y17640568D01*
X32180858Y17510046D01*
X32019954Y17349142D01*
X31889432Y17162735D01*
X31889431Y17162733D01*
X31793261Y16956498D01*
X31793258Y16956489D01*
X31734366Y16736698D01*
X31734364Y16736687D01*
X31714532Y16510002D01*
X31714532Y16509999D01*
X31734364Y16283314D01*
X31734366Y16283303D01*
X31793258Y16063512D01*
X31793261Y16063503D01*
X31889431Y15857268D01*
X31889432Y15857266D01*
X32019954Y15670859D01*
X32180858Y15509955D01*
X32180861Y15509953D01*
X32367266Y15379432D01*
X32425275Y15352382D01*
X32477714Y15306209D01*
X32496866Y15239016D01*
X32476650Y15172135D01*
X32425275Y15127618D01*
X32367267Y15100569D01*
X32367265Y15100568D01*
X32180858Y14970046D01*
X32019954Y14809142D01*
X31889432Y14622735D01*
X31889431Y14622733D01*
X31793261Y14416498D01*
X31793258Y14416489D01*
X31734366Y14196698D01*
X31734364Y14196687D01*
X31714532Y13970002D01*
X31714532Y13969999D01*
X31734364Y13743314D01*
X31734366Y13743303D01*
X31793258Y13523512D01*
X31793261Y13523503D01*
X31889431Y13317268D01*
X31889432Y13317266D01*
X32019954Y13130859D01*
X32180858Y12969955D01*
X32180861Y12969953D01*
X32367266Y12839432D01*
X32425275Y12812382D01*
X32477714Y12766209D01*
X32496866Y12699016D01*
X32476650Y12632135D01*
X32425275Y12587618D01*
X32367267Y12560569D01*
X32367265Y12560568D01*
X32180858Y12430046D01*
X32019954Y12269142D01*
X31889432Y12082735D01*
X31889431Y12082733D01*
X31793261Y11876498D01*
X31793258Y11876489D01*
X31734366Y11656698D01*
X31734364Y11656687D01*
X31714532Y11430002D01*
X31714532Y11429999D01*
X31734364Y11203314D01*
X31734366Y11203303D01*
X31793258Y10983512D01*
X31793261Y10983503D01*
X31889431Y10777268D01*
X31889432Y10777266D01*
X32019954Y10590859D01*
X32180858Y10429955D01*
X32180861Y10429953D01*
X32367266Y10299432D01*
X32425275Y10272382D01*
X32477714Y10226209D01*
X32496866Y10159016D01*
X32476650Y10092135D01*
X32425275Y10047618D01*
X32367267Y10020569D01*
X32367265Y10020568D01*
X32180858Y9890046D01*
X32019954Y9729142D01*
X31889432Y9542735D01*
X31889431Y9542733D01*
X31793261Y9336498D01*
X31793258Y9336489D01*
X31734366Y9116698D01*
X31734364Y9116687D01*
X31714532Y8890002D01*
X31714532Y8889999D01*
X15097613Y8889999D01*
X15034804Y8952808D01*
X14896374Y9039790D01*
X14742055Y9093788D01*
X14579604Y9112091D01*
X14579596Y9112091D01*
X14417144Y9093788D01*
X14262825Y9039790D01*
X14124395Y8952808D01*
X14008792Y8837205D01*
X13921810Y8698775D01*
X13867812Y8544456D01*
X13849509Y8382004D01*
X13849509Y8381997D01*
X13113844Y8381997D01*
X13106987Y8442856D01*
X13106986Y8442858D01*
X13106986Y8442861D01*
X13052989Y8597175D01*
X12966008Y8735604D01*
X12850404Y8851208D01*
X12788664Y8890002D01*
X12711974Y8938190D01*
X12557655Y8992188D01*
X12395204Y9010491D01*
X12395196Y9010491D01*
X12232744Y8992188D01*
X12078425Y8938190D01*
X11939995Y8851208D01*
X11824392Y8735605D01*
X11737410Y8597175D01*
X11683412Y8442856D01*
X11665109Y8280404D01*
X11665109Y8280397D01*
X500500Y8280397D01*
X500500Y9941130D01*
X1614500Y9941130D01*
X1614501Y9941124D01*
X1620908Y9881517D01*
X1671202Y9746672D01*
X1671206Y9746665D01*
X1757452Y9631456D01*
X1757455Y9631453D01*
X1872664Y9545207D01*
X1872671Y9545203D01*
X2007517Y9494909D01*
X2007516Y9494909D01*
X2014444Y9494165D01*
X2067127Y9488500D01*
X3012872Y9488501D01*
X3072483Y9494909D01*
X3207331Y9545204D01*
X3322546Y9631454D01*
X3408796Y9746669D01*
X3459091Y9881517D01*
X3465500Y9941127D01*
X3465499Y10886872D01*
X3459091Y10946483D01*
X3445283Y10983503D01*
X3408797Y11081329D01*
X3408793Y11081336D01*
X3322547Y11196545D01*
X3322544Y11196548D01*
X3207335Y11282794D01*
X3207328Y11282798D01*
X3072482Y11333092D01*
X3072483Y11333092D01*
X3012883Y11339499D01*
X3012881Y11339500D01*
X3012873Y11339500D01*
X3012864Y11339500D01*
X2067129Y11339500D01*
X2067123Y11339499D01*
X2007516Y11333092D01*
X1872671Y11282798D01*
X1872664Y11282794D01*
X1757455Y11196548D01*
X1757452Y11196545D01*
X1671206Y11081336D01*
X1671202Y11081329D01*
X1620908Y10946483D01*
X1614846Y10890091D01*
X1614501Y10886877D01*
X1614500Y10886865D01*
X1614500Y9941130D01*
X500500Y9941130D01*
X500500Y11429999D01*
X16474532Y11429999D01*
X16494364Y11203314D01*
X16494366Y11203303D01*
X16553258Y10983512D01*
X16553261Y10983503D01*
X16649431Y10777268D01*
X16649432Y10777266D01*
X16779954Y10590859D01*
X16940858Y10429955D01*
X16940861Y10429953D01*
X17127266Y10299432D01*
X17333504Y10203261D01*
X17553308Y10144365D01*
X17715230Y10130199D01*
X17779998Y10124532D01*
X17780000Y10124532D01*
X17780002Y10124532D01*
X17836673Y10129491D01*
X18006692Y10144365D01*
X18065032Y10159997D01*
X29495909Y10159997D01*
X29514212Y9997545D01*
X29568210Y9843226D01*
X29568211Y9843225D01*
X29655192Y9704796D01*
X29770796Y9589192D01*
X29909225Y9502211D01*
X30063539Y9448214D01*
X30063542Y9448214D01*
X30063544Y9448213D01*
X30225996Y9429909D01*
X30226000Y9429909D01*
X30226004Y9429909D01*
X30388455Y9448213D01*
X30388456Y9448214D01*
X30388461Y9448214D01*
X30542775Y9502211D01*
X30681204Y9589192D01*
X30796808Y9704796D01*
X30883789Y9843225D01*
X30937786Y9997539D01*
X30943429Y10047618D01*
X30956091Y10159997D01*
X30956091Y10160004D01*
X30937787Y10322456D01*
X30937786Y10322458D01*
X30937786Y10322461D01*
X30883789Y10476775D01*
X30796808Y10615204D01*
X30681204Y10730808D01*
X30607264Y10777268D01*
X30542774Y10817790D01*
X30388455Y10871788D01*
X30226004Y10890091D01*
X30225996Y10890091D01*
X30063544Y10871788D01*
X29909225Y10817790D01*
X29770795Y10730808D01*
X29655192Y10615205D01*
X29568210Y10476775D01*
X29514212Y10322456D01*
X29495909Y10160004D01*
X29495909Y10159997D01*
X18065032Y10159997D01*
X18226496Y10203261D01*
X18432734Y10299432D01*
X18619139Y10429953D01*
X18780047Y10590861D01*
X18910568Y10777266D01*
X19006739Y10983504D01*
X19065635Y11203308D01*
X19085468Y11430000D01*
X19065635Y11656692D01*
X19006739Y11876496D01*
X18910568Y12082734D01*
X18780047Y12269139D01*
X18780045Y12269142D01*
X18619141Y12430046D01*
X18432734Y12560568D01*
X18432728Y12560571D01*
X18374725Y12587618D01*
X18322285Y12633790D01*
X18303133Y12700983D01*
X18323348Y12767865D01*
X18374725Y12812382D01*
X18432734Y12839432D01*
X18619139Y12969953D01*
X18780047Y13130861D01*
X18910568Y13317266D01*
X19006739Y13523504D01*
X19065635Y13743308D01*
X19085468Y13970000D01*
X19065635Y14196692D01*
X19017325Y14376988D01*
X19006741Y14416489D01*
X19006738Y14416498D01*
X18910568Y14622733D01*
X18910567Y14622735D01*
X18898155Y14640461D01*
X18780047Y14809139D01*
X18780045Y14809142D01*
X18619141Y14970046D01*
X18432734Y15100568D01*
X18432728Y15100571D01*
X18374725Y15127618D01*
X18322285Y15173790D01*
X18303133Y15240983D01*
X18323348Y15307865D01*
X18374725Y15352382D01*
X18432734Y15379432D01*
X18619139Y15509953D01*
X18780047Y15670861D01*
X18910568Y15857266D01*
X19006739Y16063504D01*
X19035963Y16172574D01*
X19072327Y16232232D01*
X19135174Y16262762D01*
X19204550Y16254468D01*
X19221711Y16245472D01*
X19241220Y16233214D01*
X19241225Y16233211D01*
X19308561Y16209649D01*
X19365337Y16168928D01*
X19384647Y16133565D01*
X19408212Y16066222D01*
X19445581Y16006751D01*
X19495192Y15927796D01*
X19610796Y15812192D01*
X19749225Y15725211D01*
X19903539Y15671214D01*
X19948788Y15666116D01*
X20013200Y15639051D01*
X20051945Y15583851D01*
X20068609Y15536229D01*
X20068611Y15536226D01*
X20155592Y15397797D01*
X20271196Y15282193D01*
X20409625Y15195212D01*
X20532054Y15152372D01*
X20588829Y15111651D01*
X20608141Y15076285D01*
X20652810Y14948626D01*
X20677575Y14909213D01*
X20739792Y14810196D01*
X20855396Y14694592D01*
X20993825Y14607611D01*
X21148139Y14553614D01*
X21199512Y14547826D01*
X21263924Y14520761D01*
X21303480Y14463167D01*
X21305619Y14393330D01*
X21302670Y14383652D01*
X21259212Y14259456D01*
X21240909Y14097004D01*
X21240909Y14096997D01*
X21259212Y13934545D01*
X21313210Y13780226D01*
X21367005Y13694613D01*
X21400192Y13641796D01*
X21515796Y13526192D01*
X21654225Y13439211D01*
X21772799Y13397720D01*
X21829574Y13356999D01*
X21855064Y13294563D01*
X21868812Y13172545D01*
X21922810Y13018226D01*
X21963535Y12953413D01*
X22009792Y12879796D01*
X22125396Y12764192D01*
X22263825Y12677211D01*
X22418139Y12623214D01*
X22418142Y12623214D01*
X22418144Y12623213D01*
X22580596Y12604909D01*
X22580600Y12604909D01*
X22580604Y12604909D01*
X22743055Y12623213D01*
X22743056Y12623214D01*
X22743061Y12623214D01*
X22897375Y12677211D01*
X23035804Y12764192D01*
X23151408Y12879796D01*
X23238389Y13018225D01*
X23292386Y13172539D01*
X23306954Y13301830D01*
X23310691Y13334997D01*
X23310691Y13335004D01*
X23292387Y13497456D01*
X23292386Y13497458D01*
X23292386Y13497461D01*
X23260356Y13588997D01*
X24542909Y13588997D01*
X24561212Y13426545D01*
X24615210Y13272226D01*
X24615211Y13272225D01*
X24702192Y13133796D01*
X24817796Y13018192D01*
X24956225Y12931211D01*
X25110539Y12877214D01*
X25110542Y12877214D01*
X25110544Y12877213D01*
X25272996Y12858909D01*
X25273000Y12858909D01*
X25273004Y12858909D01*
X25435455Y12877213D01*
X25435456Y12877214D01*
X25435461Y12877214D01*
X25589775Y12931211D01*
X25728204Y13018192D01*
X25775226Y13065214D01*
X25836549Y13098699D01*
X25906241Y13093715D01*
X25928878Y13082528D01*
X26048425Y13007411D01*
X26202739Y12953414D01*
X26202742Y12953414D01*
X26202744Y12953413D01*
X26365196Y12935109D01*
X26365200Y12935109D01*
X26365204Y12935109D01*
X26527655Y12953413D01*
X26527656Y12953414D01*
X26527661Y12953414D01*
X26681975Y13007411D01*
X26785921Y13072726D01*
X26853158Y13091726D01*
X26919993Y13071359D01*
X26939575Y13055413D01*
X26976796Y13018192D01*
X27115225Y12931211D01*
X27269539Y12877214D01*
X27269542Y12877214D01*
X27269544Y12877213D01*
X27431996Y12858909D01*
X27432000Y12858909D01*
X27432004Y12858909D01*
X27594455Y12877213D01*
X27594456Y12877214D01*
X27594461Y12877214D01*
X27748775Y12931211D01*
X27887204Y13018192D01*
X28002808Y13133796D01*
X28089789Y13272225D01*
X28143786Y13426539D01*
X28145214Y13439211D01*
X28162091Y13588997D01*
X28162091Y13589004D01*
X28143787Y13751456D01*
X28143786Y13751458D01*
X28143786Y13751461D01*
X28089789Y13905775D01*
X28002808Y14044204D01*
X27887204Y14159808D01*
X27882960Y14162475D01*
X27748774Y14246790D01*
X27594455Y14300788D01*
X27432004Y14319091D01*
X27431996Y14319091D01*
X27269544Y14300788D01*
X27115224Y14246790D01*
X27011277Y14181475D01*
X26944040Y14162475D01*
X26877205Y14182843D01*
X26857624Y14198788D01*
X26820404Y14236008D01*
X26681974Y14322990D01*
X26527655Y14376988D01*
X26365204Y14395291D01*
X26365196Y14395291D01*
X26202744Y14376988D01*
X26048425Y14322990D01*
X25909995Y14236008D01*
X25862972Y14188985D01*
X25801649Y14155501D01*
X25731957Y14160486D01*
X25709319Y14171674D01*
X25589776Y14246789D01*
X25435455Y14300788D01*
X25273004Y14319091D01*
X25272996Y14319091D01*
X25110544Y14300788D01*
X24956225Y14246790D01*
X24817795Y14159808D01*
X24702192Y14044205D01*
X24615210Y13905775D01*
X24561212Y13751456D01*
X24542909Y13589004D01*
X24542909Y13588997D01*
X23260356Y13588997D01*
X23238389Y13651775D01*
X23151408Y13790204D01*
X23035804Y13905808D01*
X22990079Y13934539D01*
X22897374Y13992790D01*
X22778801Y14034280D01*
X22722024Y14075002D01*
X22696535Y14137439D01*
X22682787Y14259456D01*
X22682786Y14259458D01*
X22682786Y14259461D01*
X22628789Y14413775D01*
X22541808Y14552204D01*
X22426204Y14667808D01*
X22383576Y14694593D01*
X22287774Y14754790D01*
X22133455Y14808788D01*
X22082086Y14814576D01*
X22017672Y14841644D01*
X21978118Y14899239D01*
X21975981Y14969076D01*
X21978926Y14978739D01*
X22022386Y15102939D01*
X22022386Y15102941D01*
X22022387Y15102943D01*
X22040691Y15265397D01*
X22040691Y15265404D01*
X22022387Y15427856D01*
X22022386Y15427858D01*
X22022386Y15427861D01*
X21968389Y15582175D01*
X21943995Y15620997D01*
X28479909Y15620997D01*
X28498212Y15458545D01*
X28552210Y15304226D01*
X28612616Y15208091D01*
X28639192Y15165796D01*
X28754796Y15050192D01*
X28893225Y14963211D01*
X29047539Y14909214D01*
X29047542Y14909214D01*
X29047544Y14909213D01*
X29209996Y14890909D01*
X29210000Y14890909D01*
X29210004Y14890909D01*
X29372455Y14909213D01*
X29372456Y14909214D01*
X29372461Y14909214D01*
X29526775Y14963211D01*
X29665204Y15050192D01*
X29780808Y15165796D01*
X29867789Y15304225D01*
X29921786Y15458539D01*
X29927579Y15509953D01*
X29940091Y15620997D01*
X29940091Y15621004D01*
X29921787Y15783456D01*
X29921786Y15783458D01*
X29921786Y15783461D01*
X29867789Y15937775D01*
X29780808Y16076204D01*
X29665204Y16191808D01*
X29552282Y16262762D01*
X29526774Y16278790D01*
X29372455Y16332788D01*
X29210004Y16351091D01*
X29209996Y16351091D01*
X29047544Y16332788D01*
X28893225Y16278790D01*
X28754795Y16191808D01*
X28639192Y16076205D01*
X28552210Y15937775D01*
X28498212Y15783456D01*
X28479909Y15621004D01*
X28479909Y15620997D01*
X21943995Y15620997D01*
X21881408Y15720604D01*
X21765804Y15836208D01*
X21765803Y15836208D01*
X21627372Y15923191D01*
X21504946Y15966030D01*
X21448170Y16006751D01*
X21428859Y16042117D01*
X21384189Y16169776D01*
X21315691Y16278789D01*
X21297208Y16308205D01*
X21181604Y16423809D01*
X21044434Y16509999D01*
X21043174Y16510791D01*
X20888855Y16564789D01*
X20843609Y16569887D01*
X20779195Y16596955D01*
X20740452Y16652154D01*
X20723789Y16699775D01*
X20723789Y16699776D01*
X20636807Y16838205D01*
X20521204Y16953808D01*
X20382777Y17040788D01*
X20382778Y17040788D01*
X20315435Y17064353D01*
X20258660Y17105076D01*
X20239351Y17140439D01*
X20215789Y17207775D01*
X20215787Y17207778D01*
X20188344Y17251453D01*
X20128808Y17346204D01*
X20013204Y17461808D01*
X19936434Y17510046D01*
X19874774Y17548790D01*
X19720455Y17602788D01*
X19693639Y17605809D01*
X19629225Y17632876D01*
X19590481Y17688076D01*
X19580789Y17715776D01*
X19513251Y17823261D01*
X19493808Y17854204D01*
X19378204Y17969808D01*
X19378203Y17969808D01*
X19239774Y18056790D01*
X19085455Y18110788D01*
X18944838Y18126631D01*
X18880425Y18153697D01*
X18840869Y18211292D01*
X18838732Y18281129D01*
X18857143Y18320967D01*
X18910568Y18397266D01*
X19006739Y18603504D01*
X19065635Y18823308D01*
X19085468Y19050000D01*
X19065635Y19276692D01*
X19006739Y19496496D01*
X18910568Y19702734D01*
X18780047Y19889139D01*
X18780045Y19889142D01*
X18619141Y20050046D01*
X18465623Y20157539D01*
X18432734Y20180568D01*
X18374722Y20207620D01*
X18322284Y20253792D01*
X18303415Y20319997D01*
X23907909Y20319997D01*
X23926212Y20157545D01*
X23980210Y20003226D01*
X23980211Y20003225D01*
X24067192Y19864796D01*
X24182796Y19749192D01*
X24321225Y19662211D01*
X24475539Y19608214D01*
X24475542Y19608214D01*
X24475544Y19608213D01*
X24637996Y19589909D01*
X24638000Y19589909D01*
X24638004Y19589909D01*
X24800455Y19608213D01*
X24800456Y19608214D01*
X24800461Y19608214D01*
X24954775Y19662211D01*
X25093204Y19749192D01*
X25208808Y19864796D01*
X25295789Y20003225D01*
X25349786Y20157539D01*
X25356127Y20213814D01*
X25368091Y20319997D01*
X25368091Y20320004D01*
X25349787Y20482456D01*
X25349786Y20482458D01*
X25349786Y20482461D01*
X25295789Y20636775D01*
X25208808Y20775204D01*
X25093204Y20890808D01*
X25047479Y20919539D01*
X24954774Y20977790D01*
X24800455Y21031788D01*
X24638004Y21050091D01*
X24637996Y21050091D01*
X24475544Y21031788D01*
X24321225Y20977790D01*
X24182795Y20890808D01*
X24067192Y20775205D01*
X23980210Y20636775D01*
X23926212Y20482456D01*
X23907909Y20320004D01*
X23907909Y20319997D01*
X18303415Y20319997D01*
X18303133Y20320986D01*
X18323349Y20387867D01*
X18374721Y20432381D01*
X18432734Y20459432D01*
X18619139Y20589953D01*
X18780047Y20750861D01*
X18910568Y20937266D01*
X19006739Y21143504D01*
X19065635Y21363308D01*
X19085468Y21590000D01*
X19065635Y21816692D01*
X19006739Y22036496D01*
X18910568Y22242734D01*
X18780047Y22429139D01*
X18780045Y22429142D01*
X18619141Y22590046D01*
X18432734Y22720568D01*
X18432728Y22720571D01*
X18374725Y22747618D01*
X18322285Y22793790D01*
X18303133Y22860983D01*
X18323348Y22927865D01*
X18374725Y22972382D01*
X18406067Y22986997D01*
X19081909Y22986997D01*
X19100212Y22824545D01*
X19154210Y22670226D01*
X19216848Y22570539D01*
X19241192Y22531796D01*
X19356796Y22416192D01*
X19495225Y22329211D01*
X19649539Y22275214D01*
X19649542Y22275214D01*
X19649544Y22275213D01*
X19811996Y22256909D01*
X19812000Y22256909D01*
X19812004Y22256909D01*
X19974455Y22275213D01*
X19974456Y22275214D01*
X19974461Y22275214D01*
X20128775Y22329211D01*
X20267204Y22416192D01*
X20382808Y22531796D01*
X20469789Y22670225D01*
X20523786Y22824539D01*
X20527782Y22860000D01*
X20542091Y22986997D01*
X21240909Y22986997D01*
X21259212Y22824545D01*
X21313210Y22670226D01*
X21375848Y22570539D01*
X21400192Y22531796D01*
X21515796Y22416192D01*
X21654225Y22329211D01*
X21808539Y22275214D01*
X21808542Y22275214D01*
X21808544Y22275213D01*
X21970996Y22256909D01*
X21971000Y22256909D01*
X21971004Y22256909D01*
X22133455Y22275213D01*
X22133456Y22275214D01*
X22133461Y22275214D01*
X22287775Y22329211D01*
X22426204Y22416192D01*
X22541808Y22531796D01*
X22628789Y22670225D01*
X22682786Y22824539D01*
X22686782Y22860000D01*
X22701091Y22986997D01*
X22701091Y22987004D01*
X22682787Y23149458D01*
X22675042Y23171592D01*
X22671480Y23241371D01*
X22706208Y23301998D01*
X22751130Y23329589D01*
X22795773Y23345210D01*
X22795775Y23345211D01*
X22934204Y23432192D01*
X23049808Y23547796D01*
X23136789Y23686225D01*
X23190786Y23840539D01*
X23197858Y23903303D01*
X23209091Y24002997D01*
X23209091Y24003004D01*
X23190787Y24165456D01*
X23190786Y24165458D01*
X23190786Y24165461D01*
X23136789Y24319775D01*
X23049808Y24458204D01*
X22934204Y24573808D01*
X22929923Y24576498D01*
X22795774Y24660790D01*
X22661939Y24707621D01*
X22641461Y24714786D01*
X22641460Y24714787D01*
X22641455Y24714788D01*
X22479004Y24733091D01*
X22478996Y24733091D01*
X22316544Y24714788D01*
X22162225Y24660790D01*
X22023795Y24573808D01*
X21908192Y24458205D01*
X21821210Y24319775D01*
X21767212Y24165456D01*
X21748909Y24003004D01*
X21748909Y24002997D01*
X21767212Y23840545D01*
X21767216Y23840530D01*
X21774957Y23818406D01*
X21778518Y23748627D01*
X21743788Y23688001D01*
X21698872Y23660413D01*
X21654225Y23644790D01*
X21515795Y23557808D01*
X21400192Y23442205D01*
X21313210Y23303775D01*
X21259212Y23149456D01*
X21240909Y22987004D01*
X21240909Y22986997D01*
X20542091Y22986997D01*
X20542091Y22987004D01*
X20523787Y23149456D01*
X20523786Y23149458D01*
X20523786Y23149461D01*
X20469789Y23303775D01*
X20382808Y23442204D01*
X20267204Y23557808D01*
X20201312Y23599211D01*
X20128774Y23644790D01*
X19974455Y23698788D01*
X19812004Y23717091D01*
X19811996Y23717091D01*
X19649544Y23698788D01*
X19495225Y23644790D01*
X19356795Y23557808D01*
X19241192Y23442205D01*
X19154210Y23303775D01*
X19100212Y23149456D01*
X19081909Y22987004D01*
X19081909Y22986997D01*
X18406067Y22986997D01*
X18432734Y22999432D01*
X18619139Y23129953D01*
X18780047Y23290861D01*
X18910568Y23477266D01*
X19006739Y23683504D01*
X19065635Y23903308D01*
X19085468Y24130000D01*
X19065635Y24356692D01*
X19006739Y24576496D01*
X18910568Y24782734D01*
X18780047Y24969139D01*
X18780045Y24969142D01*
X18619141Y25130046D01*
X18432734Y25260568D01*
X18432728Y25260571D01*
X18374725Y25287618D01*
X18322285Y25333790D01*
X18303133Y25400983D01*
X18323348Y25467865D01*
X18374725Y25512382D01*
X18432734Y25539432D01*
X18619139Y25669953D01*
X18780047Y25830861D01*
X18910568Y26017266D01*
X19006739Y26223504D01*
X19065635Y26443308D01*
X19085468Y26670000D01*
X19065635Y26896692D01*
X19006739Y27116496D01*
X18910568Y27322734D01*
X18780047Y27509139D01*
X18780045Y27509142D01*
X18619141Y27670046D01*
X18432734Y27800568D01*
X18432728Y27800571D01*
X18374725Y27827618D01*
X18322285Y27873790D01*
X18303414Y27939997D01*
X25812909Y27939997D01*
X25831212Y27777545D01*
X25885210Y27623226D01*
X25903288Y27594456D01*
X25972192Y27484796D01*
X26087796Y27369192D01*
X26226225Y27282211D01*
X26380539Y27228214D01*
X26380542Y27228214D01*
X26380544Y27228213D01*
X26542996Y27209909D01*
X26543000Y27209909D01*
X26543004Y27209909D01*
X26705455Y27228213D01*
X26705456Y27228214D01*
X26705461Y27228214D01*
X26859775Y27282211D01*
X26998204Y27369192D01*
X27113808Y27484796D01*
X27200789Y27623225D01*
X27254786Y27777539D01*
X27254787Y27777545D01*
X27273091Y27939997D01*
X30257909Y27939997D01*
X30276212Y27777545D01*
X30330210Y27623226D01*
X30348288Y27594456D01*
X30417192Y27484796D01*
X30532796Y27369192D01*
X30671225Y27282211D01*
X30825539Y27228214D01*
X30825542Y27228214D01*
X30825544Y27228213D01*
X30987996Y27209909D01*
X30988000Y27209909D01*
X30988004Y27209909D01*
X31150455Y27228213D01*
X31150456Y27228214D01*
X31150461Y27228214D01*
X31304775Y27282211D01*
X31443204Y27369192D01*
X31558808Y27484796D01*
X31645789Y27623225D01*
X31699786Y27777539D01*
X31699787Y27777545D01*
X31718091Y27939997D01*
X31718091Y27940004D01*
X31699787Y28102456D01*
X31699786Y28102458D01*
X31699786Y28102461D01*
X31645789Y28256775D01*
X31558808Y28395204D01*
X31443204Y28510808D01*
X31440947Y28512226D01*
X31304774Y28597790D01*
X31150455Y28651788D01*
X30988004Y28670091D01*
X30987996Y28670091D01*
X30825544Y28651788D01*
X30671225Y28597790D01*
X30532795Y28510808D01*
X30417192Y28395205D01*
X30330210Y28256775D01*
X30276212Y28102456D01*
X30257909Y27940004D01*
X30257909Y27939997D01*
X27273091Y27939997D01*
X27273091Y27940004D01*
X27254787Y28102456D01*
X27254786Y28102458D01*
X27254786Y28102461D01*
X27200789Y28256775D01*
X27113808Y28395204D01*
X26998204Y28510808D01*
X26995947Y28512226D01*
X26859774Y28597790D01*
X26705455Y28651788D01*
X26543004Y28670091D01*
X26542996Y28670091D01*
X26380544Y28651788D01*
X26226225Y28597790D01*
X26087795Y28510808D01*
X25972192Y28395205D01*
X25885210Y28256775D01*
X25831212Y28102456D01*
X25812909Y27940004D01*
X25812909Y27939997D01*
X18303414Y27939997D01*
X18303133Y27940983D01*
X18323348Y28007865D01*
X18374725Y28052382D01*
X18432734Y28079432D01*
X18619139Y28209953D01*
X18780047Y28370861D01*
X18910568Y28557266D01*
X19006739Y28763504D01*
X19065635Y28983308D01*
X19085468Y29210000D01*
X19065635Y29436692D01*
X19006739Y29656496D01*
X18910568Y29862734D01*
X18780047Y30049139D01*
X18780045Y30049142D01*
X18619141Y30210046D01*
X18432734Y30340568D01*
X18432728Y30340571D01*
X18374725Y30367618D01*
X18322285Y30413790D01*
X18303133Y30480983D01*
X18323348Y30547865D01*
X18374725Y30592382D01*
X18432734Y30619432D01*
X18619139Y30749953D01*
X18780047Y30910861D01*
X18910568Y31097266D01*
X19006739Y31303504D01*
X19065635Y31523308D01*
X19085468Y31750000D01*
X19065635Y31976692D01*
X19006739Y32196496D01*
X18910568Y32402734D01*
X18780047Y32589139D01*
X18780045Y32589142D01*
X18619141Y32750046D01*
X18432734Y32880568D01*
X18432728Y32880571D01*
X18374725Y32907618D01*
X18322285Y32953790D01*
X18303133Y33020983D01*
X18323348Y33087865D01*
X18374725Y33132382D01*
X18432734Y33159432D01*
X18619139Y33289953D01*
X18780047Y33450861D01*
X18910568Y33637266D01*
X18918836Y33654997D01*
X25431909Y33654997D01*
X25450212Y33492545D01*
X25504210Y33338226D01*
X25504211Y33338225D01*
X25591192Y33199796D01*
X25706796Y33084192D01*
X25845225Y32997211D01*
X25999539Y32943214D01*
X25999542Y32943214D01*
X25999544Y32943213D01*
X26161996Y32924909D01*
X26162000Y32924909D01*
X26162004Y32924909D01*
X26324455Y32943213D01*
X26324456Y32943214D01*
X26324461Y32943214D01*
X26478775Y32997211D01*
X26617204Y33084192D01*
X26732808Y33199796D01*
X26819789Y33338225D01*
X26873786Y33492539D01*
X26876984Y33520918D01*
X26892091Y33654997D01*
X26892091Y33655004D01*
X26873787Y33817456D01*
X26873786Y33817458D01*
X26873786Y33817461D01*
X26819789Y33971775D01*
X26732808Y34110204D01*
X26617204Y34225808D01*
X26599069Y34237203D01*
X26478774Y34312790D01*
X26324455Y34366788D01*
X26162004Y34385091D01*
X26161996Y34385091D01*
X25999544Y34366788D01*
X25845225Y34312790D01*
X25706795Y34225808D01*
X25591192Y34110205D01*
X25504210Y33971775D01*
X25450212Y33817456D01*
X25431909Y33655004D01*
X25431909Y33654997D01*
X18918836Y33654997D01*
X19006739Y33843504D01*
X19065635Y34063308D01*
X19085468Y34290000D01*
X19065635Y34516692D01*
X19006739Y34736496D01*
X18910568Y34942734D01*
X18780047Y35129139D01*
X18780045Y35129142D01*
X18619141Y35290046D01*
X18432734Y35420568D01*
X18432728Y35420571D01*
X18374725Y35447618D01*
X18322285Y35493790D01*
X18303133Y35560983D01*
X18323348Y35627865D01*
X18374725Y35672382D01*
X18432734Y35699432D01*
X18619139Y35829953D01*
X18780047Y35990861D01*
X18910568Y36177266D01*
X19006739Y36383504D01*
X19065635Y36603308D01*
X19085468Y36830000D01*
X19065635Y37056692D01*
X19006739Y37276496D01*
X18910568Y37482734D01*
X18780047Y37669139D01*
X18780045Y37669142D01*
X18619141Y37830046D01*
X18432734Y37960568D01*
X18432728Y37960571D01*
X18374725Y37987618D01*
X18322285Y38033790D01*
X18303133Y38100983D01*
X18323348Y38167865D01*
X18374725Y38212382D01*
X18432734Y38239432D01*
X18619139Y38369953D01*
X18780047Y38530861D01*
X18910568Y38717266D01*
X18918836Y38734997D01*
X23399909Y38734997D01*
X23418212Y38572545D01*
X23472210Y38418226D01*
X23472211Y38418225D01*
X23559192Y38279796D01*
X23674796Y38164192D01*
X23813225Y38077211D01*
X23967539Y38023214D01*
X23967542Y38023214D01*
X23967544Y38023213D01*
X24129996Y38004909D01*
X24130000Y38004909D01*
X24130004Y38004909D01*
X24292455Y38023213D01*
X24292456Y38023214D01*
X24292461Y38023214D01*
X24446775Y38077211D01*
X24585204Y38164192D01*
X24700808Y38279796D01*
X24787789Y38418225D01*
X24841786Y38572539D01*
X24860091Y38735000D01*
X24860091Y38735004D01*
X24841787Y38897458D01*
X24818683Y38963485D01*
X24815121Y39033264D01*
X24849849Y39093891D01*
X24911843Y39126119D01*
X24949606Y39127660D01*
X25013310Y39120483D01*
X25089398Y39111909D01*
X25089400Y39111909D01*
X25089404Y39111909D01*
X25251855Y39130213D01*
X25251856Y39130214D01*
X25251861Y39130214D01*
X25406175Y39184211D01*
X25544604Y39271192D01*
X25660208Y39386796D01*
X25747189Y39525225D01*
X25801186Y39679539D01*
X25801187Y39679545D01*
X25819491Y39841997D01*
X25819491Y39842004D01*
X25815436Y39877997D01*
X29495909Y39877997D01*
X29514212Y39715545D01*
X29568210Y39561226D01*
X29590831Y39525225D01*
X29655192Y39422796D01*
X29770796Y39307192D01*
X29909225Y39220211D01*
X30063539Y39166214D01*
X30063542Y39166214D01*
X30063544Y39166213D01*
X30225996Y39147909D01*
X30226000Y39147909D01*
X30226004Y39147909D01*
X30388455Y39166213D01*
X30388456Y39166214D01*
X30388461Y39166214D01*
X30542775Y39220211D01*
X30681204Y39307192D01*
X30796808Y39422796D01*
X30883789Y39561225D01*
X30937786Y39715539D01*
X30944841Y39778152D01*
X30956091Y39877997D01*
X30956091Y39878004D01*
X30937787Y40040456D01*
X30937786Y40040458D01*
X30937786Y40040461D01*
X30883789Y40194775D01*
X30796808Y40333204D01*
X30681204Y40448808D01*
X30668373Y40456870D01*
X30542774Y40535790D01*
X30388455Y40589788D01*
X30226004Y40608091D01*
X30225996Y40608091D01*
X30063544Y40589788D01*
X29909225Y40535790D01*
X29770795Y40448808D01*
X29655192Y40333205D01*
X29568210Y40194775D01*
X29514212Y40040456D01*
X29495909Y39878004D01*
X29495909Y39877997D01*
X25815436Y39877997D01*
X25801187Y40004456D01*
X25801186Y40004458D01*
X25801186Y40004461D01*
X25747189Y40158775D01*
X25660208Y40297204D01*
X25544604Y40412808D01*
X25504718Y40437870D01*
X25406174Y40499790D01*
X25251855Y40553788D01*
X25089404Y40572091D01*
X25089396Y40572091D01*
X24926944Y40553788D01*
X24772622Y40499789D01*
X24704317Y40456870D01*
X24637080Y40437870D01*
X24572374Y40456870D01*
X24446774Y40535790D01*
X24292455Y40589788D01*
X24130004Y40608091D01*
X24129996Y40608091D01*
X23967544Y40589788D01*
X23813225Y40535790D01*
X23674795Y40448808D01*
X23559192Y40333205D01*
X23472210Y40194775D01*
X23418212Y40040456D01*
X23399909Y39878004D01*
X23399909Y39877997D01*
X23418212Y39715545D01*
X23472210Y39561226D01*
X23472211Y39561225D01*
X23559192Y39422796D01*
X23573743Y39408245D01*
X23587808Y39394180D01*
X23621292Y39332856D01*
X23616306Y39263165D01*
X23587808Y39218820D01*
X23559191Y39190203D01*
X23472210Y39051775D01*
X23418212Y38897456D01*
X23399909Y38735004D01*
X23399909Y38734997D01*
X18918836Y38734997D01*
X19006739Y38923504D01*
X19065635Y39143308D01*
X19085468Y39370000D01*
X19065635Y39596692D01*
X19006739Y39816496D01*
X18910568Y40022734D01*
X18780047Y40209139D01*
X18780045Y40209142D01*
X18619141Y40370046D01*
X18432734Y40500568D01*
X18432732Y40500569D01*
X18226497Y40596739D01*
X18226488Y40596742D01*
X18006697Y40655634D01*
X18006693Y40655635D01*
X18006692Y40655635D01*
X18006691Y40655636D01*
X18006686Y40655636D01*
X17780002Y40675468D01*
X17779998Y40675468D01*
X17553313Y40655636D01*
X17553302Y40655634D01*
X17333511Y40596742D01*
X17333502Y40596739D01*
X17127267Y40500569D01*
X17127265Y40500568D01*
X16940858Y40370046D01*
X16779954Y40209142D01*
X16649432Y40022735D01*
X16649431Y40022733D01*
X16553261Y39816498D01*
X16553258Y39816489D01*
X16494366Y39596698D01*
X16494364Y39596687D01*
X16474532Y39370002D01*
X16474532Y39369999D01*
X16494364Y39143314D01*
X16494366Y39143303D01*
X16553258Y38923512D01*
X16553261Y38923503D01*
X16649431Y38717268D01*
X16649432Y38717266D01*
X16779954Y38530859D01*
X16940858Y38369955D01*
X16940861Y38369953D01*
X17127266Y38239432D01*
X17185275Y38212382D01*
X17237714Y38166209D01*
X17256866Y38099016D01*
X17236650Y38032135D01*
X17185275Y37987618D01*
X17127267Y37960569D01*
X17127265Y37960568D01*
X16940858Y37830046D01*
X16779954Y37669142D01*
X16649432Y37482735D01*
X16649431Y37482733D01*
X16553261Y37276498D01*
X16553258Y37276489D01*
X16494366Y37056698D01*
X16494364Y37056687D01*
X16474532Y36830002D01*
X16474532Y36829999D01*
X16494364Y36603314D01*
X16494366Y36603303D01*
X16553258Y36383512D01*
X16553261Y36383503D01*
X16649431Y36177268D01*
X16649432Y36177266D01*
X16779954Y35990859D01*
X16940858Y35829955D01*
X16940861Y35829953D01*
X17127266Y35699432D01*
X17185275Y35672382D01*
X17237714Y35626209D01*
X17256866Y35559016D01*
X17236650Y35492135D01*
X17185275Y35447618D01*
X17127267Y35420569D01*
X17127265Y35420568D01*
X16940858Y35290046D01*
X16779954Y35129142D01*
X16649432Y34942735D01*
X16649431Y34942733D01*
X16553261Y34736498D01*
X16553258Y34736489D01*
X16494366Y34516698D01*
X16494364Y34516687D01*
X16474532Y34290002D01*
X16474532Y34289999D01*
X16494364Y34063314D01*
X16494366Y34063303D01*
X16553258Y33843512D01*
X16553261Y33843503D01*
X16649431Y33637268D01*
X16649432Y33637266D01*
X16779954Y33450859D01*
X16940858Y33289955D01*
X16940861Y33289953D01*
X17127266Y33159432D01*
X17185275Y33132382D01*
X17237714Y33086209D01*
X17256866Y33019016D01*
X17236650Y32952135D01*
X17185275Y32907618D01*
X17127267Y32880569D01*
X17127265Y32880568D01*
X16940858Y32750046D01*
X16779954Y32589142D01*
X16649432Y32402735D01*
X16649431Y32402733D01*
X16553261Y32196498D01*
X16553258Y32196489D01*
X16494366Y31976698D01*
X16494364Y31976687D01*
X16474532Y31750002D01*
X16474532Y31749999D01*
X16494364Y31523314D01*
X16494366Y31523303D01*
X16553258Y31303512D01*
X16553261Y31303503D01*
X16649431Y31097268D01*
X16649432Y31097266D01*
X16779954Y30910859D01*
X16940858Y30749955D01*
X16940861Y30749953D01*
X17127266Y30619432D01*
X17185275Y30592382D01*
X17237714Y30546209D01*
X17256866Y30479016D01*
X17236650Y30412135D01*
X17185275Y30367618D01*
X17127267Y30340569D01*
X17127265Y30340568D01*
X16940858Y30210046D01*
X16779954Y30049142D01*
X16649432Y29862735D01*
X16649431Y29862733D01*
X16553261Y29656498D01*
X16553258Y29656489D01*
X16494366Y29436698D01*
X16494364Y29436687D01*
X16474532Y29210002D01*
X16474532Y29209999D01*
X16494364Y28983314D01*
X16494366Y28983303D01*
X16553258Y28763512D01*
X16553261Y28763503D01*
X16649431Y28557268D01*
X16649432Y28557266D01*
X16779954Y28370859D01*
X16940858Y28209955D01*
X16940861Y28209953D01*
X17127266Y28079432D01*
X17185275Y28052382D01*
X17237714Y28006209D01*
X17256866Y27939016D01*
X17236650Y27872135D01*
X17185275Y27827618D01*
X17127267Y27800569D01*
X17127265Y27800568D01*
X16940858Y27670046D01*
X16779954Y27509142D01*
X16649432Y27322735D01*
X16649431Y27322733D01*
X16553261Y27116498D01*
X16553258Y27116489D01*
X16494366Y26896698D01*
X16494364Y26896687D01*
X16474532Y26670002D01*
X16474532Y26669999D01*
X16494364Y26443314D01*
X16494366Y26443303D01*
X16553258Y26223512D01*
X16553261Y26223503D01*
X16649431Y26017268D01*
X16649432Y26017266D01*
X16779954Y25830859D01*
X16940858Y25669955D01*
X16940861Y25669953D01*
X17127266Y25539432D01*
X17185275Y25512382D01*
X17237714Y25466209D01*
X17256866Y25399016D01*
X17236650Y25332135D01*
X17185275Y25287618D01*
X17127267Y25260569D01*
X17127265Y25260568D01*
X16940858Y25130046D01*
X16779954Y24969142D01*
X16649432Y24782735D01*
X16649431Y24782733D01*
X16553261Y24576498D01*
X16553258Y24576489D01*
X16494366Y24356698D01*
X16494364Y24356687D01*
X16474532Y24130002D01*
X16474532Y24129999D01*
X16494364Y23903314D01*
X16494366Y23903303D01*
X16553258Y23683512D01*
X16553261Y23683503D01*
X16649431Y23477268D01*
X16649432Y23477266D01*
X16779954Y23290859D01*
X16940858Y23129955D01*
X16940861Y23129953D01*
X17127266Y22999432D01*
X17185275Y22972382D01*
X17237714Y22926209D01*
X17256866Y22859016D01*
X17236650Y22792135D01*
X17185275Y22747618D01*
X17127267Y22720569D01*
X17127265Y22720568D01*
X16940858Y22590046D01*
X16779954Y22429142D01*
X16649432Y22242735D01*
X16649431Y22242733D01*
X16553261Y22036498D01*
X16553258Y22036489D01*
X16494366Y21816698D01*
X16494364Y21816687D01*
X16474532Y21590002D01*
X16474532Y21589999D01*
X16494364Y21363314D01*
X16494366Y21363303D01*
X16553258Y21143512D01*
X16553261Y21143503D01*
X16649431Y20937268D01*
X16649432Y20937266D01*
X16779954Y20750859D01*
X16940858Y20589955D01*
X16940861Y20589953D01*
X17127266Y20459432D01*
X17185275Y20432382D01*
X17237714Y20386209D01*
X17256866Y20319016D01*
X17236650Y20252135D01*
X17185275Y20207618D01*
X17127267Y20180569D01*
X17127265Y20180568D01*
X16940858Y20050046D01*
X16779954Y19889142D01*
X16649432Y19702735D01*
X16649431Y19702733D01*
X16553261Y19496498D01*
X16553258Y19496489D01*
X16494366Y19276698D01*
X16494364Y19276687D01*
X16474532Y19050002D01*
X16474532Y19049999D01*
X16494364Y18823314D01*
X16494366Y18823303D01*
X16553258Y18603512D01*
X16553261Y18603503D01*
X16649431Y18397268D01*
X16649432Y18397266D01*
X16779954Y18210859D01*
X16940858Y18049955D01*
X16940861Y18049953D01*
X17127266Y17919432D01*
X17185278Y17892381D01*
X17237713Y17846212D01*
X17256866Y17779018D01*
X17236651Y17712137D01*
X17185277Y17667620D01*
X17127268Y17640570D01*
X17127265Y17640568D01*
X16940858Y17510046D01*
X16779954Y17349142D01*
X16649432Y17162735D01*
X16649431Y17162733D01*
X16553261Y16956498D01*
X16553258Y16956489D01*
X16494366Y16736698D01*
X16494364Y16736687D01*
X16474532Y16510002D01*
X16474532Y16509999D01*
X16494364Y16283314D01*
X16494366Y16283303D01*
X16553258Y16063512D01*
X16553261Y16063503D01*
X16649431Y15857268D01*
X16649432Y15857266D01*
X16779954Y15670859D01*
X16940858Y15509955D01*
X16940861Y15509953D01*
X17127266Y15379432D01*
X17185275Y15352382D01*
X17237714Y15306209D01*
X17256866Y15239016D01*
X17236650Y15172135D01*
X17185275Y15127618D01*
X17127267Y15100569D01*
X17127265Y15100568D01*
X16940858Y14970046D01*
X16779954Y14809142D01*
X16649432Y14622735D01*
X16649431Y14622733D01*
X16553261Y14416498D01*
X16553258Y14416489D01*
X16494366Y14196698D01*
X16494364Y14196687D01*
X16474532Y13970002D01*
X16474532Y13969999D01*
X16494364Y13743314D01*
X16494366Y13743303D01*
X16553258Y13523512D01*
X16553261Y13523503D01*
X16649431Y13317268D01*
X16649432Y13317266D01*
X16779954Y13130859D01*
X16940858Y12969955D01*
X16940861Y12969953D01*
X17127266Y12839432D01*
X17185275Y12812382D01*
X17237714Y12766209D01*
X17256866Y12699016D01*
X17236650Y12632135D01*
X17185275Y12587618D01*
X17127267Y12560569D01*
X17127265Y12560568D01*
X16940858Y12430046D01*
X16779954Y12269142D01*
X16649432Y12082735D01*
X16649431Y12082733D01*
X16553261Y11876498D01*
X16553258Y11876489D01*
X16494366Y11656698D01*
X16494364Y11656687D01*
X16474532Y11430002D01*
X16474532Y11429999D01*
X500500Y11429999D01*
X500500Y17561130D01*
X1614500Y17561130D01*
X1614501Y17561124D01*
X1620908Y17501517D01*
X1671202Y17366672D01*
X1671206Y17366665D01*
X1757452Y17251456D01*
X1757455Y17251453D01*
X1872664Y17165207D01*
X1872671Y17165203D01*
X2007517Y17114909D01*
X2007516Y17114909D01*
X2014444Y17114165D01*
X2067127Y17108500D01*
X3012872Y17108501D01*
X3072483Y17114909D01*
X3207331Y17165204D01*
X3322546Y17251454D01*
X3356939Y17297397D01*
X8413909Y17297397D01*
X8432212Y17134945D01*
X8486210Y16980626D01*
X8503061Y16953808D01*
X8573192Y16842196D01*
X8688796Y16726592D01*
X8827225Y16639611D01*
X8981539Y16585614D01*
X8981542Y16585614D01*
X8981544Y16585613D01*
X9143996Y16567309D01*
X9144000Y16567309D01*
X9144004Y16567309D01*
X9306455Y16585613D01*
X9306456Y16585614D01*
X9306461Y16585614D01*
X9460775Y16639611D01*
X9599204Y16726592D01*
X9714808Y16842196D01*
X9801789Y16980625D01*
X9855786Y17134939D01*
X9859196Y17165204D01*
X9874091Y17297397D01*
X9874091Y17297404D01*
X9855787Y17459856D01*
X9855786Y17459858D01*
X9855786Y17459861D01*
X9801789Y17614175D01*
X9714808Y17752604D01*
X9599204Y17868208D01*
X9460774Y17955190D01*
X9306455Y18009188D01*
X9144004Y18027491D01*
X9143996Y18027491D01*
X8981544Y18009188D01*
X8827225Y17955190D01*
X8688795Y17868208D01*
X8573192Y17752605D01*
X8486210Y17614175D01*
X8432212Y17459856D01*
X8413909Y17297404D01*
X8413909Y17297397D01*
X3356939Y17297397D01*
X3408796Y17366669D01*
X3459091Y17501517D01*
X3465500Y17561127D01*
X3465499Y18506872D01*
X3459091Y18566483D01*
X3445283Y18603503D01*
X3408797Y18701329D01*
X3408793Y18701336D01*
X3322547Y18816545D01*
X3322544Y18816548D01*
X3207335Y18902794D01*
X3207328Y18902798D01*
X3072482Y18953092D01*
X3072483Y18953092D01*
X3012883Y18959499D01*
X3012881Y18959500D01*
X3012873Y18959500D01*
X3012864Y18959500D01*
X2067129Y18959500D01*
X2067123Y18959499D01*
X2007516Y18953092D01*
X1872671Y18902798D01*
X1872664Y18902794D01*
X1757455Y18816548D01*
X1757452Y18816545D01*
X1671206Y18701336D01*
X1671202Y18701329D01*
X1620908Y18566483D01*
X1614501Y18506884D01*
X1614501Y18506877D01*
X1614500Y18506865D01*
X1614500Y17561130D01*
X500500Y17561130D01*
X500500Y21081997D01*
X10064909Y21081997D01*
X10083212Y20919545D01*
X10137210Y20765226D01*
X10217922Y20636775D01*
X10224192Y20626796D01*
X10339796Y20511192D01*
X10478225Y20424211D01*
X10596399Y20382860D01*
X10653174Y20342139D01*
X10678922Y20277187D01*
X10665466Y20208625D01*
X10643126Y20178139D01*
X10605192Y20140205D01*
X10518210Y20001775D01*
X10464212Y19847456D01*
X10445909Y19685004D01*
X10445909Y19684997D01*
X10464212Y19522543D01*
X10518210Y19368226D01*
X10521235Y19361945D01*
X10519603Y19361160D01*
X10536113Y19302735D01*
X10519688Y19246790D01*
X10521231Y19246047D01*
X10518212Y19239780D01*
X10464212Y19085456D01*
X10445909Y18923004D01*
X10445909Y18922997D01*
X10464212Y18760545D01*
X10518210Y18606226D01*
X10580631Y18506884D01*
X10605192Y18467796D01*
X10720796Y18352192D01*
X10859225Y18265211D01*
X11013539Y18211214D01*
X11013542Y18211214D01*
X11013544Y18211213D01*
X11175996Y18192909D01*
X11176000Y18192909D01*
X11176004Y18192909D01*
X11338455Y18211213D01*
X11338456Y18211214D01*
X11338461Y18211214D01*
X11492775Y18265211D01*
X11631204Y18352192D01*
X11746808Y18467796D01*
X11833789Y18606225D01*
X11887786Y18760539D01*
X11887787Y18760545D01*
X11906091Y18922997D01*
X11906091Y18923004D01*
X11887787Y19085458D01*
X11887786Y19085461D01*
X11833789Y19239775D01*
X11833786Y19239780D01*
X11830768Y19246048D01*
X11832401Y19246835D01*
X11815885Y19305243D01*
X11832317Y19361206D01*
X11830768Y19361952D01*
X11833784Y19368219D01*
X11833789Y19368225D01*
X11887786Y19522539D01*
X11887786Y19522541D01*
X11887787Y19522543D01*
X11906091Y19684997D01*
X11906091Y19685004D01*
X11887787Y19847456D01*
X11887786Y19847458D01*
X11887786Y19847461D01*
X11833789Y20001775D01*
X11746808Y20140204D01*
X11734521Y20152491D01*
X11701036Y20213814D01*
X11706020Y20283506D01*
X11747892Y20339439D01*
X11813356Y20363856D01*
X11836085Y20363393D01*
X11845881Y20362289D01*
X11937998Y20351909D01*
X11938000Y20351909D01*
X11938004Y20351909D01*
X12100455Y20370213D01*
X12100456Y20370214D01*
X12100461Y20370214D01*
X12254775Y20424211D01*
X12393204Y20511192D01*
X12508808Y20626796D01*
X12595789Y20765225D01*
X12649786Y20919539D01*
X12649787Y20919545D01*
X12668091Y21081997D01*
X12668091Y21082004D01*
X12649787Y21244456D01*
X12649786Y21244458D01*
X12649786Y21244461D01*
X12595789Y21398775D01*
X12508808Y21537204D01*
X12393204Y21652808D01*
X12347479Y21681539D01*
X12254774Y21739790D01*
X12100455Y21793788D01*
X11938004Y21812091D01*
X11937996Y21812091D01*
X11775544Y21793788D01*
X11621225Y21739790D01*
X11482797Y21652809D01*
X11454180Y21624192D01*
X11392856Y21590708D01*
X11323165Y21595694D01*
X11278820Y21624192D01*
X11250204Y21652808D01*
X11193652Y21688342D01*
X11111774Y21739790D01*
X10957455Y21793788D01*
X10795004Y21812091D01*
X10794996Y21812091D01*
X10632544Y21793788D01*
X10478225Y21739790D01*
X10339795Y21652808D01*
X10224192Y21537205D01*
X10137210Y21398775D01*
X10083212Y21244456D01*
X10064909Y21082004D01*
X10064909Y21081997D01*
X500500Y21081997D01*
X500500Y24256997D01*
X14128909Y24256997D01*
X14147212Y24094545D01*
X14201210Y23940226D01*
X14263844Y23840545D01*
X14288192Y23801796D01*
X14403796Y23686192D01*
X14542225Y23599211D01*
X14696539Y23545214D01*
X14696542Y23545214D01*
X14696544Y23545213D01*
X14858996Y23526909D01*
X14859000Y23526909D01*
X14859004Y23526909D01*
X15021455Y23545213D01*
X15021456Y23545214D01*
X15021461Y23545214D01*
X15175775Y23599211D01*
X15314204Y23686192D01*
X15429808Y23801796D01*
X15516789Y23940225D01*
X15570786Y24094539D01*
X15570787Y24094545D01*
X15589091Y24256997D01*
X15589091Y24257004D01*
X15570787Y24419456D01*
X15570786Y24419458D01*
X15570786Y24419461D01*
X15516789Y24573775D01*
X15429808Y24712204D01*
X15337689Y24804323D01*
X15304207Y24865641D01*
X15309191Y24935333D01*
X15337688Y24979677D01*
X15429808Y25071796D01*
X15516789Y25210225D01*
X15570786Y25364539D01*
X15574782Y25400004D01*
X15589091Y25526997D01*
X15589091Y25527004D01*
X15570787Y25689456D01*
X15570786Y25689458D01*
X15570786Y25689461D01*
X15516789Y25843775D01*
X15429808Y25982204D01*
X15314204Y26097808D01*
X15262826Y26130091D01*
X15175774Y26184790D01*
X15021455Y26238788D01*
X14859004Y26257091D01*
X14858996Y26257091D01*
X14696544Y26238788D01*
X14542225Y26184790D01*
X14403795Y26097808D01*
X14288192Y25982205D01*
X14201210Y25843775D01*
X14147212Y25689456D01*
X14128909Y25527004D01*
X14128909Y25526997D01*
X14147212Y25364545D01*
X14201210Y25210226D01*
X14288192Y25071796D01*
X14380307Y24979681D01*
X14413792Y24918358D01*
X14408808Y24848666D01*
X14380307Y24804319D01*
X14288192Y24712205D01*
X14201210Y24573775D01*
X14147212Y24419456D01*
X14128909Y24257004D01*
X14128909Y24256997D01*
X500500Y24256997D01*
X500500Y28803597D01*
X2876709Y28803597D01*
X2895012Y28641145D01*
X2949010Y28486826D01*
X3029701Y28358408D01*
X3035992Y28348396D01*
X3151596Y28232792D01*
X3290025Y28145811D01*
X3444339Y28091814D01*
X3444342Y28091814D01*
X3444344Y28091813D01*
X3606796Y28073509D01*
X3606800Y28073509D01*
X3606804Y28073509D01*
X3769255Y28091813D01*
X3769256Y28091814D01*
X3769261Y28091814D01*
X3923575Y28145811D01*
X4062004Y28232792D01*
X4177608Y28348396D01*
X4264589Y28486825D01*
X4318586Y28641139D01*
X4324094Y28690025D01*
X4336891Y28803597D01*
X4336891Y28803604D01*
X4334030Y28828997D01*
X11080909Y28828997D01*
X11099212Y28666545D01*
X11153210Y28512226D01*
X11206236Y28427836D01*
X11240192Y28373796D01*
X11355796Y28258192D01*
X11494225Y28171211D01*
X11648539Y28117214D01*
X11648542Y28117214D01*
X11648544Y28117213D01*
X11810996Y28098909D01*
X11811000Y28098909D01*
X11811004Y28098909D01*
X11973455Y28117213D01*
X11973456Y28117214D01*
X11973461Y28117214D01*
X12127775Y28171211D01*
X12266204Y28258192D01*
X12381808Y28373796D01*
X12468789Y28512225D01*
X12522786Y28666539D01*
X12522787Y28666545D01*
X12541091Y28828997D01*
X12541091Y28829004D01*
X12526782Y28955997D01*
X13493909Y28955997D01*
X13512212Y28793545D01*
X13566210Y28639226D01*
X13566211Y28639225D01*
X13653192Y28500796D01*
X13768796Y28385192D01*
X13907225Y28298211D01*
X14061539Y28244214D01*
X14061542Y28244214D01*
X14061544Y28244213D01*
X14223996Y28225909D01*
X14224000Y28225909D01*
X14224004Y28225909D01*
X14386455Y28244213D01*
X14386456Y28244214D01*
X14386461Y28244214D01*
X14540775Y28298211D01*
X14679204Y28385192D01*
X14794808Y28500796D01*
X14881789Y28639225D01*
X14935786Y28793539D01*
X14935787Y28793545D01*
X14954091Y28955997D01*
X14954091Y28956004D01*
X14935787Y29118456D01*
X14935786Y29118458D01*
X14935786Y29118461D01*
X14881789Y29272775D01*
X14794808Y29411204D01*
X14679204Y29526808D01*
X14668250Y29533691D01*
X14540774Y29613790D01*
X14386455Y29667788D01*
X14224004Y29686091D01*
X14223996Y29686091D01*
X14061544Y29667788D01*
X13907225Y29613790D01*
X13768795Y29526808D01*
X13653192Y29411205D01*
X13566210Y29272775D01*
X13512212Y29118456D01*
X13493909Y28956004D01*
X13493909Y28955997D01*
X12526782Y28955997D01*
X12522787Y28991456D01*
X12522786Y28991458D01*
X12522786Y28991461D01*
X12468789Y29145775D01*
X12437279Y29195923D01*
X12418278Y29263160D01*
X12438645Y29329995D01*
X12491913Y29375210D01*
X12556156Y29385116D01*
X12699997Y29368909D01*
X12700000Y29368909D01*
X12700004Y29368909D01*
X12862455Y29387213D01*
X12862456Y29387214D01*
X12862461Y29387214D01*
X13016775Y29441211D01*
X13155204Y29528192D01*
X13270808Y29643796D01*
X13357789Y29782225D01*
X13411786Y29936539D01*
X13411787Y29936545D01*
X13430091Y30098997D01*
X13430091Y30099004D01*
X13411787Y30261456D01*
X13411786Y30261458D01*
X13411786Y30261461D01*
X13357789Y30415775D01*
X13270808Y30554204D01*
X13155204Y30669808D01*
X13085790Y30713424D01*
X13016774Y30756790D01*
X12862455Y30810788D01*
X12700004Y30829091D01*
X12699996Y30829091D01*
X12537544Y30810788D01*
X12383225Y30756790D01*
X12244795Y30669808D01*
X12129192Y30554205D01*
X12042210Y30415775D01*
X11988212Y30261456D01*
X11969909Y30099004D01*
X11969909Y30098997D01*
X11988212Y29936545D01*
X12042210Y29782226D01*
X12073721Y29732077D01*
X12092721Y29664841D01*
X12072353Y29598005D01*
X12019086Y29552791D01*
X11954844Y29542885D01*
X11811004Y29559091D01*
X11810996Y29559091D01*
X11648544Y29540788D01*
X11494225Y29486790D01*
X11355795Y29399808D01*
X11240192Y29284205D01*
X11153210Y29145775D01*
X11099212Y28991456D01*
X11080909Y28829004D01*
X11080909Y28828997D01*
X4334030Y28828997D01*
X4318587Y28966056D01*
X4318586Y28966058D01*
X4318586Y28966061D01*
X4264589Y29120375D01*
X4177608Y29258804D01*
X4062004Y29374408D01*
X3990645Y29419246D01*
X3944354Y29471581D01*
X3933706Y29540635D01*
X3962081Y29604483D01*
X3990645Y29629234D01*
X4013820Y29643796D01*
X4112804Y29705992D01*
X4228408Y29821596D01*
X4315389Y29960025D01*
X4369386Y30114339D01*
X4384830Y30251404D01*
X4387691Y30276797D01*
X4387691Y30276804D01*
X4370520Y30429197D01*
X8667909Y30429197D01*
X8686212Y30266745D01*
X8740210Y30112426D01*
X8754968Y30088939D01*
X8827192Y29973996D01*
X8942796Y29858392D01*
X9081225Y29771411D01*
X9235539Y29717414D01*
X9235542Y29717414D01*
X9235544Y29717413D01*
X9397996Y29699109D01*
X9398000Y29699109D01*
X9398004Y29699109D01*
X9560455Y29717413D01*
X9560456Y29717414D01*
X9560461Y29717414D01*
X9714775Y29771411D01*
X9853204Y29858392D01*
X9968808Y29973996D01*
X10055789Y30112425D01*
X10109786Y30266739D01*
X10109787Y30266745D01*
X10128091Y30429197D01*
X10128091Y30429204D01*
X10109787Y30591656D01*
X10109786Y30591658D01*
X10109786Y30591661D01*
X10055789Y30745975D01*
X9968808Y30884404D01*
X9853204Y31000008D01*
X9807479Y31028739D01*
X9714774Y31086990D01*
X9560455Y31140988D01*
X9398004Y31159291D01*
X9397996Y31159291D01*
X9235544Y31140988D01*
X9081225Y31086990D01*
X8942795Y31000008D01*
X8827192Y30884405D01*
X8740210Y30745975D01*
X8686212Y30591656D01*
X8667909Y30429204D01*
X8667909Y30429197D01*
X4370520Y30429197D01*
X4369387Y30439256D01*
X4369386Y30439258D01*
X4369386Y30439261D01*
X4315389Y30593575D01*
X4228408Y30732004D01*
X4112804Y30847608D01*
X4054242Y30884405D01*
X3974374Y30934590D01*
X3821744Y30987997D01*
X3820061Y30988586D01*
X3820060Y30988587D01*
X3820055Y30988588D01*
X3657604Y31006891D01*
X3657596Y31006891D01*
X3495144Y30988588D01*
X3340825Y30934590D01*
X3202395Y30847608D01*
X3086792Y30732005D01*
X2999810Y30593575D01*
X2945812Y30439256D01*
X2927509Y30276804D01*
X2927509Y30276797D01*
X2945812Y30114345D01*
X2999810Y29960026D01*
X3060943Y29862734D01*
X3086792Y29821596D01*
X3202396Y29705992D01*
X3273754Y29661155D01*
X3320045Y29608820D01*
X3330693Y29539767D01*
X3302318Y29475918D01*
X3273755Y29451168D01*
X3151598Y29374410D01*
X3151595Y29374408D01*
X3035992Y29258805D01*
X2949010Y29120375D01*
X2895012Y28966056D01*
X2876709Y28803604D01*
X2876709Y28803597D01*
X500500Y28803597D01*
X500500Y39499130D01*
X4099500Y39499130D01*
X4099501Y39499124D01*
X4105908Y39439517D01*
X4156202Y39304672D01*
X4156206Y39304665D01*
X4242452Y39189456D01*
X4242455Y39189453D01*
X4357664Y39103207D01*
X4357671Y39103203D01*
X4492517Y39052909D01*
X4492516Y39052909D01*
X4499444Y39052165D01*
X4552127Y39046500D01*
X6447872Y39046501D01*
X6507483Y39052909D01*
X6642331Y39103204D01*
X6757546Y39189454D01*
X6843796Y39304669D01*
X6862092Y39353726D01*
X6903961Y39409658D01*
X6969425Y39434076D01*
X7037699Y39419225D01*
X7054436Y39408245D01*
X7231365Y39270536D01*
X7231371Y39270532D01*
X7231374Y39270530D01*
X7435497Y39160064D01*
X7549487Y39120932D01*
X7655015Y39084703D01*
X7655017Y39084703D01*
X7655019Y39084702D01*
X7883951Y39046500D01*
X7883952Y39046500D01*
X8116048Y39046500D01*
X8116049Y39046500D01*
X8344981Y39084702D01*
X8564503Y39160064D01*
X8768626Y39270530D01*
X8814841Y39306500D01*
X8896424Y39369999D01*
X8951784Y39413087D01*
X9108979Y39583847D01*
X9235924Y39778151D01*
X9329157Y39990700D01*
X9386134Y40215695D01*
X9402467Y40412808D01*
X9405300Y40446994D01*
X9405300Y40447007D01*
X9386135Y40678298D01*
X9386133Y40678309D01*
X9329157Y40903301D01*
X9235924Y41115849D01*
X9108983Y41310148D01*
X9108980Y41310151D01*
X9108979Y41310153D01*
X8951784Y41480913D01*
X8951779Y41480917D01*
X8951777Y41480919D01*
X8768634Y41623465D01*
X8768628Y41623469D01*
X8564504Y41733936D01*
X8564495Y41733939D01*
X8344984Y41809298D01*
X8126386Y41845775D01*
X8116049Y41847500D01*
X7883951Y41847500D01*
X7873614Y41845775D01*
X7655015Y41809298D01*
X7435504Y41733939D01*
X7435495Y41733936D01*
X7231372Y41623469D01*
X7054436Y41485755D01*
X6989442Y41460113D01*
X6920902Y41473680D01*
X6870577Y41522148D01*
X6862092Y41540277D01*
X6843798Y41589327D01*
X6843793Y41589336D01*
X6757547Y41704545D01*
X6757544Y41704548D01*
X6642335Y41790794D01*
X6642328Y41790798D01*
X6507482Y41841092D01*
X6507483Y41841092D01*
X6447883Y41847499D01*
X6447881Y41847500D01*
X6447873Y41847500D01*
X6447864Y41847500D01*
X4552129Y41847500D01*
X4552123Y41847499D01*
X4492516Y41841092D01*
X4357671Y41790798D01*
X4357664Y41790794D01*
X4242455Y41704548D01*
X4242452Y41704545D01*
X4156206Y41589336D01*
X4156202Y41589329D01*
X4105908Y41454483D01*
X4099501Y41394884D01*
X4099500Y41394865D01*
X4099500Y39499130D01*
X500500Y39499130D01*
X500500Y41909997D01*
X20605909Y41909997D01*
X20624212Y41747545D01*
X20678210Y41593226D01*
X20753326Y41473680D01*
X20765192Y41454796D01*
X20880796Y41339192D01*
X21019225Y41252211D01*
X21173539Y41198214D01*
X21173542Y41198214D01*
X21173544Y41198213D01*
X21335996Y41179909D01*
X21336000Y41179909D01*
X21336004Y41179909D01*
X21498455Y41198213D01*
X21498456Y41198214D01*
X21498461Y41198214D01*
X21652775Y41252211D01*
X21791204Y41339192D01*
X21906808Y41454796D01*
X21953432Y41528997D01*
X28606909Y41528997D01*
X28625212Y41366545D01*
X28679210Y41212226D01*
X28739768Y41115849D01*
X28766192Y41073796D01*
X28881796Y40958192D01*
X29020225Y40871211D01*
X29174539Y40817214D01*
X29174542Y40817214D01*
X29174544Y40817213D01*
X29336996Y40798909D01*
X29337000Y40798909D01*
X29337004Y40798909D01*
X29499455Y40817213D01*
X29499456Y40817214D01*
X29499461Y40817214D01*
X29653775Y40871211D01*
X29792204Y40958192D01*
X29907808Y41073796D01*
X29994789Y41212225D01*
X30048786Y41366539D01*
X30051978Y41394865D01*
X30067091Y41528997D01*
X30067091Y41529004D01*
X30048787Y41691456D01*
X30048786Y41691458D01*
X30048786Y41691461D01*
X29994789Y41845775D01*
X29907808Y41984204D01*
X29792204Y42099808D01*
X29740826Y42132091D01*
X29653774Y42186790D01*
X29499455Y42240788D01*
X29337004Y42259091D01*
X29336996Y42259091D01*
X29174544Y42240788D01*
X29020225Y42186790D01*
X28881795Y42099808D01*
X28766192Y41984205D01*
X28679210Y41845775D01*
X28625212Y41691456D01*
X28606909Y41529004D01*
X28606909Y41528997D01*
X21953432Y41528997D01*
X21993789Y41593225D01*
X22047786Y41747539D01*
X22059049Y41847500D01*
X22066091Y41909997D01*
X22066091Y41910004D01*
X22047787Y42072456D01*
X22047786Y42072458D01*
X22047786Y42072461D01*
X21993789Y42226775D01*
X21906808Y42365204D01*
X21791204Y42480808D01*
X21652774Y42567790D01*
X21498455Y42621788D01*
X21336004Y42640091D01*
X21335996Y42640091D01*
X21173544Y42621788D01*
X21019225Y42567790D01*
X20880795Y42480808D01*
X20765192Y42365205D01*
X20678210Y42226775D01*
X20624212Y42072456D01*
X20605909Y41910004D01*
X20605909Y41909997D01*
X500500Y41909997D01*
X500500Y43248130D01*
X22724500Y43248130D01*
X22724501Y43248124D01*
X22730908Y43188517D01*
X22781202Y43053672D01*
X22781206Y43053665D01*
X22867452Y42938456D01*
X22867455Y42938453D01*
X22982664Y42852207D01*
X22982671Y42852203D01*
X23117517Y42801909D01*
X23117516Y42801909D01*
X23124444Y42801165D01*
X23177127Y42795500D01*
X25072872Y42795501D01*
X25132483Y42801909D01*
X25267331Y42852204D01*
X25382546Y42938454D01*
X25468796Y43053669D01*
X25497454Y43130507D01*
X25539326Y43186441D01*
X25604790Y43210859D01*
X25673063Y43196008D01*
X25704866Y43171157D01*
X25712302Y43163080D01*
X25713215Y43162088D01*
X25713222Y43162082D01*
X25896365Y43019536D01*
X25896371Y43019532D01*
X25896374Y43019530D01*
X26100497Y42909064D01*
X26214487Y42869932D01*
X26320015Y42833703D01*
X26320017Y42833703D01*
X26320019Y42833702D01*
X26548951Y42795500D01*
X26548952Y42795500D01*
X26781048Y42795500D01*
X26781049Y42795500D01*
X27009981Y42833702D01*
X27229503Y42909064D01*
X27433626Y43019530D01*
X27616784Y43162087D01*
X27773979Y43332847D01*
X27900924Y43527151D01*
X27994157Y43739700D01*
X28051134Y43964695D01*
X28070300Y44196000D01*
X28070300Y44196007D01*
X28051135Y44427298D01*
X28051133Y44427309D01*
X27994157Y44652301D01*
X27900924Y44864849D01*
X27773983Y45059148D01*
X27773980Y45059151D01*
X27773979Y45059153D01*
X27616784Y45229913D01*
X27616779Y45229917D01*
X27616777Y45229919D01*
X27433634Y45372465D01*
X27433628Y45372469D01*
X27229504Y45482936D01*
X27229495Y45482939D01*
X27009984Y45558298D01*
X26819450Y45590092D01*
X26781049Y45596500D01*
X26548951Y45596500D01*
X26510550Y45590092D01*
X26320015Y45558298D01*
X26100504Y45482939D01*
X26100495Y45482936D01*
X25896371Y45372469D01*
X25896365Y45372465D01*
X25713222Y45229919D01*
X25713218Y45229915D01*
X25704866Y45220842D01*
X25644979Y45184852D01*
X25575141Y45186953D01*
X25517525Y45226478D01*
X25497455Y45261493D01*
X25468797Y45338329D01*
X25468793Y45338336D01*
X25382547Y45453545D01*
X25382544Y45453548D01*
X25267335Y45539794D01*
X25267328Y45539798D01*
X25132482Y45590092D01*
X25132483Y45590092D01*
X25072883Y45596499D01*
X25072881Y45596500D01*
X25072873Y45596500D01*
X25072864Y45596500D01*
X23177129Y45596500D01*
X23177123Y45596499D01*
X23117516Y45590092D01*
X22982671Y45539798D01*
X22982664Y45539794D01*
X22867455Y45453548D01*
X22867452Y45453545D01*
X22781206Y45338336D01*
X22781202Y45338329D01*
X22730908Y45203483D01*
X22724501Y45143884D01*
X22724500Y45143865D01*
X22724500Y43248130D01*
X500500Y43248130D01*
X500500Y45832035D01*
X520185Y45899074D01*
X572989Y45944829D01*
X642147Y45954773D01*
X705703Y45925748D01*
X743477Y45866970D01*
X744741Y45862333D01*
X764902Y45782322D01*
X764903Y45782319D01*
X857991Y45577378D01*
X857997Y45577368D01*
X986174Y45392355D01*
X986178Y45392350D01*
X986181Y45392346D01*
X1145346Y45233181D01*
X1145350Y45233178D01*
X1145354Y45233175D01*
X1274238Y45143884D01*
X1330374Y45104993D01*
X1535317Y45011904D01*
X1535321Y45011903D01*
X1753579Y44956906D01*
X1753581Y44956906D01*
X1753588Y44956904D01*
X1864972Y44948138D01*
X1885781Y44946500D01*
X1885782Y44946501D01*
X1885783Y44946500D01*
X2701984Y44946501D01*
X3514218Y44946501D01*
X3533505Y44948020D01*
X3646412Y44956904D01*
X3864683Y45011904D01*
X4069626Y45104993D01*
X4254654Y45233181D01*
X4413819Y45392346D01*
X4542007Y45577374D01*
X4635096Y45782317D01*
X4690096Y46000588D01*
X4700500Y46132783D01*
X4700499Y48761216D01*
X4700499Y48761219D01*
X11299500Y48761219D01*
X11299501Y46132782D01*
X11309904Y46000587D01*
X11309905Y46000580D01*
X11364902Y45782322D01*
X11364903Y45782319D01*
X11457991Y45577378D01*
X11457997Y45577368D01*
X11586174Y45392355D01*
X11586178Y45392350D01*
X11586181Y45392346D01*
X11745346Y45233181D01*
X11745350Y45233178D01*
X11745354Y45233175D01*
X11874238Y45143884D01*
X11930374Y45104993D01*
X12135317Y45011904D01*
X12135321Y45011903D01*
X12353579Y44956906D01*
X12353581Y44956906D01*
X12353588Y44956904D01*
X12464973Y44948138D01*
X12485781Y44946500D01*
X12485782Y44946501D01*
X12485783Y44946500D01*
X13302432Y44946501D01*
X14114218Y44946501D01*
X14133505Y44948020D01*
X14246412Y44956904D01*
X14464683Y45011904D01*
X14625610Y45085000D01*
X18144802Y45085000D01*
X18165138Y44891517D01*
X18225256Y44706490D01*
X18225257Y44706489D01*
X18305559Y44567403D01*
X18322530Y44538008D01*
X18367876Y44487646D01*
X18452702Y44393436D01*
X18452705Y44393434D01*
X18452708Y44393431D01*
X18570752Y44307667D01*
X18610102Y44279077D01*
X18678326Y44248703D01*
X18787829Y44199949D01*
X18978126Y44159500D01*
X19172674Y44159500D01*
X19362971Y44199949D01*
X19540699Y44279078D01*
X19698092Y44393431D01*
X19828270Y44538008D01*
X19925544Y44706492D01*
X19985662Y44891518D01*
X20005998Y45085000D01*
X19985662Y45278482D01*
X19925544Y45463508D01*
X19925543Y45463509D01*
X19925543Y45463511D01*
X19925542Y45463512D01*
X19859807Y45577368D01*
X19828270Y45631992D01*
X19777282Y45688619D01*
X19698097Y45776565D01*
X19698094Y45776567D01*
X19698093Y45776568D01*
X19698092Y45776569D01*
X19615136Y45836840D01*
X19540697Y45890924D01*
X19397286Y45954773D01*
X19362971Y45970051D01*
X19362969Y45970052D01*
X19172674Y46010500D01*
X18978126Y46010500D01*
X18787831Y45970052D01*
X18610102Y45890924D01*
X18452705Y45776567D01*
X18452702Y45776565D01*
X18322529Y45631991D01*
X18225257Y45463512D01*
X18225256Y45463511D01*
X18165138Y45278484D01*
X18144802Y45085000D01*
X14625610Y45085000D01*
X14669626Y45104993D01*
X14854654Y45233181D01*
X15013819Y45392346D01*
X15142007Y45577374D01*
X15235096Y45782317D01*
X15290096Y46000588D01*
X15300500Y46132783D01*
X15300499Y48529130D01*
X21031500Y48529130D01*
X21031501Y48529124D01*
X21037908Y48469517D01*
X21088202Y48334672D01*
X21088206Y48334665D01*
X21174452Y48219456D01*
X21174455Y48219453D01*
X21289664Y48133207D01*
X21289671Y48133203D01*
X21424517Y48082909D01*
X21424516Y48082909D01*
X21431444Y48082165D01*
X21484127Y48076500D01*
X23379872Y48076501D01*
X23439483Y48082909D01*
X23574331Y48133204D01*
X23689546Y48219454D01*
X23775796Y48334669D01*
X23794092Y48383726D01*
X23835961Y48439658D01*
X23901425Y48464076D01*
X23969699Y48449225D01*
X23986436Y48438245D01*
X24163365Y48300536D01*
X24163371Y48300532D01*
X24163374Y48300530D01*
X24367497Y48190064D01*
X24481487Y48150932D01*
X24587015Y48114703D01*
X24587017Y48114703D01*
X24587019Y48114702D01*
X24815951Y48076500D01*
X24815952Y48076500D01*
X25048048Y48076500D01*
X25048049Y48076500D01*
X25276981Y48114702D01*
X25496503Y48190064D01*
X25700626Y48300530D01*
X25883784Y48443087D01*
X26040979Y48613847D01*
X26137262Y48761219D01*
X35499500Y48761219D01*
X35499501Y46132782D01*
X35509904Y46000587D01*
X35509905Y46000580D01*
X35564902Y45782322D01*
X35564903Y45782319D01*
X35657991Y45577378D01*
X35657997Y45577368D01*
X35786174Y45392355D01*
X35786178Y45392350D01*
X35786181Y45392346D01*
X35945346Y45233181D01*
X35945350Y45233178D01*
X35945354Y45233175D01*
X36074238Y45143884D01*
X36130374Y45104993D01*
X36335317Y45011904D01*
X36335321Y45011903D01*
X36553579Y44956906D01*
X36553581Y44956906D01*
X36553588Y44956904D01*
X36664972Y44948138D01*
X36685781Y44946500D01*
X36685782Y44946501D01*
X36685783Y44946500D01*
X37493408Y44946501D01*
X38314218Y44946501D01*
X38333505Y44948020D01*
X38446412Y44956904D01*
X38664683Y45011904D01*
X38869626Y45104993D01*
X39054654Y45233181D01*
X39213819Y45392346D01*
X39342007Y45577374D01*
X39435096Y45782317D01*
X39490096Y46000588D01*
X39500500Y46132783D01*
X39500499Y48761216D01*
X39490096Y48893412D01*
X39476527Y48947260D01*
X39435097Y49111679D01*
X39435096Y49111682D01*
X39388988Y49213192D01*
X39342007Y49316626D01*
X39230904Y49476994D01*
X39213825Y49501646D01*
X39213822Y49501650D01*
X39213819Y49501654D01*
X39054654Y49660819D01*
X39054650Y49660822D01*
X39054645Y49660826D01*
X38869632Y49789003D01*
X38869630Y49789005D01*
X38869626Y49789007D01*
X38664683Y49882096D01*
X38664681Y49882097D01*
X38664678Y49882098D01*
X38446420Y49937095D01*
X38446413Y49937096D01*
X38314219Y49947500D01*
X38314217Y49947500D01*
X37501600Y49947500D01*
X36685782Y49947499D01*
X36553586Y49937096D01*
X36553579Y49937095D01*
X36335321Y49882098D01*
X36335318Y49882097D01*
X36130377Y49789009D01*
X36130367Y49789003D01*
X35945354Y49660826D01*
X35945342Y49660816D01*
X35786184Y49501658D01*
X35786174Y49501646D01*
X35657997Y49316633D01*
X35657991Y49316623D01*
X35564903Y49111682D01*
X35564902Y49111679D01*
X35509905Y48893421D01*
X35509904Y48893414D01*
X35499500Y48761219D01*
X26137262Y48761219D01*
X26167924Y48808151D01*
X26261157Y49020700D01*
X26318134Y49245695D01*
X26318135Y49245703D01*
X26337300Y49476994D01*
X26337300Y49477007D01*
X26318135Y49708298D01*
X26318133Y49708309D01*
X26298966Y49783997D01*
X31908909Y49783997D01*
X31927212Y49621545D01*
X31981210Y49467226D01*
X31981211Y49467225D01*
X32068192Y49328796D01*
X32183796Y49213192D01*
X32322225Y49126211D01*
X32476539Y49072214D01*
X32476542Y49072214D01*
X32476544Y49072213D01*
X32638996Y49053909D01*
X32639000Y49053909D01*
X32639004Y49053909D01*
X32801455Y49072213D01*
X32801456Y49072214D01*
X32801461Y49072214D01*
X32955775Y49126211D01*
X33094204Y49213192D01*
X33209808Y49328796D01*
X33296789Y49467225D01*
X33350786Y49621539D01*
X33350787Y49621545D01*
X33369091Y49783997D01*
X33369091Y49784004D01*
X33350787Y49946456D01*
X33350786Y49946458D01*
X33350786Y49946461D01*
X33296789Y50100775D01*
X33209808Y50239204D01*
X33094204Y50354808D01*
X32955774Y50441790D01*
X32801455Y50495788D01*
X32639004Y50514091D01*
X32638996Y50514091D01*
X32476544Y50495788D01*
X32322225Y50441790D01*
X32183795Y50354808D01*
X32068192Y50239205D01*
X31981210Y50100775D01*
X31927212Y49946456D01*
X31908909Y49784004D01*
X31908909Y49783997D01*
X26298966Y49783997D01*
X26261157Y49933301D01*
X26167924Y50145849D01*
X26040983Y50340148D01*
X26040980Y50340151D01*
X26040979Y50340153D01*
X25883784Y50510913D01*
X25883779Y50510917D01*
X25883777Y50510919D01*
X25700634Y50653465D01*
X25700628Y50653469D01*
X25496504Y50763936D01*
X25496495Y50763939D01*
X25276984Y50839298D01*
X25086450Y50871092D01*
X25048049Y50877500D01*
X24815951Y50877500D01*
X24777550Y50871092D01*
X24587015Y50839298D01*
X24367504Y50763939D01*
X24367495Y50763936D01*
X24163372Y50653469D01*
X23986436Y50515755D01*
X23921442Y50490113D01*
X23852902Y50503680D01*
X23802577Y50552148D01*
X23794092Y50570277D01*
X23775798Y50619327D01*
X23775793Y50619336D01*
X23689547Y50734545D01*
X23689544Y50734548D01*
X23574335Y50820794D01*
X23574328Y50820798D01*
X23439482Y50871092D01*
X23439483Y50871092D01*
X23379883Y50877499D01*
X23379881Y50877500D01*
X23379873Y50877500D01*
X23379864Y50877500D01*
X21484129Y50877500D01*
X21484123Y50877499D01*
X21424516Y50871092D01*
X21289671Y50820798D01*
X21289664Y50820794D01*
X21174455Y50734548D01*
X21174452Y50734545D01*
X21088206Y50619336D01*
X21088202Y50619329D01*
X21037908Y50484483D01*
X21031501Y50424884D01*
X21031500Y50424865D01*
X21031500Y48529130D01*
X15300499Y48529130D01*
X15300499Y48761216D01*
X15290096Y48893412D01*
X15276527Y48947260D01*
X15235097Y49111679D01*
X15235096Y49111682D01*
X15188988Y49213192D01*
X15142007Y49316626D01*
X15030904Y49476994D01*
X15013825Y49501646D01*
X15013822Y49501650D01*
X15013819Y49501654D01*
X14854654Y49660819D01*
X14854650Y49660822D01*
X14854645Y49660826D01*
X14669632Y49789003D01*
X14669630Y49789005D01*
X14669626Y49789007D01*
X14464683Y49882096D01*
X14464681Y49882097D01*
X14464678Y49882098D01*
X14246420Y49937095D01*
X14246413Y49937096D01*
X14114219Y49947500D01*
X14114217Y49947500D01*
X13294240Y49947500D01*
X12485782Y49947499D01*
X12353586Y49937096D01*
X12353579Y49937095D01*
X12135321Y49882098D01*
X12135318Y49882097D01*
X11930377Y49789009D01*
X11930367Y49789003D01*
X11745354Y49660826D01*
X11745342Y49660816D01*
X11586184Y49501658D01*
X11586174Y49501646D01*
X11457997Y49316633D01*
X11457991Y49316623D01*
X11364903Y49111682D01*
X11364902Y49111679D01*
X11309905Y48893421D01*
X11309904Y48893414D01*
X11299500Y48761219D01*
X4700499Y48761219D01*
X4690096Y48893412D01*
X4676527Y48947260D01*
X4635097Y49111679D01*
X4635096Y49111682D01*
X4588988Y49213192D01*
X4542007Y49316626D01*
X4430904Y49476994D01*
X4413825Y49501646D01*
X4413822Y49501650D01*
X4413819Y49501654D01*
X4254654Y49660819D01*
X4254650Y49660822D01*
X4254645Y49660826D01*
X4069632Y49789003D01*
X4069630Y49789005D01*
X4069626Y49789007D01*
X3864683Y49882096D01*
X3864681Y49882097D01*
X3864678Y49882098D01*
X3646420Y49937095D01*
X3646413Y49937096D01*
X3514219Y49947500D01*
X3514217Y49947500D01*
X2701984Y49947500D01*
X1885782Y49947499D01*
X1753586Y49937096D01*
X1753579Y49937095D01*
X1535321Y49882098D01*
X1535318Y49882097D01*
X1330377Y49789009D01*
X1330367Y49789003D01*
X1145354Y49660826D01*
X1145342Y49660816D01*
X986184Y49501658D01*
X986174Y49501646D01*
X857997Y49316633D01*
X857991Y49316623D01*
X764903Y49111682D01*
X744741Y49031667D01*
X709273Y48971470D01*
X646889Y48940004D01*
X577398Y48947260D01*
X522860Y48990935D01*
X500593Y49057161D01*
X500500Y49061966D01*
X500500Y53339997D01*
X15017909Y53339997D01*
X15036212Y53177545D01*
X15090210Y53023226D01*
X15090211Y53023225D01*
X15177192Y52884796D01*
X15292796Y52769192D01*
X15431225Y52682211D01*
X15585539Y52628214D01*
X15585542Y52628214D01*
X15585544Y52628213D01*
X15747996Y52609909D01*
X15748000Y52609909D01*
X15748004Y52609909D01*
X15910455Y52628213D01*
X15910456Y52628214D01*
X15910461Y52628214D01*
X16064775Y52682211D01*
X16203204Y52769192D01*
X16318808Y52884796D01*
X16405789Y53023225D01*
X16459786Y53177539D01*
X16478091Y53340000D01*
X16459786Y53502461D01*
X16405789Y53656775D01*
X16318808Y53795204D01*
X16203204Y53910808D01*
X16167079Y53933507D01*
X16120789Y53985841D01*
X16110141Y54054894D01*
X16138516Y54118743D01*
X16167080Y54143494D01*
X16203204Y54166192D01*
X16318808Y54281796D01*
X16405789Y54420225D01*
X16459786Y54574539D01*
X16460835Y54583847D01*
X16478091Y54736997D01*
X16478091Y54737004D01*
X16459787Y54899456D01*
X16459786Y54899458D01*
X16459786Y54899461D01*
X16405789Y55053775D01*
X16318808Y55192204D01*
X16203204Y55307808D01*
X16151826Y55340091D01*
X16064774Y55394790D01*
X15910455Y55448788D01*
X15748004Y55467091D01*
X15747996Y55467091D01*
X15585544Y55448788D01*
X15431225Y55394790D01*
X15292795Y55307808D01*
X15177192Y55192205D01*
X15090210Y55053775D01*
X15036212Y54899456D01*
X15017909Y54737004D01*
X15017909Y54736997D01*
X15036212Y54574545D01*
X15090210Y54420226D01*
X15177192Y54281796D01*
X15292795Y54166193D01*
X15292798Y54166191D01*
X15328920Y54143493D01*
X15375211Y54091158D01*
X15385858Y54022104D01*
X15357482Y53958256D01*
X15328920Y53933507D01*
X15292798Y53910810D01*
X15292795Y53910808D01*
X15177192Y53795205D01*
X15090210Y53656775D01*
X15036212Y53502456D01*
X15017909Y53340004D01*
X15017909Y53339997D01*
X500500Y53339997D01*
X500500Y54499130D01*
X4099500Y54499130D01*
X4099501Y54499124D01*
X4105908Y54439517D01*
X4156202Y54304672D01*
X4156206Y54304665D01*
X4242452Y54189456D01*
X4242455Y54189453D01*
X4357664Y54103207D01*
X4357671Y54103203D01*
X4492517Y54052909D01*
X4492516Y54052909D01*
X4499444Y54052165D01*
X4552127Y54046500D01*
X6447872Y54046501D01*
X6507483Y54052909D01*
X6642331Y54103204D01*
X6757546Y54189454D01*
X6843796Y54304669D01*
X6862092Y54353726D01*
X6903961Y54409658D01*
X6969425Y54434076D01*
X7037699Y54419225D01*
X7054436Y54408245D01*
X7231365Y54270536D01*
X7231371Y54270532D01*
X7231374Y54270530D01*
X7435497Y54160064D01*
X7549487Y54120932D01*
X7655015Y54084703D01*
X7655017Y54084703D01*
X7655019Y54084702D01*
X7883951Y54046500D01*
X7883952Y54046500D01*
X8116048Y54046500D01*
X8116049Y54046500D01*
X8344981Y54084702D01*
X8564503Y54160064D01*
X8768626Y54270530D01*
X8951784Y54413087D01*
X9108979Y54583847D01*
X9235924Y54778151D01*
X9329157Y54990700D01*
X9386134Y55215695D01*
X9394925Y55321788D01*
X9405300Y55446994D01*
X9405300Y55447007D01*
X9386135Y55678298D01*
X9386133Y55678309D01*
X9329157Y55903301D01*
X9235924Y56115849D01*
X9108983Y56310148D01*
X9108980Y56310151D01*
X9108979Y56310153D01*
X8951784Y56480913D01*
X8951779Y56480917D01*
X8951777Y56480919D01*
X8768634Y56623465D01*
X8768628Y56623469D01*
X8564504Y56733936D01*
X8564495Y56733939D01*
X8344984Y56809298D01*
X8154450Y56841092D01*
X8116049Y56847500D01*
X7883951Y56847500D01*
X7845550Y56841092D01*
X7655015Y56809298D01*
X7435504Y56733939D01*
X7435495Y56733936D01*
X7231372Y56623469D01*
X7054436Y56485755D01*
X6989442Y56460113D01*
X6920902Y56473680D01*
X6870577Y56522148D01*
X6862092Y56540277D01*
X6843798Y56589327D01*
X6843793Y56589336D01*
X6757547Y56704545D01*
X6757544Y56704548D01*
X6642335Y56790794D01*
X6642328Y56790798D01*
X6507482Y56841092D01*
X6507483Y56841092D01*
X6447883Y56847499D01*
X6447881Y56847500D01*
X6447873Y56847500D01*
X6447864Y56847500D01*
X4552129Y56847500D01*
X4552123Y56847499D01*
X4492516Y56841092D01*
X4357671Y56790798D01*
X4357664Y56790794D01*
X4242455Y56704548D01*
X4242452Y56704545D01*
X4156206Y56589336D01*
X4156202Y56589329D01*
X4105908Y56454483D01*
X4099501Y56394884D01*
X4099500Y56394865D01*
X4099500Y54499130D01*
X500500Y54499130D01*
X500500Y57791219D01*
X17631500Y57791219D01*
X17631501Y55162782D01*
X17641904Y55030587D01*
X17641905Y55030580D01*
X17696902Y54812322D01*
X17696903Y54812319D01*
X17789991Y54607378D01*
X17789997Y54607368D01*
X17918174Y54422355D01*
X17918178Y54422350D01*
X17918181Y54422346D01*
X18077346Y54263181D01*
X18077350Y54263178D01*
X18077354Y54263175D01*
X18183761Y54189456D01*
X18262374Y54134993D01*
X18467317Y54041904D01*
X18467321Y54041903D01*
X18685579Y53986906D01*
X18685581Y53986906D01*
X18685588Y53986904D01*
X18796972Y53978138D01*
X18817781Y53976500D01*
X18817782Y53976501D01*
X18817783Y53976500D01*
X19634848Y53976501D01*
X20446218Y53976501D01*
X20465505Y53978020D01*
X20578412Y53986904D01*
X20796683Y54041904D01*
X21001626Y54134993D01*
X21186654Y54263181D01*
X21345819Y54422346D01*
X21474007Y54607374D01*
X21567096Y54812317D01*
X21622096Y55030588D01*
X21632500Y55162783D01*
X21632499Y57791216D01*
X21632499Y57791219D01*
X28231500Y57791219D01*
X28231501Y55162782D01*
X28241904Y55030587D01*
X28241905Y55030580D01*
X28296902Y54812322D01*
X28296903Y54812319D01*
X28389991Y54607378D01*
X28389997Y54607368D01*
X28518174Y54422355D01*
X28518178Y54422350D01*
X28518181Y54422346D01*
X28677346Y54263181D01*
X28677350Y54263178D01*
X28677354Y54263175D01*
X28783761Y54189456D01*
X28862374Y54134993D01*
X29067317Y54041904D01*
X29067321Y54041903D01*
X29285579Y53986906D01*
X29285581Y53986906D01*
X29285588Y53986904D01*
X29396973Y53978138D01*
X29417781Y53976500D01*
X29417782Y53976501D01*
X29417783Y53976500D01*
X30227104Y53976501D01*
X31046218Y53976501D01*
X31065505Y53978020D01*
X31178412Y53986904D01*
X31396683Y54041904D01*
X31601626Y54134993D01*
X31786654Y54263181D01*
X31945819Y54422346D01*
X32074007Y54607374D01*
X32075198Y54609997D01*
X34321909Y54609997D01*
X34340212Y54447545D01*
X34394210Y54293226D01*
X34459414Y54189456D01*
X34481192Y54154796D01*
X34596796Y54039192D01*
X34735225Y53952211D01*
X34889539Y53898214D01*
X34889542Y53898214D01*
X34889544Y53898213D01*
X35051996Y53879909D01*
X35052000Y53879909D01*
X35052004Y53879909D01*
X35214455Y53898213D01*
X35214456Y53898214D01*
X35214461Y53898214D01*
X35368775Y53952211D01*
X35507204Y54039192D01*
X35622808Y54154796D01*
X35709789Y54293225D01*
X35763786Y54447539D01*
X35763787Y54447545D01*
X35769599Y54499130D01*
X38899500Y54499130D01*
X38899501Y54499124D01*
X38905908Y54439517D01*
X38956202Y54304672D01*
X38956206Y54304665D01*
X39042452Y54189456D01*
X39042455Y54189453D01*
X39157664Y54103207D01*
X39157671Y54103203D01*
X39292517Y54052909D01*
X39292516Y54052909D01*
X39299444Y54052165D01*
X39352127Y54046500D01*
X41247872Y54046501D01*
X41307483Y54052909D01*
X41442331Y54103204D01*
X41557546Y54189454D01*
X41643796Y54304669D01*
X41662092Y54353726D01*
X41703961Y54409658D01*
X41769425Y54434076D01*
X41837699Y54419225D01*
X41854436Y54408245D01*
X42031365Y54270536D01*
X42031371Y54270532D01*
X42031374Y54270530D01*
X42235497Y54160064D01*
X42349487Y54120932D01*
X42455015Y54084703D01*
X42455017Y54084703D01*
X42455019Y54084702D01*
X42683951Y54046500D01*
X42683952Y54046500D01*
X42916048Y54046500D01*
X42916049Y54046500D01*
X43144981Y54084702D01*
X43364503Y54160064D01*
X43568626Y54270530D01*
X43751784Y54413087D01*
X43908979Y54583847D01*
X44035924Y54778151D01*
X44129157Y54990700D01*
X44186134Y55215695D01*
X44194925Y55321788D01*
X44205300Y55446994D01*
X44205300Y55447007D01*
X44186135Y55678298D01*
X44186133Y55678309D01*
X44129157Y55903301D01*
X44035924Y56115849D01*
X43908983Y56310148D01*
X43908980Y56310151D01*
X43908979Y56310153D01*
X43751784Y56480913D01*
X43751779Y56480917D01*
X43751777Y56480919D01*
X43568634Y56623465D01*
X43568628Y56623469D01*
X43364504Y56733936D01*
X43364495Y56733939D01*
X43144984Y56809298D01*
X42954450Y56841092D01*
X42916049Y56847500D01*
X42683951Y56847500D01*
X42645550Y56841092D01*
X42455015Y56809298D01*
X42235504Y56733939D01*
X42235495Y56733936D01*
X42031372Y56623469D01*
X41854436Y56485755D01*
X41789442Y56460113D01*
X41720902Y56473680D01*
X41670577Y56522148D01*
X41662092Y56540277D01*
X41643798Y56589327D01*
X41643793Y56589336D01*
X41557547Y56704545D01*
X41557544Y56704548D01*
X41442335Y56790794D01*
X41442328Y56790798D01*
X41307482Y56841092D01*
X41307483Y56841092D01*
X41247883Y56847499D01*
X41247881Y56847500D01*
X41247873Y56847500D01*
X41247864Y56847500D01*
X39352129Y56847500D01*
X39352123Y56847499D01*
X39292516Y56841092D01*
X39157671Y56790798D01*
X39157664Y56790794D01*
X39042455Y56704548D01*
X39042452Y56704545D01*
X38956206Y56589336D01*
X38956202Y56589329D01*
X38905908Y56454483D01*
X38899501Y56394884D01*
X38899500Y56394865D01*
X38899500Y54499130D01*
X35769599Y54499130D01*
X35782091Y54609997D01*
X35782091Y54610004D01*
X35763787Y54772456D01*
X35763786Y54772458D01*
X35763786Y54772461D01*
X35709789Y54926775D01*
X35622808Y55065204D01*
X35507204Y55180808D01*
X35368774Y55267790D01*
X35214455Y55321788D01*
X35052004Y55340091D01*
X35051996Y55340091D01*
X34889544Y55321788D01*
X34735225Y55267790D01*
X34596795Y55180808D01*
X34481192Y55065205D01*
X34394210Y54926775D01*
X34340212Y54772456D01*
X34321909Y54610004D01*
X34321909Y54609997D01*
X32075198Y54609997D01*
X32167096Y54812317D01*
X32222096Y55030588D01*
X32232500Y55162783D01*
X32232499Y57791216D01*
X32222096Y57923412D01*
X32167096Y58141683D01*
X32074007Y58346626D01*
X31945819Y58531654D01*
X31786654Y58690819D01*
X31786650Y58690822D01*
X31786645Y58690826D01*
X31601632Y58819003D01*
X31601630Y58819005D01*
X31601626Y58819007D01*
X31396683Y58912096D01*
X31396681Y58912097D01*
X31396678Y58912098D01*
X31178420Y58967095D01*
X31178413Y58967096D01*
X31046219Y58977500D01*
X31046217Y58977500D01*
X30235296Y58977500D01*
X29417782Y58977499D01*
X29285586Y58967096D01*
X29285579Y58967095D01*
X29067321Y58912098D01*
X29067318Y58912097D01*
X28862377Y58819009D01*
X28862367Y58819003D01*
X28677354Y58690826D01*
X28677342Y58690816D01*
X28518184Y58531658D01*
X28518174Y58531646D01*
X28389997Y58346633D01*
X28389991Y58346623D01*
X28296903Y58141682D01*
X28296902Y58141679D01*
X28241905Y57923421D01*
X28241904Y57923414D01*
X28231500Y57791219D01*
X21632499Y57791219D01*
X21622096Y57923412D01*
X21567096Y58141683D01*
X21474007Y58346626D01*
X21345819Y58531654D01*
X21186654Y58690819D01*
X21186650Y58690822D01*
X21186645Y58690826D01*
X21001632Y58819003D01*
X21001630Y58819005D01*
X21001626Y58819007D01*
X20796683Y58912096D01*
X20796681Y58912097D01*
X20796678Y58912098D01*
X20578420Y58967095D01*
X20578413Y58967096D01*
X20446219Y58977500D01*
X20446217Y58977500D01*
X19634848Y58977500D01*
X18817782Y58977499D01*
X18685586Y58967096D01*
X18685579Y58967095D01*
X18467321Y58912098D01*
X18467318Y58912097D01*
X18262377Y58819009D01*
X18262367Y58819003D01*
X18077354Y58690826D01*
X18077342Y58690816D01*
X17918184Y58531658D01*
X17918174Y58531646D01*
X17789997Y58346633D01*
X17789991Y58346623D01*
X17696903Y58141682D01*
X17696902Y58141679D01*
X17641905Y57923421D01*
X17641904Y57923414D01*
X17631500Y57791219D01*
X500500Y57791219D01*
X500500Y60832035D01*
X520185Y60899074D01*
X572989Y60944829D01*
X642147Y60954773D01*
X705703Y60925748D01*
X743477Y60866970D01*
X744741Y60862333D01*
X764902Y60782322D01*
X764903Y60782319D01*
X857991Y60577378D01*
X857997Y60577368D01*
X986174Y60392355D01*
X986178Y60392350D01*
X986181Y60392346D01*
X1145346Y60233181D01*
X1145350Y60233178D01*
X1145354Y60233175D01*
X1284603Y60136703D01*
X1330374Y60104993D01*
X1535317Y60011904D01*
X1535321Y60011903D01*
X1753579Y59956906D01*
X1753581Y59956906D01*
X1753588Y59956904D01*
X1864972Y59948138D01*
X1885781Y59946500D01*
X1885782Y59946501D01*
X1885783Y59946500D01*
X2701984Y59946501D01*
X3514218Y59946501D01*
X3533505Y59948020D01*
X3646412Y59956904D01*
X3864683Y60011904D01*
X4069626Y60104993D01*
X4254654Y60233181D01*
X4413819Y60392346D01*
X4542007Y60577374D01*
X4635096Y60782317D01*
X4690096Y61000588D01*
X4700500Y61132783D01*
X4700499Y63761216D01*
X4700499Y63761219D01*
X11299500Y63761219D01*
X11299501Y61132782D01*
X11309904Y61000587D01*
X11309905Y61000580D01*
X11364902Y60782322D01*
X11364903Y60782319D01*
X11457991Y60577378D01*
X11457997Y60577368D01*
X11586174Y60392355D01*
X11586178Y60392350D01*
X11586181Y60392346D01*
X11745346Y60233181D01*
X11745350Y60233178D01*
X11745354Y60233175D01*
X11884603Y60136703D01*
X11930374Y60104993D01*
X12135317Y60011904D01*
X12135321Y60011903D01*
X12353579Y59956906D01*
X12353581Y59956906D01*
X12353588Y59956904D01*
X12464973Y59948138D01*
X12485781Y59946500D01*
X12485782Y59946501D01*
X12485783Y59946500D01*
X13294240Y59946501D01*
X14114218Y59946501D01*
X14133505Y59948020D01*
X14246412Y59956904D01*
X14464683Y60011904D01*
X14669626Y60104993D01*
X14854654Y60233181D01*
X15013819Y60392346D01*
X15142007Y60577374D01*
X15235096Y60782317D01*
X15290096Y61000588D01*
X15300500Y61132783D01*
X15300499Y63499997D01*
X16541909Y63499997D01*
X16560212Y63337545D01*
X16614210Y63183226D01*
X16663571Y63104669D01*
X16701192Y63044796D01*
X16816796Y62929192D01*
X16955225Y62842211D01*
X17109539Y62788214D01*
X17109542Y62788214D01*
X17109544Y62788213D01*
X17271996Y62769909D01*
X17272000Y62769909D01*
X17272004Y62769909D01*
X17434455Y62788213D01*
X17434456Y62788214D01*
X17434461Y62788214D01*
X17588775Y62842211D01*
X17727204Y62929192D01*
X17842808Y63044796D01*
X17929789Y63183225D01*
X17970346Y63299130D01*
X21099500Y63299130D01*
X21099501Y63299124D01*
X21105908Y63239517D01*
X21156202Y63104672D01*
X21156206Y63104665D01*
X21242452Y62989456D01*
X21242455Y62989453D01*
X21357664Y62903207D01*
X21357671Y62903203D01*
X21492517Y62852909D01*
X21492516Y62852909D01*
X21499444Y62852165D01*
X21552127Y62846500D01*
X23447872Y62846501D01*
X23507483Y62852909D01*
X23642331Y62903204D01*
X23757546Y62989454D01*
X23843796Y63104669D01*
X23862092Y63153726D01*
X23903961Y63209658D01*
X23969425Y63234076D01*
X24037699Y63219225D01*
X24054436Y63208245D01*
X24231365Y63070536D01*
X24231371Y63070532D01*
X24231374Y63070530D01*
X24435497Y62960064D01*
X24525421Y62929193D01*
X24655015Y62884703D01*
X24655017Y62884703D01*
X24655019Y62884702D01*
X24883951Y62846500D01*
X24883952Y62846500D01*
X25116048Y62846500D01*
X25116049Y62846500D01*
X25344981Y62884702D01*
X25564503Y62960064D01*
X25768626Y63070530D01*
X25951784Y63213087D01*
X26108979Y63383847D01*
X26235924Y63578151D01*
X26316225Y63761219D01*
X35499500Y63761219D01*
X35499501Y61132782D01*
X35509904Y61000587D01*
X35509905Y61000580D01*
X35564902Y60782322D01*
X35564903Y60782319D01*
X35657991Y60577378D01*
X35657997Y60577368D01*
X35786174Y60392355D01*
X35786178Y60392350D01*
X35786181Y60392346D01*
X35945346Y60233181D01*
X35945350Y60233178D01*
X35945354Y60233175D01*
X36084603Y60136703D01*
X36130374Y60104993D01*
X36335317Y60011904D01*
X36335321Y60011903D01*
X36553579Y59956906D01*
X36553581Y59956906D01*
X36553588Y59956904D01*
X36664972Y59948138D01*
X36685781Y59946500D01*
X36685782Y59946501D01*
X36685783Y59946500D01*
X37501600Y59946501D01*
X38314218Y59946501D01*
X38333505Y59948020D01*
X38446412Y59956904D01*
X38664683Y60011904D01*
X38869626Y60104993D01*
X39054654Y60233181D01*
X39213819Y60392346D01*
X39342007Y60577374D01*
X39435096Y60782317D01*
X39490096Y61000588D01*
X39500500Y61132783D01*
X39500499Y63761216D01*
X39490096Y63893412D01*
X39476527Y63947260D01*
X39435097Y64111679D01*
X39435096Y64111682D01*
X39414153Y64157789D01*
X39342007Y64316626D01*
X39230000Y64478298D01*
X39213825Y64501646D01*
X39213822Y64501650D01*
X39213819Y64501654D01*
X39054654Y64660819D01*
X39054650Y64660822D01*
X39054645Y64660826D01*
X38869632Y64789003D01*
X38869630Y64789005D01*
X38869626Y64789007D01*
X38664683Y64882096D01*
X38664681Y64882097D01*
X38664678Y64882098D01*
X38446420Y64937095D01*
X38446413Y64937096D01*
X38314219Y64947500D01*
X38314217Y64947500D01*
X37501600Y64947500D01*
X36685782Y64947499D01*
X36553586Y64937096D01*
X36553579Y64937095D01*
X36335321Y64882098D01*
X36335318Y64882097D01*
X36130377Y64789009D01*
X36130367Y64789003D01*
X35945354Y64660826D01*
X35945342Y64660816D01*
X35786184Y64501658D01*
X35786174Y64501646D01*
X35657997Y64316633D01*
X35657991Y64316623D01*
X35564903Y64111682D01*
X35564902Y64111679D01*
X35509905Y63893421D01*
X35509904Y63893414D01*
X35499500Y63761219D01*
X26316225Y63761219D01*
X26329157Y63790700D01*
X26386134Y64015695D01*
X26386135Y64015703D01*
X26405300Y64246994D01*
X26405300Y64247007D01*
X26386135Y64478298D01*
X26386133Y64478309D01*
X26329157Y64703301D01*
X26235924Y64915849D01*
X26108983Y65110148D01*
X26108980Y65110151D01*
X26108979Y65110153D01*
X25951784Y65280913D01*
X25951779Y65280917D01*
X25951777Y65280919D01*
X25768634Y65423465D01*
X25768628Y65423469D01*
X25564504Y65533936D01*
X25564495Y65533939D01*
X25344984Y65609298D01*
X25154450Y65641092D01*
X25116049Y65647500D01*
X24883951Y65647500D01*
X24845550Y65641092D01*
X24655015Y65609298D01*
X24435504Y65533939D01*
X24435495Y65533936D01*
X24231372Y65423469D01*
X24054436Y65285755D01*
X23989442Y65260113D01*
X23920902Y65273680D01*
X23870577Y65322148D01*
X23862092Y65340277D01*
X23843798Y65389327D01*
X23843793Y65389336D01*
X23757547Y65504545D01*
X23757544Y65504548D01*
X23642335Y65590794D01*
X23642328Y65590798D01*
X23507482Y65641092D01*
X23507483Y65641092D01*
X23447883Y65647499D01*
X23447881Y65647500D01*
X23447873Y65647500D01*
X23447864Y65647500D01*
X21552129Y65647500D01*
X21552123Y65647499D01*
X21492516Y65641092D01*
X21357671Y65590798D01*
X21357664Y65590794D01*
X21242455Y65504548D01*
X21242452Y65504545D01*
X21156206Y65389336D01*
X21156202Y65389329D01*
X21105908Y65254483D01*
X21099501Y65194884D01*
X21099500Y65194865D01*
X21099500Y63299130D01*
X17970346Y63299130D01*
X17983786Y63337539D01*
X17989004Y63383847D01*
X18002091Y63499997D01*
X18002091Y63500004D01*
X17983787Y63662456D01*
X17983786Y63662458D01*
X17983786Y63662461D01*
X17929789Y63816775D01*
X17842808Y63955204D01*
X17727204Y64070808D01*
X17588774Y64157790D01*
X17434455Y64211788D01*
X17272004Y64230091D01*
X17271996Y64230091D01*
X17109544Y64211788D01*
X16955225Y64157790D01*
X16816795Y64070808D01*
X16701192Y63955205D01*
X16614210Y63816775D01*
X16560212Y63662456D01*
X16541909Y63500004D01*
X16541909Y63499997D01*
X15300499Y63499997D01*
X15300499Y63761216D01*
X15290096Y63893412D01*
X15276527Y63947260D01*
X15235097Y64111679D01*
X15235096Y64111682D01*
X15214153Y64157789D01*
X15142007Y64316626D01*
X15030000Y64478298D01*
X15013825Y64501646D01*
X15013822Y64501650D01*
X15013819Y64501654D01*
X14854654Y64660819D01*
X14854650Y64660822D01*
X14854645Y64660826D01*
X14669632Y64789003D01*
X14669630Y64789005D01*
X14669626Y64789007D01*
X14464683Y64882096D01*
X14464681Y64882097D01*
X14464678Y64882098D01*
X14246420Y64937095D01*
X14246413Y64937096D01*
X14114219Y64947500D01*
X14114217Y64947500D01*
X13302432Y64947500D01*
X12485782Y64947499D01*
X12353586Y64937096D01*
X12353579Y64937095D01*
X12135321Y64882098D01*
X12135318Y64882097D01*
X11930377Y64789009D01*
X11930367Y64789003D01*
X11745354Y64660826D01*
X11745342Y64660816D01*
X11586184Y64501658D01*
X11586174Y64501646D01*
X11457997Y64316633D01*
X11457991Y64316623D01*
X11364903Y64111682D01*
X11364902Y64111679D01*
X11309905Y63893421D01*
X11309904Y63893414D01*
X11299500Y63761219D01*
X4700499Y63761219D01*
X4690096Y63893412D01*
X4676527Y63947260D01*
X4635097Y64111679D01*
X4635096Y64111682D01*
X4614153Y64157789D01*
X4542007Y64316626D01*
X4430000Y64478298D01*
X4413825Y64501646D01*
X4413822Y64501650D01*
X4413819Y64501654D01*
X4254654Y64660819D01*
X4254650Y64660822D01*
X4254645Y64660826D01*
X4069632Y64789003D01*
X4069630Y64789005D01*
X4069626Y64789007D01*
X3864683Y64882096D01*
X3864681Y64882097D01*
X3864678Y64882098D01*
X3646420Y64937095D01*
X3646413Y64937096D01*
X3514219Y64947500D01*
X3514217Y64947500D01*
X2701984Y64947500D01*
X1885782Y64947499D01*
X1753586Y64937096D01*
X1753579Y64937095D01*
X1535321Y64882098D01*
X1535318Y64882097D01*
X1330377Y64789009D01*
X1330367Y64789003D01*
X1145354Y64660826D01*
X1145342Y64660816D01*
X986184Y64501658D01*
X986174Y64501646D01*
X857997Y64316633D01*
X857991Y64316623D01*
X764903Y64111682D01*
X744741Y64031667D01*
X709273Y63971470D01*
X646889Y63940004D01*
X577398Y63947260D01*
X522860Y63990935D01*
X500593Y64057161D01*
X500500Y64061966D01*
X500500Y69499130D01*
X4099500Y69499130D01*
X4099501Y69499124D01*
X4105908Y69439517D01*
X4156202Y69304672D01*
X4156206Y69304665D01*
X4242452Y69189456D01*
X4242455Y69189453D01*
X4357664Y69103207D01*
X4357671Y69103203D01*
X4492517Y69052909D01*
X4492516Y69052909D01*
X4499444Y69052165D01*
X4552127Y69046500D01*
X6447872Y69046501D01*
X6507483Y69052909D01*
X6642331Y69103204D01*
X6757546Y69189454D01*
X6843796Y69304669D01*
X6862092Y69353726D01*
X6903961Y69409658D01*
X6969425Y69434076D01*
X7037699Y69419225D01*
X7054436Y69408245D01*
X7231365Y69270536D01*
X7231371Y69270532D01*
X7231374Y69270530D01*
X7435497Y69160064D01*
X7491623Y69140796D01*
X7655015Y69084703D01*
X7655017Y69084703D01*
X7655019Y69084702D01*
X7883951Y69046500D01*
X7883952Y69046500D01*
X8116048Y69046500D01*
X8116049Y69046500D01*
X8344981Y69084702D01*
X8564503Y69160064D01*
X8768626Y69270530D01*
X8779757Y69279193D01*
X8905892Y69377368D01*
X8951784Y69413087D01*
X9108979Y69583847D01*
X9235924Y69778151D01*
X9267439Y69849997D01*
X15017909Y69849997D01*
X15036212Y69687545D01*
X15090210Y69533226D01*
X15111636Y69499127D01*
X15177192Y69394796D01*
X15292796Y69279192D01*
X15431225Y69192211D01*
X15585539Y69138214D01*
X15585542Y69138214D01*
X15585544Y69138213D01*
X15747996Y69119909D01*
X15748000Y69119909D01*
X15748004Y69119909D01*
X15910455Y69138213D01*
X15910456Y69138214D01*
X15910461Y69138214D01*
X16064775Y69192211D01*
X16203204Y69279192D01*
X16318808Y69394796D01*
X16405789Y69533225D01*
X16459786Y69687539D01*
X16459787Y69687545D01*
X16478091Y69849997D01*
X16478091Y69850004D01*
X16459787Y70012456D01*
X16459786Y70012458D01*
X16459786Y70012461D01*
X16405789Y70166775D01*
X16318808Y70305204D01*
X16203204Y70420808D01*
X16064774Y70507790D01*
X15910455Y70561788D01*
X15748004Y70580091D01*
X15747996Y70580091D01*
X15585544Y70561788D01*
X15431225Y70507790D01*
X15292795Y70420808D01*
X15177192Y70305205D01*
X15090210Y70166775D01*
X15036212Y70012456D01*
X15017909Y69850004D01*
X15017909Y69849997D01*
X9267439Y69849997D01*
X9329157Y69990700D01*
X9386134Y70215695D01*
X9386135Y70215703D01*
X9405300Y70446994D01*
X9405300Y70447007D01*
X9386135Y70678298D01*
X9386133Y70678309D01*
X9329157Y70903301D01*
X9235924Y71115849D01*
X9108983Y71310148D01*
X9108980Y71310151D01*
X9108979Y71310153D01*
X8951784Y71480913D01*
X8951779Y71480917D01*
X8951777Y71480919D01*
X8768634Y71623465D01*
X8768628Y71623469D01*
X8564504Y71733936D01*
X8564495Y71733939D01*
X8344984Y71809298D01*
X8154450Y71841092D01*
X8116049Y71847500D01*
X7883951Y71847500D01*
X7845550Y71841092D01*
X7655015Y71809298D01*
X7435504Y71733939D01*
X7435495Y71733936D01*
X7231372Y71623469D01*
X7054436Y71485755D01*
X6989442Y71460113D01*
X6920902Y71473680D01*
X6870577Y71522148D01*
X6862092Y71540277D01*
X6843798Y71589327D01*
X6843793Y71589336D01*
X6757547Y71704545D01*
X6757544Y71704548D01*
X6642335Y71790794D01*
X6642328Y71790798D01*
X6507482Y71841092D01*
X6507483Y71841092D01*
X6447883Y71847499D01*
X6447881Y71847500D01*
X6447873Y71847500D01*
X6447864Y71847500D01*
X4552129Y71847500D01*
X4552123Y71847499D01*
X4492516Y71841092D01*
X4357671Y71790798D01*
X4357664Y71790794D01*
X4242455Y71704548D01*
X4242452Y71704545D01*
X4156206Y71589336D01*
X4156202Y71589329D01*
X4105908Y71454483D01*
X4099501Y71394884D01*
X4099500Y71394865D01*
X4099500Y69499130D01*
X500500Y69499130D01*
X500500Y72561219D01*
X17699500Y72561219D01*
X17699501Y69932782D01*
X17709904Y69800587D01*
X17709905Y69800580D01*
X17764902Y69582322D01*
X17764903Y69582319D01*
X17857991Y69377378D01*
X17857997Y69377368D01*
X17986174Y69192355D01*
X17986178Y69192350D01*
X17986181Y69192346D01*
X18145346Y69033181D01*
X18145350Y69033178D01*
X18145354Y69033175D01*
X18156877Y69025192D01*
X18330374Y68904993D01*
X18535317Y68811904D01*
X18535321Y68811903D01*
X18753579Y68756906D01*
X18753581Y68756906D01*
X18753588Y68756904D01*
X18864973Y68748138D01*
X18885781Y68746500D01*
X18885782Y68746501D01*
X18885783Y68746500D01*
X19700384Y68746501D01*
X20514218Y68746501D01*
X20533505Y68748020D01*
X20646412Y68756904D01*
X20864683Y68811904D01*
X21069626Y68904993D01*
X21254654Y69033181D01*
X21413819Y69192346D01*
X21542007Y69377374D01*
X21635096Y69582317D01*
X21690096Y69800588D01*
X21700500Y69932783D01*
X21700499Y72561216D01*
X21700499Y72561219D01*
X28299500Y72561219D01*
X28299501Y69932782D01*
X28309904Y69800587D01*
X28309905Y69800580D01*
X28364902Y69582322D01*
X28364903Y69582319D01*
X28457991Y69377378D01*
X28457997Y69377368D01*
X28586174Y69192355D01*
X28586178Y69192350D01*
X28586181Y69192346D01*
X28745346Y69033181D01*
X28745350Y69033178D01*
X28745354Y69033175D01*
X28756877Y69025192D01*
X28930374Y68904993D01*
X29135317Y68811904D01*
X29135321Y68811903D01*
X29353579Y68756906D01*
X29353581Y68756906D01*
X29353588Y68756904D01*
X29464972Y68748138D01*
X29485781Y68746500D01*
X29485782Y68746501D01*
X29485783Y68746500D01*
X30300832Y68746501D01*
X31114218Y68746501D01*
X31133505Y68748020D01*
X31246412Y68756904D01*
X31464683Y68811904D01*
X31669626Y68904993D01*
X31854654Y69033181D01*
X32013819Y69192346D01*
X32142007Y69377374D01*
X32235096Y69582317D01*
X32238543Y69595997D01*
X34194909Y69595997D01*
X34213212Y69433545D01*
X34267210Y69279226D01*
X34272673Y69270532D01*
X34354192Y69140796D01*
X34469796Y69025192D01*
X34608225Y68938211D01*
X34762539Y68884214D01*
X34762542Y68884214D01*
X34762544Y68884213D01*
X34924996Y68865909D01*
X34925000Y68865909D01*
X34925004Y68865909D01*
X35087455Y68884213D01*
X35087456Y68884214D01*
X35087461Y68884214D01*
X35241775Y68938211D01*
X35380204Y69025192D01*
X35495808Y69140796D01*
X35582789Y69279225D01*
X35636786Y69433539D01*
X35644176Y69499128D01*
X35644176Y69499130D01*
X38899500Y69499130D01*
X38899501Y69499124D01*
X38905908Y69439517D01*
X38956202Y69304672D01*
X38956206Y69304665D01*
X39042452Y69189456D01*
X39042455Y69189453D01*
X39157664Y69103207D01*
X39157671Y69103203D01*
X39292517Y69052909D01*
X39292516Y69052909D01*
X39299444Y69052165D01*
X39352127Y69046500D01*
X41247872Y69046501D01*
X41307483Y69052909D01*
X41442331Y69103204D01*
X41557546Y69189454D01*
X41643796Y69304669D01*
X41662092Y69353726D01*
X41703961Y69409658D01*
X41769425Y69434076D01*
X41837699Y69419225D01*
X41854436Y69408245D01*
X42031365Y69270536D01*
X42031371Y69270532D01*
X42031374Y69270530D01*
X42235497Y69160064D01*
X42291623Y69140796D01*
X42455015Y69084703D01*
X42455017Y69084703D01*
X42455019Y69084702D01*
X42683951Y69046500D01*
X42683952Y69046500D01*
X42916048Y69046500D01*
X42916049Y69046500D01*
X43144981Y69084702D01*
X43364503Y69160064D01*
X43568626Y69270530D01*
X43579757Y69279193D01*
X43705892Y69377368D01*
X43751784Y69413087D01*
X43908979Y69583847D01*
X44035924Y69778151D01*
X44129157Y69990700D01*
X44186134Y70215695D01*
X44186135Y70215703D01*
X44205300Y70446994D01*
X44205300Y70447007D01*
X44186135Y70678298D01*
X44186133Y70678309D01*
X44129157Y70903301D01*
X44035924Y71115849D01*
X43908983Y71310148D01*
X43908980Y71310151D01*
X43908979Y71310153D01*
X43751784Y71480913D01*
X43751779Y71480917D01*
X43751777Y71480919D01*
X43568634Y71623465D01*
X43568628Y71623469D01*
X43364504Y71733936D01*
X43364495Y71733939D01*
X43144984Y71809298D01*
X42954450Y71841092D01*
X42916049Y71847500D01*
X42683951Y71847500D01*
X42645550Y71841092D01*
X42455015Y71809298D01*
X42235504Y71733939D01*
X42235495Y71733936D01*
X42031372Y71623469D01*
X41854436Y71485755D01*
X41789442Y71460113D01*
X41720902Y71473680D01*
X41670577Y71522148D01*
X41662092Y71540277D01*
X41643798Y71589327D01*
X41643793Y71589336D01*
X41557547Y71704545D01*
X41557544Y71704548D01*
X41442335Y71790794D01*
X41442328Y71790798D01*
X41307482Y71841092D01*
X41307483Y71841092D01*
X41247883Y71847499D01*
X41247881Y71847500D01*
X41247873Y71847500D01*
X41247864Y71847500D01*
X39352129Y71847500D01*
X39352123Y71847499D01*
X39292516Y71841092D01*
X39157671Y71790798D01*
X39157664Y71790794D01*
X39042455Y71704548D01*
X39042452Y71704545D01*
X38956206Y71589336D01*
X38956202Y71589329D01*
X38905908Y71454483D01*
X38899501Y71394884D01*
X38899500Y71394865D01*
X38899500Y69499130D01*
X35644176Y69499130D01*
X35655091Y69595997D01*
X35655091Y69596004D01*
X35636787Y69758456D01*
X35636786Y69758458D01*
X35636786Y69758461D01*
X35582789Y69912775D01*
X35495808Y70051204D01*
X35380204Y70166808D01*
X35302401Y70215695D01*
X35241774Y70253790D01*
X35087455Y70307788D01*
X34925004Y70326091D01*
X34924996Y70326091D01*
X34762544Y70307788D01*
X34608225Y70253790D01*
X34469795Y70166808D01*
X34354192Y70051205D01*
X34267210Y69912775D01*
X34213212Y69758456D01*
X34194909Y69596004D01*
X34194909Y69595997D01*
X32238543Y69595997D01*
X32290096Y69800588D01*
X32300500Y69932783D01*
X32300499Y72561216D01*
X32290096Y72693412D01*
X32235096Y72911683D01*
X32142007Y73116626D01*
X32013819Y73301654D01*
X31854654Y73460819D01*
X31854650Y73460822D01*
X31854645Y73460826D01*
X31669632Y73589003D01*
X31669630Y73589005D01*
X31669626Y73589007D01*
X31464683Y73682096D01*
X31464681Y73682097D01*
X31464678Y73682098D01*
X31246420Y73737095D01*
X31246413Y73737096D01*
X31114219Y73747500D01*
X31114217Y73747500D01*
X30300832Y73747500D01*
X29485782Y73747499D01*
X29353586Y73737096D01*
X29353579Y73737095D01*
X29135321Y73682098D01*
X29135318Y73682097D01*
X28930377Y73589009D01*
X28930367Y73589003D01*
X28745354Y73460826D01*
X28745342Y73460816D01*
X28586184Y73301658D01*
X28586174Y73301646D01*
X28457997Y73116633D01*
X28457991Y73116623D01*
X28364903Y72911682D01*
X28364902Y72911679D01*
X28309905Y72693421D01*
X28309904Y72693414D01*
X28299500Y72561219D01*
X21700499Y72561219D01*
X21690096Y72693412D01*
X21635096Y72911683D01*
X21542007Y73116626D01*
X21413819Y73301654D01*
X21254654Y73460819D01*
X21254650Y73460822D01*
X21254645Y73460826D01*
X21069632Y73589003D01*
X21069630Y73589005D01*
X21069626Y73589007D01*
X20864683Y73682096D01*
X20864681Y73682097D01*
X20864678Y73682098D01*
X20646420Y73737095D01*
X20646413Y73737096D01*
X20514219Y73747500D01*
X20514217Y73747500D01*
X19700384Y73747500D01*
X18885782Y73747499D01*
X18753586Y73737096D01*
X18753579Y73737095D01*
X18535321Y73682098D01*
X18535318Y73682097D01*
X18330377Y73589009D01*
X18330367Y73589003D01*
X18145354Y73460826D01*
X18145342Y73460816D01*
X17986184Y73301658D01*
X17986174Y73301646D01*
X17857997Y73116633D01*
X17857991Y73116623D01*
X17764903Y72911682D01*
X17764902Y72911679D01*
X17709905Y72693421D01*
X17709904Y72693414D01*
X17699500Y72561219D01*
X500500Y72561219D01*
X500500Y75832035D01*
X520185Y75899074D01*
X572989Y75944829D01*
X642147Y75954773D01*
X705703Y75925748D01*
X743477Y75866970D01*
X744741Y75862333D01*
X764902Y75782322D01*
X764903Y75782319D01*
X857991Y75577378D01*
X857997Y75577368D01*
X986174Y75392355D01*
X986178Y75392350D01*
X986181Y75392346D01*
X1145346Y75233181D01*
X1145350Y75233178D01*
X1145354Y75233175D01*
X1284603Y75136703D01*
X1330374Y75104993D01*
X1535317Y75011904D01*
X1535321Y75011903D01*
X1753579Y74956906D01*
X1753581Y74956906D01*
X1753588Y74956904D01*
X1864973Y74948138D01*
X1885781Y74946500D01*
X1885782Y74946501D01*
X1885783Y74946500D01*
X2701984Y74946501D01*
X3514218Y74946501D01*
X3533505Y74948020D01*
X3646412Y74956904D01*
X3864683Y75011904D01*
X4069626Y75104993D01*
X4254654Y75233181D01*
X4413819Y75392346D01*
X4542007Y75577374D01*
X4635096Y75782317D01*
X4690096Y76000588D01*
X4700500Y76132783D01*
X4700499Y78761216D01*
X4700499Y78761219D01*
X11299500Y78761219D01*
X11299501Y76132782D01*
X11309904Y76000587D01*
X11309905Y76000580D01*
X11364902Y75782322D01*
X11364903Y75782319D01*
X11457991Y75577378D01*
X11457997Y75577368D01*
X11586174Y75392355D01*
X11586178Y75392350D01*
X11586181Y75392346D01*
X11745346Y75233181D01*
X11745350Y75233178D01*
X11745354Y75233175D01*
X11884603Y75136703D01*
X11930374Y75104993D01*
X12135317Y75011904D01*
X12135321Y75011903D01*
X12353579Y74956906D01*
X12353581Y74956906D01*
X12353588Y74956904D01*
X12464973Y74948138D01*
X12485781Y74946500D01*
X12485782Y74946501D01*
X12485783Y74946500D01*
X13298336Y74946501D01*
X14114218Y74946501D01*
X14133505Y74948020D01*
X14246412Y74956904D01*
X14464683Y75011904D01*
X14669626Y75104993D01*
X14854654Y75233181D01*
X15013819Y75392346D01*
X15142007Y75577374D01*
X15235096Y75782317D01*
X15290096Y76000588D01*
X15300500Y76132783D01*
X15300499Y78761216D01*
X15290096Y78893412D01*
X15276527Y78947260D01*
X15235097Y79111679D01*
X15235096Y79111682D01*
X15142008Y79316623D01*
X15142007Y79316626D01*
X15013819Y79501654D01*
X14854654Y79660819D01*
X14854650Y79660822D01*
X14854645Y79660826D01*
X14669632Y79789003D01*
X14669630Y79789005D01*
X14669626Y79789007D01*
X14464683Y79882096D01*
X14464681Y79882097D01*
X14464678Y79882098D01*
X14246420Y79937095D01*
X14246413Y79937096D01*
X14114219Y79947500D01*
X14114217Y79947500D01*
X13298336Y79947500D01*
X12485782Y79947499D01*
X12353586Y79937096D01*
X12353579Y79937095D01*
X12135321Y79882098D01*
X12135318Y79882097D01*
X11930377Y79789009D01*
X11930367Y79789003D01*
X11745354Y79660826D01*
X11745342Y79660816D01*
X11586184Y79501658D01*
X11586174Y79501646D01*
X11457997Y79316633D01*
X11457991Y79316623D01*
X11364903Y79111682D01*
X11364902Y79111679D01*
X11309905Y78893421D01*
X11309904Y78893414D01*
X11299500Y78761219D01*
X4700499Y78761219D01*
X4690096Y78893412D01*
X4676527Y78947260D01*
X4635097Y79111679D01*
X4635096Y79111682D01*
X4542008Y79316623D01*
X4542007Y79316626D01*
X4413819Y79501654D01*
X4254654Y79660819D01*
X4254650Y79660822D01*
X4254645Y79660826D01*
X4069632Y79789003D01*
X4069630Y79789005D01*
X4069626Y79789007D01*
X3864683Y79882096D01*
X3864681Y79882097D01*
X3864678Y79882098D01*
X3646420Y79937095D01*
X3646413Y79937096D01*
X3514219Y79947500D01*
X3514217Y79947500D01*
X2701984Y79947500D01*
X1885782Y79947499D01*
X1753586Y79937096D01*
X1753579Y79937095D01*
X1535321Y79882098D01*
X1535318Y79882097D01*
X1330377Y79789009D01*
X1330367Y79789003D01*
X1145354Y79660826D01*
X1145342Y79660816D01*
X986184Y79501658D01*
X986174Y79501646D01*
X857997Y79316633D01*
X857991Y79316623D01*
X764903Y79111682D01*
X744741Y79031667D01*
X709273Y78971470D01*
X646889Y78940004D01*
X577398Y78947260D01*
X522860Y78990935D01*
X500593Y79057161D01*
X500500Y79061966D01*
X500500Y82338374D01*
X18449500Y82338374D01*
X18452295Y82285757D01*
X18452295Y82285756D01*
X18487279Y82104872D01*
X18496755Y82055874D01*
X18545326Y81927168D01*
X18579425Y81836811D01*
X18697929Y81634869D01*
X18697934Y81634862D01*
X18848856Y81455859D01*
X18848858Y81455857D01*
X19027861Y81304935D01*
X19027868Y81304930D01*
X19229810Y81186426D01*
X19448874Y81103755D01*
X19678759Y81059295D01*
X19720194Y81057095D01*
X19731374Y81056500D01*
X19731378Y81056500D01*
X21668626Y81056500D01*
X21678731Y81057038D01*
X21721241Y81059295D01*
X21951126Y81103755D01*
X22170190Y81186426D01*
X22372132Y81304930D01*
X22551142Y81455858D01*
X22702070Y81634868D01*
X22820574Y81836810D01*
X22903245Y82055874D01*
X22903755Y82058515D01*
X22904281Y82059533D01*
X22904683Y82060950D01*
X22904971Y82060869D01*
X22935812Y82120597D01*
X22996343Y82155493D01*
X23066131Y82152124D01*
X23123019Y82111560D01*
X23148946Y82046678D01*
X23149500Y82034970D01*
X23149500Y78509130D01*
X23149501Y78509124D01*
X23155908Y78449517D01*
X23206202Y78314672D01*
X23206206Y78314665D01*
X23292452Y78199456D01*
X23292455Y78199453D01*
X23407664Y78113207D01*
X23407671Y78113203D01*
X23542517Y78062909D01*
X23542516Y78062909D01*
X23549444Y78062165D01*
X23602127Y78056500D01*
X27197872Y78056501D01*
X27257483Y78062909D01*
X27392331Y78113204D01*
X27507546Y78199454D01*
X27593796Y78314669D01*
X27644091Y78449517D01*
X27650500Y78509127D01*
X27650500Y78761219D01*
X35499500Y78761219D01*
X35499501Y76132782D01*
X35509904Y76000587D01*
X35509905Y76000580D01*
X35564902Y75782322D01*
X35564903Y75782319D01*
X35657991Y75577378D01*
X35657997Y75577368D01*
X35786174Y75392355D01*
X35786178Y75392350D01*
X35786181Y75392346D01*
X35945346Y75233181D01*
X35945350Y75233178D01*
X35945354Y75233175D01*
X36084603Y75136703D01*
X36130374Y75104993D01*
X36335317Y75011904D01*
X36335321Y75011903D01*
X36553579Y74956906D01*
X36553581Y74956906D01*
X36553588Y74956904D01*
X36664973Y74948138D01*
X36685781Y74946500D01*
X36685782Y74946501D01*
X36685783Y74946500D01*
X37497504Y74946501D01*
X38314218Y74946501D01*
X38333505Y74948020D01*
X38446412Y74956904D01*
X38664683Y75011904D01*
X38869626Y75104993D01*
X39054654Y75233181D01*
X39213819Y75392346D01*
X39342007Y75577374D01*
X39435096Y75782317D01*
X39490096Y76000588D01*
X39500500Y76132783D01*
X39500499Y78761216D01*
X39490096Y78893412D01*
X39476527Y78947260D01*
X39435097Y79111679D01*
X39435096Y79111682D01*
X39342008Y79316623D01*
X39342007Y79316626D01*
X39213819Y79501654D01*
X39054654Y79660819D01*
X39054650Y79660822D01*
X39054645Y79660826D01*
X38869632Y79789003D01*
X38869630Y79789005D01*
X38869626Y79789007D01*
X38664683Y79882096D01*
X38664681Y79882097D01*
X38664678Y79882098D01*
X38446420Y79937095D01*
X38446413Y79937096D01*
X38314219Y79947500D01*
X38314217Y79947500D01*
X37497504Y79947500D01*
X36685782Y79947499D01*
X36553586Y79937096D01*
X36553579Y79937095D01*
X36335321Y79882098D01*
X36335318Y79882097D01*
X36130377Y79789009D01*
X36130367Y79789003D01*
X35945354Y79660826D01*
X35945342Y79660816D01*
X35786184Y79501658D01*
X35786174Y79501646D01*
X35657997Y79316633D01*
X35657991Y79316623D01*
X35564903Y79111682D01*
X35564902Y79111679D01*
X35509905Y78893421D01*
X35509904Y78893414D01*
X35499500Y78761219D01*
X27650500Y78761219D01*
X27650499Y82104872D01*
X27644091Y82164483D01*
X27632288Y82196128D01*
X27593797Y82299329D01*
X27593793Y82299336D01*
X27507547Y82414545D01*
X27507544Y82414548D01*
X27392335Y82500794D01*
X27392328Y82500798D01*
X27257482Y82551092D01*
X27257483Y82551092D01*
X27197883Y82557499D01*
X27197881Y82557500D01*
X27197873Y82557500D01*
X27197864Y82557500D01*
X23602129Y82557500D01*
X23602123Y82557499D01*
X23542516Y82551092D01*
X23407671Y82500798D01*
X23407664Y82500794D01*
X23292455Y82414548D01*
X23292452Y82414545D01*
X23206206Y82299336D01*
X23206203Y82299331D01*
X23188573Y82252061D01*
X23146701Y82196128D01*
X23081237Y82171711D01*
X23012964Y82186563D01*
X22963559Y82235968D01*
X22948566Y82301975D01*
X22950500Y82338374D01*
X22950500Y84275626D01*
X22949935Y84286242D01*
X22947705Y84328241D01*
X22903245Y84558126D01*
X22820574Y84777190D01*
X22702070Y84979132D01*
X22702065Y84979139D01*
X22551143Y85158142D01*
X22551141Y85158144D01*
X22372138Y85309066D01*
X22372131Y85309071D01*
X22170189Y85427575D01*
X22079832Y85461674D01*
X21951126Y85510245D01*
X21951121Y85510246D01*
X21721244Y85554705D01*
X21668626Y85557500D01*
X21668622Y85557500D01*
X19731378Y85557500D01*
X19731374Y85557500D01*
X19678756Y85554705D01*
X19678755Y85554705D01*
X19448878Y85510246D01*
X19448876Y85510246D01*
X19448874Y85510245D01*
X19374933Y85482342D01*
X19229810Y85427575D01*
X19027868Y85309071D01*
X19027861Y85309066D01*
X18848858Y85158144D01*
X18848856Y85158142D01*
X18697934Y84979139D01*
X18697929Y84979132D01*
X18579425Y84777190D01*
X18524659Y84632067D01*
X18496755Y84558126D01*
X18496754Y84558124D01*
X18496754Y84558122D01*
X18452295Y84328245D01*
X18452295Y84328244D01*
X18449500Y84275626D01*
X18449500Y82338374D01*
X500500Y82338374D01*
X500500Y86304964D01*
X500567Y86307000D01*
X1184341Y86307000D01*
X1204936Y86071597D01*
X1204938Y86071587D01*
X1266094Y85843345D01*
X1266096Y85843341D01*
X1266097Y85843337D01*
X1316030Y85736255D01*
X1365964Y85629172D01*
X1365965Y85629170D01*
X1501505Y85435598D01*
X1668597Y85268506D01*
X1862169Y85132966D01*
X1862171Y85132965D01*
X2076337Y85033097D01*
X2304592Y84971937D01*
X2481034Y84956500D01*
X2598966Y84956500D01*
X2775408Y84971937D01*
X3003663Y85033097D01*
X3217829Y85132965D01*
X3411401Y85268505D01*
X3578495Y85435599D01*
X3714035Y85629170D01*
X3813903Y85843337D01*
X3875063Y86071592D01*
X3895659Y86307000D01*
X46904341Y86307000D01*
X46924936Y86071597D01*
X46924938Y86071587D01*
X46986094Y85843345D01*
X46986096Y85843341D01*
X46986097Y85843337D01*
X47036031Y85736254D01*
X47085964Y85629172D01*
X47085965Y85629170D01*
X47221505Y85435598D01*
X47388597Y85268506D01*
X47582169Y85132966D01*
X47582171Y85132965D01*
X47796337Y85033097D01*
X48024592Y84971937D01*
X48201034Y84956500D01*
X48318966Y84956500D01*
X48495408Y84971937D01*
X48723663Y85033097D01*
X48937829Y85132965D01*
X49131401Y85268505D01*
X49298495Y85435599D01*
X49434035Y85629170D01*
X49533903Y85843337D01*
X49595063Y86071592D01*
X49615659Y86307000D01*
X49595063Y86542408D01*
X49533903Y86770663D01*
X49434035Y86984829D01*
X49434034Y86984831D01*
X49298494Y87178403D01*
X49131402Y87345495D01*
X48937830Y87481035D01*
X48937828Y87481036D01*
X48830745Y87530969D01*
X48723663Y87580903D01*
X48723659Y87580904D01*
X48723655Y87580906D01*
X48495413Y87642062D01*
X48495403Y87642064D01*
X48318966Y87657500D01*
X48201034Y87657500D01*
X48024596Y87642064D01*
X48024586Y87642062D01*
X47796344Y87580906D01*
X47796335Y87580902D01*
X47582171Y87481036D01*
X47582169Y87481035D01*
X47388597Y87345495D01*
X47221506Y87178403D01*
X47221501Y87178396D01*
X47085967Y86984835D01*
X47085965Y86984831D01*
X46986098Y86770665D01*
X46986094Y86770656D01*
X46924938Y86542414D01*
X46924936Y86542404D01*
X46904341Y86307001D01*
X46904341Y86307000D01*
X3895659Y86307000D01*
X3875063Y86542408D01*
X3813903Y86770663D01*
X3714035Y86984829D01*
X3714034Y86984831D01*
X3578494Y87178403D01*
X3411402Y87345495D01*
X3217830Y87481035D01*
X3217828Y87481036D01*
X3110745Y87530970D01*
X3003663Y87580903D01*
X3003659Y87580904D01*
X3003655Y87580906D01*
X2775413Y87642062D01*
X2775403Y87642064D01*
X2598966Y87657500D01*
X2481034Y87657500D01*
X2304596Y87642064D01*
X2304586Y87642062D01*
X2076344Y87580906D01*
X2076335Y87580902D01*
X1862171Y87481036D01*
X1862169Y87481035D01*
X1668597Y87345495D01*
X1501506Y87178403D01*
X1501501Y87178396D01*
X1365967Y86984835D01*
X1365965Y86984831D01*
X1266098Y86770665D01*
X1266094Y86770656D01*
X1204938Y86542414D01*
X1204936Y86542404D01*
X1184341Y86307001D01*
X1184341Y86307000D01*
X500567Y86307000D01*
X500633Y86309020D01*
X515929Y86542408D01*
X517682Y86569161D01*
X518739Y86577190D01*
X569200Y86830873D01*
X571301Y86838712D01*
X654446Y87083650D01*
X657538Y87091114D01*
X771947Y87323115D01*
X775995Y87330124D01*
X919704Y87545200D01*
X924633Y87551622D01*
X1095175Y87746088D01*
X1100914Y87751826D01*
X1295378Y87922367D01*
X1301800Y87927296D01*
X1516876Y88071005D01*
X1523885Y88075053D01*
X1755886Y88189462D01*
X1763350Y88192554D01*
X2008291Y88275700D01*
X2016127Y88277800D01*
X2269810Y88328261D01*
X2277839Y88329318D01*
X2362635Y88334876D01*
X2537982Y88346367D01*
X2542038Y88346500D01*
X2605892Y88346500D01*
X48194108Y88346500D01*
X48257962Y88346500D01*
X48262018Y88346367D01*
G37*
%TD.AperFunction*%
%TD*%
M02*
