M48
; DRILL file {KiCad 7.0.7} date Sun Dec 31 15:53:55 2023
; FORMAT={-:-/ absolute / inch / decimal}
; #@! TF.CreationDate,2023-12-31T15:53:55-05:00
; #@! TF.GenerationSoftware,Kicad,Pcbnew,7.0.7
; #@! TF.FileFunction,Plated,1,4,PTH
FMAT,2
INCH
; #@! TA.AperFunction,Plated,PTH,ViaDrill
T1C0.0118
; #@! TA.AperFunction,Plated,PTH,ViaDrill
T2C0.0138
; #@! TA.AperFunction,Plated,PTH,ComponentDrill
T3C0.0197
; #@! TA.AperFunction,Plated,PTH,ComponentDrill
T4C0.0354
; #@! TA.AperFunction,Plated,PTH,ComponentDrill
T5C0.0394
; #@! TA.AperFunction,Plated,PTH,ComponentDrill
T6C0.0433
; #@! TA.AperFunction,Plated,PTH,ComponentDrill
T7C0.0709
%
G90
G05
T1
X0.06Y1.364
X0.095Y0.66
X0.102Y1.364
X0.125Y0.325
X0.142Y1.134
X0.144Y1.192
X0.15Y0.77
X0.18Y1.362
X0.19Y1.184
X0.22Y1.364
X0.22Y0.64
X0.245Y1.025
X0.265Y0.205
X0.276Y1.29
X0.28Y1.37
X0.282Y1.432
X0.282Y1.2
X0.285Y1.025
X0.305Y0.64
X0.33Y1.07
X0.35Y1.285
X0.35Y0.24
X0.36Y0.681
X0.362Y1.36
X0.365Y1.16
X0.37Y1.198
X0.375Y1.255
X0.375Y0.545
X0.385Y1.1
X0.4Y1.28
X0.408Y1.362
X0.41Y1.175
X0.425Y0.83
X0.44Y0.775
X0.44Y0.745
X0.465Y1.135
X0.47Y0.83
X0.48Y1.295
X0.48Y0.945
X0.48Y0.91
X0.48Y0.615
X0.488Y1.36
X0.488Y0.326
X0.49Y0.66
X0.5Y1.185
X0.528Y1.36
X0.54Y1.015
X0.56Y1.14
X0.574Y0.33
X0.585Y1.005
X0.585Y0.955
X0.585Y0.655
X0.61Y0.69
X0.62Y2.75
X0.62Y2.155
X0.62Y2.1
X0.625Y1.405
X0.625Y1.3
X0.625Y1.22
X0.63Y0.875
X0.63Y0.84
X0.635Y0.735
X0.68Y2.5
X0.745Y0.685
X0.76Y0.775
X0.77Y1.95
X0.77Y0.665
X0.78Y0.905
X0.78Y0.615
X0.79Y0.645
X0.79Y0.505
X0.81Y1.585
X0.816Y0.6241
X0.83Y1.495
X0.839Y0.601
X0.84Y1.65
X0.865Y0.905
X0.865Y0.555
X0.87Y1.305
X0.885Y0.945
X0.889Y0.525
X0.945Y0.44
X0.95Y1.57
X0.95Y1.525
X0.97Y0.8
X0.97Y0.69
X0.97Y0.645
X0.9878Y1.5686
X0.995Y0.535
X1.025Y0.69
X1.025Y0.645
X1.03Y1.325
X1.038Y0.538
X1.045Y1.1
X1.045Y0.45
X1.08Y0.535
X1.1Y0.795
X1.135Y0.725
X1.14Y1.77
X1.14Y0.45
X1.15Y0.615
X1.155Y1.635
X1.17Y0.845
X1.19Y1.57
X1.19Y0.4
X1.195Y1.4
X1.195Y1.31
X1.22Y1.1
X1.22Y0.97
X1.24Y1.23
X1.25Y1.785
X1.285Y1.96
X1.285Y1.745
X1.29Y1.63
X1.375Y2.74
X1.38Y2.15
X1.38Y1.56
X1.4Y1.08
X1.43Y0.525
X1.485Y1.655
X1.49Y0.895
X1.49Y0.86
X1.506Y1.191
X1.506Y1.094
X1.508Y1.14
X1.509Y1.272
X1.509Y1.228
X1.53Y1.0
X1.534Y1.094
X1.535Y1.142
X1.535Y0.895
X1.535Y0.86
X1.5457Y0.401
X1.554Y1.272
X1.554Y1.229
X1.555Y1.191
X1.565Y1.66
X1.565Y1.0
X1.585Y1.055
X1.6Y1.0
X1.625Y0.4446
X1.635Y1.0
X1.64Y1.33
X1.64Y1.28
X1.64Y1.22
X1.665Y1.07
X1.67Y1.125
X1.67Y0.445
X1.685Y0.485
X1.71Y1.33
X1.715Y1.075
X1.72Y0.57
X1.78Y1.33
X1.84Y1.33
X1.92Y1.33
X1.92Y1.23
T2
X1.555Y0.51
T3
X0.1Y0.71
X0.1Y0.56
X0.1Y0.41
X0.751Y1.775
X0.751Y1.7356
X1.9Y0.71
X1.9Y0.56
X1.9Y0.41
T4
X0.9498Y1.74
X1.0498Y1.74
T5
X0.2165Y2.7735
X0.2165Y2.183
X0.2165Y1.5924
X0.315Y2.7735
X0.315Y2.183
X0.315Y1.5924
X0.4134Y2.7735
X0.4134Y2.183
X0.4134Y1.5924
X0.8831Y1.9479
X0.8858Y2.5294
X0.9816Y1.9479
X0.9843Y2.5294
X1.08Y1.9479
X1.0827Y2.5294
X1.5866Y2.7735
X1.5866Y2.183
X1.5866Y1.5924
X1.685Y2.7735
X1.685Y2.183
X1.685Y1.5924
X1.7835Y2.7735
X1.7835Y2.183
X1.7835Y1.5924
T6
X0.7Y1.55
X0.7Y1.45
X0.7Y1.35
X0.7Y1.25
X0.7Y1.15
X0.7Y1.05
X0.7Y0.95
X0.7Y0.85
X0.7Y0.75
X0.7Y0.65
X0.7Y0.55
X0.7Y0.45
X0.7Y0.35
X0.7Y0.25
X1.3Y1.55
X1.3Y1.45
X1.3Y1.35
X1.3Y1.25
X1.3Y1.15
X1.3Y1.05
X1.3Y0.95
X1.3Y0.85
X1.3Y0.75
X1.3Y0.65
X1.3Y0.55
X1.3Y0.45
X1.3Y0.35
X1.3Y0.25
T5
G00X0.815Y3.3192
M15
G01X0.815Y3.2404
M16
G05
G00X1.0394Y3.3979
M15
G01X0.9606Y3.3979
M16
G05
G00X1.0394Y3.1617
M15
G01X0.9606Y3.1617
M16
G05
T7
G00X0.1063Y3.0432
M15
G01X0.1063Y3.055
M16
G05
G00X0.1063Y2.4526
M15
G01X0.1063Y2.4644
M16
G05
G00X0.1063Y1.8621
M15
G01X0.1063Y1.8739
M16
G05
G00X0.5236Y3.0432
M15
G01X0.5236Y3.055
M16
G05
G00X0.5236Y2.4526
M15
G01X0.5236Y2.4644
M16
G05
G00X0.5236Y1.8621
M15
G01X0.5236Y1.8739
M16
G05
G00X0.7729Y2.2176
M15
G01X0.7729Y2.2294
M16
G05
G00X0.7756Y2.7991
M15
G01X0.7756Y2.8109
M16
G05
G00X1.1902Y2.2176
M15
G01X1.1902Y2.2294
M16
G05
G00X1.1929Y2.7991
M15
G01X1.1929Y2.8109
M16
G05
G00X1.4764Y3.0432
M15
G01X1.4764Y3.055
M16
G05
G00X1.4764Y2.4526
M15
G01X1.4764Y2.4644
M16
G05
G00X1.4764Y1.8621
M15
G01X1.4764Y1.8739
M16
G05
G00X1.8937Y3.0432
M15
G01X1.8937Y3.055
M16
G05
G00X1.8937Y2.4526
M15
G01X1.8937Y2.4644
M16
G05
G00X1.8937Y1.8621
M15
G01X1.8937Y1.8739
M16
G05
T0
M30
